<svg width="160" height="40" viewBox="0 0 160 40" fill="none" xmlns="http://www.w3.org/2000/svg">
<g clip-path="url(#clip0_1960_24922)">
<path d="M65.4747 23.0583H51.2937C51.9232 25.4193 53.6892 26.5561 56.5394 26.5561C57.3408 26.6082 58.1428 26.4652 58.8768 26.1392C59.6107 25.8133 60.2547 25.3142 60.7535 24.6847L64.6703 26.9408C63.769 28.2531 62.5473 29.313 61.1212 30.0201C59.695 30.7272 58.1118 31.0579 56.5219 30.9808C55.1487 31.0442 53.7769 30.8273 52.4903 30.3432C51.2036 29.8591 50.029 29.118 49.038 28.1651C48.1052 27.2347 47.3726 26.1233 46.8855 24.8991C46.3983 23.675 46.1668 22.364 46.2053 21.047C46.1858 19.7538 46.423 18.4696 46.9033 17.2688C47.3835 16.068 48.0972 14.9744 49.003 14.0514C49.928 13.1004 51.043 12.3551 52.2752 11.8639C53.5075 11.3727 54.8293 11.1467 56.1547 11.2007C57.4277 11.1515 58.696 11.3812 59.871 11.8736C61.0459 12.366 62.0991 13.1093 62.9567 14.0514C64.7628 15.96 65.7377 18.5075 65.667 21.1345C65.6474 21.7794 65.5831 22.4222 65.4747 23.0583ZM51.2237 19.2981H60.806C60.6278 18.2051 60.057 17.2147 59.2007 16.5127C58.3443 15.8108 57.2612 15.4455 56.1547 15.4855C54.9941 15.4374 53.8522 15.7893 52.9199 16.4824C52.0379 17.1895 51.4366 18.1878 51.2237 19.2981Z" fill="#2054D2"/>
<path d="M72.9606 30.4753H68.082V3H72.9606V30.4753Z" fill="#2054D2"/>
<path d="M81.072 30.4753H76.2109V3H81.072V30.4753Z" fill="#2054D2"/>
<path d="M38.9844 11.7289V11.7639V30.4772H43.7405V11.7289H38.9844Z" fill="#2054D2"/>
<path d="M43.6715 21.0998C43.6749 23.048 43.1005 24.9534 42.0209 26.5749C40.9413 28.1964 39.405 29.4612 37.6064 30.2091C35.8079 30.957 33.8279 31.1545 31.9171 30.7766C30.0063 30.3986 28.2505 29.4622 26.872 28.0859C25.4935 26.7095 24.5541 24.9551 24.1729 23.0447C23.7916 21.1342 23.9855 19.1535 24.7301 17.3533C25.4747 15.5531 26.7365 14.0143 28.3558 12.9316C29.9751 11.8489 31.8791 11.2709 33.8269 11.2709C36.4349 11.2709 38.9362 12.3059 40.7819 14.1487C42.6276 15.9914 43.6669 18.4914 43.6715 21.0998ZM28.791 21.0998C28.791 22.096 29.0864 23.0698 29.6397 23.8981C30.1931 24.7264 30.9796 25.372 31.8998 25.7532C32.82 26.1345 33.8325 26.2342 34.8094 26.0399C35.7863 25.8455 36.6836 25.3658 37.3879 24.6614C38.0922 23.957 38.5718 23.0595 38.7661 22.0824C38.9604 21.1054 38.8607 20.0926 38.4795 19.1723C38.0984 18.2519 37.4529 17.4653 36.6248 16.9118C35.7966 16.3583 34.823 16.0629 33.8269 16.0629C32.4913 16.0629 31.2104 16.5936 30.266 17.5382C29.3216 18.4828 28.791 19.7639 28.791 21.0998Z" fill="#D8A28F"/>
<path d="M98.5781 11.7289V11.7639V30.4772H103.334V11.7289H98.5781Z" fill="#2054D2"/>
<path d="M103.263 21.0998C103.267 23.048 102.692 24.9534 101.613 26.5749C100.533 28.1964 98.9968 29.4612 97.1982 30.2091C95.3997 30.957 93.4197 31.1545 91.5089 30.7766C89.5981 30.3986 87.8423 29.4622 86.4638 28.0859C85.0853 26.7095 84.1459 24.9551 83.7647 23.0447C83.3834 21.1342 83.5773 19.1535 84.3219 17.3533C85.0665 15.5531 86.3283 14.0143 87.9476 12.9316C89.5669 11.8489 91.4709 11.2709 93.4187 11.2709C96.0267 11.2709 98.528 12.3059 100.374 14.1487C102.219 15.9914 103.259 18.4914 103.263 21.0998ZM88.3828 21.0998C88.3828 22.096 88.6782 23.0698 89.2315 23.8981C89.7849 24.7264 90.5714 25.372 91.4916 25.7532C92.4118 26.1345 93.4243 26.2342 94.4012 26.0399C95.3781 25.8455 96.2754 25.3658 96.9797 24.6614C97.684 23.957 98.1636 23.0595 98.3579 22.0824C98.5522 21.1054 98.4525 20.0926 98.0713 19.1723C97.6902 18.2519 97.0447 17.4653 96.2166 16.9118C95.3884 16.3583 94.4148 16.0629 93.4187 16.0629C92.0846 16.0675 90.8063 16.5997 89.8629 17.5433C88.9195 18.4869 88.3874 19.7654 88.3828 21.0998Z" fill="#D8A28F"/>
</g>
<defs>
<clipPath id="clip0_1960_24922">
<rect width="79.3333" height="28" fill="white" transform="translate(24 3)"/>
</clipPath>
</defs>
</svg>
