<svg width="160" height="40" viewBox="0 0 160 40" fill="none" xmlns="http://www.w3.org/2000/svg">
<g clip-path="url(#clip0_2301_28222)">
<path d="M49.2698 36H22.7231C21.223 36 20 34.7768 20 33.2763V6.72375C20 5.22324 21.223 4 22.7231 4H49.2698C50.7699 4 51.9929 5.22324 51.9929 6.72375V33.2763C51.9929 34.7768 50.7699 36 49.2698 36Z" fill="#FEB519"/>
<path d="M24.7915 18.4998C23.4217 18.3041 23.4543 18.3041 23.1445 17.0156C22.9815 16.298 23.2913 16.0533 23.9272 16.0533C24.661 16.0533 25.3948 16.037 26.1286 16.0696C26.5199 16.086 26.7156 15.9555 26.846 15.5967C27.0743 14.9606 27.3352 14.3408 27.6124 13.721C28.4604 11.9432 29.879 10.7363 31.8521 10.5895C34.5752 10.3775 37.331 10.3123 40.0541 10.6385C41.6847 10.8342 42.8914 11.7965 43.8209 13.3133C42.4022 13.1665 41.1629 13.297 39.9237 13.6884C39.5975 13.7863 39.2225 13.6884 38.8801 13.6884C36.8418 13.6884 34.8035 13.7047 32.7815 13.6884C31.6401 13.6721 30.8737 14.2103 30.4334 15.2215C30.1562 15.8413 29.9605 16.4774 29.667 17.0972C29.4387 17.5865 29.6507 17.6354 30.0747 17.6354C31.7705 17.6191 33.4827 17.6354 35.2764 17.6354C33.9556 20.669 34.086 23.5233 35.9286 26.2307C35.7493 26.4917 35.521 26.3775 35.3253 26.3775C33.5642 26.3938 31.8031 26.3938 30.0421 26.3775C29.5855 26.3775 29.3898 26.508 29.455 26.981C29.7322 29.3948 28.5908 29.6558 26.7482 29.5905C25.248 29.5253 24.7099 29.0197 24.6936 27.5192C24.6936 26.3938 24.4979 25.35 24.1718 24.2409C23.5685 22.349 23.438 20.2776 24.7915 18.4998Z" fill="#30345E"/>
<path d="M42.8103 27.6815C39.4186 27.6652 36.7607 24.8925 36.7933 21.4348C36.8259 18.2707 39.6306 15.6122 42.9081 15.6448C46.2509 15.6774 48.9088 18.4012 48.8762 21.7447C48.8436 25.0067 46.1041 27.6978 42.8103 27.6815Z" fill="#30345E"/>
<path d="M28.5092 23.2128C26.9274 23.2291 26.2426 22.6909 26.2915 21.5329C26.3404 20.4075 27.3514 19.7551 28.4113 20.1792C29.1777 20.489 29.7158 21.0436 30.0746 21.7612C30.4822 22.5767 30.2213 23.0497 29.3082 23.1476C28.9983 23.1802 28.7048 23.1965 28.5092 23.2128Z" fill="#FEB519"/>
<path d="M46.3008 17.7012C46.3823 18.4188 46.0073 18.7613 45.6975 19.1038C43.7244 21.3872 42.6808 23.165 41.7024 26.0029C41.0176 25.4973 40.5284 24.8286 39.9413 24.2577C39.7783 24.111 39.6478 23.9479 39.5011 23.7848C38.7836 23.0345 38.8488 22.4473 39.6968 21.795C39.925 21.6155 40.0229 21.746 40.1533 21.8765C40.5447 22.2843 40.9523 22.692 41.3111 23.1324C41.6372 23.5401 41.8003 23.4749 42.0286 23.0345C42.8765 21.3383 43.9364 19.7725 45.3713 18.484C45.6159 18.2394 45.9094 18.0111 46.3008 17.7012Z" fill="#FDB519"/>
<path d="M91.1953 17.1141V16.7227C91.2116 16.8694 91.2116 16.9999 91.1953 17.1141Z" fill="#30345E"/>
<path d="M115.394 23.7519C115.589 24.1922 115.736 24.5347 115.883 24.8772C116.307 25.9048 116.323 25.9374 115.296 26.443C113.388 27.389 111.382 27.5358 109.377 26.8018C107.012 25.9374 105.692 23.3604 106.018 20.5877C106.67 14.863 112.654 14.3574 115.785 16.3309C116.307 16.6571 116.193 16.9833 115.997 17.4073C115.801 17.8151 115.72 18.4022 115.41 18.6142C115.084 18.81 114.709 18.2554 114.318 18.0923C113.616 17.7988 112.899 17.5704 112.116 17.603C110.551 17.6683 109.556 18.4838 109.181 20.0169C108.953 20.9629 108.985 21.8925 109.246 22.8222C109.703 24.4532 111.366 25.285 113.225 24.8446C113.991 24.6489 114.693 24.3064 115.394 23.7519Z" fill="#30345E"/>
<path d="M104.17 21.2718C104.17 24.9252 101.822 27.3065 98.2837 27.2575C94.6637 27.2086 92.4135 24.8926 92.4298 21.2392C92.4461 17.6184 94.7779 15.2861 98.3653 15.3187C101.92 15.3187 104.17 17.6347 104.17 21.2718ZM95.6747 23.1964C96.115 24.3544 97.0118 24.9578 98.3163 24.9415C99.6371 24.9252 100.485 24.3544 100.925 23.1474C101.349 21.9405 101.349 20.701 100.991 19.494C100.583 18.1566 99.6208 17.5205 98.1696 17.5532C96.8651 17.5858 95.8704 18.4013 95.5606 19.6897C95.4464 20.179 95.4138 20.701 95.3649 20.9945C95.3649 21.8916 95.4301 22.5603 95.6747 23.1964Z" fill="#30345E"/>
<path d="M138.123 21.8425C137.014 21.8425 135.889 21.8588 134.78 21.8262C134.274 21.8099 134.193 21.9893 134.274 22.4459C134.486 23.8323 135.399 24.7293 136.785 24.925C138.106 25.1045 139.329 24.8598 140.438 24.1259C140.944 23.7997 141.09 23.9301 141.286 24.4031C141.922 25.9199 141.889 26.0341 140.357 26.6539C138.905 27.2247 137.405 27.3878 135.889 27.1106C133.165 26.6213 131.551 24.713 131.307 21.7935C131.046 18.5479 132.823 16.0035 135.774 15.3838C138.987 14.7151 141.677 16.6885 141.971 19.9342C142.15 21.8262 142.15 21.8262 140.259 21.8262C139.541 21.8425 138.824 21.8425 138.123 21.8425ZM138.97 20.293C139.492 20.3257 139.541 20.081 139.476 19.6733C139.248 18.1891 138.318 17.3573 136.932 17.3736C135.53 17.3899 134.437 18.4174 134.274 19.82C134.225 20.1952 134.339 20.293 134.682 20.293C135.416 20.2767 136.133 20.293 136.867 20.293C137.568 20.2767 138.269 20.2441 138.97 20.293Z" fill="#30345E"/>
<path d="M91.2902 24.942V27.1928H89.5781C89.0726 27.1928 88.5834 27.1439 88.0779 27.0134C86.8386 26.7198 85.9581 26.0022 85.5015 24.942C85.371 24.6158 85.2732 24.257 85.208 23.8819C85.0612 22.8381 85.0938 21.7779 85.0775 20.7341C85.0775 20.0817 85.0286 19.4293 85.0938 18.7932C85.1264 18.4344 85.1101 18.1571 84.9797 17.9777H82.9414V15.5312C83.561 15.5312 84.1807 15.5312 84.8166 15.5312H85.1264C85.1264 15.3518 85.1264 15.1724 85.1264 14.993C85.1264 14.2264 85.1264 13.4762 85.1264 12.7096V12.0898H88.0779V13.5577C88.0616 13.6393 88.0616 13.7208 88.0616 13.8024C88.0616 14.1286 88.0779 14.4548 88.0779 14.781V15.5149H88.6975C89.1867 15.5149 89.6759 15.5149 90.1651 15.5149H91.2087V17.9777H88.2899C88.1105 18.1571 88.1105 18.5323 88.1105 19.2499C88.1105 20.3916 88.0942 21.517 88.1105 22.6587C88.1268 23.833 88.4203 24.5343 89.1378 24.8279C89.3498 24.9257 89.5944 24.9584 89.8227 24.9584C89.9531 24.9584 90.0999 24.9584 90.2303 24.9584H91.2902V24.942Z" fill="#30345E"/>
<path d="M67.6794 25.2525C67.6794 23.2137 67.712 21.175 67.6304 19.1362C67.5326 17.016 66.3422 15.7601 64.2387 15.4013C63.7985 15.3197 63.3745 15.2871 62.9342 15.2871C61.7439 15.2871 60.5861 15.5481 59.461 15.9884C58.4011 16.3962 58.0587 16.5104 58.1565 17.0323C58.1728 17.1464 58.2217 17.2932 58.2869 17.4563V17.4726L58.6457 18.6959C58.7761 18.6633 58.8903 18.6306 59.0044 18.5817C59.086 18.5817 59.1838 18.5491 59.3142 18.5002C59.3469 18.4838 59.3958 18.4675 59.4284 18.4512C60.4068 17.9456 61.4177 17.5868 62.5266 17.5705C62.6896 17.5705 62.8527 17.5705 63.0158 17.5868C64.3203 17.701 64.8258 18.2392 64.9236 19.544C64.9562 20.1148 64.8421 20.3432 64.1898 20.3269C62.8038 20.2942 61.4178 20.3432 60.0643 20.702C58.7924 21.0282 57.7978 21.6317 57.5858 23.0506C57.3738 24.5511 57.8793 25.7744 59.1838 26.5899C61.059 27.7805 63.1788 27.438 64.8258 25.6765C64.8584 25.9375 64.891 26.1332 64.9236 26.3126V27.2912H67.712C67.712 27.1444 67.712 26.9976 67.712 26.8508V25.7744C67.6794 25.5787 67.6794 25.4156 67.6794 25.2525ZM62.2494 25.122C61.1242 25.122 60.3578 24.3717 60.4068 23.3279C60.4394 22.7897 60.6677 22.3819 61.1732 22.2025C62.282 21.7784 63.456 21.8274 64.6138 21.8111C64.891 21.8111 64.8747 21.9905 64.891 22.1862C65.0377 23.7519 63.8148 25.122 62.2494 25.122Z" fill="#30345E"/>
<path d="M150.89 21.5988C152.553 23.344 154.168 25.1055 155.961 27.03C154.673 27.03 153.548 27.03 152.439 27.03C152.178 27.03 152.097 26.7854 151.95 26.6386C150.645 25.2686 149.357 23.8822 148.053 22.5122C147.873 22.3165 147.678 22.1534 147.368 21.8598V22.186C147.368 23.4092 147.352 24.5672 147.368 25.7089V25.7742C147.368 26.0677 147.368 26.3613 147.368 26.6712C147.368 26.8343 147.368 26.9811 147.368 27.1279H147.352V15.3848H147.368C147.368 15.5479 147.368 15.6947 147.368 15.8414C147.368 16.135 147.368 16.4449 147.368 16.7385V16.8037C147.352 17.9454 147.368 19.0871 147.368 20.3267V20.6529C147.678 20.3593 147.873 20.1962 148.053 20.0005C149.357 18.6304 150.645 17.2441 151.95 15.8741C152.097 15.7273 152.195 15.4826 152.439 15.4826C153.548 15.4826 154.673 15.4826 155.961 15.4826C154.184 17.4072 152.553 19.1687 150.89 20.9138C150.76 21.0443 150.678 21.1422 150.629 21.2563C150.678 21.3542 150.76 21.4684 150.89 21.5988Z" fill="#30345E"/>
<path d="M147.349 11.0631C147.349 11.2752 147.349 11.4709 147.349 11.6829C147.349 11.6992 147.349 11.6992 147.349 11.7155V27.1121H144.414V25.4811C144.414 21.159 144.43 16.8531 144.414 12.531C144.414 12.0091 144.414 11.4709 144.414 10.949V10.4434H147.349C147.349 10.6554 147.349 10.8674 147.349 11.0631Z" fill="#30345E"/>
<path d="M128.927 24.4856C128.927 24.8607 128.944 25.2358 128.944 25.611V26.6874C128.944 26.8342 128.944 26.981 128.944 27.1278H126.009V26.6874C126.009 25.4968 126.009 24.3225 126.009 23.1319C126.009 22.773 126.009 22.3979 126.009 22.0391C126.009 21.4519 126.009 20.8811 125.992 20.2939C125.96 18.402 125.356 17.6191 123.921 17.6028C122.258 17.5865 121.149 18.6466 121.101 20.3755C121.084 20.93 121.084 21.4683 121.068 22.0228C121.068 22.773 121.068 23.507 121.068 24.2572V24.2899C121.068 24.7302 121.068 25.1543 121.084 25.5947V26.6711C121.084 26.8179 121.084 26.9647 121.084 27.1115H118.149V26.6222C118.149 25.9209 118.149 25.2195 118.149 24.5019C118.149 23.6864 118.149 22.8546 118.149 22.0228C118.149 19.8536 118.149 17.6681 118.149 15.4988C118.149 14.0146 118.149 12.5468 118.133 11.0626V10.4102H121.084V12.3673C121.068 12.4815 121.068 12.5794 121.068 12.6772C121.068 13.1013 121.084 13.5417 121.084 13.982V15.0585C121.084 15.2053 121.084 15.3521 121.084 15.4988C121.084 16.0044 121.084 16.5101 121.084 17.0483C122.046 15.9555 123.106 15.3847 124.394 15.3031C127.15 15.14 128.715 16.3796 128.879 19.1359C128.927 20.0982 128.944 21.0768 128.96 22.0391C128.96 22.1859 128.96 22.3164 128.96 22.4632C128.96 23.0177 128.96 23.5559 128.96 24.1105V24.1268C128.96 24.192 128.96 24.2572 128.96 24.3225C128.927 24.3714 128.927 24.4203 128.927 24.4856Z" fill="#30345E"/>
<path d="M81.2946 25.7413V26.8178C81.2946 26.9645 81.2946 27.1113 81.2946 27.2581H78.3594V26.7688C78.3594 26.3121 78.3594 25.8555 78.3594 25.4151C77.3811 26.8341 76.0929 27.3397 74.5764 27.2581C72.0489 27.1113 70.7281 25.7413 70.6303 23.0339C70.5977 21.9574 70.5977 20.881 70.5977 19.8208C70.5977 19.2173 70.5977 18.6139 70.5977 18.0104C70.5977 17.1949 70.5977 16.3631 70.5977 15.5313H73.5328C73.5328 15.8738 73.5328 16.2163 73.5328 16.5751C73.5654 16.885 73.5654 17.2928 73.5654 17.7984C73.5654 19.4783 73.5328 21.1582 73.6143 22.8218C73.6795 24.1266 74.1524 24.6975 75.0656 24.8932C76.2559 25.1378 77.4137 24.6322 77.9681 23.6047C78.2942 23.0175 78.3431 22.3652 78.3431 21.7128C78.3431 19.935 78.3594 18.1409 78.3268 16.3631C78.3268 16.1674 78.3268 16.0043 78.3758 15.8738V15.5313H81.2783V17.5374C81.2783 17.619 81.262 17.7168 81.262 17.7984C81.262 18.7444 81.262 19.674 81.262 20.62C81.262 21.1419 81.262 21.6638 81.262 22.1857H81.2946C81.2946 22.936 81.2946 23.6699 81.2946 24.4202V24.4528C81.2783 24.8606 81.2783 25.3009 81.2946 25.7413Z" fill="#30345E"/>
</g>
<defs>
<clipPath id="clip0_2301_28222">
<rect width="135.962" height="32" fill="white" transform="translate(20 4)"/>
</clipPath>
</defs>
</svg>
