<svg width="160" height="40" viewBox="0 0 160 40" fill="none" xmlns="http://www.w3.org/2000/svg">
<path d="M42.9917 4.98464C42.9987 4.98464 43.0049 4.98635 43.0104 4.98976C43.0157 4.99318 43.02 4.99803 43.0229 5.00431C43.0258 5.01059 43.0273 5.01786 43.0273 5.02612C43.0273 5.03449 43.0258 5.04188 43.0229 5.04827C43.02 5.05455 43.0157 5.05945 43.0104 5.06298C43.0049 5.0665 42.9987 5.06826 42.9917 5.06826C42.9854 5.06826 42.9799 5.06689 42.9752 5.06413C42.9705 5.06138 42.967 5.05747 42.9646 5.0524V5.06132C42.9646 5.06331 42.964 5.0649 42.9627 5.06611C42.9616 5.06733 42.96 5.06793 42.958 5.06793C42.9559 5.06793 42.9542 5.06733 42.953 5.06611C42.9518 5.0649 42.9512 5.06331 42.9512 5.06132V4.95621C42.9512 4.95434 42.9518 4.9528 42.953 4.95159C42.9542 4.95037 42.9559 4.94977 42.958 4.94977C42.96 4.94977 42.9616 4.95037 42.9627 4.95159C42.964 4.95269 42.9646 4.95423 42.9646 4.95621V5.0005C42.967 4.99544 42.9705 4.99152 42.9752 4.98877C42.9799 4.98602 42.9854 4.98464 42.9917 4.98464ZM42.989 5.05719C42.9968 5.05719 43.0029 5.05449 43.0072 5.04909C43.0115 5.04358 43.0137 5.03593 43.0137 5.02612C43.0137 5.01654 43.0115 5.0091 43.0072 5.00381C43.0029 4.99852 42.9968 4.99588 42.989 4.99588C42.9813 4.99588 42.9752 4.99852 42.9708 5.00381C42.9666 5.0091 42.9646 5.01664 42.9646 5.02645C42.9646 5.03626 42.9666 5.04386 42.9708 5.04926C42.9752 5.05455 42.9813 5.05719 42.989 5.05719ZM43.1097 5.04843C43.1109 5.04843 43.1119 5.04893 43.1128 5.04992C43.1137 5.05091 43.1142 5.05218 43.1142 5.05372C43.1142 5.05647 43.1122 5.05901 43.1084 5.06132C43.1043 5.06364 43.1002 5.0654 43.0958 5.06661C43.0913 5.06771 43.0871 5.06826 43.0829 5.06826C43.0704 5.06826 43.0606 5.06457 43.0534 5.05719C43.0461 5.04981 43.0426 5.03962 43.0426 5.02662C43.0426 5.01835 43.0442 5.01108 43.0474 5.0048C43.0506 4.99841 43.0551 4.99345 43.0607 4.98993C43.0666 4.9864 43.0732 4.98464 43.0806 4.98464C43.091 4.98464 43.0993 4.98805 43.1055 4.99488C43.1117 5.00172 43.1148 5.01097 43.1148 5.02265C43.1148 5.02485 43.1144 5.02645 43.1135 5.02744C43.1126 5.02843 43.1112 5.02893 43.1091 5.02893H43.0559C43.057 5.04788 43.0659 5.05736 43.0829 5.05736C43.0872 5.05736 43.0909 5.0568 43.094 5.0557C43.0971 5.05449 43.1004 5.05289 43.1039 5.05091C43.1068 5.04926 43.1087 5.04843 43.1097 5.04843ZM43.0808 4.99505C43.0737 4.99505 43.068 4.99725 43.0637 5.00166C43.0595 5.00607 43.0571 5.01229 43.0562 5.02034H43.1031C43.1029 5.01218 43.1008 5.00596 43.097 5.00166C43.093 4.99725 43.0877 4.99505 43.0808 4.99505ZM43.175 4.98464C43.1943 4.98464 43.204 4.99527 43.204 5.01654V5.06132C43.204 5.06342 43.2033 5.06507 43.2022 5.06628C43.201 5.06738 43.1994 5.06793 43.1974 5.06793C43.1952 5.06793 43.1936 5.06738 43.1923 5.06628C43.1912 5.06507 43.1905 5.06342 43.1905 5.06132V5.01736C43.1905 5.00987 43.189 5.00442 43.1861 5.001C43.1832 4.99758 43.1786 4.99588 43.1722 4.99588C43.1648 4.99588 43.159 4.99814 43.1545 5.00265C43.1501 5.00717 43.1479 5.01328 43.1479 5.021V5.06132C43.1479 5.06342 43.1473 5.06507 43.1461 5.06628C43.145 5.06738 43.1434 5.06793 43.1413 5.06793C43.1392 5.06793 43.1375 5.06738 43.1363 5.06628C43.1352 5.06507 43.1345 5.06342 43.1345 5.06132V4.99158C43.1345 4.9896 43.1352 4.988 43.1363 4.98679C43.1375 4.98558 43.1392 4.98497 43.1413 4.98497C43.1433 4.98497 43.1448 4.98558 43.1459 4.98679C43.1471 4.988 43.1478 4.98954 43.1478 4.99142V4.99984C43.1504 4.99488 43.1541 4.99114 43.1589 4.98861C43.1635 4.98596 43.169 4.98464 43.175 4.98464ZM43.2656 5.05736C43.2695 5.05769 43.2714 5.05945 43.2714 5.06264C43.2714 5.06452 43.2707 5.06595 43.2693 5.06694C43.268 5.06782 43.2659 5.06815 43.2632 5.06793L43.2587 5.0676C43.2498 5.06694 43.2433 5.0643 43.2392 5.05967C43.235 5.05504 43.2329 5.04805 43.2329 5.03868V4.9972H43.2218C43.22 4.9972 43.2185 4.99676 43.2174 4.99588C43.2163 4.99488 43.2159 4.99362 43.2159 4.99208C43.2159 4.99042 43.2163 4.9891 43.2174 4.98811C43.2185 4.98712 43.22 4.98662 43.2218 4.98662H43.2329V4.96795C43.2329 4.96585 43.2335 4.96426 43.2347 4.96315C43.236 4.96194 43.2376 4.96134 43.2397 4.96134C43.2416 4.96134 43.2432 4.96194 43.2445 4.96315C43.2457 4.96426 43.2463 4.96585 43.2463 4.96795V4.98662H43.2647C43.2664 4.98662 43.2678 4.98712 43.2688 4.98811C43.2699 4.9891 43.2704 4.99042 43.2704 4.99208C43.2704 4.99362 43.2699 4.99488 43.2688 4.99588C43.2678 4.99676 43.2664 4.9972 43.2647 4.9972H43.2463V5.03934C43.2463 5.0454 43.2475 5.04981 43.2499 5.05256C43.2525 5.05521 43.2562 5.0567 43.2611 5.05703L43.2656 5.05736ZM43.318 5.06826C43.3104 5.06826 43.3037 5.06656 43.2978 5.06314C43.2921 5.05972 43.2876 5.05488 43.2844 5.0486C43.2814 5.04221 43.2798 5.03483 43.2798 5.02645C43.2798 5.01808 43.2814 5.01075 43.2844 5.00447C43.2876 4.99808 43.2921 4.99318 43.2978 4.98976C43.3037 4.98635 43.3104 4.98464 43.318 4.98464C43.3256 4.98464 43.3323 4.98635 43.3382 4.98976C43.344 4.99318 43.3485 4.99808 43.3516 5.00447C43.3547 5.01075 43.3563 5.01808 43.3563 5.02645C43.3563 5.03483 43.3547 5.04221 43.3516 5.0486C43.3485 5.05488 43.344 5.05972 43.3382 5.06314C43.3323 5.06656 43.3256 5.06826 43.318 5.06826ZM43.318 5.05719C43.3259 5.05719 43.332 5.0546 43.3361 5.04942C43.3405 5.04414 43.3426 5.03648 43.3426 5.02645C43.3426 5.01664 43.3405 5.0091 43.3361 5.00381C43.3319 4.99841 43.3258 4.99571 43.318 4.99571C43.3102 4.99571 43.3041 4.99841 43.2999 5.00381C43.2955 5.0091 43.2934 5.01664 43.2934 5.02645C43.2934 5.03637 43.2955 5.04397 43.2997 5.04926C43.3039 5.05455 43.3101 5.05719 43.318 5.05719Z" fill="#0047CC"/>
<path d="M51.2016 15.0761C52.2078 15.0761 53.0959 15.3219 53.8662 15.8142C54.6366 16.3061 55.2377 17.0048 55.6702 17.9096C56.1023 18.8143 56.3187 19.8702 56.3187 21.0764C56.3187 22.2666 56.1023 23.3225 55.6702 24.2431C55.2377 25.1638 54.6324 25.878 53.8542 26.3859C53.076 26.8937 52.1917 27.1479 51.2016 27.1479C50.337 27.1479 49.5746 26.9615 48.9141 26.5881C48.2541 26.2151 47.7507 25.6792 47.405 24.9808V25.9333C47.405 26.2825 47.2989 26.5642 47.0866 26.7786C46.8742 26.9929 46.5874 27.1001 46.2258 27.1001C45.8643 27.1001 45.5736 26.9929 45.3535 26.7786C45.1333 26.5642 45.0234 26.2825 45.0234 25.9333V11.2181C45.0234 10.8689 45.1375 10.5909 45.3655 10.3845C45.5936 10.1781 45.8883 10.0751 46.2499 10.0751C46.5956 10.0751 46.8746 10.1744 47.0869 10.3728C47.2993 10.5713 47.4054 10.8371 47.4054 11.1704V17.2661C47.7511 16.5678 48.2541 16.0277 48.9145 15.6471C49.5746 15.2662 50.3375 15.0757 51.202 15.0757L51.2016 15.0761ZM50.6356 25.2433C51.6571 25.2433 52.4553 24.8782 53.0291 24.1481C53.603 23.418 53.8899 22.394 53.8899 21.0764C53.8899 19.7748 53.6067 18.7708 53.0411 18.064C52.4752 17.3578 51.6734 17.0044 50.636 17.0044C49.5983 17.0044 48.8005 17.3615 48.2424 18.0758C47.6845 18.79 47.4054 19.8061 47.4054 21.1237C47.4054 22.4412 47.6845 23.4573 48.2424 24.1716C48.8005 24.8858 49.5983 25.2429 50.636 25.2429L50.6356 25.2433ZM67.9675 24.0531C68.1877 24.0531 68.3684 24.1406 68.5098 24.3151C68.6512 24.4897 68.7221 24.712 68.7221 24.9817C68.7221 25.4422 68.4389 25.8312 67.8734 26.1485C67.3232 26.4663 66.722 26.712 66.0694 26.8865C65.4172 27.0612 64.792 27.1487 64.1945 27.1487C62.3711 27.1487 60.9329 26.6132 59.8793 25.5415C58.8258 24.47 58.2993 23.0056 58.2993 21.1484C58.2993 19.9577 58.531 18.9022 58.995 17.9816C59.4585 17.061 60.1111 16.3467 60.9519 15.8389C61.7931 15.331 62.748 15.077 63.8168 15.077C65.3571 15.077 66.5757 15.5768 67.4717 16.577C68.3677 17.5772 68.8158 18.9265 68.8158 20.625C68.8158 21.2598 68.5327 21.5775 67.9671 21.5775H60.6807C60.8378 24.038 62.0091 25.2681 64.1941 25.2681C64.7759 25.2681 65.2788 25.1885 65.7033 25.0298C66.1279 24.8712 66.5761 24.6648 67.0475 24.4106C67.0948 24.3788 67.2245 24.3114 67.4368 24.2084C67.649 24.1054 67.8261 24.0535 67.9675 24.0535V24.0531ZM63.8645 16.8382C62.9528 16.8382 62.2218 17.1317 61.6717 17.7191C61.1215 18.3065 60.7914 19.1321 60.6811 20.1955H66.7651C66.7178 19.1162 66.4467 18.2868 65.9516 17.7074C65.4566 17.1279 64.7609 16.8382 63.8649 16.8382H63.8645ZM77.6358 15.0761C80.3867 15.0761 81.7624 16.6398 81.7624 19.7668V25.9576C81.7624 26.3227 81.6563 26.6044 81.444 26.8028C81.2317 27.0013 80.9369 27.1005 80.5597 27.1005C80.198 27.1005 79.9111 26.9976 79.6988 26.7912C79.4866 26.5848 79.3805 26.3071 79.3805 25.958V19.8861C79.3805 18.9018 79.1877 18.1797 78.8025 17.7191C78.4174 17.2586 77.8162 17.0287 76.9985 17.0287C76.0395 17.0287 75.2692 17.3302 74.6875 17.9335C74.1058 18.5368 73.8151 19.3465 73.8151 20.3622V25.9576C73.8151 26.3067 73.709 26.5848 73.4967 26.7908C73.2845 26.9972 72.9975 27.1001 72.636 27.1001C72.2744 27.1001 71.9839 26.9972 71.7637 26.7908C71.5435 26.5844 71.4337 26.3067 71.4337 25.9576V16.2664C71.4337 15.9331 71.5477 15.6592 71.7757 15.445C72.0037 15.2306 72.2906 15.1234 72.6365 15.1234C72.9822 15.1234 73.2575 15.2264 73.4619 15.4332C73.6663 15.6396 73.7683 15.9093 73.7683 16.2429V17.2192C74.1456 16.5209 74.6722 15.9892 75.3483 15.6237C76.0242 15.2586 76.7866 15.0761 77.6358 15.0761ZM90.652 25.2672C90.9978 25.299 91.2453 25.3903 91.395 25.5411C91.5443 25.6918 91.6193 25.9023 91.6193 26.172C91.6193 26.4893 91.4975 26.7317 91.2536 26.8979C91.0098 27.0646 90.6525 27.132 90.1807 27.1001L89.5438 27.0524C88.2705 26.9574 87.3194 26.5642 86.6904 25.8739C86.0615 25.1835 85.7472 24.1636 85.7472 22.8142V17.2188H84.3321C83.6406 17.2188 83.2948 16.9094 83.2948 16.2902C83.2948 16.0042 83.3851 15.7782 83.5659 15.6116C83.7467 15.445 84.0021 15.3616 84.3321 15.3616H85.7472V12.9091C85.7472 12.544 85.8533 12.2585 86.0656 12.0521C86.2779 11.8457 86.5648 11.7427 86.9264 11.7427C87.2879 11.7427 87.579 11.8457 87.7991 12.0521C88.0193 12.2585 88.1292 12.544 88.1292 12.9091V15.3616H90.4633C90.7934 15.3616 91.0488 15.445 91.2299 15.6116C91.4107 15.7782 91.5012 16.0046 91.5012 16.2902C91.5012 16.5916 91.4107 16.8219 91.2299 16.9806C91.0493 17.1392 90.7938 17.2188 90.4633 17.2188H88.1292V22.9813C88.1292 23.7274 88.2825 24.2749 88.5889 24.6241C88.8953 24.9733 89.363 25.1718 89.992 25.2195L90.652 25.2672ZM98.3393 27.1483C97.2074 27.1483 96.2132 26.9021 95.3566 26.4102C94.4996 25.9182 93.8395 25.2157 93.3756 24.303C92.9121 23.3903 92.6799 22.3307 92.6799 21.1241C92.6799 19.9016 92.9116 18.834 93.3756 17.9213C93.8391 17.0087 94.4996 16.3061 95.3566 15.8142C96.2132 15.3223 97.2079 15.0761 98.3393 15.0761C99.4712 15.0761 100.465 15.3219 101.322 15.8142C102.179 16.3061 102.839 17.0087 103.303 17.9213C103.767 18.834 103.999 19.9016 103.999 21.1241C103.999 22.3307 103.767 23.3903 103.303 24.303C102.84 25.2157 102.179 25.9182 101.322 26.4102C100.466 26.9021 99.4712 27.1483 98.3393 27.1483ZM98.3393 25.2433C99.3928 25.2433 100.198 24.8941 100.756 24.1959C101.315 23.4975 101.594 22.4734 101.594 21.1241C101.594 19.7907 101.31 18.7708 100.745 18.0645C100.179 17.3582 99.377 17.0048 98.3397 17.0048C97.3024 17.0048 96.5006 17.3582 95.9346 18.0645C95.3686 18.7708 95.0858 19.7907 95.0858 21.1241C95.0858 22.4734 95.3649 23.4971 95.923 24.1959C96.481 24.8941 97.2866 25.2433 98.3397 25.2433H98.3393Z" fill="black"/>
<path fill-rule="evenodd" clip-rule="evenodd" d="M22.4931 35.3781C14.4891 35.3781 8 28.8255 8 20.7432V19.2021H18.1438L18.1177 24.7008C18.1165 25.0358 18.3847 25.3087 18.7159 25.31L24.8481 25.3125V35.185C24.0815 35.3118 23.2945 35.3784 22.4923 35.3784L22.4931 35.3781ZM8 17.9841V6.10834H18.2056L18.1496 17.9841H8ZM19.4071 6.10834H21.9757V6.11881C22.1477 6.11253 22.3202 6.10834 22.4931 6.10834C30.4971 6.10834 36.9861 12.6609 36.9861 20.7432C36.9861 21.8961 36.8535 23.0177 36.6039 24.0941H19.3226L19.4071 6.10834ZM36.2647 25.312C34.7278 30.0388 30.8715 33.703 26.055 34.9321V25.312H36.2647Z" fill="#0047CC"/>
</svg>
