<svg width="160" height="40" viewBox="0 0 160 40" fill="none" xmlns="http://www.w3.org/2000/svg">
<g clip-path="url(#clip0_2484_28389)">
<path d="M41.2701 21.425C42.9057 21.9931 43.6805 23.1639 43.5772 24.8167C43.4566 26.6073 42.4925 27.8297 40.8397 28.2084C40.3404 28.3117 39.8239 28.3806 39.3074 28.3978C37.2413 28.415 35.1753 28.3978 33.1093 28.415C32.6444 28.415 32.4722 28.3117 32.4894 27.8124C32.5067 23.6632 32.5067 19.5139 32.4894 15.3474C32.4894 14.9514 32.5755 14.7964 33.006 14.7964C35.2442 14.8309 37.4824 14.7448 39.7033 14.8481C42.217 14.9514 43.8182 17.3445 43.0262 19.6344C42.7335 20.4608 42.1309 21.0117 41.2701 21.425ZM37.2413 26.0047C37.9817 26.0047 38.5326 26.0219 39.0835 26.0047C40.1682 25.953 40.7708 25.3676 40.7708 24.3691C40.7708 23.3877 40.1682 22.7334 39.118 22.699C38.2055 22.6646 37.293 22.6818 36.3805 22.6818C35.2786 22.6818 35.2614 22.6818 35.2786 23.8181C35.2958 24.524 34.9687 25.4365 35.3991 25.8841C35.8123 26.3146 36.742 25.953 37.2413 26.0047ZM37.3618 17.1724V17.1552C36.8281 17.1552 36.2772 17.1552 35.7435 17.1552C35.4508 17.1552 35.2442 17.1896 35.2614 17.5511C35.2786 18.412 35.2614 19.2556 35.2614 20.1165C35.2614 20.2886 35.2786 20.478 35.5196 20.4608C36.8281 20.4092 38.1538 20.6674 39.4279 20.3231C40.1854 20.1165 40.6158 19.3589 40.547 18.6014C40.4781 17.8266 39.91 17.2585 39.0835 17.1896C38.4982 17.1379 37.93 17.1724 37.3618 17.1724Z" fill="#28292B"/>
<path d="M87.3102 18.257C85.8468 19.7377 84.5038 21.1839 83.0748 22.5441C82.5583 23.0433 82.6788 23.2672 83.1093 23.7148C84.6244 25.2816 86.0706 26.8999 87.4479 28.3978C86.6904 28.3978 85.6402 28.3978 84.5727 28.3978C84.2628 28.3978 84.1251 28.1568 83.9529 27.9846C82.8682 26.9172 81.8008 25.8497 80.7161 24.7823C80.5267 24.6101 80.3718 24.3518 80.0791 24.4896C79.8036 24.6101 79.9413 24.8856 79.9413 25.1094C79.9241 26.0219 79.9413 26.9344 79.9241 27.8641C79.9241 28.0535 80.0102 28.3634 79.7692 28.3806C78.9772 28.4323 78.168 28.4323 77.376 28.3978C77.2039 28.3978 77.2555 28.1051 77.2555 27.9502C77.2555 23.4049 77.2555 18.8424 77.2383 14.2971C77.2383 13.9184 77.3588 13.8323 77.7204 13.8151C79.9241 13.6945 79.9241 13.6773 79.9241 15.8639C79.9241 17.6372 79.9241 19.4106 79.9413 21.1839C79.9413 21.3905 79.8208 21.6832 80.0963 21.8037C80.389 21.9415 80.5784 21.6832 80.7505 21.511C81.6803 20.6158 82.6272 19.7377 83.5225 18.808C83.9012 18.4292 84.2628 18.257 84.7965 18.2915C85.5885 18.2742 86.3977 18.257 87.3102 18.257Z" fill="#28292B"/>
<path d="M62.1196 23.3189C62.1196 24.7479 62.0851 26.1769 62.1368 27.6059C62.1712 28.2773 61.9302 28.4495 61.3276 28.3807C60.8799 28.329 60.4151 28.3806 59.9502 28.3634C59.8125 28.3634 59.5542 28.3462 59.5542 28.3118C59.4165 27.1755 58.8828 28.0019 58.5729 28.1396C56.6618 29.0349 54.4408 28.7766 52.9429 27.4682C51.3073 26.0219 50.7047 23.5083 51.4795 21.3217C52.1509 19.4106 53.9243 18.0333 55.9387 17.9472C57.0061 17.8955 58.0391 18.1021 58.9689 18.7219C59.2099 18.8769 59.5026 19.1007 59.4854 18.5326C59.4681 18.2399 59.6748 18.2571 59.8986 18.2399C62.1368 17.9988 62.1368 17.9988 62.1368 20.237C62.1196 21.27 62.1196 22.3031 62.1196 23.3189ZM56.524 26.3318C58.1769 26.3318 59.4854 24.9717 59.4509 23.2844C59.4337 21.5972 58.108 20.2715 56.438 20.3059C54.8196 20.3231 53.666 21.6316 53.7005 23.405C53.7521 25.1094 54.9229 26.349 56.524 26.3318Z" fill="#28292B"/>
<path d="M142.008 24.0936C142.198 25.1611 142.766 25.9531 143.764 26.263C144.694 26.5384 145.71 26.5212 146.416 25.7292C146.932 25.1439 147.431 25.0233 148.12 25.2816C148.361 25.3677 148.619 25.4366 148.878 25.4538C149.48 25.471 149.36 25.7637 149.153 26.108C148.12 27.9502 146.45 28.6906 144.436 28.6906C142.266 28.7078 140.407 27.3476 139.632 25.2816C138.857 23.1811 139.477 20.6158 141.113 19.2384C142.835 17.775 145.073 17.5168 147.036 18.6359C148.929 19.7205 149.687 21.4594 149.704 23.5943C149.704 24.1797 149.343 24.0592 149.015 24.0592C146.863 24.0592 144.711 24.0592 142.559 24.0592C142.387 24.0592 142.215 24.0764 142.008 24.0936ZM146.863 22.1653C146.553 21.0462 145.865 20.4264 144.901 20.3059C143.85 20.1854 142.766 20.7191 142.284 21.5627C142.06 21.9759 142.06 22.1825 142.611 22.1653C144.005 22.1653 145.4 22.1653 146.863 22.1653Z" fill="#28292B"/>
<path d="M105.731 18.0333C108.796 18.0333 111.138 20.2887 111.155 23.2672C111.172 26.3491 108.831 28.6561 105.68 28.6389C102.615 28.6217 100.205 26.3491 100.188 23.4394C100.17 20.3231 102.512 18.0333 105.731 18.0333ZM108.572 23.3533C108.589 21.666 107.35 20.3403 105.731 20.3059C104.13 20.2715 102.839 21.5972 102.805 23.2672C102.77 24.9889 104.027 26.3318 105.697 26.3318C107.315 26.3491 108.572 25.0406 108.572 23.3533Z" fill="#28292B"/>
<path d="M64.4609 23.3533C64.4609 20.8224 65.976 18.8252 68.3864 18.1537C70.7623 17.4995 73.2071 18.4809 74.464 20.5813C75.0666 21.5971 75.0321 21.6832 73.9303 21.9931C73.7581 22.0448 73.5859 22.062 73.431 22.1309C72.7595 22.4235 72.3291 22.4063 71.9503 21.5799C71.4682 20.5125 70.3836 20.3403 69.2989 20.4952C68.1626 20.6674 67.4395 21.3905 67.164 22.4752C66.9057 23.5771 67.009 24.6445 67.8871 25.5054C68.6791 26.2801 69.6605 26.3662 70.6935 26.1252C71.3994 25.953 71.9331 25.4882 72.2086 24.8339C72.4152 24.3174 72.6734 24.283 73.1211 24.4551C73.2588 24.5068 73.3965 24.524 73.5343 24.5584C75.0838 24.9544 75.1871 25.2299 74.1885 26.5728C72.8112 28.415 70.3836 29.1726 68.1281 28.4323C65.8727 27.6919 64.4609 25.712 64.4609 23.3533Z" fill="#28292B"/>
<path d="M88.2384 23.3189C88.2557 20.788 89.7707 18.808 92.1983 18.1538C94.5743 17.4995 97.0019 18.4981 98.2587 20.6158C98.8269 21.5972 98.7924 21.6833 97.7594 21.9759C97.57 22.0276 97.3634 22.062 97.1912 22.1309C96.537 22.4064 96.1582 22.3891 95.7795 21.5972C95.0391 20.0821 92.6632 19.996 91.5269 21.3389C90.7521 22.2514 90.6144 23.8009 91.2342 24.8856C91.7851 25.8498 92.8181 26.3146 94.1094 26.1597C94.9014 26.0564 95.5729 25.6948 95.8828 24.9717C96.1927 24.2486 96.6059 24.2314 97.1912 24.4724C97.2429 24.4896 97.2945 24.5068 97.3462 24.5241C98.8785 24.9373 98.9474 25.1611 98.0004 26.4868C96.6747 28.3462 94.1611 29.121 91.8712 28.3806C89.633 27.6748 88.2212 25.6776 88.2384 23.3189Z" fill="#28292B"/>
<path d="M6.80211 13.6945C7.66296 13.3502 8.47216 12.9025 9.29857 12.4893C9.36744 12.4721 9.43631 12.4377 9.47074 12.3688C9.84951 12.2483 10.1766 12.0417 10.521 11.8695C10.7448 11.8179 10.9514 11.749 11.1064 11.5596C11.2613 11.5768 11.3646 11.4391 11.5023 11.3874C11.5712 11.4047 11.5712 11.353 11.6056 11.3186C11.6229 11.3186 11.6573 11.3186 11.6745 11.3014C11.7434 11.3186 11.7434 11.2669 11.7778 11.2325C11.795 11.2325 11.8295 11.2325 11.8467 11.2153C11.9155 11.2325 11.9155 11.1808 11.95 11.1464C11.9672 11.1464 12.0016 11.1464 12.0189 11.1292C12.0877 11.1464 12.0877 11.0948 12.1222 11.0603C12.7592 10.8882 13.3273 10.5266 13.9127 10.2167C13.9644 10.2167 14.016 10.2167 14.0677 10.2167C14.2398 10.3372 14.412 10.4233 14.6014 10.4922C14.9629 10.6816 15.3417 10.8709 15.7033 11.0603C15.9099 11.1981 16.1165 11.3186 16.3575 11.3874C16.7879 11.6457 17.2184 11.8695 17.666 12.0589C17.9587 12.2483 18.2858 12.4205 18.6129 12.541C19.0434 12.7648 19.4566 12.9714 19.887 13.1952C20.042 13.3157 20.1969 13.4018 20.3863 13.4535C20.8684 13.729 21.3504 13.9872 21.8669 14.211C22.1596 14.4004 22.4868 14.5726 22.8139 14.6931C23.1754 14.8825 23.5542 15.0719 23.9158 15.2613C24.7594 15.7089 25.603 16.1393 26.4467 16.587C26.4467 18.5325 26.4467 20.4608 26.4467 22.4063C25.2243 23.0433 24.0019 23.6631 22.7794 24.3002C22.4179 24.4896 22.0391 24.6789 21.6776 24.8683C21.3504 25.0061 21.0233 25.161 20.7306 25.3504C20.2313 25.5742 19.732 25.8153 19.25 26.1079C19.0606 26.1596 18.9056 26.2457 18.7507 26.3662C18.3203 26.59 17.907 26.7966 17.4766 27.0204C17.1495 27.1582 16.8224 27.3131 16.5297 27.5025C16.0821 27.6919 15.6344 27.9157 15.2212 28.174C14.7908 28.2945 14.4809 28.6388 14.0677 28.7594C13.5856 28.6561 13.2068 28.3462 12.7592 28.174C12.4665 28.0018 12.1738 27.8469 11.8639 27.7436C11.399 27.5197 10.9342 27.2787 10.4693 27.0549C10.3316 26.986 10.1939 26.9171 10.0561 26.8483C8.79928 26.2285 7.54244 25.6087 6.2856 24.9888C6.14787 24.92 6.01013 24.8511 5.85518 24.7822C4.59834 24.1624 3.34151 23.5426 2.08467 22.9228C1.75755 22.6818 1.30991 22.7162 1.03443 22.3891C1.03443 16.7764 1.03443 11.1636 1.03443 5.5509C1.01722 5.36151 1 5.20656 1 5.03439C1.15495 4.93109 1.25825 5.06882 1.36156 5.12048C3.04882 5.87802 4.73608 6.65278 6.40612 7.42755C6.40612 7.5825 6.42334 7.72024 6.42334 7.87519C6.42334 9.75184 6.42334 11.6285 6.42334 13.5051C6.42334 13.6257 6.35447 13.7806 6.47499 13.8495C6.59551 13.8839 6.71603 13.7806 6.80211 13.6945ZM8.1106 19.3761C8.14504 19.4278 8.16225 19.4622 8.17947 19.4622C10.0561 20.4952 11.9155 21.511 13.7922 22.544C13.9471 22.6301 14.0677 22.5957 14.2054 22.5096C15.9615 21.5455 17.7349 20.5813 19.491 19.6172C19.5771 19.5655 19.7148 19.5483 19.732 19.4278C19.7493 19.2728 19.5943 19.2384 19.491 19.1867C17.7349 18.257 15.9788 17.3445 14.2398 16.4148C14.0505 16.3115 13.9127 16.3287 13.7061 16.4148C13.2068 16.6558 12.742 16.9657 12.2427 17.2068C10.8653 17.8955 9.50517 18.6358 8.1106 19.3761Z" fill="#28292B"/>
<path d="M1.15625 24.679C3.36002 25.7292 5.58101 26.7966 7.78478 27.8469C9.81638 28.811 11.8652 29.7924 13.8968 30.7565C13.9829 30.791 14.0345 30.7393 14.0862 30.6877C14.4822 30.4983 14.8782 30.2917 15.2914 30.1023C15.9973 29.7407 16.7204 29.3964 17.4263 29.0348C19.3546 28.0879 21.2829 27.141 23.2112 26.194C24.2442 25.6948 25.2772 25.1782 26.3102 24.679C26.3102 26.0735 26.3102 27.4509 26.3102 28.8455C26.3102 29.0176 26.2758 29.1726 26.2414 29.3275C25.26 29.8268 24.2614 30.3433 23.28 30.8426C22.6258 31.1697 21.9543 31.4969 21.3001 31.824C19.6128 32.616 17.9428 33.4596 16.29 34.3032C15.5152 34.682 14.7576 35.0608 13.9829 35.4396C12.5194 34.7509 11.0732 34.0622 9.60977 33.3563C6.88949 32.0478 4.16922 30.7393 1.44894 29.4308C1.38007 29.3964 1.3112 29.3447 1.24233 29.3103C1.19068 29.1554 1.15625 29.0004 1.15625 28.8282C1.15625 27.4509 1.15625 26.0563 1.15625 24.679Z" fill="#F6AB52"/>
<path d="M48.8469 13.7462H46.1094V28.3806H47.3318C47.5728 28.3806 47.8483 28.3806 48.1754 28.3806C48.2271 28.3806 48.2787 28.3806 48.3304 28.3806H48.8469V13.7462Z" fill="#28292B"/>
<path d="M123.326 19.8927C121.639 17.7405 119.349 17.4306 116.181 18.9457C116.216 18.7563 116.198 18.6186 116.164 18.5153V18.2571H115.889C115.751 18.2226 115.596 18.2226 115.406 18.2398C115.338 18.2398 115.269 18.2571 115.183 18.2571H114.46C114.391 18.2571 114.339 18.2398 114.27 18.2398C114.064 18.2054 113.909 18.2226 113.788 18.2571H113.461V31.8584H116.147V31.428C116.147 31.3592 116.164 31.2903 116.147 31.2214C116.147 31.0837 116.147 30.9287 116.147 30.791V27.7092C119.297 29.2243 121.622 28.9144 123.275 26.8311C124.876 24.8167 124.893 21.8898 123.326 19.8927ZM119.056 26.3318C117.455 26.3318 116.181 25.0061 116.164 23.3361C116.147 21.666 117.472 20.3059 119.108 20.2887C120.744 20.2887 121.863 21.5283 121.88 23.3361C121.88 25.1266 120.726 26.349 119.056 26.3318Z" fill="#28292B"/>
<path d="M136.635 19.9099C135.912 18.9974 135.016 18.3604 133.897 18.1021C132.348 17.7405 130.902 18.0849 129.49 19.0146C129.524 18.7908 129.507 18.6358 129.455 18.5153V18.2571H129.163C129.042 18.2226 128.904 18.2226 128.732 18.2398C128.663 18.2398 128.577 18.2571 128.508 18.2571H127.768C127.682 18.2571 127.613 18.2398 127.527 18.2398C127.338 18.2226 127.2 18.2226 127.079 18.2571H126.77V31.8585H129.455V31.4797C129.473 31.3936 129.473 31.3075 129.473 31.187C129.455 30.791 129.455 30.395 129.455 30.0162V29.2415C129.455 28.7422 129.455 28.2429 129.455 27.7436C132.985 29.207 135.068 28.8627 136.721 26.6245C138.202 24.679 138.15 21.8037 136.635 19.9099ZM132.331 26.3318C130.712 26.3146 129.49 24.9889 129.49 23.3016C129.49 21.5971 130.781 20.2887 132.468 20.3059C134.087 20.3231 135.24 21.6144 135.223 23.3877C135.189 25.1266 134.001 26.349 132.331 26.3318Z" fill="#28292B"/>
<path d="M154.711 20.0304C154.694 19.5656 154.677 19.2384 154.625 18.9802V18.2571H153.712C153.523 18.2398 153.299 18.2398 153.007 18.2398C152.869 18.2398 152.714 18.2571 152.576 18.2398C152.404 18.2054 152.283 18.2226 152.18 18.2571H151.922V28.4151H153.179C153.196 28.4151 153.23 28.4151 153.248 28.4151H154.591C154.591 27.778 154.625 27.1238 154.642 26.4868C154.659 25.2988 154.556 24.042 154.952 22.9056C155.21 22.1653 155.692 21.5455 156.416 21.2012C157.207 20.8224 158.12 20.7707 158.981 20.8224C158.981 19.9099 158.981 18.9802 158.981 18.0677C157.311 18.0332 155.83 18.4981 154.711 20.0304Z" fill="#28292B"/>
</g>
<defs>
<clipPath id="clip0_2484_28389">
<rect width="158" height="30.4396" fill="white" transform="translate(1 5)"/>
</clipPath>
</defs>
</svg>
