<svg width="160" height="40" viewBox="0 0 160 40" fill="none" xmlns="http://www.w3.org/2000/svg">
<g clip-path="url(#clip0_2301_28244)">
<path d="M40.6971 27.9907C40.1167 28.3741 39.4959 28.6892 38.8918 29.0338C36.5106 30.3858 34.1268 31.7345 31.7403 33.0797C30.6891 33.6743 29.6382 34.2693 28.5876 34.8649C28.5227 34.9021 28.4389 34.9183 28.4049 34.9975H28.3116C28.2966 34.9804 28.2815 34.9634 28.2665 34.9463C27.0804 32.9339 25.8943 30.916 24.7081 28.9066C24.5674 28.6691 24.4274 28.4308 24.2922 28.191C24.2408 28.1002 24.1728 27.9907 24.3428 27.9341C24.466 27.913 24.5912 27.906 24.7161 27.9131H40.2567C40.3963 27.8958 40.5382 27.9107 40.671 27.9566L40.6971 27.9907Z" fill="#9A7CD3"/>
<path d="M89.1797 14.2599C89.1797 11.916 89.1797 9.57245 89.1797 7.22909C89.1797 7.05834 89.2121 6.99622 89.4043 6.99622C90.3937 7.00708 91.3833 7.00708 92.3727 6.99622C92.5752 6.99622 92.61 7.05282 92.61 7.23676C92.6044 11.6723 92.5965 16.1078 92.61 20.5433C92.5806 21.2574 92.7353 21.9672 93.0599 22.6069C93.3844 23.2466 93.8683 23.7955 94.4666 24.2028C95.0234 24.5739 95.6653 24.8035 96.3348 24.8711C97.0043 24.9386 97.6805 24.842 98.3025 24.5898C98.9246 24.3376 99.4731 23.9378 99.8989 23.4262C100.325 22.9146 100.614 22.3072 100.742 21.6586C100.872 21.1138 100.865 20.5462 100.723 20.0044C100.581 19.4626 100.307 18.9626 99.9252 18.5471C99.606 18.2047 99.216 17.9332 98.7812 17.7506C98.3465 17.5681 97.877 17.4787 97.4043 17.4886C96.4459 17.4762 95.4875 17.4808 94.5291 17.4886C94.3504 17.4886 94.3085 17.4373 94.31 17.2689C94.3172 16.2235 94.31 15.1734 94.31 14.1311C94.31 14.0247 94.2871 13.9192 94.4682 13.9231C95.6361 13.9456 96.8057 13.8749 97.972 13.9587C99.3696 14.0376 100.705 14.553 101.783 15.4296C102.861 16.3062 103.625 17.4981 103.964 18.8313C104.199 19.5997 104.308 20.4001 104.287 21.2022C104.286 22.4608 103.928 23.6943 103.254 24.7653C102.581 25.8362 101.617 26.7025 100.472 27.2677C99.2349 27.9355 97.8386 28.2661 96.4277 28.2252C95.0169 28.1843 93.6429 27.7732 92.4486 27.0348C91.6436 26.5479 90.9537 25.8982 90.4248 25.129C89.8959 24.3597 89.5401 23.4886 89.3813 22.5737C89.2425 21.9314 89.1759 21.276 89.1828 20.6194C89.1828 18.5045 89.1797 16.3818 89.1797 14.2599Z" fill="#4300C1"/>
<path d="M77.2763 24.2443C77.2763 25.4201 77.2763 26.596 77.2803 27.7718C77.2803 27.9433 77.2368 27.9891 77.0605 27.9875C76.0633 27.979 75.0654 27.9775 74.0683 27.9875C73.8714 27.9875 73.8437 27.9215 73.8445 27.7547C73.8497 25.6095 73.8497 23.4638 73.8445 21.3176C73.861 20.4057 73.5769 19.513 73.0344 18.7726C72.4919 18.0321 71.7201 17.4836 70.8341 17.2088C70.2664 17.048 69.67 17.0105 69.0861 17.0987C68.5022 17.1869 67.9449 17.3988 67.4528 17.7197C66.9607 18.0406 66.5457 18.4627 66.2366 18.9568C65.9274 19.4509 65.7316 20.0052 65.6626 20.5811C65.5721 21.1377 65.6248 21.7077 65.8157 22.2392C66.0067 22.7708 66.33 23.2472 66.7562 23.625C67.426 24.2007 68.2948 24.5031 69.1846 24.4702C70.0884 24.4702 70.9922 24.4748 71.8961 24.4702C72.0692 24.4702 72.1333 24.4981 72.1333 24.6906C72.1222 25.7368 72.1269 26.7861 72.1333 27.8285C72.1333 27.9534 72.1372 28.0403 71.9553 28.0364C70.8261 28.0124 69.6961 28.0675 68.5677 28.0007C67.201 27.9415 65.8876 27.4635 64.8118 26.634C63.7361 25.8045 62.9521 24.6651 62.5699 23.3758C62.1691 22.2659 62.0517 21.0765 62.2282 19.9117C62.4047 18.747 62.8695 17.6424 63.5821 16.695C64.1472 15.9272 64.8669 15.2814 65.6966 14.7976C66.5263 14.3138 67.4484 14.0022 68.4057 13.8823C69.9265 13.6218 71.4912 13.7848 72.9224 14.3527C73.9633 14.765 74.8837 15.4242 75.6013 16.2713C76.3189 17.1184 76.8113 18.1269 77.0344 19.2066C77.1994 19.8824 77.2809 20.5752 77.2771 21.2702C77.2771 22.26 77.2768 23.2514 77.2763 24.2443Z" fill="#4300C1"/>
<path d="M122.576 23.6935C122.576 22.4028 122.548 21.1121 122.581 19.8222C122.592 18.3907 123.117 17.0089 124.065 15.9209C125.013 14.8328 126.322 14.1086 127.761 13.8763C129.29 13.5292 130.893 13.6843 132.324 14.3179C133.282 14.7362 134.114 15.3886 134.742 16.2128C135.37 17.0369 135.771 18.0052 135.909 19.0251C135.97 19.4102 135.999 19.7996 135.995 20.1893C135.995 22.7094 135.995 25.2286 136.001 27.7487C136.001 27.9683 135.932 28.0048 135.73 28.0025C134.772 27.9927 133.813 27.9927 132.855 28.0025C132.653 28.0025 132.618 27.9451 132.618 27.7603C132.624 25.2178 132.624 22.675 132.618 20.1319C132.644 19.6572 132.56 19.1826 132.372 18.7445C132.184 18.3064 131.896 17.9162 131.532 17.6035C131.167 17.2909 130.734 17.0641 130.266 16.9404C129.798 16.8166 129.308 16.7991 128.832 16.8893C128.013 16.9457 127.25 17.3173 126.708 17.9234C126.166 18.5295 125.891 19.321 125.941 20.1256C125.936 22.6532 125.936 25.1808 125.941 27.7083C125.941 27.9171 125.888 27.9722 125.675 27.9699C124.726 27.9583 123.777 27.959 122.823 27.9699C122.627 27.9699 122.561 27.9373 122.563 27.7254C122.582 26.3811 122.576 25.037 122.576 23.6935Z" fill="#4300C1"/>
<path d="M57.7394 27.9517C56.9605 27.9517 56.18 27.9811 55.4027 27.9462C53.9949 27.903 52.6398 27.4105 51.5428 26.5432C50.4459 25.676 49.667 24.4813 49.3242 23.1404C49.0128 22.1695 48.909 21.1459 49.0192 20.1337C49.1295 19.1216 49.4513 18.1427 49.9647 17.2582C50.4902 16.3451 51.2392 15.5748 52.1441 15.017C53.0489 14.4591 54.081 14.1312 55.1473 14.063C56.5287 13.9334 57.9149 14.0358 59.305 14.0156C59.6395 14.011 59.9756 14.0226 60.3101 14.0118C60.4682 14.0071 60.5244 14.039 60.5228 14.2082C60.5144 15.2466 60.5144 16.2847 60.5228 17.3227C60.5228 17.4926 60.4603 17.5213 60.3061 17.5213C58.9112 17.5167 57.5172 17.5213 56.1223 17.5213C55.3478 17.485 54.5799 17.6763 53.9169 18.0708C53.4562 18.3613 53.0774 18.761 52.8156 19.233C52.5539 19.7051 52.4175 20.2343 52.4192 20.7717C52.3536 21.3638 52.4499 21.9623 52.6981 22.5058C52.9463 23.0492 53.3375 23.5179 53.8315 23.8638C54.4903 24.2962 55.2729 24.51 56.0646 24.4738C57.4674 24.4692 58.8694 24.4738 60.2721 24.4684C60.4556 24.4684 60.526 24.4994 60.5244 24.7012C60.5133 25.7164 60.5133 26.7318 60.5244 27.7475C60.5244 27.9338 60.4659 27.9749 60.2872 27.9734C59.4379 27.9656 58.5886 27.9734 57.7394 27.9734V27.9517Z" fill="#4300C1"/>
<path d="M16.0613 14.0195L16.0273 13.9784L27.2212 7.64766C27.558 7.45751 27.8925 7.25955 28.231 7.07561C28.2966 7.03914 28.3662 6.94993 28.4532 7.04928C28.8161 7.59256 29.1261 8.16379 29.4582 8.72259C30.4213 10.3447 31.3718 11.9737 32.3302 13.5974C32.4093 13.7332 32.5563 13.8535 32.5002 14.0429C32.4759 14.0578 32.4491 14.0686 32.4211 14.0747C32.2975 14.0916 32.1726 14.097 32.0479 14.091C26.8685 14.091 21.6891 14.091 16.5097 14.091C16.3564 14.1196 16.1976 14.0943 16.0613 14.0195Z" fill="#9A7CD3"/>
<path d="M40.6945 13.9771C40.7854 14.0284 40.7412 14.1145 40.7412 14.1828C40.7412 18.7133 40.7412 23.2437 40.7412 27.7742C40.7412 27.8463 40.7704 27.9295 40.7001 27.9892C40.5055 27.7717 40.3455 27.5265 40.2256 27.262C38.8982 25.0092 37.5705 22.7566 36.2426 20.5043C35.0196 18.43 33.7966 16.3557 32.5736 14.2813C32.5277 14.2037 32.4652 14.1261 32.5047 14.0268L32.5269 14.0027C32.6196 13.9448 32.7307 13.9222 32.8392 13.9391C35.3343 13.9391 37.8291 13.9391 40.3237 13.9391C40.451 13.9384 40.5704 13.9733 40.6945 13.9771Z" fill="#9A7CD3"/>
<path d="M79.501 23.3929C79.501 21.9881 79.4662 20.5826 79.5089 19.1793C79.5635 17.8694 80.1004 16.6233 81.02 15.6724C81.9397 14.7215 83.1796 14.1305 84.5096 14.0089C85.2838 13.9271 86.0639 13.912 86.8408 13.9639C87.0226 13.9778 87.0915 14.0236 87.0891 14.2168C87.0788 15.1862 87.0804 16.1571 87.0891 17.1257C87.0891 17.2903 87.0401 17.3244 86.8803 17.3237C86.2351 17.2799 85.5869 17.3043 84.9469 17.3966C84.3637 17.4879 83.8351 17.7867 83.4619 18.236C83.0887 18.6853 82.897 19.2537 82.9234 19.8329C82.9234 22.467 82.9249 25.1012 82.9281 27.7353C82.9281 27.9348 82.8839 27.9891 82.6751 27.986C81.6859 27.9736 80.6982 27.9759 79.7066 27.986C79.5303 27.986 79.4836 27.9402 79.4844 27.7687C79.4915 26.3103 79.4844 24.852 79.4844 23.3937L79.501 23.3929Z" fill="#4300C1"/>
<path d="M40.6913 13.9784C40.6463 14.0203 40.5893 14.0079 40.5332 14.0079H32.5221C32.1845 13.5228 31.9085 12.999 31.6088 12.4953C30.5734 10.7495 29.5455 9.00017 28.5249 7.24718C28.4909 7.18897 28.4039 7.14159 28.4513 7.05078L40.5949 13.9186C40.6281 13.9349 40.6597 13.9575 40.6913 13.9784Z" fill="#4300C1"/>
<path d="M28.312 34.9496C26.9413 34.1787 25.5731 33.4078 24.2072 32.6368C21.4923 31.1027 18.7774 29.5678 16.0625 28.0321C16.0752 27.9266 16.1661 27.9344 16.2373 27.9227C16.3223 27.9133 16.408 27.9107 16.4935 27.915H23.8142C23.9618 27.8989 24.111 27.9234 24.2452 27.9856C24.6872 28.747 25.1269 29.5099 25.5736 30.269C26.4635 31.7814 27.3549 33.2927 28.2479 34.803C28.2731 34.8502 28.2945 34.8992 28.312 34.9496Z" fill="#4300C1"/>
<path d="M24.2459 27.983C21.6054 27.983 18.9648 27.983 16.3242 27.983C16.238 27.983 16.1368 27.9388 16.0633 28.0272L16 27.9884C16.004 27.8821 16.0119 27.775 16.0119 27.6687C16.0119 23.2256 16.0119 18.7829 16.0119 14.3404C16.0119 14.2473 15.9684 14.1417 16.0554 14.0587C16.8461 15.4039 17.6369 16.751 18.4276 18.0999C19.8652 20.5421 21.3033 22.9838 22.7419 25.4249C23.2464 26.2776 23.7478 27.1303 24.2459 27.983Z" fill="#9A7CD3"/>
<path d="M106.11 20.9103C106.096 19.1663 106.734 17.4779 107.902 16.1642C109.071 14.8505 110.69 14.0025 112.452 13.7807C114.215 13.5589 115.999 13.9786 117.467 14.9603C118.936 15.9421 119.987 17.418 120.422 19.109C120.83 20.6386 120.717 22.2569 120.102 23.7183C119.488 25.1797 118.404 26.4043 117.016 27.2062C116.011 27.7829 114.88 28.1134 113.718 28.1694C112.556 28.2255 111.397 28.0054 110.34 27.5281C109.283 27.0508 108.359 26.3303 107.646 25.4276C106.934 24.5249 106.454 23.4668 106.246 22.343C106.156 21.8706 106.11 21.3909 106.11 20.9103ZM115.342 24.4579C115.842 24.1332 116.267 23.7082 116.589 23.2108C116.91 22.7133 117.121 22.1547 117.207 21.5717C117.292 20.9888 117.252 20.3945 117.087 19.8281C116.922 19.2617 116.637 18.736 116.25 18.2855C115.812 17.7262 115.211 17.3109 114.527 17.0947C113.842 16.8784 113.107 16.8715 112.419 17.0748C111.394 17.3946 110.534 18.0897 110.018 19.0155C109.502 19.9414 109.369 21.0269 109.647 22.0465C109.83 22.849 110.273 23.5718 110.909 24.1072C111.545 24.6426 112.34 24.9618 113.177 25.0175C113.94 25.0569 114.697 24.8613 115.342 24.4579Z" fill="#4300C1"/>
</g>
<defs>
<clipPath id="clip0_2301_28244">
<rect width="120" height="28" fill="white" transform="translate(16 7)"/>
</clipPath>
</defs>
</svg>
