<svg width="160" height="40" viewBox="0 0 160 40" fill="none" xmlns="http://www.w3.org/2000/svg">
<g clip-path="url(#clip0_2226_27424)">
<path d="M23.9467 20.308C24.0307 20.4645 24.1158 20.623 24.2037 20.7839C24.2225 20.7526 24.2394 20.7247 24.255 20.6992C24.2926 20.6374 24.3216 20.5896 24.3477 20.5403C25.4901 18.1477 27.1163 16.1495 29.5604 14.8272C29.8772 14.6552 29.785 14.4809 29.6786 14.2798C29.6719 14.2671 29.6651 14.2543 29.6583 14.2413C28.6385 12.2866 27.2296 10.6133 25.4624 9.22996C24.8355 8.74055 24.6453 8.50272 24.4439 8.49373C24.2418 8.48473 24.0285 8.70588 23.3523 9.13426C21.3339 10.4161 19.7383 12.0691 18.7276 14.1891C18.7195 14.2062 18.7112 14.2231 18.703 14.2399C18.5945 14.4617 18.5007 14.6533 18.8624 14.8474C20.847 15.9089 22.3079 17.4604 23.4074 19.3309C23.5931 19.649 23.7674 19.9737 23.9467 20.308Z" fill="#3FA0D9"/>
<path d="M11.2106 14.236C14.3162 14.2853 17.1859 14.8683 19.6942 16.5967C21.7493 18.0119 23.0173 19.9346 23.6972 22.2287C23.74 22.3707 23.7461 22.5041 23.7094 22.6491C23.1398 24.8184 23.0693 27.0254 23.1734 29.2439C23.1887 29.589 23.0969 29.7225 22.7385 29.7717C18.0159 30.4446 10.9932 27.8548 8.77272 22.3012C7.77735 19.8128 7.82023 17.2898 8.46646 14.7407C8.52771 14.4942 8.66553 14.4187 8.91361 14.3868C9.6436 14.2981 10.3736 14.2692 11.0523 14.2423L11.2106 14.236Z" fill="#3FA0D9"/>
<path d="M24.207 26.8646C24.2161 24.301 24.5622 22.0592 25.7107 19.9972C27.3279 17.0884 29.9648 15.4412 33.2755 14.6785C35.3583 14.1971 37.4623 14.1449 39.5847 14.3856C39.9417 14.4247 39.9918 14.6226 40.0525 14.8626L40.0594 14.8902C41.6582 21.0413 38.8313 26.3774 32.6385 28.8077C30.3201 29.7154 27.9159 30.165 25.3984 29.6951C24.4367 29.5154 24.4183 29.5095 24.3173 28.6076C24.2622 28.1282 24.242 27.6472 24.2258 27.2639C24.2195 27.114 24.2139 26.9787 24.207 26.8646Z" fill="#3FA0D9"/>
<path d="M58.1322 29.5994C56.428 29.5994 54.976 29.3173 53.7725 28.7531C52.5725 28.1889 51.5891 27.4568 50.8329 26.5534C50.0731 25.65 49.5157 24.6729 49.1572 23.6149C48.7986 22.5605 48.6211 21.5329 48.6211 20.5321V20.0014C48.6211 18.9201 48.8057 17.8455 49.1714 16.7742C49.5371 15.7029 50.1051 14.7324 50.872 13.8592C51.6388 12.9894 52.6116 12.2909 53.7867 11.767C54.9617 11.2431 56.3677 10.9812 58.0044 10.9812C59.6729 10.9812 61.1391 11.27 62.3995 11.851C63.6598 12.432 64.6645 13.2379 65.4171 14.2689C66.1662 15.3 66.6171 16.5089 66.7733 17.8958H63.1166C62.9107 16.6869 62.3462 15.7634 61.4161 15.1286C60.4859 14.4906 59.3498 14.1749 58.0044 14.1749C56.7618 14.1749 55.718 14.4368 54.873 14.9608C54.0281 15.4846 53.3891 16.2066 52.9559 17.1235C52.5228 18.0436 52.3026 19.0981 52.3026 20.2903C52.3026 21.4522 52.5228 22.49 52.9666 23.4101C53.4103 24.3303 54.0671 25.059 54.9334 25.5997C55.8032 26.1404 56.8683 26.409 58.1286 26.409C59.5274 26.409 60.706 26.0833 61.6682 25.4285C62.6302 24.7769 63.216 23.8602 63.4184 22.6847H67.0751C66.9047 23.9575 66.4502 25.1195 65.7082 26.1673C64.9663 27.215 63.9616 28.0479 62.6906 28.6692C61.4231 29.2871 59.9037 29.5994 58.1322 29.5994Z" fill="#111111"/>
<path d="M69.8633 29.1394V11.4884H73.417V18.2116C73.7756 17.372 74.3046 16.7273 75.0004 16.2772C75.6998 15.8273 76.5768 15.5989 77.6347 15.5989H77.7874C79.3708 15.5989 80.5743 16.1195 81.3908 17.1571C82.2073 18.1982 82.6192 19.6926 82.6192 21.6437V29.1394H79.0654V21.3281C79.0654 20.4885 78.8134 19.8303 78.3128 19.3467C77.8087 18.8631 77.1483 18.6214 76.3317 18.6214C75.4442 18.6214 74.7378 18.89 74.2088 19.4307C73.6798 19.9714 73.417 20.6766 73.417 21.5464V29.1394H69.8633Z" fill="#111111"/>
<path d="M90.3623 29.4794C88.8286 29.4794 87.6073 29.1101 86.6949 28.3679C85.7825 27.6257 85.3281 26.588 85.3281 25.2481C85.3281 23.8141 85.8783 22.7528 86.9753 22.0678C88.076 21.3827 89.5528 21.0402 91.4096 21.0402H94.2462V20.9192C94.2462 19.4214 93.4439 18.6693 91.8427 18.6693C91.4167 18.6693 90.9054 18.6759 90.3091 18.6927C89.7126 18.7095 89.1127 18.7297 88.5055 18.7532C87.8984 18.7767 87.3588 18.807 86.8831 18.8371V15.9826C87.4617 15.9356 88.1576 15.8953 88.9671 15.8617C89.7765 15.8281 90.522 15.8148 91.2037 15.8148C93.3338 15.8148 94.9385 16.2211 96.0214 17.0372C97.1041 17.8499 97.6438 19.1696 97.6438 20.9897V29.1369H94.832V26.6215C94.2036 28.529 92.7126 29.4794 90.3623 29.4794ZM91.3599 27.0851C91.8357 27.0851 92.2901 27.0011 92.716 26.8298C93.1421 26.6619 93.4971 26.3697 93.7776 25.96C94.058 25.5503 94.2178 24.9894 94.2497 24.2809V23.0484H91.3599C90.5433 23.0484 89.915 23.2364 89.4818 23.616C89.0488 23.9954 88.8286 24.4824 88.8286 25.0801C88.8286 25.6913 89.0452 26.1817 89.4818 26.5444C89.915 26.9037 90.5398 27.0851 91.3599 27.0851Z" fill="#111111"/>
<path d="M101.457 29.1394V11.4884H105.011V22.3456L110.354 16.0119H114.06L109.332 21.5967L115.186 29.1394H111.174L106.524 22.9971H105.015V29.1394H101.457Z" fill="#111111"/>
<path d="M120.959 29.4794C119.426 29.4794 118.205 29.1101 117.292 28.3679C116.38 27.6257 115.926 26.588 115.926 25.2481C115.926 23.8141 116.476 22.7528 117.572 22.0678C118.673 21.3827 120.15 21.0402 122.007 21.0402H124.844V20.9192C124.844 19.4214 124.041 18.6693 122.44 18.6693C122.015 18.6693 121.503 18.6759 120.906 18.6927C120.31 18.7095 119.71 18.7297 119.103 18.7532C118.499 18.7767 117.956 18.807 117.48 18.8371V15.9826C118.059 15.9356 118.755 15.8953 119.564 15.8617C120.374 15.8281 121.119 15.8148 121.801 15.8148C123.932 15.8148 125.535 16.2211 126.619 17.0372C127.702 17.8499 128.241 19.1696 128.241 20.9897V29.1369H125.43V26.6215C124.804 28.529 123.314 29.4794 120.959 29.4794ZM121.957 27.0851C122.433 27.0851 122.887 27.0011 123.314 26.8298C123.74 26.6619 124.095 26.3697 124.375 25.96C124.655 25.5503 124.815 24.9894 124.847 24.2809V23.0484H121.957C121.141 23.0484 120.512 23.2364 120.079 23.616C119.647 23.9954 119.426 24.4824 119.426 25.0801C119.426 25.6913 119.643 26.1817 120.079 26.5444C120.512 26.9037 121.141 27.0851 121.957 27.0851Z" fill="#111111"/>
</g>
<defs>
<clipPath id="clip0_2226_27424">
<rect width="120.242" height="32" fill="white" transform="translate(8 4)"/>
</clipPath>
</defs>
</svg>
