<svg width="160" height="40" viewBox="0 0 160 40" fill="none" xmlns="http://www.w3.org/2000/svg">
<g clip-path="url(#clip0_1963_22975)">
<path d="M62.5457 26.8733C59.7664 26.8236 57.5213 25.6961 55.8438 23.4908C54.3858 21.5758 53.7644 19.3829 54.0502 16.9953C54.4437 13.7081 56.0675 11.1754 59.1202 9.77845C61.9865 8.46856 64.7742 8.77945 67.3672 10.6116C67.8145 10.9267 68.2204 11.2915 68.5932 11.6852C69.1151 12.2366 69.1027 13.0739 68.5642 13.6003C68.0506 14.1019 67.2429 14.0895 66.7044 13.5589C65.8346 12.6967 64.8446 12.0376 63.6268 11.793C61.8457 11.4365 60.2386 11.8676 58.8882 13.0615C56.958 14.7693 56.3367 16.9497 56.8586 19.4451C57.1941 21.041 58.0391 22.3468 59.406 23.2463C61.1333 24.3821 62.9765 24.5396 64.8777 23.6732C65.5571 23.3665 66.1494 22.9312 66.6837 22.4131C67.2595 21.8576 68.0672 21.8659 68.6057 22.4172C69.1234 22.9478 69.0861 23.7727 68.5311 24.3282C67.5867 25.265 66.5056 25.9821 65.2505 26.4298C64.3807 26.749 63.4736 26.8858 62.5457 26.8733Z" fill="#2C56FD"/>
<path d="M134.214 17.9446C134.214 20.411 134.21 22.8815 134.214 25.3479C134.214 25.8495 134.086 26.2848 133.671 26.6039C133.249 26.9314 132.777 26.9729 132.305 26.7697C131.836 26.5708 131.563 26.1894 131.497 25.6754C131.484 25.5925 131.489 25.5096 131.489 25.4267C131.489 20.4358 131.489 15.445 131.484 10.4541C131.484 9.94013 131.671 9.5256 132.097 9.23544C132.942 8.65511 134.119 9.22715 134.197 10.251C134.206 10.3795 134.21 10.5122 134.214 10.6448C134.214 13.0781 134.214 15.5113 134.214 17.9446Z" fill="#2C56FD"/>
<path d="M70.176 20.328C70.176 18.5953 70.176 16.8668 70.176 15.1341C70.176 14.4957 70.5198 14.0148 71.1121 13.82C71.6755 13.6335 72.3175 13.8407 72.6737 14.3299C72.74 14.4211 72.7773 14.4667 72.8933 14.3838C74.0531 13.534 75.3413 13.4304 76.6999 13.7413C77.1638 13.849 77.5366 14.0687 77.7189 14.5288C78.0834 15.4574 77.3171 16.3776 76.294 16.2533C76.0082 16.216 75.7306 16.1372 75.4365 16.1372C74.0199 16.1496 72.8684 17.3227 72.8891 18.6907C72.9223 20.9581 72.8974 23.2297 72.8974 25.4971C72.8974 26.1106 72.5867 26.5956 72.0773 26.7904C71.5098 27.006 70.8678 26.8443 70.4701 26.3966C70.2713 26.1686 70.1719 25.9033 70.1719 25.6007C70.1719 24.3447 70.1719 23.0929 70.1719 21.8369C70.1719 21.3353 70.1719 20.8296 70.1719 20.328C70.1719 20.328 70.1719 20.328 70.176 20.328Z" fill="#2C56FD"/>
<path d="M51.3952 12.1579C51.0307 9.44692 49.6928 7.2914 47.4684 5.69134C45.3145 4.13688 42.3819 3.62702 39.8138 4.26953C38.8445 4.50995 37.9291 4.87888 37.0965 5.43019C36.1728 5.97736 35.3941 6.69449 34.7313 7.53182C33.3769 9.25209 32.6934 11.2169 32.6976 13.4098C32.7017 16.4814 32.681 19.5571 32.7555 22.6287C32.7763 23.5117 32.652 24.3739 32.2419 25.1739C32.0058 25.6382 31.691 26.0444 31.3596 26.4423C30.3365 27.4828 29.1063 28.2041 27.7726 28.7637C27.3418 28.9461 26.8861 29.0621 26.4429 29.2155C26.3767 29.2279 26.3062 29.2362 26.24 29.2528C25.3038 29.4725 24.3553 29.5969 23.3943 29.5886C22.7647 29.5803 22.1434 29.5098 21.5221 29.4228C21.4889 29.4103 21.4599 29.3979 21.4268 29.3896C20.5611 29.2238 19.7327 28.9585 18.9291 28.5979C18.3285 28.3284 17.7734 27.9885 17.2184 27.6403C17.2018 27.6279 17.1894 27.6113 17.1728 27.5989C16.1911 26.9149 15.3503 26.0941 14.6295 25.1407C14.1905 24.5604 13.8343 23.9345 13.4905 23.3003C13.4697 23.2422 13.4532 23.1842 13.4283 23.1262C13.0058 22.2225 12.7159 21.2774 12.5585 20.2908C12.2478 18.3467 12.4301 16.4482 13.1218 14.5994C13.3496 13.9901 13.6479 13.418 13.9502 12.846C13.9751 12.8128 14.0041 12.7838 14.0248 12.7507C14.9568 11.2377 16.1746 10.0065 17.6823 9.06141C18.374 8.63031 19.1155 8.30283 19.8693 8.00023C19.9563 7.97536 20.0433 7.95878 20.1262 7.92976C21.0623 7.62302 22.0233 7.45721 23.0049 7.40747C23.4896 7.3826 23.9701 7.41576 24.4506 7.41576C24.4878 7.42819 24.5293 7.44477 24.5665 7.44477C25.6228 7.54011 26.6459 7.79712 27.6359 8.17433C27.8802 8.26553 28.1122 8.38988 28.3814 8.40232C29.2513 8.44792 29.9886 7.90904 30.1957 7.07999C30.3945 6.26753 29.972 5.43019 29.1726 5.08614C28.4229 4.7711 27.6441 4.53897 26.853 4.35658C26.3228 4.23222 25.7843 4.16176 25.25 4.06642C25.1382 4.06642 25.0305 4.06642 24.9186 4.06642C23.8955 4.06642 22.8765 4.06642 21.8534 4.06642C21.7954 4.11616 21.725 4.09958 21.6588 4.11201C21.0499 4.19492 20.4451 4.2944 19.8569 4.47679C19.8155 4.48508 19.7741 4.48508 19.7368 4.49752C18.0261 4.95349 16.4562 5.69963 15.0272 6.74009C14.5301 7.10072 14.0455 7.46964 13.6189 7.91733C13.5857 7.9422 13.5484 7.96293 13.5194 7.99194C11.5519 9.88631 10.1933 12.1455 9.48501 14.786C9.02937 16.4855 8.90096 18.2182 9.07908 19.9675C9.34831 22.6536 10.3093 25.0744 11.933 27.2258C12.3845 27.8268 12.8733 28.3947 13.4366 28.8963C13.4656 28.9336 13.4946 28.9709 13.5277 29.0041C14.2485 29.688 15.0272 30.2933 15.8763 30.8114C16.3444 31.0974 16.8166 31.3834 17.3302 31.5866C17.4006 31.628 17.4711 31.6695 17.5456 31.7068C18.1918 32.0011 18.8545 32.2498 19.538 32.4405C20.2421 32.6394 20.9504 32.8053 21.6795 32.8674C21.7126 32.884 21.7457 32.8882 21.7789 32.8882C22.16 32.9586 22.5452 32.9752 22.9304 32.9876C23.8748 33.0167 24.8151 33.0001 25.747 32.8218C25.8299 32.8135 25.9127 32.8094 25.9914 32.797C26.7412 32.6726 27.4743 32.4902 28.1868 32.2415C29.4087 31.8187 30.5726 31.2757 31.6247 30.5047C31.6786 30.5171 31.7117 30.4756 31.7531 30.4466C32.652 29.8248 33.4721 29.1119 34.2094 28.3035C34.7231 27.7439 35.1704 27.1346 35.4852 26.434C35.9284 25.4433 36.1024 24.3905 36.1314 23.3168C36.1728 21.779 36.1272 20.2452 36.1148 18.7073C36.0983 16.9 36.1024 15.0969 36.1065 13.2895C36.1065 12.7424 36.1935 12.2076 36.3468 11.6812C36.5373 11.0262 36.8563 10.4335 37.2208 9.86559C37.5439 9.47179 37.8752 9.08628 38.2729 8.76296C39.2339 7.97536 40.3357 7.54011 41.5659 7.40747C41.6404 7.40747 41.7191 7.41161 41.7937 7.40747C42.9411 7.34943 44.0097 7.60644 45.0121 8.16604C45.563 8.47279 46.0435 8.87488 46.4867 9.32256C47.485 10.4459 48.0318 11.7517 48.0649 13.2605C48.0897 14.2802 47.8536 15.2378 47.3897 16.1456C47.3276 16.2451 47.2696 16.3446 47.2075 16.4441C46.5116 17.5923 45.5465 18.4255 44.2955 18.9312C43.8896 19.097 43.4671 19.1799 43.0488 19.2918C43.0281 19.2918 43.0073 19.2877 42.9866 19.2918C41.9221 19.4493 40.8907 19.3167 39.88 18.9395C39.4907 18.7944 39.0765 18.811 38.6871 18.9685C37.9995 19.2462 37.6143 19.8639 37.6267 20.6307C37.6391 21.2981 38.0906 21.8992 38.7409 22.152C39.5114 22.4505 40.3067 22.6329 41.1268 22.7158C41.8972 22.7945 42.6635 22.7987 43.4298 22.6536C44.9293 22.4754 46.2672 21.9033 47.485 21.0287C47.514 21.0162 47.5513 21.0079 47.5761 20.9914C48.4998 20.3281 49.2744 19.524 49.8999 18.5788C51.1964 16.6264 51.7058 14.4709 51.3952 12.1579Z" fill="#2C56FD"/>
<path d="M136.872 23.8764C137.804 23.8764 138.57 24.6433 138.57 25.5718C138.57 26.492 137.791 27.2713 136.868 27.2713C135.932 27.2713 135.178 26.5086 135.178 25.5677C135.174 24.6267 135.927 23.8764 136.872 23.8764Z" fill="#2C56FD"/>
<path d="M127.719 17.9487C127.719 17.5673 127.735 17.1984 127.715 16.8377C127.694 16.444 127.454 16.1662 127.164 15.9258C126.638 15.4864 126.008 15.2874 125.341 15.2087C123.949 15.0429 122.653 15.3538 121.46 16.0792C120.582 16.6098 119.443 16.0128 119.393 14.989C119.364 14.4128 119.592 13.9817 120.081 13.6708C121.278 12.8998 122.607 12.564 124.011 12.4645C125.2 12.3816 126.352 12.5184 127.454 12.9868C128.613 13.4843 129.545 14.2304 130.105 15.3911C130.337 15.8719 130.444 16.3818 130.444 16.9124C130.448 19.7601 130.448 22.6079 130.444 25.4557C130.444 26.4547 129.607 27.1055 128.68 26.8443C128.286 26.7324 128.009 26.4671 127.843 26.0982C127.785 25.9738 127.756 25.9324 127.619 26.0236C126.285 26.9231 124.811 27.2257 123.224 27.064C122.379 26.977 121.563 26.7987 120.801 26.4174C119.368 25.6961 118.556 24.523 118.295 22.9602C118.08 21.6752 118.25 20.4441 118.904 19.3042C119.314 18.5912 119.89 18.0399 120.623 17.6792C122.437 16.7797 124.322 16.6595 126.252 17.2481C126.687 17.3808 127.097 17.5839 127.478 17.8409C127.545 17.8741 127.607 17.9321 127.719 17.9487ZM124.397 24.3489C125.49 24.2743 126.476 23.9385 127.242 23.1095C127.781 22.525 127.868 21.8327 127.499 21.211C127.3 20.8793 127.039 20.6058 126.72 20.3944C125.519 19.6068 124.202 19.4534 122.831 19.7684C121.829 19.9964 121.112 20.5436 121 21.6545C120.88 22.8566 121.356 23.752 122.541 24.1375C123.038 24.2992 123.548 24.3572 124.069 24.353C124.173 24.3489 124.285 24.3572 124.397 24.3489Z" fill="#2C56FD"/>
<path d="M100.194 14.1351C100.194 13.2853 100.194 12.4894 100.194 11.6894C100.194 11.2293 100.186 10.765 100.199 10.3049C100.219 9.59605 100.778 9.02815 101.433 9.02401C102.112 9.01986 102.684 9.58362 102.713 10.2842C102.713 10.3173 102.713 10.3546 102.713 10.3878C102.713 15.3662 102.713 20.3446 102.713 25.323C102.713 25.9324 102.348 26.4588 101.818 26.6288C101.176 26.836 100.501 26.4754 100.273 25.8039C100.215 25.6298 100.19 25.4474 100.186 25.2194C99.8962 25.464 99.6518 25.692 99.3784 25.8909C98.2559 26.7034 96.9967 26.9894 95.6381 26.8443C93.7534 26.6412 92.2954 25.692 91.1977 24.1872C89.9468 22.467 89.5119 20.527 89.8515 18.442C90.2119 16.2284 91.2971 14.4418 93.2729 13.3019C95.0002 12.3029 96.8103 12.1868 98.6453 13.0324C99.163 13.2729 99.6187 13.6086 100.033 13.9983C100.078 14.0356 100.12 14.0687 100.194 14.1351ZM98.9269 22.981C100.571 21.211 100.625 18.3922 99.0719 16.5352C98.0281 15.2874 96.4706 14.8315 94.9919 15.4159C93.6913 15.9258 92.896 16.9414 92.519 18.2596C92.1255 19.6316 92.2622 20.9705 92.9995 22.2058C93.7244 23.4162 94.7806 24.1333 96.0937 24.1872C97.3074 24.1872 98.2062 23.7603 98.9269 22.981Z" fill="#2C56FD"/>
<path d="M104.906 17.9652C104.906 15.4781 104.906 12.9868 104.906 10.4996C104.906 9.77009 105.316 9.21877 105.971 9.05711C106.099 9.02395 106.232 9.02395 106.36 9.02395C108.34 9.02395 110.32 9.01151 112.3 9.02809C114.156 9.04467 115.618 9.86128 116.703 11.3453C117.672 12.6676 118.049 14.1723 117.784 15.7848C117.395 18.1434 116.069 19.7684 113.783 20.5518C113.327 20.7093 112.843 20.7674 112.358 20.7674C110.854 20.7715 109.351 20.7715 107.847 20.7632C107.677 20.7632 107.628 20.8088 107.628 20.9788C107.636 22.4545 107.632 23.9302 107.632 25.4059C107.632 25.8535 107.516 26.2515 107.172 26.5582C106.75 26.9354 106.257 27.0142 105.747 26.8028C105.233 26.5872 104.964 26.1727 104.915 25.6173C104.906 25.5219 104.906 25.4224 104.906 25.3271C104.906 22.8731 104.906 20.4192 104.906 17.9652ZM107.628 17.7413C107.628 17.9196 107.665 17.9735 107.851 17.9735C109.334 17.9652 110.817 17.9776 112.3 17.9652C113.377 17.9569 114.172 17.4263 114.682 16.5061C115.262 15.4615 115.262 14.3796 114.702 13.3225C114.197 12.3733 113.389 11.8344 112.304 11.8178C110.817 11.793 109.326 11.8137 107.835 11.8095C107.669 11.8095 107.628 11.8551 107.628 12.0168C107.636 12.9743 107.632 13.9319 107.632 14.8894C107.632 15.8387 107.636 16.7879 107.628 17.7413Z" fill="#2C56FD"/>
<path d="M83.9322 21.1944C82.5736 21.1944 81.2149 21.1944 79.8563 21.1944C79.7528 21.1944 79.6409 21.1737 79.6989 21.3519C80.0551 22.4462 80.6599 23.3499 81.6954 23.9054C82.8759 24.5396 84.276 24.3489 85.2701 23.4411C85.5849 23.1551 85.8541 22.8359 86.0654 22.467C86.3761 21.9198 86.8068 21.7001 87.3412 21.8203C87.8341 21.9322 88.2317 22.4297 88.2732 22.9851C88.3021 23.3416 88.2193 23.6691 88.0329 23.9717C87.1713 25.3645 85.9784 26.3386 84.3837 26.7283C82.4286 27.2008 80.722 26.6495 79.293 25.2691C77.9799 23.9966 77.3089 22.4048 77.1432 20.5975C77.0107 19.1674 77.2219 17.787 77.8598 16.4937C78.7752 14.6283 80.1711 13.3226 82.2753 12.9454C83.8535 12.6635 85.2742 13.0905 86.5169 14.0853C88.0163 15.2874 88.8116 16.8916 89.0974 18.7694C89.1513 19.1259 89.1844 19.4824 89.1844 19.8389C89.1844 20.6638 88.6542 21.1902 87.8299 21.1902C86.5252 21.1944 85.2287 21.1944 83.9322 21.1944ZM86.405 18.5456C86.4133 18.5456 86.4175 18.5456 86.4258 18.5456C86.5749 18.5663 86.6163 18.5249 86.5666 18.3673C86.3098 17.5632 85.879 16.8668 85.2494 16.303C84.1227 15.2957 82.5239 15.2087 81.3019 16.0916C80.5108 16.6595 80.022 17.4388 79.7072 18.3466C79.6451 18.529 79.7031 18.5497 79.8646 18.5456C80.954 18.5414 82.0434 18.5414 83.1328 18.5414C84.2263 18.5456 85.3157 18.5456 86.405 18.5456Z" fill="#2C56FD"/>
</g>
<defs>
<clipPath id="clip0_1963_22975">
<rect width="129.566" height="29" fill="white" transform="translate(9 4)"/>
</clipPath>
</defs>
</svg>
