<svg width="160" height="40" viewBox="0 0 160 40" fill="none" xmlns="http://www.w3.org/2000/svg">
<g clip-path="url(#clip0_3504_37764)">
<path d="M47.8867 20.8294H43.7109V25.0058H47.8867V20.8294Z" fill="#5D37A1"/>
<path d="M32.4599 17.0795C32.4599 15.7457 32.4599 14.4119 32.4599 13.0781C32.4599 11.7552 32.4599 10.4323 32.4599 9.06567C33.8809 9.06567 35.2583 9.06567 36.7121 9.06567C36.7121 9.2734 36.7121 9.48113 36.7121 9.69978C36.7121 15.4614 36.7231 21.234 36.7231 26.9957C36.7231 27.0504 36.7231 27.105 36.7231 27.1597C36.7559 28.2749 36.9636 28.5263 38.1223 28.745C38.1223 29.554 38.1332 30.3849 38.1114 31.2158C38.1114 31.3142 37.9474 31.4782 37.849 31.4782C36.9308 31.522 35.9907 31.6531 35.0943 31.5329C33.9902 31.3908 33.4546 30.6801 33.3016 29.565C33.2797 29.4447 33.2688 29.3244 33.2469 29.2151C32.8097 29.7071 32.4271 30.2647 31.9351 30.6692C29.8035 32.4185 26.2399 32.0686 24.163 29.9804C21.4629 27.2581 20.971 21.1029 24.5674 18.0416C26.6553 16.2705 29.0274 15.9753 31.5744 16.839C31.8149 16.9155 32.0445 17.0249 32.2849 17.1123C32.3177 17.1123 32.3505 17.0905 32.4599 17.0795ZM32.5692 23.0161C32.5801 23.0161 32.5801 23.0161 32.5692 23.0161C32.5692 22.8193 32.602 22.6116 32.5692 22.4148C32.4599 21.8354 32.908 21.1029 32.3068 20.6983C31.804 20.3594 31.1372 20.2391 30.525 20.0533C30.2845 19.9877 30.0222 19.9986 29.7707 19.9986C28.3059 20.0205 27.0816 20.8186 26.5788 22.1415C26.065 23.4862 26.0978 24.8529 26.6553 26.1757C27.016 27.0394 27.6719 27.6189 28.6011 27.8594C30.6562 28.3951 32.4599 26.9848 32.5582 24.7435C32.602 24.1859 32.5692 23.5956 32.5692 23.0161Z" fill="black"/>
<path d="M97.4051 17.7136C100.575 16.1939 103.767 15.7128 107.068 16.7733C109.342 17.4949 110.555 19.2988 110.577 21.6931C110.588 23.6939 110.566 25.6946 110.61 27.6953C110.632 28.8105 110.807 28.9526 111.998 29.1385C111.998 29.8054 112.009 30.4942 111.987 31.172C111.987 31.2813 111.813 31.4781 111.703 31.4781C110.818 31.5219 109.921 31.6203 109.058 31.5109C108.096 31.3907 107.538 30.7238 107.385 29.7507C107.374 29.6633 107.342 29.5758 107.32 29.4883C107.32 29.4774 107.298 29.4665 107.364 29.5211C106.675 30.035 106.063 30.6363 105.33 31.0299C103.035 32.2544 100.007 31.8389 98.2249 30.2208C96.0824 28.2748 96.2901 23.7376 99.5476 22.371C101.69 21.4745 103.844 21.5729 105.975 22.4257C106.117 22.4803 106.259 22.5568 106.412 22.6115C106.751 21.3105 106.238 20.3375 104.959 19.9001C103.822 19.5175 102.652 19.5284 101.504 19.758C100.619 19.9329 99.7662 20.2281 98.8261 20.4796C98.3779 19.6268 97.9079 18.7085 97.4051 17.7136ZM106.445 25.9133C106.489 25.465 106.292 25.1698 105.899 25.0714C105.046 24.8528 104.182 24.5904 103.319 24.5357C102.827 24.5029 102.237 24.7434 101.799 25.0168C100.728 25.6946 100.717 27.3455 101.734 28.0343C103.024 28.9089 105.604 28.1764 106.227 26.7442C106.347 26.4818 106.38 26.1975 106.445 25.9133Z" fill="black"/>
<path d="M78.7889 24.0001C78.7889 28.5591 75.586 31.7406 71.0058 31.7297C66.3381 31.7188 63.1571 28.5373 63.168 23.8689C63.1789 19.3755 66.4365 16.2158 71.0495 16.2268C75.6079 16.2268 78.7889 19.4301 78.7889 24.0001ZM67.3438 23.9673C67.4422 24.503 67.4749 25.0497 67.6498 25.5635C68.109 26.9411 69.0709 27.7938 70.5248 27.9797C71.9896 28.1656 73.203 27.6189 73.9463 26.3398C74.8427 24.7982 74.8208 23.1801 73.9463 21.6167C73.4107 20.6546 72.5252 20.1298 71.4212 20.0096C69.1474 19.7472 67.4094 21.4637 67.3438 23.9673Z" fill="black"/>
<path d="M94.7794 29.0073C93.1725 31.347 89.3902 32.3419 86.1546 31.3142C82.9407 30.2974 80.995 27.4877 81.0278 23.8907C81.0605 20.3047 83.1047 17.5278 86.4388 16.5438C89.6198 15.6036 93.249 16.6094 94.7794 18.8944C93.8065 19.7143 92.8336 20.5453 91.8607 21.3762C90.3741 19.8783 89.0623 19.5722 87.4335 20.3157C85.7392 21.0919 84.9193 23.0598 85.4222 25.1371C85.8485 26.9301 87.3898 28.1108 89.2044 28.0452C90.2101 28.0124 90.9534 27.5861 91.8498 26.4928C92.8117 27.3346 93.7846 28.1655 94.7794 29.0073Z" fill="black"/>
<path d="M114.731 9C116.13 9 117.475 9 118.885 9C118.896 9.24052 118.918 9.47012 118.918 9.69971C118.918 15.0241 118.918 20.3484 118.918 25.6837C118.918 26.0335 118.929 26.3725 118.973 26.7223C119.126 27.8156 119.716 28.3295 120.809 28.3295C121.137 28.3295 121.454 28.2967 121.847 28.2748C121.902 29.3134 121.946 30.3411 122 31.4235C120.23 31.7296 118.492 31.9483 116.83 31.0408C115.923 30.5488 115.354 29.7398 115.092 28.7558C114.895 27.9905 114.72 27.1815 114.709 26.3943C114.677 20.742 114.688 15.0897 114.698 9.42638C114.709 9.30612 114.72 9.18586 114.731 9Z" fill="black"/>
<path d="M54.4652 9C55.8754 9 57.2418 9 58.6629 9C58.6629 9.24052 58.6629 9.44825 58.6629 9.65598C58.6629 14.9475 58.6629 20.2391 58.6629 25.5197C58.6629 25.5416 58.6629 25.5525 58.6629 25.5744C58.5973 28.2201 59.6029 28.4934 61.6034 28.242C61.6471 29.215 61.6908 30.199 61.7127 31.172C61.7127 31.2704 61.5378 31.4453 61.4285 31.4672C60.2807 31.664 59.122 31.7733 57.9632 31.5437C56.1486 31.183 55.0227 30.0241 54.662 28.078C54.5199 27.2799 54.4434 26.449 54.4434 25.6399C54.4215 20.2828 54.4324 14.9147 54.4324 9.55758C54.4324 9.39359 54.4543 9.22959 54.4652 9Z" fill="black"/>
</g>
<defs>
<clipPath id="clip0_3504_37764">
<rect width="100" height="22.7733" fill="white" transform="translate(22 9)"/>
</clipPath>
</defs>
</svg>
