<svg width="160" height="40" viewBox="0 0 160 40" fill="none" xmlns="http://www.w3.org/2000/svg">
<path d="M30.2734 26.9566V9.02444H42.1465V12.1503H34.0648V16.4232H41.3584V19.5491H34.0648V26.9566H30.2734Z" fill="#2D233B"/>
<path d="M48.2931 27.2105C47.4351 27.2105 46.6704 27.0617 45.9991 26.764C45.3278 26.4604 44.7966 26.0139 44.4055 25.4243C44.0202 24.8289 43.8276 24.0876 43.8276 23.2003C43.8276 22.4531 43.9648 21.8256 44.2391 21.3178C44.5135 20.8099 44.8871 20.4013 45.3599 20.0919C45.8327 19.7826 46.3698 19.5491 46.971 19.3915C47.5781 19.2339 48.2143 19.1229 48.8798 19.0587C49.662 18.977 50.2924 18.9011 50.7711 18.8311C51.2497 18.7552 51.597 18.6443 51.813 18.4984C52.029 18.3524 52.137 18.1364 52.137 17.8504V17.7979C52.137 17.2433 51.9619 16.8143 51.6116 16.5108C51.2672 16.2072 50.7769 16.0555 50.1406 16.0555C49.4694 16.0555 48.9352 16.2043 48.5383 16.502C48.1414 16.7939 47.8787 17.1616 47.7503 17.6053L44.3004 17.3251C44.4756 16.5078 44.82 15.8015 45.3336 15.2061C45.8473 14.6049 46.5098 14.1437 47.3212 13.8227C48.1385 13.4958 49.0841 13.3324 50.1582 13.3324C50.9053 13.3324 51.6204 13.4199 52.3034 13.595C52.9922 13.7702 53.6022 14.0416 54.1333 14.4093C54.6704 14.7771 55.0936 15.2499 55.403 15.8278C55.7123 16.3999 55.867 17.0857 55.867 17.8854V26.9566H52.3296V25.0916H52.2246C52.0086 25.5119 51.7196 25.8825 51.3577 26.2036C50.9958 26.5188 50.5609 26.7669 50.0531 26.9478C49.5452 27.1229 48.9586 27.2105 48.2931 27.2105ZM49.3614 24.6363C49.9101 24.6363 50.3946 24.5283 50.8148 24.3123C51.2351 24.0905 51.5649 23.7928 51.8043 23.4192C52.0436 23.0456 52.1633 22.6224 52.1633 22.1496V20.7224C52.0465 20.7982 51.886 20.8683 51.6817 20.9325C51.4832 20.9909 51.2585 21.0463 51.0075 21.0989C50.7565 21.1456 50.5055 21.1893 50.2545 21.2302C50.0035 21.2652 49.7758 21.2973 49.5715 21.3265C49.1337 21.3907 48.7514 21.4929 48.4245 21.633C48.0976 21.7731 47.8437 21.9628 47.6627 22.2021C47.4818 22.4356 47.3913 22.7275 47.3913 23.0777C47.3913 23.5856 47.5752 23.9737 47.9429 24.2422C48.3165 24.5049 48.7893 24.6363 49.3614 24.6363Z" fill="#2D233B"/>
<path d="M58.7609 26.9566V13.5075H62.4909V26.9566H58.7609ZM60.6346 11.7738C60.0801 11.7738 59.6043 11.5899 59.2074 11.2222C58.8163 10.8486 58.6208 10.402 58.6208 9.88252C58.6208 9.36884 58.8163 8.92813 59.2074 8.56038C59.6043 8.18679 60.0801 8 60.6346 8C61.1892 8 61.662 8.18679 62.0531 8.56038C62.45 8.92813 62.6485 9.36884 62.6485 9.88252C62.6485 10.402 62.45 10.8486 62.0531 11.2222C61.662 11.5899 61.1892 11.7738 60.6346 11.7738Z" fill="#2D233B"/>
<path d="M65.4788 26.9566V13.5075H69.095V15.8541H69.2351C69.4803 15.0193 69.8918 14.3889 70.4697 13.9628C71.0476 13.5308 71.7131 13.3148 72.4661 13.3148C72.6529 13.3148 72.8542 13.3265 73.0702 13.3499C73.2862 13.3732 73.4759 13.4053 73.6394 13.4462V16.7559C73.4642 16.7034 73.222 16.6567 72.9126 16.6158C72.6032 16.575 72.3201 16.5545 72.0633 16.5545C71.5146 16.5545 71.0243 16.6742 70.5923 16.9135C70.1662 17.147 69.8276 17.4739 69.5766 17.8942C69.3314 18.3145 69.2089 18.799 69.2089 19.3477V26.9566H65.4788Z" fill="#2D233B"/>
<path d="M75.6379 9.02444H80.3136L85.2519 21.0726H85.4621L90.4004 9.02444H95.0761V26.9566H91.3986V15.2849H91.2497L86.6091 26.869H84.1049L79.4642 15.2412H79.3154V26.9566H75.6379V9.02444Z" fill="#2D233B"/>
<path d="M104.206 27.2193C102.846 27.2193 101.67 26.9303 100.678 26.3524C99.6912 25.7687 98.9294 24.9573 98.3924 23.9183C97.8553 22.8734 97.5868 21.6622 97.5868 20.2846C97.5868 18.8953 97.8553 17.6811 98.3924 16.6421C98.9294 15.5972 99.6912 14.7858 100.678 14.208C101.67 13.6242 102.846 13.3324 104.206 13.3324C105.566 13.3324 106.74 13.6242 107.726 14.208C108.719 14.7858 109.483 15.5972 110.02 16.6421C110.557 17.6811 110.826 18.8953 110.826 20.2846C110.826 21.6622 110.557 22.8734 110.02 23.9183C109.483 24.9573 108.719 25.7687 107.726 26.3524C106.74 26.9303 105.566 27.2193 104.206 27.2193ZM104.224 24.3298C104.843 24.3298 105.359 24.1547 105.774 23.8045C106.188 23.4484 106.5 22.9639 106.711 22.351C106.926 21.7381 107.034 21.0405 107.034 20.2583C107.034 19.4761 106.926 18.7785 106.711 18.1656C106.5 17.5527 106.188 17.0682 105.774 16.7121C105.359 16.3561 104.843 16.178 104.224 16.178C103.599 16.178 103.074 16.3561 102.648 16.7121C102.227 17.0682 101.909 17.5527 101.693 18.1656C101.483 18.7785 101.378 19.4761 101.378 20.2583C101.378 21.0405 101.483 21.7381 101.693 22.351C101.909 22.9639 102.227 23.4484 102.648 23.8045C103.074 24.1547 103.599 24.3298 104.224 24.3298Z" fill="#2D233B"/>
<path d="M116.981 19.1813V26.9566H113.251V13.5075H116.806V15.8803H116.964C117.261 15.0981 117.76 14.4794 118.461 14.0241C119.161 13.5629 120.011 13.3324 121.009 13.3324C121.943 13.3324 122.757 13.5367 123.452 13.9453C124.146 14.3539 124.686 14.9376 125.072 15.6965C125.457 16.4495 125.65 17.3484 125.65 18.3933V26.9566H121.92V19.0587C121.925 18.2357 121.715 17.5936 121.289 17.1324C120.863 16.6655 120.276 16.432 119.529 16.432C119.027 16.432 118.584 16.5399 118.198 16.7559C117.819 16.9719 117.521 17.2871 117.305 17.7016C117.095 18.1102 116.987 18.6034 116.981 19.1813Z" fill="#2D233B"/>
<path d="M134.719 27.2193C133.335 27.2193 132.144 26.9391 131.146 26.3787C130.154 25.8125 129.389 25.0128 128.852 23.9796C128.315 22.9405 128.047 21.7118 128.047 20.2933C128.047 18.9099 128.315 17.6957 128.852 16.6509C129.389 15.606 130.145 14.7917 131.12 14.208C132.101 13.6242 133.25 13.3324 134.57 13.3324C135.457 13.3324 136.283 13.4754 137.048 13.7614C137.818 14.0416 138.489 14.4648 139.061 15.031C139.639 15.5972 140.089 16.3094 140.41 17.1675C140.731 18.0197 140.891 19.0179 140.891 20.162V21.1864H129.535V18.8749H137.38C137.38 18.3378 137.264 17.8621 137.03 17.4476C136.797 17.0332 136.473 16.7092 136.058 16.4757C135.65 16.2364 135.174 16.1167 134.631 16.1167C134.065 16.1167 133.563 16.2481 133.125 16.5108C132.693 16.7676 132.354 17.1149 132.109 17.5527C131.864 17.9847 131.739 18.4663 131.733 18.9974V21.1952C131.733 21.8606 131.855 22.4356 132.101 22.9201C132.352 23.4046 132.705 23.7782 133.16 24.0409C133.615 24.3035 134.155 24.4349 134.78 24.4349C135.194 24.4349 135.574 24.3765 135.918 24.2598C136.262 24.143 136.557 23.9679 136.802 23.7344C137.048 23.5009 137.234 23.2149 137.363 22.8763L140.813 23.104C140.638 23.9329 140.279 24.6567 139.736 25.2754C139.199 25.8884 138.504 26.367 137.652 26.7114C136.805 27.05 135.828 27.2193 134.719 27.2193Z" fill="#2D233B"/>
<path d="M145.267 32C144.794 32 144.351 31.9621 143.936 31.8862C143.528 31.8161 143.189 31.7256 142.921 31.6147L143.761 28.8304C144.199 28.9646 144.593 29.0376 144.943 29.0493C145.299 29.0609 145.606 28.9792 145.863 28.8041C146.125 28.629 146.338 28.3313 146.502 27.911L146.721 27.3418L141.896 13.5075H145.819L148.603 23.3842H148.743L151.554 13.5075H155.503L150.276 28.4101C150.025 29.1339 149.683 29.7643 149.251 30.3013C148.825 30.8442 148.285 31.2616 147.631 31.5534C146.978 31.8511 146.19 32 145.267 32Z" fill="#2D233B"/>
<g clip-path="url(#clip0_2480_30365)">
<path d="M5.01274 16.0312C4.90572 15.1597 5.32041 14.1675 6.09628 13.7787C9.70808 11.915 13.3333 10.0647 16.9718 8.22787C18.0286 7.69157 19.2325 8.13402 19.7542 9.15301C20.2759 10.1854 19.9148 11.4189 18.858 11.9686C15.2729 13.8323 11.6879 15.696 8.04932 17.4792C7.28683 17.8546 6.33706 17.801 5.65483 17.2513C5.28028 16.9563 5.06624 16.5004 5.01274 16.0312Z" fill="#37A477"/>
<path d="M9.74856 22.6144C9.56128 22.6278 9.36063 22.6144 9.15997 22.5742C8.42424 22.3999 7.79551 21.8904 7.59486 21.1396C7.3407 20.201 7.67512 19.2089 8.51787 18.7664C10.8722 17.5195 13.24 16.286 15.6478 15.1195C16.7715 14.5698 17.9621 15.0525 18.4436 16.0849C18.9653 17.1843 18.5507 18.3508 17.3869 18.9407C16.1027 19.5977 14.8318 20.2547 13.5476 20.8982C12.9055 21.22 12.2634 21.5552 11.6213 21.877C10.9926 22.2122 10.4174 22.5742 9.74856 22.6144Z" fill="#37A477"/>
<path d="M17.6432 23.982C17.6432 24.5317 17.2954 25.1619 16.5597 25.5641C15.4093 26.1809 14.2455 26.7976 13.0683 27.3741C11.9847 27.9105 10.7407 27.468 10.2324 26.4088C9.72403 25.363 10.0986 24.1831 11.1554 23.6066C12.3058 22.9898 13.4696 22.3731 14.6468 21.8099C16.0647 21.1396 17.6299 22.1451 17.6432 23.982Z" fill="#37A477"/>
<path d="M24.9705 19.9999C24.9705 21.2066 24.101 22.0781 22.9104 22.0915C21.7199 22.1049 20.7969 21.1664 20.7969 19.9731C20.7969 18.7798 21.8135 17.7876 23.0041 17.9351C24.1679 18.0826 24.9839 18.7932 24.9705 19.9999Z" fill="#2D233B"/>
</g>
<defs>
<clipPath id="clip0_2480_30365">
<rect width="19.9719" height="19.6021" fill="white" transform="translate(5 8)"/>
</clipPath>
</defs>
</svg>
