<svg width="160" height="40" viewBox="0 0 160 40" fill="none" xmlns="http://www.w3.org/2000/svg">
<g clip-path="url(#clip0_3504_37386)">
<path d="M100.803 26.9425C97.5438 32.0236 91.3122 32.3112 87.5733 29.1475C83.8344 25.8879 83.5467 20.1357 87.0939 16.4927C90.5453 13.0413 96.7768 12.9455 100.516 17.8348C100.516 16.8761 100.516 16.0133 100.516 15.2463C100.516 14.2876 100.42 14.3835 101.379 14.3835C102.529 14.3835 103.584 14.3835 104.734 14.3835C105.309 14.3835 105.405 14.5752 105.405 15.0546C105.405 18.2183 105.405 21.382 105.405 24.5458C105.405 25.3127 105.789 25.8879 106.46 26.0797C107.131 26.2714 107.706 26.0797 108.09 25.5045C108.377 25.121 108.377 24.7375 108.377 24.2581C108.377 21.1903 108.377 18.1224 108.377 15.0546C108.377 14.4794 108.473 14.2876 109.048 14.3835C110.295 14.3835 111.541 14.3835 112.691 14.3835C112.979 14.3835 113.171 14.4794 113.171 14.8629C113.171 18.4101 113.266 21.9573 113.075 25.4086C112.979 28.2847 110.774 30.5856 107.898 31.0649C105.118 31.5443 102.337 30.1062 100.995 27.6136C100.995 27.4219 100.899 27.2301 100.803 26.9425ZM96.8727 22.5325C96.8727 20.5192 95.2429 18.9853 93.3255 18.9853C91.3122 18.9853 89.6824 20.6151 89.6824 22.6283C89.6824 24.6416 91.3122 26.2714 93.3255 26.2714C95.3388 26.1755 96.9686 24.6416 96.8727 22.5325Z" fill="#E50B2C"/>
<path d="M28.3236 31.2566C23.5301 31.2566 19.6953 27.4218 19.6953 22.5324C19.6953 17.8348 23.5301 14 28.4195 14C33.1171 14 36.9519 17.8348 37.0478 22.6283C36.9519 27.4218 33.1171 31.2566 28.3236 31.2566ZM24.7764 22.5324C24.7764 24.5457 26.3104 26.1755 28.3236 26.1755C30.3369 26.1755 31.9667 24.5457 31.9667 22.5324C31.9667 20.615 30.3369 18.8894 28.4195 18.8894C26.4062 18.9853 24.7764 20.5192 24.7764 22.5324Z" fill="#E50B2C"/>
<path d="M46.2533 31.2566C41.3639 31.2566 37.625 27.4218 37.625 22.5324C37.625 17.8348 41.5557 14 46.3492 14C51.1427 14 54.9775 17.9307 54.9775 22.6283C54.8816 27.4218 51.0468 31.2566 46.2533 31.2566ZM42.802 22.5324C42.802 24.5457 44.3359 26.1755 46.3492 26.1755C48.3625 26.1755 49.9923 24.5457 49.9923 22.5324C49.9923 20.5192 48.3625 18.8894 46.4451 18.8894C44.4318 18.9853 42.802 20.5192 42.802 22.5324Z" fill="#E50B2C"/>
<path d="M127.839 30.9691C126.113 30.9691 124.579 30.9691 123.045 30.9691C122.662 30.9691 122.566 30.7773 122.374 30.5856C121.511 29.3393 120.744 28.1888 119.69 27.0384C119.498 26.8466 119.306 26.559 119.019 26.6549C118.731 26.7508 118.827 27.1342 118.827 27.4219C118.827 28.4764 118.827 29.531 118.827 30.5856C118.827 30.9691 118.731 31.0649 118.348 31.0649C117.005 31.0649 115.759 31.0649 114.417 31.0649C114.033 31.0649 113.938 30.9691 113.938 30.5856C113.938 25.4086 113.938 20.1357 113.938 14.9587C113.938 14.5752 114.033 14.4794 114.417 14.4794C116.43 14.4794 118.443 14.3835 120.457 14.4794C123.908 14.5752 127.551 18.6977 125.442 23.3953C125.25 23.8747 124.963 24.4499 124.579 24.8334C124.196 25.2168 124.291 25.5045 124.483 25.8879C125.442 27.4219 126.401 28.8599 127.359 30.3938C127.551 30.4897 127.647 30.6814 127.839 30.9691ZM118.827 20.5192C118.827 20.7109 118.827 20.8068 118.827 20.9986C118.827 21.2862 118.827 21.4779 118.827 21.7655C118.827 21.8614 118.827 22.0531 119.019 22.0531C119.69 22.0531 120.265 22.149 120.84 21.7655C121.32 21.382 121.607 20.9027 121.511 20.3275C121.415 19.3688 120.648 18.7935 119.306 18.9853C119.019 18.9853 118.827 19.177 118.827 19.4646C118.827 19.7522 118.827 20.1357 118.827 20.5192Z" fill="#E50B2B"/>
<path d="M55.7422 22.6283C55.7422 20.0398 55.7422 17.5472 55.7422 14.9587C55.7422 14.4793 55.9339 14.2876 56.4133 14.2876C58.0431 14.2876 59.7688 14.2876 61.3985 14.3835C65.521 14.6711 68.7805 18.2183 68.9723 22.2448C69.0682 26.4631 66.0962 30.2021 62.0696 30.7773C60.1522 31.0649 58.139 30.8731 56.1257 30.8731C55.6463 30.8731 55.7422 30.5855 55.7422 30.2979C55.7422 27.8053 55.7422 25.2168 55.7422 22.6283ZM60.5357 22.6283C60.5357 23.6829 60.5357 24.6416 60.5357 25.6961C60.5357 25.9838 60.6316 26.1755 60.9192 26.0796C62.549 25.9838 63.987 24.4498 64.0829 22.7242C64.1788 20.9985 62.7407 19.3687 61.1109 19.177C60.7275 19.177 60.5357 19.177 60.5357 19.6563C60.6316 20.615 60.5357 21.5737 60.5357 22.6283Z" fill="#E50B2B"/>
<path d="M78.7527 31.0649C73.4799 31.0649 69.6451 27.326 69.5492 22.6283C69.4533 18.8894 72.3294 15.2463 76.1642 14.3835C79.2321 13.7124 82.0123 14.3835 84.4091 16.4926C84.7926 16.8761 84.7926 17.0678 84.4091 17.4513C83.4504 18.2183 82.5876 18.9853 81.7247 19.8481C81.3412 20.2316 81.1495 20.1357 80.766 19.8481C79.328 18.6976 77.3147 18.6976 75.8766 19.8481C74.5345 20.9985 74.151 22.8201 75.0138 24.354C76.2601 26.559 79.328 27.0383 81.0536 25.1209C81.3412 24.7375 81.533 24.8333 81.9165 25.0251C82.971 25.792 84.0256 26.4631 85.0802 27.1342C85.4637 27.4218 85.4637 27.5177 85.176 27.9012C83.2586 30.0103 80.9578 30.969 78.7527 31.0649Z" fill="#E50C2C"/>
<path d="M8 22.6283C8 20.1357 8 17.5472 8 14.9587C8 14.4794 8.09587 14.3835 8.57522 14.3835C12.1224 14.3835 15.6696 14.3835 19.2168 14.3835C19.6962 14.3835 19.792 14.4794 19.792 14.9587C19.792 16.1091 19.792 17.1637 19.792 18.3142C19.792 18.7935 19.6962 18.8894 19.2168 18.8894C17.2994 18.8894 15.382 18.8894 13.4646 18.8894C12.9853 18.7935 12.8894 18.8894 12.8894 19.3687C12.8894 20.615 12.8894 20.615 14.1357 20.615C15.382 20.615 16.7242 20.615 17.9705 20.615C18.4499 20.615 18.5457 20.7109 18.5457 21.1903C18.5457 22.2448 18.5457 23.2994 18.5457 24.2581C18.5457 24.7375 18.354 24.8333 17.8746 24.8333C16.4366 24.8333 14.9027 24.8333 13.4646 24.8333C12.9853 24.8333 12.8894 24.9292 12.8894 25.4086C12.8894 27.0384 12.8894 28.6681 12.8894 30.2979C12.8894 30.7773 12.7935 30.969 12.3142 30.8732C11.0678 30.8732 9.82153 30.8732 8.57522 30.8732C8.09587 30.8732 8 30.6814 8 30.2979C8 27.8053 8 25.2168 8 22.6283Z" fill="#E50A2B"/>
<path d="M129.849 25.1209C129.849 23.3953 129.849 21.5737 129.849 19.8481C129.849 19.3687 129.754 19.177 129.274 19.177C128.507 19.2728 127.74 19.177 127.069 19.177C126.782 19.177 126.59 19.0811 126.59 18.6976C126.59 17.3554 126.59 16.1091 126.59 14.7669C126.59 14.3835 126.686 14.2876 127.069 14.2876C130.616 14.2876 134.164 14.2876 137.711 14.2876C137.998 14.2876 138.094 14.3835 138.094 14.6711C138.094 16.0133 138.094 17.3554 138.094 18.6976C138.094 18.9852 137.998 19.0811 137.711 19.0811C136.944 19.0811 136.177 19.0811 135.506 19.0811C135.026 19.0811 134.835 19.177 134.835 19.7522C134.835 23.2035 134.835 26.7507 134.835 30.202C134.835 30.8731 134.643 30.969 134.068 30.969C132.917 30.969 131.767 30.8731 130.712 30.969C130.041 30.969 129.945 30.7773 129.945 30.202C129.849 28.4764 129.849 26.7507 129.849 25.1209Z" fill="#E50B2C"/>
</g>
<defs>
<clipPath id="clip0_3504_37386">
<rect width="130" height="17.2566" fill="white" transform="translate(8 14)"/>
</clipPath>
</defs>
</svg>
