<svg width="160" height="40" viewBox="0 0 160 40" fill="none" xmlns="http://www.w3.org/2000/svg">
<g clip-path="url(#clip0_1986_22625)">
<path fill-rule="evenodd" clip-rule="evenodd" d="M43.1603 34.3386C46.7214 34.3386 50.0318 33.2578 52.7815 31.4109L52.8048 31.4449C46.8959 37.4669 39.3223 37.5619 33.5 31.4672L33.5389 31.4109C36.2835 33.2578 39.5989 34.3386 43.1603 34.3386Z" fill="url(#paint0_linear_1986_22625)"/>
<path d="M61.2734 28.8727H66.1698V4H61.2734V28.8727Z" fill="#372AA4"/>
<path d="M68.7461 20.2081C68.7461 25.305 72.47 29.3485 78.1249 29.3485C83.7798 29.3485 87.5384 25.3389 87.5384 20.2081C87.5384 15.0773 83.78 11.0678 78.1249 11.0678C72.47 11.0678 68.7461 15.0773 68.7461 20.2081ZM82.5386 20.2081C82.5386 23.0965 80.849 24.9993 78.1251 24.9993C75.4012 24.9993 73.7116 23.0965 73.7116 20.2081C73.7116 17.3198 75.4012 15.4171 78.1251 15.4171C80.849 15.4171 82.5386 17.3198 82.5386 20.2081Z" fill="#372AA4"/>
<path d="M100.868 11.5432L96.833 23.3001L92.765 11.5432H87.5234L94.1437 28.8726H99.4884L106.109 11.5432H100.868Z" fill="#2B0099"/>
<path d="M100.868 11.5432L96.833 23.3001L92.765 11.5432H87.5234L94.1437 28.8726H99.4884L106.109 11.5432H100.868Z" fill="#372AA4"/>
<path fill-rule="evenodd" clip-rule="evenodd" d="M123.68 21.635C123.749 21.0576 123.784 20.4798 123.784 19.9701C123.784 14.6013 120.335 11.0675 115.128 11.0675C109.75 11.0675 106.129 14.9072 106.129 20.2758C106.129 25.7805 109.922 29.3482 115.611 29.3482C118.818 29.3482 121.438 28.2268 123.128 26.2221L120.335 23.368C119.163 24.6251 117.646 25.2368 115.784 25.2368C113.163 25.2368 111.508 24.0476 111.06 21.6348L123.68 21.635ZM111.06 18.509C111.474 16.3344 112.922 15.145 115.163 15.145C117.404 15.145 118.749 16.3342 118.922 18.509H111.06ZM137.666 11.4412C137.252 11.2714 136.77 11.2034 136.184 11.2034C133.839 11.2034 131.942 12.3926 131.08 14.3974V11.5433H126.288V28.8727H131.184V20.4798C131.184 17.2178 132.528 15.8246 135.528 15.8246C136.218 15.8246 136.942 15.8926 137.666 16.0284V11.4412Z" fill="url(#paint1_linear_1986_22625)"/>
<path fill-rule="evenodd" clip-rule="evenodd" d="M32.3476 8.91132H24.2065C23.543 8.91132 23 9.44624 23 10.1001C23 10.7541 23.543 11.289 24.2065 11.289H31.0625C30.6646 12.043 30.3375 12.8388 30.0895 13.667H29.0324C28.3687 13.667 27.8259 14.2019 27.8259 14.8559C27.8259 15.5097 28.3687 16.0446 29.0324 16.0446H29.611C29.5621 16.5039 29.5368 16.97 29.5368 17.4418C29.5368 24.8242 35.6657 30.8636 43.1572 30.8636C50.6483 30.8636 56.7774 24.8242 56.7774 17.4418V15.4446H54.4259V15.4382H46.3221V18.9575C46.3221 20.1613 46.9439 21.2288 47.8862 21.8641C46.695 23.1002 45.0135 23.8737 43.1572 23.8737C42.1279 23.8737 41.1521 23.6355 40.2836 23.213L40.4276 23.3173C34.1101 20.8738 31.423 14.8922 32.9018 8.97582L32.3478 8.91154L32.3476 8.91132Z" fill="url(#paint2_linear_1986_22625)"/>
<path fill-rule="evenodd" clip-rule="evenodd" d="M43.1603 34.3386C46.7214 34.3386 50.0318 33.2578 52.7815 31.4109L52.8048 31.4449C46.8959 37.4669 39.3223 37.5619 33.5 31.4672L33.5389 31.4109C36.2835 33.2578 39.5989 34.3386 43.1603 34.3386Z" fill="url(#paint3_linear_1986_22625)"/>
<path fill-rule="evenodd" clip-rule="evenodd" d="M32.9003 8.97538C31.4215 14.8918 34.1089 20.8736 40.4262 23.3168L40.2207 23.168C38.1002 22.1023 36.6382 19.9286 36.6382 17.4342C36.6382 13.8957 39.5794 10.9972 43.1704 10.9972H48.4787C53.2995 10.9972 53.7197 9.24478 53.7197 4.01959C45.4818 4.01959 37.2626 4.15547 29.0307 4.15547C28.367 4.15547 27.8242 4.69061 27.8242 5.34443C27.8242 5.99825 28.367 6.53339 29.0307 6.53339H35.2442C34.2825 7.21366 33.4133 8.01368 32.6601 8.91131H32.3462L32.9001 8.9756L32.9003 8.97538Z" fill="#71EFF0"/>
</g>
<defs>
<linearGradient id="paint0_linear_1986_22625" x1="46.6799" y1="32.9676" x2="46.6619" y2="36.5362" gradientUnits="userSpaceOnUse">
<stop stop-color="#FFB424"/>
<stop offset="1" stop-color="#FF3E30"/>
</linearGradient>
<linearGradient id="paint1_linear_1986_22625" x1="110.057" y1="17.65" x2="135.299" y2="29.1492" gradientUnits="userSpaceOnUse">
<stop stop-color="#372AA4"/>
<stop offset="1" stop-color="#71EFF0"/>
</linearGradient>
<linearGradient id="paint2_linear_1986_22625" x1="42.4595" y1="15.172" x2="73.2843" y2="27.4212" gradientUnits="userSpaceOnUse">
<stop stop-color="#372AA4"/>
<stop offset="0.270588" stop-color="#3D6BE1"/>
<stop offset="1" stop-color="#71EFF0"/>
</linearGradient>
<linearGradient id="paint3_linear_1986_22625" x1="46.6799" y1="32.9676" x2="46.6619" y2="36.5362" gradientUnits="userSpaceOnUse">
<stop stop-color="#F9D576"/>
<stop offset="1" stop-color="#EF233C"/>
</linearGradient>
<clipPath id="clip0_1986_22625">
<rect width="114.667" height="32" fill="white" transform="translate(23 4)"/>
</clipPath>
</defs>
</svg>
