<svg width="160" height="40" viewBox="0 0 160 40" fill="none" xmlns="http://www.w3.org/2000/svg">
<g clip-path="url(#clip0_1946_21809)">
<path d="M38.4447 10.19C38.4447 10.7627 38.1035 11.1444 37.7213 11.5126C32.9991 16.2301 28.2768 20.9612 23.5546 25.6924C23.0769 26.1696 22.6129 26.6604 22.1215 27.1376C21.3709 27.8602 20.4701 27.9011 19.8287 27.274C19.1872 26.6331 19.2281 25.706 19.9378 24.9834C25.1924 19.7205 30.4332 14.4712 35.6878 9.20835C36.2883 8.60843 36.9024 8.45845 37.5302 8.73114C38.1035 8.97656 38.4583 9.54921 38.4447 10.19Z" fill="#0150E3"/>
<path d="M30.9656 31.3778C30.4061 31.3506 29.9147 31.0643 29.6554 30.4643C29.3825 29.8235 29.5053 29.2236 30.0103 28.7191C31.4433 27.2739 32.89 25.8286 34.3367 24.397C38.1855 20.5521 42.0343 16.7208 45.8694 12.8759C46.3607 12.3851 46.9066 12.1533 47.589 12.3851C48.1896 12.5896 48.5171 13.0259 48.599 13.6258C48.6809 14.2121 48.4216 14.662 48.0121 15.0711C43.6857 19.3932 39.3592 23.7153 35.0464 28.0374C34.1184 28.9646 33.1903 29.8917 32.2622 30.8188C31.921 31.1597 31.5389 31.3778 30.9656 31.3778Z" fill="#0050E3"/>
<path d="M107.039 29.2374C104.078 29.4692 100.939 27.724 100.161 24.6699C99.3692 21.5476 100.57 18.5344 103.15 17.13C105.456 15.8757 108.773 16.2165 110.561 17.8936C110.875 18.1935 111.025 18.4253 110.602 18.7389C110.533 18.7934 110.479 18.8752 110.424 18.9434C110.069 19.3252 109.769 19.8705 109.332 20.0342C108.977 20.1569 108.732 19.8024 108.486 19.6115C107.271 18.6571 105.456 18.698 104.242 19.5706C102.959 20.4841 102.549 21.8339 102.713 23.3473C103.068 26.4832 106.193 27.8058 108.786 25.897C109.25 25.5561 109.482 25.5697 109.796 26.0197C110.015 26.3333 110.274 26.6332 110.561 26.8786C111.011 27.2604 110.861 27.5195 110.492 27.833C109.496 28.6784 108.281 29.1283 107.039 29.2374Z" fill="#0150E3"/>
<path d="M36.1382 5.43167C36.1382 6.00431 35.9335 6.38608 35.6059 6.72694C31.7162 10.6128 27.8265 14.4986 23.9368 18.3844C23.2544 19.0661 22.299 19.0661 21.6985 18.4253C21.1116 17.8117 21.1253 16.8846 21.7667 16.2301C25.6701 12.3171 29.5735 8.40397 33.4768 4.49089C33.9681 4.00005 34.5687 3.83644 35.2238 4.12276C35.8106 4.38182 36.1109 4.87266 36.1382 5.43167Z" fill="#0150E3"/>
<path d="M31.8535 34.4457C31.8535 34.023 32.0036 33.6549 32.3039 33.3549C36.2346 29.4418 40.1516 25.5151 44.0822 21.602C44.751 20.9339 45.6245 20.9339 46.2659 21.5747C46.8937 22.2019 46.9074 23.0745 46.2386 23.7562C42.3216 27.683 38.4046 31.6097 34.474 35.5364C33.9826 36.0273 33.3821 36.1636 32.727 35.8773C32.1401 35.5773 31.8535 35.1001 31.8535 34.4457Z" fill="#0050E3"/>
<path d="M37.3537 18.1253C37.34 18.6161 37.1899 18.9843 36.876 19.2842C35.6886 20.4704 34.5148 21.6703 33.3138 22.8428C32.6041 23.5382 31.7033 23.5382 31.0755 22.8974C30.475 22.2838 30.4886 21.3703 31.1301 20.7022C32.3175 19.4887 33.5322 18.2889 34.7469 17.1027C35.2245 16.6255 35.8251 16.5164 36.4392 16.8028C37.0261 17.0482 37.34 17.5254 37.3537 18.1253Z" fill="#0150E4"/>
<path d="M43.3718 29.5645C43.3581 29.1282 43.5492 28.7737 43.8358 28.4737C44.45 27.8466 45.0641 27.2057 45.7056 26.6058C46.4017 25.9514 47.2615 25.9514 47.8893 26.5649C48.5035 27.1785 48.5171 28.0647 47.8757 28.7464C47.2342 29.4145 46.5791 30.0826 45.9103 30.7098C45.4326 31.1597 44.8594 31.2279 44.2726 30.9688C43.672 30.6961 43.3718 30.2189 43.3718 29.5645Z" fill="#0150E2"/>
<path d="M27.2264 28.283C27.1991 28.7466 27.049 29.1147 26.7487 29.4147C26.1209 30.0418 25.5067 30.6827 24.8789 31.2826C24.2102 31.9234 23.3094 31.937 22.6816 31.3235C22.0674 30.7236 22.0674 29.7964 22.6952 29.142C23.323 28.4875 23.9645 27.8467 24.6196 27.2195C25.1109 26.7559 25.6842 26.6332 26.312 26.9196C26.9125 27.1922 27.1855 27.6831 27.2264 28.283Z" fill="#0150E3"/>
<path d="M42.3203 13.2169C41.7061 13.2032 41.2284 12.9442 40.9418 12.3852C40.6415 11.8125 40.6825 11.2126 41.1192 10.7354C41.8016 9.98552 42.525 9.26289 43.2756 8.58117C43.8079 8.09033 44.6677 8.13123 45.2137 8.58117C45.7869 9.07201 45.9779 9.94461 45.5276 10.5309C44.8179 11.4444 43.9717 12.2216 43.0982 12.9851C42.8798 13.1623 42.6069 13.2169 42.3203 13.2169Z" fill="#0150E2"/>
<path d="M19.6387 12.3716C19.6523 11.9081 19.8161 11.5399 20.1164 11.24C20.7442 10.6128 21.3583 9.98561 21.9998 9.37206C22.6549 8.74487 23.5147 8.73124 24.1425 9.30389C24.7704 9.89017 24.8113 10.8173 24.1971 11.4854C23.5557 12.1808 22.8733 12.8488 22.1772 13.5033C21.7132 13.9396 21.1263 14.0214 20.5394 13.7351C19.9253 13.4624 19.666 12.9715 19.6387 12.3716Z" fill="#0150E3"/>
<path d="M29.3287 33.0685C29.3423 33.9275 28.6872 34.6092 27.8684 34.6365C27.0085 34.6638 26.2988 33.9684 26.2988 33.1094C26.2988 32.2914 26.9812 31.5824 27.8001 31.5824C28.6326 31.5551 29.3151 32.2368 29.3287 33.0685Z" fill="#04A5EE"/>
<path d="M41.6939 6.945C41.6802 7.76307 40.9705 8.45842 40.138 8.43115C39.3055 8.40389 38.623 7.70853 38.623 6.9041C38.6367 6.05876 39.3737 5.34977 40.2199 5.37704C41.0388 5.39068 41.7075 6.1133 41.6939 6.945Z" fill="#04A6EE"/>
<path d="M49.9909 19.3933C49.9909 20.2114 49.3085 20.8931 48.476 20.9067C47.6435 20.9204 46.9065 20.1977 46.9201 19.3661C46.9338 18.5207 47.6571 17.8254 48.5033 17.839C49.2949 17.8526 49.9909 18.5753 49.9909 19.3933Z" fill="#03A6ED"/>
<path d="M30.4467 25.0516C30.4467 25.9242 29.7643 26.6059 28.8908 26.5923C28.1265 26.5787 27.4304 25.8833 27.4168 25.0925C27.3895 24.2335 28.0992 23.5109 28.9454 23.5245C29.7779 23.5382 30.433 24.2063 30.4467 25.0516Z" fill="#03A6ED"/>
<path d="M39.0035 16.4618C38.1846 16.4345 37.5159 15.7255 37.5295 14.9075C37.5432 14.0621 38.2119 13.4349 39.0717 13.4486C39.9179 13.4622 40.6003 14.1303 40.5867 14.9484C40.5867 15.7937 39.8497 16.4891 39.0035 16.4618Z" fill="#03A6ED"/>
<path d="M41.6523 31.3506C42.5258 31.3643 43.1536 31.9778 43.1536 32.8504C43.1536 33.6685 42.4576 34.3638 41.6387 34.3775C40.7925 34.3911 40.0692 33.6548 40.0965 32.8095C40.1237 31.9778 40.8062 31.337 41.6523 31.3506Z" fill="#03A5EE"/>
<path d="M27.8404 7.14961C27.8404 8.02222 27.2263 8.67667 26.3801 8.6903C25.5612 8.70394 24.8378 8.00858 24.8105 7.21778C24.8105 6.37245 25.5066 5.63619 26.3528 5.63619C27.1853 5.62256 27.8404 6.29064 27.8404 7.14961Z" fill="#03A6ED"/>
<path d="M21.0301 20.5931C21.0437 21.4657 20.3613 22.1611 19.5015 22.1474C18.6826 22.1474 17.9865 21.4657 18.0002 20.634C18.0138 19.7887 18.669 19.1342 19.5151 19.1342C20.4023 19.1342 21.0301 19.7341 21.0301 20.5931Z" fill="#04A6EE"/>
<path d="M139.099 27.6421C137.707 28.9783 136.165 29.401 134.431 29.2373C132.507 29.0601 131.06 27.7103 130.883 25.8969C130.678 23.8517 131.62 22.4747 133.613 21.8611C134.227 21.6702 134.855 21.5884 135.496 21.5884C136.342 21.5884 137.175 21.5884 138.021 21.5884C139.236 21.5884 139.317 21.4657 138.826 20.3613C138.458 19.5296 137.789 19.0661 136.915 18.9024C135.523 18.6298 134.254 18.9706 133.094 19.7341C132.685 20.0068 132.466 19.9932 132.316 19.516C132.248 19.3251 132.125 19.1479 132.043 18.9706C131.443 17.8253 131.443 17.8253 132.657 17.2254C134.295 16.4073 136.028 16.1892 137.83 16.5164C140.3 16.9664 141.788 18.7661 141.829 21.3566C141.856 23.729 141.829 26.1014 141.842 28.4874C141.842 28.8556 141.76 29.0192 141.351 28.9919C140.873 28.9646 140.396 28.951 139.918 28.9919C139.331 29.0465 139.004 28.9101 139.126 28.242C139.126 28.092 139.099 27.9557 139.099 27.6421ZM137.175 23.6472C136.656 23.6472 136.124 23.6472 135.605 23.6472C135.496 23.6472 135.373 23.6745 135.264 23.6881C134.213 23.8926 133.654 24.5471 133.735 25.447C133.817 26.3332 134.513 26.9195 135.537 26.9468C136.82 26.9877 137.843 26.415 138.758 25.556C139.304 25.0379 139.154 24.3971 139.045 23.8381C138.949 23.3609 138.389 23.6881 138.048 23.6336C137.762 23.579 137.461 23.62 137.161 23.62C137.175 23.6336 137.175 23.6336 137.175 23.6472Z" fill="#0050E4"/>
<path d="M63.0652 26.4014V20.4841V15.4121V13.2033V11.4854V11.0627H62.6012H61.6321H60.1309V11.7035V11.7308V29.0601H63.0516C63.0925 29.0601 63.0652 26.6059 63.0652 26.4014Z" fill="#0050E4"/>
<path d="M77.4645 27.9694C77.4645 27.5331 77.4645 27.0832 77.4645 26.6332C77.4645 25.9788 77.4645 25.3107 77.4645 24.6563C77.4645 24.0018 77.4645 23.3337 77.4508 22.6793C77.4508 22.0112 77.4372 21.3567 77.4236 20.7023C77.3963 19.5161 76.864 18.4799 75.9769 17.6482C75.6084 17.3073 75.1989 17.0346 74.7622 16.8301C74.7622 16.8301 74.7485 16.8301 74.7485 16.8165C72.8924 15.9575 70.5586 16.3665 68.7707 18.0299C68.7707 18.0299 68.7707 18.0299 68.757 18.0299V16.721H66.7507C66.7234 16.721 66.6961 16.721 66.6825 16.7074C66.5324 16.6801 66.4232 16.6937 66.3276 16.721H66.0547V20.266V29.0602H68.7707C68.798 29.0602 68.7707 26.606 68.7707 26.4015V21.8748C68.9071 20.0887 70.1491 18.9298 71.937 18.9298C73.6021 18.9298 74.6257 19.9251 74.7622 21.7249V29.0738H77.4781C77.4781 29.0738 77.4918 28.9238 77.4918 28.692C77.4918 28.692 77.4918 28.692 77.4918 28.6784C77.4918 28.6648 77.4918 28.6511 77.4918 28.6239V28.5693C77.4645 28.3648 77.4645 28.1603 77.4645 27.9694Z" fill="#0050E4"/>
<path d="M92.2865 12.3443C92.2865 11.7172 92.2865 11.0763 92.2865 10.4492H89.6388C89.6115 10.4492 89.6115 17.4573 89.6115 18.0708C87.6598 16.3938 85.8582 15.9847 83.7974 16.6937C80.7675 17.7299 79.1024 20.825 79.7439 24.2336C80.3307 27.3695 82.9102 29.401 86.1176 29.2647C87.4824 29.2101 88.5879 28.6375 89.6115 27.5604C89.6115 27.6694 89.5569 28.9783 89.6388 28.9783H91.686C91.7679 28.992 91.8361 28.992 91.8907 28.9783H92.2865C92.2865 26.1151 92.2865 23.2519 92.2865 20.3887C92.2865 17.7027 92.2865 15.0167 92.2865 12.3443ZM89.7616 22.8565C89.7616 23.2382 89.7207 23.5927 89.6388 23.9336C89.2293 25.6379 87.8509 26.7696 86.0493 26.7696C83.9202 26.7559 82.3507 25.0653 82.3643 22.8019C82.378 20.5114 83.9339 18.8889 86.0903 18.9025C87.8782 18.9025 89.2293 20.0342 89.6251 21.7385C89.7207 22.0793 89.7753 22.4611 89.7616 22.8565Z" fill="#0050E4"/>
<path d="M98.1695 12.4396C98.1695 13.5304 97.3779 14.3212 96.286 14.3212C95.1942 14.3212 94.4162 13.5304 94.4299 12.426C94.4435 11.3761 95.2351 10.5717 96.2724 10.5581C97.3233 10.5308 98.1695 11.3761 98.1695 12.4396Z" fill="#0151E3"/>
<path d="M97.6378 27.0557V23.1835V22.8427C97.6378 21.6837 97.6515 20.5384 97.6378 19.3795V18.5615V17.0208V16.6254H96.8736H96.778H94.9219V28.9782H97.6378V28.61C97.6515 28.5419 97.6515 28.4737 97.6515 28.3919C97.6378 27.9419 97.6378 27.5056 97.6378 27.0557Z" fill="#0050E4"/>
<path d="M115.638 12.4396C115.638 13.5304 114.847 14.3212 113.755 14.3212C112.663 14.3212 111.885 13.5304 111.899 12.426C111.912 11.3761 112.704 10.5717 113.741 10.5581C114.792 10.5308 115.638 11.3761 115.638 12.4396Z" fill="#0151E3"/>
<path d="M115.107 27.0557V23.1835V22.8427C115.107 21.6837 115.12 20.5384 115.107 19.3795V18.5615V17.0208V16.6254H114.342H114.247H112.391V28.9782H115.107V28.61C115.12 28.5419 115.12 28.4737 115.12 28.3919C115.107 27.9419 115.107 27.5056 115.107 27.0557Z" fill="#0050E4"/>
<path d="M129.218 27.9694C129.218 27.5331 129.218 27.0832 129.218 26.6332C129.218 25.9788 129.218 25.3107 129.218 24.6563C129.218 24.0018 129.218 23.3337 129.205 22.6793C129.205 22.0112 129.191 21.3567 129.177 20.7023C129.15 19.5161 128.618 18.4799 127.731 17.6482C127.362 17.3073 126.953 17.0346 126.516 16.8301C126.516 16.8301 126.502 16.8301 126.502 16.8165C124.646 15.9575 122.312 16.3665 120.525 18.0299C120.525 18.0299 120.525 18.0299 120.511 18.0299V16.721H118.505C118.477 16.721 118.45 16.721 118.436 16.7074C118.286 16.6801 118.177 16.6937 118.082 16.721H117.809V20.266V29.0602H120.525C120.552 29.0602 120.525 26.606 120.525 26.4015V21.8748C120.661 20.0887 121.903 18.9298 123.691 18.9298C125.356 18.9298 126.38 19.9251 126.516 21.7249V29.0738H129.232C129.232 29.0738 129.246 28.9238 129.246 28.692C129.246 28.692 129.246 28.692 129.246 28.6784C129.246 28.6648 129.246 28.6511 129.246 28.6239V28.5693C129.218 28.3648 129.218 28.1603 129.218 27.9694Z" fill="#0050E4"/>
</g>
<defs>
<clipPath id="clip0_1946_21809">
<rect width="123.802" height="32" fill="white" transform="translate(18 4)"/>
</clipPath>
</defs>
</svg>
