<svg width="160" height="40" viewBox="0 0 160 40" fill="none" xmlns="http://www.w3.org/2000/svg">
<g clip-path="url(#clip0_3504_37737)">
<path fill-rule="evenodd" clip-rule="evenodd" d="M51.1276 20.8612L51.5504 18.454C51.5504 18.454 48.2945 17.3965 45.6445 19.3577V28.9875H48.4586V21.1637C49.5799 20.26 51.1276 20.8612 51.1276 20.8612Z" fill="#03435F"/>
<mask id="mask0_3504_37737" style="mask-type:alpha" maskUnits="userSpaceOnUse" x="45" y="18" width="7" height="11">
<path d="M45.6445 19.3576C46.9195 18.4142 48.3349 18.1693 49.4604 18.1695C50.674 18.1695 51.5507 18.4541 51.5507 18.4541L51.1277 20.8614C51.1277 20.8614 49.58 20.2601 48.4586 21.1636V28.9874H45.6445V19.3576Z" fill="white"/>
</mask>
<g mask="url(#mask0_3504_37737)">
<path fill-rule="evenodd" clip-rule="evenodd" d="M-125.656 58.8339L270.633 58.8339L270.633 -502.576H-125.656L-125.656 58.8339Z" fill="#03435F"/>
</g>
<mask id="mask1_3504_37737" style="mask-type:alpha" maskUnits="userSpaceOnUse" x="45" y="18" width="7" height="11">
<path d="M45.6445 19.3576C46.9195 18.4142 48.3348 18.1695 49.4604 18.1695C50.674 18.1695 51.5507 18.4541 51.5507 18.4541L51.1277 20.8614C51.1277 20.8614 49.58 20.2601 48.4586 21.1636V28.9874H45.6445V19.3576Z" fill="white"/>
</mask>
<g mask="url(#mask1_3504_37737)">
<path fill-rule="evenodd" clip-rule="evenodd" d="M40.9258 33.7053H56.2672V13.4517H40.9258V33.7053Z" fill="#03435F"/>
</g>
<path fill-rule="evenodd" clip-rule="evenodd" d="M26.8672 15.7086L29.6799 15.1787V18.3106H32.4633V20.8152H29.6799V24.5504C29.6799 25.1867 29.7828 25.6918 29.9932 26.0653C30.2012 26.4446 30.6183 26.6326 31.2447 26.6326C31.551 26.6326 31.8586 26.6032 32.1831 26.5409C32.4984 26.4775 32.7924 26.3961 33.0569 26.2895L33.4549 28.6356C33.1145 28.7816 32.7381 28.9084 32.3233 29.0159C31.9071 29.1223 31.3961 29.1778 30.7923 29.1778C30.0248 29.1778 29.3905 29.0659 28.8862 28.8439C28.3843 28.622 27.9809 28.3105 27.6801 27.9131C27.3793 27.5191 27.1678 27.0357 27.0491 26.4696C26.9282 25.9046 26.8672 25.2806 26.8672 24.5923V15.7086Z" fill="#03435F"/>
<mask id="mask2_3504_37737" style="mask-type:alpha" maskUnits="userSpaceOnUse" x="26" y="15" width="8" height="15">
<path d="M26.8672 15.7086L29.6799 15.1786V18.3106H32.4633V20.8152H29.6799V24.5503C29.6799 25.1868 29.7828 25.6917 29.993 26.0653C30.201 26.4447 30.6181 26.6325 31.2445 26.6325C31.5508 26.6325 31.8582 26.6031 32.1829 26.5408C32.4982 26.4774 32.7924 26.396 33.0569 26.2896L33.4547 28.6355C33.1145 28.7818 32.738 28.9086 32.3231 29.016C31.9069 29.1224 31.3959 29.1777 30.7921 29.1777C30.0244 29.1777 29.3903 29.0658 28.8862 28.8439C28.3842 28.6219 27.9805 28.3105 27.6799 27.9132C27.3791 27.5191 27.1678 27.0356 27.0491 26.4695C26.928 25.9045 26.8672 25.2807 26.8672 24.5922V15.7086Z" fill="white"/>
</mask>
<g mask="url(#mask2_3504_37737)">
<path fill-rule="evenodd" clip-rule="evenodd" d="M-125.656 58.8339L270.633 58.8339L270.633 -502.576H-125.656L-125.656 58.8339Z" fill="#03435F"/>
<path fill-rule="evenodd" clip-rule="evenodd" d="M22.1484 33.8955H38.1715V10.4608H22.1484V33.8955Z" fill="#03435F"/>
</g>
<path fill-rule="evenodd" clip-rule="evenodd" d="M55.7169 26.8311C56.2314 26.8311 56.5954 26.7743 56.8115 26.6679C57.0261 26.5604 57.1301 26.3498 57.1301 26.0419C57.1301 25.7984 56.9945 25.5867 56.7163 25.4067C56.4383 25.2233 56.0199 25.0195 55.4525 24.7873C55.0126 24.6118 54.6124 24.4308 54.2517 24.2439C53.8956 24.0538 53.5904 23.8318 53.3383 23.5679C53.0872 23.3054 52.8928 22.9904 52.7526 22.6237C52.6124 22.2636 52.5459 21.8277 52.5459 21.3136C52.5459 20.3183 52.8928 19.5291 53.5836 18.9505C54.2754 18.3742 55.223 18.0799 56.4326 18.0799C57.0375 18.0799 57.6163 18.1376 58.1703 18.2543C58.7231 18.3675 59.1652 18.4966 59.4895 18.6267L59 20.9704C58.6722 20.8493 58.3161 20.7429 57.9329 20.6501C57.5496 20.5551 57.1178 20.5051 56.6406 20.5051C55.7599 20.5051 55.3189 20.7701 55.3189 21.2943C55.3189 21.4154 55.3382 21.5231 55.3766 21.617C55.415 21.7121 55.4898 21.8027 55.6006 21.8898C55.7169 21.976 55.8685 22.0732 56.0651 22.173C56.2606 22.2783 56.5094 22.3868 56.8115 22.5103C57.4252 22.7549 57.9351 22.9927 58.3376 23.2328C58.7411 23.4728 59.0577 23.7254 59.2918 24.006C59.5246 24.2801 59.6898 24.5837 59.7824 24.9209C59.8752 25.2573 59.9237 25.6455 59.9237 26.0884C59.9237 27.1379 59.5551 27.9315 58.8214 28.4682C58.0843 29.0027 57.0419 29.2721 55.6954 29.2721C54.8158 29.2721 54.0832 29.194 53.4988 29.0299C52.912 28.8703 52.5073 28.7323 52.2812 28.6257L52.7526 26.1823C53.2286 26.3838 53.7238 26.54 54.2236 26.658C54.73 26.7734 55.223 26.8311 55.7169 26.8311Z" fill="#03435F"/>
<mask id="mask3_3504_37737" style="mask-type:alpha" maskUnits="userSpaceOnUse" x="52" y="18" width="8" height="12">
<path d="M53.5836 18.9507C54.2756 18.3742 55.223 18.0799 56.4326 18.0799C57.0377 18.0799 57.6165 18.1376 58.1705 18.2543C58.7232 18.3675 59.1653 18.4964 59.4898 18.6267L59.0003 20.9704C58.6723 20.8493 58.3164 20.7429 57.9329 20.6501C57.5498 20.5549 57.1178 20.5053 56.6408 20.5053C55.7599 20.5053 55.3191 20.7699 55.3191 21.2943C55.3191 21.4154 55.3382 21.5231 55.3766 21.617C55.4152 21.7121 55.49 21.8027 55.6008 21.8898C55.7169 21.976 55.8687 22.0732 56.0653 22.173C56.2608 22.2781 56.5094 22.387 56.8115 22.5103C57.4254 22.7549 57.9353 22.9927 58.3377 23.2328C58.7414 23.4728 59.058 23.7252 59.2921 24.006C59.5249 24.2801 59.6899 24.5835 59.7827 24.9209C59.8755 25.2573 59.9238 25.6455 59.9238 26.0884C59.9238 27.1379 59.5552 27.9317 58.8217 28.4682C58.0845 29.0027 57.0421 29.2721 55.6956 29.2721C54.816 29.2721 54.0834 29.194 53.4989 29.0299C52.912 28.8703 52.5075 28.7323 52.2812 28.6257L52.7527 26.1823C53.2288 26.384 53.7238 26.54 54.2236 26.658C54.73 26.7732 55.223 26.8311 55.7169 26.8311C56.2314 26.8311 56.5956 26.7745 56.8115 26.6679C57.0263 26.5604 57.1303 26.3498 57.1303 26.0419C57.1303 25.7984 56.9947 25.5867 56.7165 25.4067C56.4383 25.2233 56.0199 25.0195 55.4525 24.7873C55.0126 24.6118 54.6126 24.4308 54.2518 24.2439C53.8958 24.0538 53.5904 23.8318 53.3385 23.5679C53.0873 23.3052 52.8929 22.9904 52.7527 22.6237C52.6125 22.2634 52.5459 21.8277 52.5459 21.3136C52.5459 20.3184 52.8929 19.5293 53.5836 18.9507Z" fill="white"/>
</mask>
<g mask="url(#mask3_3504_37737)">
<path fill-rule="evenodd" clip-rule="evenodd" d="M-125.656 58.8339L270.633 58.8339L270.633 -502.576H-125.656L-125.656 58.8339Z" fill="#03435F"/>
<path fill-rule="evenodd" clip-rule="evenodd" d="M47.5625 33.9899H64.6406V13.3621H47.5625V33.9899Z" fill="#03435F"/>
</g>
<path fill-rule="evenodd" clip-rule="evenodd" d="M68.5904 22.8892C68.3382 23.9128 68.0726 24.9319 67.7889 25.9395C67.5061 26.9507 67.2053 27.9675 66.8946 28.991H64.7047C64.4774 28.4248 64.2299 27.7523 63.9653 26.9722C63.6983 26.1887 63.426 25.3383 63.1399 24.4133C62.8571 23.4915 62.5679 22.5156 62.2716 21.483C61.9743 20.455 61.686 19.4155 61.4102 18.3636H64.3745C64.4728 18.847 64.5847 19.3782 64.7056 19.9498C64.8256 20.5227 64.9522 21.1127 65.0845 21.7197C65.2168 22.3244 65.3581 22.9322 65.5027 23.5459C65.6486 24.1596 65.798 24.7472 65.9492 25.3124C66.1133 24.7202 66.2739 24.1155 66.431 23.4961C66.5859 22.8758 66.7386 22.2665 66.8843 21.6677C67.028 21.0697 67.1693 20.4889 67.2981 19.9296C67.4293 19.3712 67.5458 18.847 67.6487 18.3636H69.6847C69.7887 18.847 69.8983 19.3712 70.026 19.9296C70.1503 20.4889 70.2828 21.0697 70.423 21.6677C70.5586 22.2665 70.7067 22.8758 70.8548 23.4961C71.0073 24.1155 71.1635 24.7202 71.3252 25.3124C71.4777 24.7472 71.6293 24.1596 71.7818 23.5459C71.9345 22.9322 72.078 22.3244 72.2092 21.7197C72.3404 21.1127 72.467 20.5227 72.5892 19.9498C72.7101 19.3782 72.8198 18.847 72.9203 18.3636H75.8463C75.5682 19.4155 75.2822 20.455 74.9848 21.483C74.6852 22.5156 74.3991 23.4915 74.1132 24.4133C73.8315 25.3383 73.5535 26.1887 73.2832 26.9722C73.0109 27.7523 72.7597 28.4248 72.5361 28.991H70.3462C70.0294 27.9675 69.722 26.9507 69.419 25.9395C69.1171 24.9319 68.8435 23.9128 68.5904 22.8892Z" fill="#03435F"/>
<mask id="mask4_3504_37737" style="mask-type:alpha" maskUnits="userSpaceOnUse" x="61" y="18" width="15" height="11">
<path d="M72.9203 18.3636H75.8462C75.5682 19.4155 75.2821 20.455 74.9847 21.4828C74.6852 22.5156 74.3991 23.4917 74.113 24.4133C73.8315 25.3383 73.5535 26.1887 73.283 26.9722C73.0107 27.7523 72.7597 28.4247 72.5359 28.991H70.346C70.0294 27.9675 69.722 26.9505 69.419 25.9393C69.1171 24.9319 68.8435 23.9128 68.5904 22.8892C68.3381 23.9128 68.0724 24.9319 67.7889 25.9393C67.5061 26.9505 67.2053 27.9675 66.8944 28.991H64.7045C64.4772 28.4247 64.2297 27.7523 63.9651 26.9722C63.6983 26.1887 63.4258 25.3383 63.1399 24.4133C62.8571 23.4917 62.5678 22.5156 62.2715 21.4828C61.9743 20.455 61.686 19.4155 61.4102 18.3636H64.3743C64.4728 18.847 64.5847 19.378 64.7056 19.9498C64.8256 20.5227 64.952 21.1127 65.0845 21.7195C65.2166 22.3242 65.3581 22.9322 65.5027 23.5459C65.6486 24.1596 65.798 24.7472 65.9492 25.3124C66.1131 24.7202 66.2737 24.1153 66.4308 23.4961C66.5857 22.8758 66.7386 22.2665 66.8843 21.6677C67.0278 21.0696 67.1691 20.4888 67.2981 19.9296C67.4293 19.3712 67.5458 18.847 67.6485 18.3636H69.6847C69.7885 18.847 69.8982 19.3712 70.026 19.9296C70.1503 20.4888 70.2828 21.0696 70.4228 21.6677C70.5586 22.2665 70.7065 22.8758 70.8548 23.4961C71.0073 24.1153 71.1635 24.7202 71.325 25.3124C71.4777 24.7472 71.6291 24.1596 71.7818 23.5459C71.9345 22.9322 72.078 22.3242 72.2092 21.7195C72.3404 21.1127 72.467 20.5227 72.589 19.9498C72.7101 19.378 72.8198 18.847 72.9203 18.3636Z" fill="white"/>
</mask>
<g mask="url(#mask4_3504_37737)">
<path fill-rule="evenodd" clip-rule="evenodd" d="M-125.656 58.8339L270.633 58.8339L270.633 -502.576H-125.656L-125.656 58.8339Z" fill="#03435F"/>
<path fill-rule="evenodd" clip-rule="evenodd" d="M56.6914 33.7088H80.5629V13.6459H56.6914V33.7088Z" fill="#03435F"/>
</g>
<path fill-rule="evenodd" clip-rule="evenodd" d="M77.8359 28.9868H80.6442V18.3616H77.8359V28.9868Z" fill="#03435F"/>
<mask id="mask5_3504_37737" style="mask-type:alpha" maskUnits="userSpaceOnUse" x="77" y="18" width="4" height="11">
<path d="M77.8359 28.9871V18.3619H80.6444V28.9871H77.8359Z" fill="white"/>
</mask>
<g mask="url(#mask5_3504_37737)">
<path fill-rule="evenodd" clip-rule="evenodd" d="M-125.656 58.8339L270.633 58.8339L270.633 -502.576H-125.656L-125.656 58.8339Z" fill="#03435F"/>
<path fill-rule="evenodd" clip-rule="evenodd" d="M73.1172 33.7045H85.361V13.6438H73.1172V33.7045Z" fill="#03435F"/>
</g>
<path fill-rule="evenodd" clip-rule="evenodd" d="M82.8789 15.712L85.6895 15.1788V18.3671H88.4708V20.8671H85.6895V24.6059C85.6895 25.2387 85.7935 25.7485 86.0003 26.1209C86.2072 26.4979 86.6266 26.687 87.2542 26.687C87.5583 26.687 87.8703 26.6598 88.1891 26.5975C88.5112 26.5363 88.803 26.4493 89.0687 26.344L89.4634 28.6878C89.1229 28.837 88.7442 28.964 88.3317 29.0726C87.9142 29.179 87.4091 29.2333 86.8029 29.2333C86.0344 29.2333 85.4001 29.1225 84.897 28.8982C84.3928 28.6797 83.9902 28.3707 83.6896 27.9697C83.3888 27.5758 83.1786 27.09 83.0577 26.5274C82.9355 25.9601 82.8789 25.3328 82.8789 24.6476V15.712Z" fill="#03435F"/>
<mask id="mask6_3504_37737" style="mask-type:alpha" maskUnits="userSpaceOnUse" x="82" y="15" width="8" height="15">
<path d="M82.8789 15.712L85.6893 15.1788V18.3671H88.4706V20.8671H85.6893V24.6059C85.6893 25.2387 85.7935 25.7483 86.0003 26.1209C86.2072 26.4979 86.6266 26.6868 87.254 26.6868C87.5581 26.6868 87.8703 26.6598 88.1891 26.5975C88.5112 26.5362 88.803 26.4493 89.0685 26.344L89.4632 28.6876C89.1229 28.837 88.744 28.964 88.3317 29.0726C87.9142 29.179 87.4091 29.2333 86.8029 29.2333C86.0344 29.2333 85.3999 29.1225 84.897 28.8982C84.3926 28.6795 83.9902 28.3707 83.6896 27.9699C83.3888 27.5758 83.1786 27.0902 83.0575 26.5274C82.9355 25.9601 82.8789 25.3326 82.8789 24.6478V15.712Z" fill="white"/>
</mask>
<g mask="url(#mask6_3504_37737)">
<path fill-rule="evenodd" clip-rule="evenodd" d="M-125.656 58.8339L270.633 58.8339L270.633 -502.576H-125.656L-125.656 58.8339Z" fill="#03435F"/>
<path fill-rule="evenodd" clip-rule="evenodd" d="M78.1602 33.9511H94.1801V10.4609H78.1602V33.9511Z" fill="#03435F"/>
</g>
<path fill-rule="evenodd" clip-rule="evenodd" d="M90.457 23.6799C90.457 22.9109 90.5737 22.1864 90.8065 21.5071C91.0393 20.8254 91.3752 20.2345 91.8151 19.7282C92.2559 19.2222 92.7895 18.8235 93.4203 18.5258C94.0477 18.2326 94.7645 18.0808 95.5695 18.0808C96.0974 18.0808 96.5825 18.1341 97.0233 18.2337C97.4645 18.3368 97.8941 18.4806 98.3066 18.6673L97.7234 21.0712C97.4577 20.9647 97.1692 20.8719 96.8528 20.7881C96.5384 20.7087 96.1845 20.667 95.7957 20.667C94.9659 20.667 94.3451 20.9443 93.9392 21.4968C93.5265 22.0506 93.3253 22.7764 93.3253 23.6799C93.3253 24.6342 93.5164 25.3758 93.9031 25.9013C94.2829 26.4255 94.9545 26.6894 95.9098 26.6894C96.2501 26.6894 96.613 26.6541 97.0053 26.5874C97.3943 26.5194 97.7526 26.413 98.0828 26.2636L98.4764 28.7297C98.1482 28.878 97.7414 29.0025 97.2508 29.1122C96.7578 29.219 96.2183 29.2743 95.6283 29.2743C94.7226 29.2743 93.9404 29.1271 93.288 28.8383C92.6348 28.5496 92.0953 28.1555 91.6747 27.6573C91.2508 27.1581 90.9456 26.5694 90.7501 25.8899C90.5544 25.2095 90.457 24.4714 90.457 23.6799Z" fill="#03435F"/>
<mask id="mask7_3504_37737" style="mask-type:alpha" maskUnits="userSpaceOnUse" x="90" y="18" width="9" height="12">
<path d="M93.4203 18.5258C94.0477 18.2326 94.7645 18.0808 95.5695 18.0808C96.0974 18.0808 96.5825 18.1339 97.0233 18.2335C97.4643 18.3367 97.8941 18.4804 98.3066 18.6673L97.7234 21.071C97.4575 20.9647 97.1692 20.8719 96.8526 20.7881C96.5382 20.7085 96.1845 20.6668 95.7955 20.6668C94.9659 20.6668 94.3451 20.9443 93.9392 21.4968C93.5265 22.0504 93.3253 22.7762 93.3253 23.6799C93.3253 24.6342 93.5166 25.3758 93.9031 25.9013C94.2829 26.4255 94.9544 26.6894 95.9096 26.6894C96.2501 26.6894 96.613 26.6541 97.0053 26.5874C97.3943 26.5194 97.7526 26.413 98.0826 26.2635L98.4762 28.7297C98.1484 28.878 97.7414 29.0024 97.2506 29.1122C96.7578 29.2188 96.2185 29.2743 95.6283 29.2743C94.7225 29.2743 93.9404 29.1269 93.288 28.8381C92.6348 28.5494 92.0953 28.1555 91.6745 27.6575C91.251 27.1581 90.9456 26.5694 90.7501 25.8899C90.5544 25.2095 90.457 24.4712 90.457 23.6799C90.457 22.9109 90.5737 22.1864 90.8065 21.5071C91.0393 20.8254 91.3752 20.2343 91.8149 19.7281C92.2559 19.222 92.7895 18.8235 93.4203 18.5258Z" fill="white"/>
</mask>
<g mask="url(#mask7_3504_37737)">
<path fill-rule="evenodd" clip-rule="evenodd" d="M-125.656 58.8339L270.633 58.8339L270.633 -502.576H-125.656L-125.656 58.8339Z" fill="#03435F"/>
<path fill-rule="evenodd" clip-rule="evenodd" d="M85.7383 33.9921H103.193V13.363H85.7383V33.9921Z" fill="#03435F"/>
</g>
<path fill-rule="evenodd" clip-rule="evenodd" d="M100.293 28.9871V15.7079L103.105 15.1793V18.4062C103.292 18.3393 103.533 18.2748 103.832 18.2138C104.125 18.1538 104.414 18.122 104.69 18.122C105.493 18.122 106.161 18.2409 106.697 18.4753C107.231 18.7109 107.662 19.0449 107.981 19.4762C108.304 19.9054 108.528 20.4193 108.662 21.0093C108.792 21.6035 108.858 22.265 108.858 22.9919V28.9871H106.047V23.353C106.047 22.3837 105.931 21.6976 105.699 21.2912C105.466 20.8914 105.034 20.6889 104.407 20.6889C104.152 20.6889 103.918 20.7128 103.697 20.758C103.478 20.8055 103.28 20.8576 103.105 20.9108V28.9871H100.293Z" fill="#03435F"/>
<mask id="mask8_3504_37737" style="mask-type:alpha" maskUnits="userSpaceOnUse" x="100" y="15" width="9" height="14">
<path d="M100.293 15.7079L103.104 15.1792V18.4063C103.292 18.3393 103.533 18.2748 103.832 18.2138C104.125 18.1537 104.414 18.1221 104.69 18.1221C105.493 18.1221 106.162 18.241 106.698 18.4752C107.231 18.711 107.662 19.0449 107.981 19.4763C108.304 19.9053 108.528 20.4193 108.663 21.0094C108.792 21.6037 108.858 22.265 108.858 22.992V28.9871H106.047V23.3529C106.047 22.3838 105.931 21.6976 105.699 21.2911C105.466 20.8915 105.034 20.6888 104.407 20.6888C104.152 20.6888 103.918 20.7127 103.697 20.7581C103.478 20.8055 103.28 20.8575 103.104 20.9108V28.9871H100.293V15.7079Z" fill="white"/>
</mask>
<g mask="url(#mask8_3504_37737)">
<path fill-rule="evenodd" clip-rule="evenodd" d="M-125.656 58.8339L270.633 58.8339L270.633 -502.576H-125.656L-125.656 58.8339Z" fill="#03435F"/>
<path fill-rule="evenodd" clip-rule="evenodd" d="M95.5742 33.7049H113.575V10.4614H95.5742V33.7049Z" fill="#03435F"/>
</g>
<path fill-rule="evenodd" clip-rule="evenodd" d="M15.5234 28.9906V19.3619C15.5234 19.3619 16.9366 18.1537 20.0276 18.1537C22.8403 18.1537 24.3849 19.6586 24.3849 22.9704V28.9906H21.5754V22.9704C21.5754 20.861 20.5894 20.7149 19.7472 20.7149C18.9049 20.7149 18.3408 21.1633 18.3408 21.1633V28.9906H15.5234Z" fill="#03435F"/>
<mask id="mask9_3504_37737" style="mask-type:alpha" maskUnits="userSpaceOnUse" x="15" y="18" width="10" height="11">
<path d="M15.5234 19.3619C15.5234 19.3619 16.9366 18.1538 20.0276 18.1538C22.8403 18.1538 24.3847 19.6585 24.3847 22.9706V28.9907H21.5754V22.9706C21.5754 20.8609 20.5894 20.715 19.7472 20.715C18.9049 20.715 18.3408 21.1635 18.3408 21.1635V28.9907H15.5234V19.3619Z" fill="white"/>
</mask>
<g mask="url(#mask9_3504_37737)">
<path fill-rule="evenodd" clip-rule="evenodd" d="M-125.656 58.8339L270.633 58.8339L270.633 -502.576H-125.656L-125.656 58.8339Z" fill="#03435F"/>
<path fill-rule="evenodd" clip-rule="evenodd" d="M10.8047 33.7085H29.1012V13.4362H10.8047L10.8047 33.7085Z" fill="#03435F"/>
</g>
<path fill-rule="evenodd" clip-rule="evenodd" d="M10.2305 28.9907V15.7092L13.0432 15.1792V28.9907H10.2305Z" fill="#03435F"/>
<mask id="mask10_3504_37737" style="mask-type:alpha" maskUnits="userSpaceOnUse" x="10" y="15" width="4" height="14">
<path d="M10.2305 15.7094L13.0432 15.1792V28.9907H10.2305V15.7094Z" fill="white"/>
</mask>
<g mask="url(#mask10_3504_37737)">
<path fill-rule="evenodd" clip-rule="evenodd" d="M-125.656 58.8339L270.633 58.8339L270.633 -502.576H-125.656L-125.656 58.8339Z" fill="#03435F"/>
<path fill-rule="evenodd" clip-rule="evenodd" d="M5.51172 33.7084H17.7601V10.4616H5.51172L5.51172 33.7084Z" fill="#03435F"/>
</g>
<path fill-rule="evenodd" clip-rule="evenodd" d="M43.4435 24.4406H37.1168C37.1168 24.4406 37.2581 26.6972 40.0675 26.6972C41.4741 26.6972 42.8805 26.2475 42.8805 26.2475L43.162 28.6581C43.162 28.6581 41.7567 29.2549 39.7895 29.2549C36.9755 29.2549 34.4453 27.7522 34.4453 23.5393C34.4453 20.2263 36.4125 18.1226 39.2243 18.1226C43.4435 18.1226 43.7261 22.6311 43.4435 24.4406ZM39.0863 20.2263C37.2581 20.2263 37.1168 22.3321 37.1168 22.3321H41.0511C41.0511 22.3321 40.9133 20.2263 39.0863 20.2263Z" fill="#03435F"/>
<mask id="mask11_3504_37737" style="mask-type:alpha" maskUnits="userSpaceOnUse" x="34" y="18" width="10" height="12">
<path d="M34.4453 23.5392C34.4453 20.2261 36.4125 18.1225 39.2241 18.1225C43.4433 18.1225 43.7259 22.6312 43.4433 24.4405H37.1168C37.1168 24.4405 37.2581 26.697 40.0673 26.697C41.4739 26.697 42.8803 26.2474 42.8803 26.2474L43.1618 28.658C43.1618 28.658 41.7565 29.2549 39.7893 29.2549C36.9755 29.2549 34.4453 27.7523 34.4453 23.5392ZM39.0861 20.2261C37.2581 20.2261 37.1168 22.3322 37.1168 22.3322H41.0511C41.0511 22.3322 40.9131 20.2261 39.0861 20.2261Z" fill="white"/>
</mask>
<g mask="url(#mask11_3504_37737)">
<path fill-rule="evenodd" clip-rule="evenodd" d="M-125.656 58.8339L270.633 58.8339L270.633 -502.576H-125.656L-125.656 58.8339Z" fill="#03435F"/>
<path fill-rule="evenodd" clip-rule="evenodd" d="M29.7266 33.9727H48.2387V13.4047H29.7266V33.9727Z" fill="#03435F"/>
</g>
<mask id="mask12_3504_37737" style="mask-type:alpha" maskUnits="userSpaceOnUse" x="112" y="13" width="20" height="24">
<path d="M112.582 15.1819C112.582 14.5398 120.669 13.1544 126.092 13.1544C128.444 13.1544 130.295 13.415 130.768 14.1095C133.21 17.3342 116.019 37.5654 114.587 36.9517C113.438 36.6448 123.752 23.7676 122.033 18.5537C121.174 15.7966 112.582 16.1033 112.582 15.1819Z" fill="white"/>
</mask>
<g mask="url(#mask12_3504_37737)">
<path fill-rule="evenodd" clip-rule="evenodd" d="M107.863 41.6831H135.722V8.43669H107.863V41.6831Z" fill="#ED342B"/>
</g>
<mask id="mask13_3504_37737" style="mask-type:alpha" maskUnits="userSpaceOnUse" x="127" y="3" width="8" height="9">
<path d="M127.188 7.21118C127.188 5.00901 128.855 3.22688 130.91 3.22688C132.968 3.22688 134.633 5.00901 134.633 7.21118C134.633 9.41446 132.968 11.1966 130.91 11.1966C128.855 11.1966 127.188 9.41446 127.188 7.21118Z" fill="white"/>
</mask>
<g mask="url(#mask13_3504_37737)">
<path fill-rule="evenodd" clip-rule="evenodd" d="M122.469 15.9144L139.35 15.9144V-1.49108H122.469V15.9144Z" fill="#ED342B"/>
</g>
</g>
<defs>
<clipPath id="clip0_3504_37737">
<rect width="124.82" height="34.1922" fill="white" transform="translate(10 3)"/>
</clipPath>
</defs>
</svg>
