<svg width="160" height="40" viewBox="0 0 160 40" fill="none" xmlns="http://www.w3.org/2000/svg">
<g clip-path="url(#clip0_1946_21798)">
<path d="M43.2095 35.9865C41.9311 35.9865 40.6527 36 39.3743 36C39.3743 30.1733 39.3608 24.3465 39.3608 18.5332C39.3608 16.3263 39.3743 14.1194 39.3474 11.8991C39.3474 11.5088 39.4281 11.3474 39.8587 11.3608C40.8007 11.4012 41.7427 11.4012 42.6846 11.3608C43.1287 11.3474 43.2498 11.4954 43.2498 11.926C43.2229 13.5812 43.2767 15.2363 43.2229 16.878C43.196 17.5509 43.4517 17.5374 43.9361 17.3759C46.6005 16.4609 48.3634 14.6712 49.1439 11.9664C49.2784 11.4954 49.4668 11.3339 49.9513 11.3608C50.8663 11.4012 51.7814 11.4012 52.7099 11.3608C53.1674 11.3474 53.2212 11.4954 53.1405 11.8991C52.5753 14.9537 51.0278 17.4029 48.5652 19.2868C48.4306 19.3945 48.2826 19.4886 48.1077 19.6232C48.9016 20.2153 49.6552 20.8074 50.2877 21.5341C51.9563 23.4045 52.979 25.5711 53.2078 28.074C53.2481 28.5585 53.3962 28.7334 53.8941 28.7065C54.6342 28.6661 55.3743 28.6661 56.1144 28.7065C56.6796 28.7468 56.8276 28.5585 56.8276 28.0067C56.8007 22.2876 56.8142 16.582 56.8142 10.8629C56.8142 10.0421 56.7873 9.20774 56.8276 8.38688C56.8411 7.96972 56.6931 7.86207 56.2894 7.86207C49.6687 7.87553 43.0345 7.87553 36.4138 7.86207C35.8486 7.86207 35.889 8.13121 35.889 8.52145C35.889 16.2456 35.889 23.9697 35.9025 31.6804C35.9025 32.3129 35.7814 32.5551 35.1085 32.4878C34.3953 32.4205 33.6821 32.4743 32.9555 32.4743C32.0404 32.4743 32.0404 32.4743 32.0404 31.5862C32.0404 22.947 32.0404 14.3078 32.0404 5.68209C32.0404 5.31876 32.0673 4.96888 32.0404 4.60555C32 4.16148 32.1211 3.91926 32.619 4C32.6594 4.01346 32.7132 4 32.7536 4C41.8234 4 50.8932 4 59.963 3.98655C60.5417 3.98655 60.7166 4.10766 60.7031 4.71321C60.6762 13.7561 60.6897 22.7855 60.7031 31.8284C60.7031 32.3532 60.6224 32.5551 60.0169 32.5551C55.7915 32.5282 51.5526 32.5282 47.3272 32.5551C46.8158 32.5551 46.614 32.4474 46.6409 31.8957C46.6947 31.0076 46.6678 30.106 46.6409 29.2178C46.6274 28.8007 46.7755 28.6661 47.1792 28.6796C47.7174 28.7065 48.2557 28.6661 48.794 28.693C49.2784 28.7199 49.4668 28.6392 49.3592 28.074C48.7267 24.9251 46.8697 22.8797 43.8285 21.8436C43.3306 21.6686 43.2364 21.8301 43.2364 22.3146C43.2498 26.6207 43.2498 30.9268 43.2498 35.233C43.2229 35.5021 43.2095 35.7443 43.2095 35.9865Z" fill="#5646FB"/>
<path d="M80.9285 9.43649C79.0311 12.1682 77.2279 14.7922 75.3844 17.4028C75.1018 17.7931 75.1152 18.0622 75.3844 18.439C77.2145 21.0496 79.0177 23.6871 80.8209 26.3112C80.9151 26.4592 80.9958 26.6072 81.1438 26.8494C79.704 26.8494 78.3583 26.8494 76.9992 26.8494C76.6897 26.8494 76.6089 26.5669 76.4744 26.3785C74.8192 23.9966 73.164 21.6148 71.5223 19.233C71.4012 19.058 71.2666 18.8831 71.132 18.6812C70.9706 18.9369 71.0379 19.1522 71.0379 19.3675C71.0379 21.6686 71.0244 23.9697 71.0513 26.2573C71.0513 26.7283 70.9302 26.8764 70.4592 26.8494C69.5172 26.8091 68.5753 26.8225 67.6333 26.8494C67.2834 26.8629 67.1758 26.7418 67.1758 26.3919C67.1892 20.8747 67.1892 15.3709 67.1758 9.85364C67.1758 9.53068 67.27 9.42303 67.5929 9.42303C68.6022 9.43649 69.6114 9.44994 70.6207 9.42303C71.0917 9.40957 71.0379 9.67871 71.0379 9.98821C71.0379 12.1278 71.0379 14.2674 71.0379 16.4205C71.0379 16.6358 71.0379 16.8377 71.0379 17.2548C72.4239 15.2901 73.6888 13.5004 74.9672 11.6972C75.4113 11.0647 75.8688 10.4188 76.3129 9.78636C76.4474 9.59797 76.5551 9.43649 76.8377 9.43649C78.143 9.44994 79.4617 9.43649 80.9285 9.43649Z" fill="#0A0740"/>
<path d="M85.4894 20.6863C85.4894 22.5164 85.4625 24.3465 85.5029 26.1767C85.5163 26.7553 85.3279 26.8899 84.7897 26.8629C84.0092 26.8226 83.2287 26.836 82.4482 26.8629C82.058 26.8764 81.8965 26.8091 81.8965 26.365C81.9099 22.5568 81.9099 18.7351 81.8965 14.9269C81.8965 14.5232 82.0445 14.4559 82.3944 14.4693C83.2422 14.4962 84.0899 14.5097 84.9377 14.4693C85.3818 14.4559 85.5029 14.5904 85.4894 15.0211C85.476 16.905 85.4894 18.8024 85.4894 20.6863Z" fill="#0A0740"/>
<path d="M85.853 11.0379C85.853 12.2355 84.8706 13.2044 83.673 13.1909C82.4753 13.1775 81.5199 12.1952 81.5333 10.9975C81.5468 9.81332 82.5426 8.83098 83.7133 8.84444C84.8975 8.84444 85.853 9.84023 85.853 11.0379Z" fill="#0A0740"/>
<path d="M90.4161 15.7207C92.1655 13.9983 94.1436 13.7426 96.2159 14.4962C98.4228 15.2901 99.607 17.0395 100.051 19.2733C100.414 21.1572 100.078 22.9335 99.0284 24.5752C97.2252 27.3877 92.9863 28.1951 90.4161 25.6114C90.4161 27.2128 90.4161 28.7334 90.4161 30.2674C90.4161 31.8553 90.4161 31.8553 88.8282 31.8553C88.3841 31.8553 87.9266 31.8149 87.4826 31.8688C86.9443 31.9226 86.8097 31.7342 86.8232 31.2094C86.8501 26.4188 86.8366 21.6148 86.8366 16.8242C86.8366 16.2052 86.8635 15.5727 86.8232 14.9537C86.8097 14.5635 86.9443 14.4693 87.3211 14.4827C88.1285 14.5096 88.9359 14.5231 89.7433 14.4827C90.295 14.4424 90.5372 14.5904 90.4296 15.1556C90.4027 15.2767 90.4161 15.4247 90.4161 15.7207ZM90.4161 20.6459C90.4161 22.5029 91.681 23.7948 93.4977 23.8082C95.274 23.8217 96.5658 22.5298 96.5793 20.7266C96.5927 18.7889 95.3951 17.5239 93.5111 17.5239C91.681 17.5105 90.4161 18.7889 90.4161 20.6459Z" fill="#0A0740"/>
<path d="M104.842 15.7073C107.708 12.7603 113.319 13.9579 114.436 19.0445C114.853 20.915 114.598 22.7182 113.589 24.3868C111.691 27.5357 107.345 28.1413 104.949 25.7191C104.748 25.8671 104.842 26.0824 104.842 26.2708C104.828 27.9394 104.815 29.6215 104.842 31.2901C104.855 31.7611 104.707 31.8957 104.236 31.8822C103.415 31.8419 102.581 31.8553 101.76 31.8822C101.41 31.8957 101.235 31.8419 101.249 31.4247C101.262 25.9209 101.262 20.4037 101.249 14.8999C101.249 14.5904 101.33 14.4693 101.652 14.4827C102.5 14.5096 103.361 14.5366 104.196 14.4693C104.761 14.4289 104.896 14.6442 104.828 15.1421C104.828 15.2767 104.842 15.4247 104.842 15.7073ZM104.842 20.6459C104.855 22.5029 106.107 23.7948 107.91 23.8082C109.74 23.8217 111.032 22.4895 111.018 20.619C111.005 18.7485 109.753 17.5105 107.923 17.5105C106.08 17.5239 104.828 18.8023 104.842 20.6459Z" fill="#0A0740"/>
<path d="M128.807 14.4828C128.807 18.4256 128.807 22.3549 128.834 26.2977C128.834 26.7418 128.659 26.8091 128.282 26.7956C127.3 26.7687 126.318 26.7822 125.335 26.7822C125.335 26.4323 125.335 26.069 125.335 25.7191C125.254 25.7191 125.201 25.6922 125.174 25.7056C122.469 28.0606 118.661 27.5492 116.669 24.5484C114.422 21.1707 115.579 16.2725 119.091 14.6711C121.285 13.6754 123.384 13.9176 125.214 15.6131C125.241 15.5862 125.295 15.5593 125.295 15.5324C125.335 14.4828 125.335 14.4693 126.398 14.4828C127.192 14.4693 128 14.4693 128.807 14.4828ZM122.186 23.8082C124.003 23.8217 125.295 22.5164 125.308 20.6728C125.322 18.8024 124.07 17.5105 122.24 17.5105C120.37 17.5105 119.145 18.7351 119.132 20.619C119.118 22.4895 120.383 23.7948 122.186 23.8082Z" fill="#0A0740"/>
</g>
<defs>
<clipPath id="clip0_1946_21798">
<rect width="96.8343" height="32" fill="white" transform="translate(32 4)"/>
</clipPath>
</defs>
</svg>
