<svg width="160" height="40" viewBox="0 0 160 40" fill="none" xmlns="http://www.w3.org/2000/svg">
<g clip-path="url(#clip0_1946_21831)">
<path d="M72.2558 26.1862C69.8442 26.2066 67.4224 26.1862 65.0108 26.2066C64.5816 26.2066 64.4181 26.1249 64.4385 25.6548C64.4794 24.6432 64.4794 23.6213 64.4385 22.6097C64.4181 22.1294 64.5918 22.0681 65.0108 22.0681C67.2691 22.0886 69.5376 22.0681 71.7959 22.0886C72.174 22.0886 72.2966 21.9966 72.2966 21.6083C72.2762 20.5558 72.266 19.5135 72.2966 18.461C72.3069 18.0216 72.1536 17.9296 71.7448 17.9296C69.4865 17.95 67.218 17.9296 64.9597 17.95C64.5816 17.95 64.4283 17.8785 64.4385 17.4596C64.4692 16.5297 64.4692 15.5998 64.4385 14.6699C64.4283 14.2816 64.5305 14.159 64.9393 14.159C67.3917 14.1794 69.834 14.159 72.2864 14.1794C72.6952 14.1794 72.8382 14.0976 72.828 13.6582C72.7973 12.4422 72.828 11.2262 72.828 10C72.7565 10 72.6952 10 72.6236 10C68.3727 10 64.1116 10 59.8606 10C59.7891 10 59.7278 10 59.6562 10C59.6665 10.1839 59.6971 10.3679 59.6971 10.5518C59.6971 16.9486 59.6971 23.3454 59.6971 29.7423C59.6971 30.0284 59.5949 30.3452 60.1161 30.3452C64.2137 30.3247 68.3114 30.3349 72.4193 30.3452C72.7258 30.3452 72.828 30.2532 72.828 29.9466C72.8076 28.8839 72.7973 27.811 72.8382 26.7482C72.8484 26.2782 72.6952 26.1862 72.2558 26.1862Z" fill="#30C185"/>
<path d="M111.302 17.5924C110.617 13.8933 108.553 11.3795 104.813 10.3679C103.147 9.91827 101.513 10 99.806 10C99.336 10 94.288 10.1226 94.2676 10C94.2778 10.0307 94.2778 10.0715 94.288 10.1022C94.2778 16.7034 94.2778 23.2944 94.2676 29.8956C94.2676 30.2328 94.4413 30.2328 94.6763 30.2328C95.9843 30.2226 97.2923 30.243 98.6002 30.2225C100.266 30.2021 101.931 30.3452 103.597 30.1101C107.102 29.6094 109.606 27.8212 110.822 24.4388C111.629 22.2112 111.731 19.912 111.302 17.5924ZM106.55 22.0068C106.08 24.4899 104.425 25.8899 101.86 25.9512C101.114 25.9716 100.368 25.9308 99.6119 25.9614C99.2338 25.9716 99.1214 25.8797 99.1214 25.4914C99.1418 23.7031 99.1316 21.9046 99.1316 20.1164C99.1316 18.3384 99.1418 16.5603 99.1214 14.7925C99.1112 14.3838 99.244 14.2714 99.6425 14.2918C100.542 14.3327 101.441 14.2714 102.34 14.3633C104.568 14.5779 106.08 15.9166 106.52 18.0931C106.785 19.3909 106.796 20.6989 106.55 22.0068Z" fill="#30C185"/>
<path d="M91.7842 10.562C91.7842 10.3781 91.8047 10.1941 91.8251 10.0102C91.7536 10.0102 91.6923 10.0102 91.6207 10.0102C90.1595 10.0102 88.6982 10.0102 87.2267 10.0102C87.2063 10.0408 87.2063 10.0715 87.2267 10.1124C87.2267 13.8422 87.2267 17.5719 87.2267 21.3221C86.9917 21.2915 86.9508 21.1178 86.8691 21.0054C84.3145 17.48 81.7496 13.9546 79.195 10.4394C79.103 10.3065 78.9395 10.2043 78.9599 10.0102C78.8884 10.0102 78.8271 10.0102 78.7556 10.0102C77.6622 10.0102 76.579 10.0102 75.4856 10.0102C75.4141 10.0102 75.3528 10.0102 75.2812 10.0102C75.2915 10.1941 75.3221 10.3781 75.3221 10.562C75.3221 16.9793 75.3323 23.3863 75.3119 29.8035C75.3119 30.2225 75.4039 30.3554 75.8433 30.3451C77.0184 30.3145 78.1935 30.3145 79.3585 30.3451C79.7876 30.3554 79.8898 30.2327 79.8898 29.8138C79.8694 26.3803 79.8796 22.9469 79.8796 19.5135C79.8796 19.35 79.8796 19.1967 79.8796 18.9106C80.0533 19.1252 80.1453 19.2376 80.227 19.3602C82.7715 22.8754 85.3159 26.3803 87.8399 29.9057C88.0749 30.2327 88.3201 30.3554 88.7187 30.3451C89.5464 30.3145 90.3843 30.3043 91.2222 30.3451C91.7025 30.3656 91.8047 30.2021 91.8047 29.7525C91.7842 23.3454 91.7842 16.9486 91.7842 10.562Z" fill="#30C185"/>
<path d="M158 19.4522C158 19.9631 158 20.474 158 20.985C157.929 22.7426 157.571 24.4388 156.733 26.0023C155.435 28.4241 153.402 29.8342 150.673 30.2225C148.129 30.5802 145.728 30.2225 143.623 28.6182C142.121 27.4738 141.18 25.941 140.669 24.1629C139.872 21.3835 139.862 18.5836 140.823 15.8348C142.315 11.5941 145.963 9.76499 150.152 10.1635C154.771 10.6029 157.356 13.9444 157.888 18.1851C157.939 18.604 157.959 19.023 158 19.4522ZM149.171 26.3599C150.817 26.3293 152.053 25.5016 152.687 23.9279C153.647 21.5163 153.647 19.0332 152.738 16.6012C152.124 14.9458 150.714 14.0466 149.038 14.0772C147.373 14.0977 146.085 15.0071 145.431 16.6523C144.859 18.0829 144.808 19.5748 144.89 21.0872C144.951 22.1805 145.125 23.2433 145.636 24.214C146.361 25.614 147.506 26.3395 149.171 26.3599Z" fill="#30C185"/>
<path d="M137.654 23.8461C137.654 25.338 137.654 26.83 137.654 28.3116C137.654 28.5569 137.644 28.7613 137.368 28.8839C134.139 30.2327 130.828 30.7334 127.426 29.7014C124.994 28.9656 123.267 27.3409 122.337 24.9906C121.07 21.8126 121.029 18.5631 122.337 15.3954C123.727 12.0437 126.394 10.3678 129.97 10.1328C132.31 9.97954 134.538 10.4087 136.541 11.7167C137.011 12.0233 137.123 12.2889 136.878 12.8203C136.469 13.6889 136.142 14.5983 135.795 15.4976C135.682 15.7939 135.58 15.845 135.294 15.6508C134.037 14.7618 132.637 14.21 131.074 14.1896C128.366 14.1487 126.864 15.3341 126.373 17.9807C126.056 19.677 126.077 21.3835 126.537 23.0593C127.088 25.0724 128.519 26.1862 130.604 26.2679C131.421 26.2986 132.228 26.2577 133.036 26.0942C133.291 26.0431 133.424 25.9716 133.414 25.6753C133.393 24.6943 133.403 23.7133 133.414 22.7323C133.414 22.4564 133.312 22.3849 133.056 22.3951C132.29 22.4053 131.523 22.3849 130.757 22.4053C130.45 22.4155 130.297 22.3644 130.307 21.9966C130.338 21.0973 130.328 20.1981 130.307 19.3091C130.297 18.9617 130.42 18.8799 130.747 18.8799C132.903 18.8901 135.069 18.8901 137.225 18.8799C137.573 18.8799 137.644 19.0128 137.644 19.3295C137.644 20.8317 137.654 22.344 137.654 23.8461Z" fill="#31C186"/>
<path d="M14.0302 10.1328C15.7265 11.8189 17.341 13.4232 18.9556 15.0173C19.1395 15.2012 19.1293 15.4056 19.1293 15.6202C19.1293 18.6449 19.1497 21.6798 19.119 24.7045C19.1088 25.2563 19.2825 25.3483 19.7935 25.3483C22.8182 25.3278 25.8429 25.338 28.8778 25.338C29.1128 25.338 29.3274 25.3278 29.5318 25.5322C31.0952 27.1058 32.6791 28.6693 34.2527 30.2429C34.2834 30.2736 34.3038 30.3247 34.3345 30.3656C34.2016 30.4882 34.0381 30.4269 33.8951 30.4269C27.4472 30.4269 21.0095 30.4269 14.5616 30.4371C14.2244 30.4371 14.0098 30.4371 14.0098 29.9773C14.02 23.4987 14.0098 17.0201 14.0098 10.5416C14.0098 10.4496 14.02 10.3474 14.0302 10.1328Z" fill="#30C185"/>
<path d="M57.1629 26.4825C57.1322 27.5963 57.1424 28.7204 57.1526 29.8342C57.1526 30.1612 57.0505 30.2634 56.7132 30.2634C52.82 30.2532 48.9267 30.2532 45.0232 30.2736C44.5225 30.2736 44.5736 30.0079 44.5736 29.7014C44.5736 24.1016 44.5736 18.4916 44.5838 12.8918C44.5838 11.9619 44.5021 11.032 44.6451 10.1124C44.6451 10.0817 44.6451 10.0408 44.6451 10.0102H49.4478C49.4376 10.0511 49.4274 10.0919 49.4172 10.1328C49.4274 14.1794 49.4274 18.2259 49.4274 22.2725C49.4274 23.3352 49.4478 24.4082 49.4172 25.4709C49.407 25.849 49.5091 25.9614 49.8975 25.9512C52.1251 25.9307 54.3528 25.9512 56.5804 25.9307C57.0402 25.9205 57.1833 26.0329 57.1629 26.4825Z" fill="#30C185"/>
<path d="M118.894 20.239C118.894 23.4374 118.884 26.6358 118.905 29.8342C118.905 30.2225 118.813 30.3554 118.404 30.3451C117.147 30.3145 115.88 30.3043 114.623 30.3451C114.122 30.3656 114.051 30.1714 114.051 29.7423C114.061 23.6111 114.061 17.48 114.061 11.3591C114.061 11.0423 114.071 10.7153 114.061 10.3985C114.051 10.1839 114.133 10.1022 114.357 10.1022C115.768 10.1124 117.178 10.1124 118.598 10.1022C119.017 10.1022 118.894 10.3883 118.894 10.5927C118.905 13.8115 118.894 17.0201 118.894 20.239Z" fill="#2FC084"/>
<path d="M21.3066 10.1226C21.4701 10.1226 21.5928 10.1226 21.7256 10.1226C25.7926 10.1226 29.8596 10.1329 33.9266 10.1124C34.3557 10.1124 34.4579 10.2248 34.4579 10.6438C34.4375 14.6903 34.4477 18.7369 34.4477 22.7834C34.4477 22.9265 34.4988 23.0798 34.4273 23.182C30.0742 18.8391 25.7108 14.5064 21.3066 10.1226Z" fill="#525D8D"/>
</g>
<defs>
<clipPath id="clip0_1946_21831">
<rect width="144" height="20.4473" fill="white" transform="translate(14 10)"/>
</clipPath>
</defs>
</svg>
