<svg width="160" height="40" viewBox="0 0 160 40" fill="none" xmlns="http://www.w3.org/2000/svg">
<g clip-path="url(#clip0_3504_37748)">
<path d="M113.044 13.3734C113.272 13.375 113.496 13.4339 113.696 13.5445C113.905 13.6566 114.077 13.827 114.192 14.035C114.307 14.238 114.368 14.4673 114.369 14.7008C114.369 14.9321 114.308 15.1593 114.194 15.3604C114.081 15.5677 113.91 15.7383 113.703 15.8519C113.502 15.9661 113.275 16.0261 113.043 16.0261C112.812 16.0261 112.584 15.9661 112.383 15.8519C112.176 15.7381 112.005 15.5676 111.892 15.3604C111.776 15.1587 111.715 14.9302 111.715 14.6977C111.715 14.4652 111.776 14.2367 111.892 14.035C112.006 13.8267 112.179 13.6563 112.388 13.5445C112.589 13.4331 112.814 13.3742 113.044 13.3734ZM113.044 13.5933C112.854 13.5948 112.668 13.644 112.502 13.7364C112.328 13.83 112.183 13.9723 112.088 14.146C111.991 14.3139 111.94 14.5044 111.94 14.6982C111.94 14.8921 111.991 15.0825 112.088 15.2504C112.184 15.4238 112.328 15.566 112.502 15.6601C112.67 15.7565 112.859 15.8073 113.053 15.8073C113.246 15.8073 113.435 15.7565 113.603 15.6601C113.778 15.5666 113.922 15.4243 114.018 15.2504C114.113 15.0829 114.163 14.8936 114.164 14.7008C114.163 14.5062 114.112 14.3151 114.015 14.146C113.92 13.9723 113.776 13.83 113.601 13.7364C113.43 13.6419 113.239 13.5926 113.044 13.5933ZM112.462 15.4371V14.006H112.951C113.074 14.0003 113.197 14.014 113.315 14.0464C113.389 14.0709 113.452 14.1195 113.495 14.1844C113.538 14.245 113.562 14.3174 113.562 14.3918C113.563 14.4424 113.553 14.4927 113.534 14.5395C113.515 14.5864 113.486 14.6289 113.45 14.6645C113.372 14.7442 113.266 14.7909 113.154 14.7952C113.199 14.8121 113.24 14.8379 113.275 14.8709C113.355 14.9572 113.424 15.0522 113.482 15.154L113.657 15.433H113.375L113.248 15.2079C113.189 15.0837 113.107 14.9713 113.007 14.8761C112.953 14.8394 112.888 14.8219 112.823 14.8263H112.688V15.4371H112.462ZM112.692 14.6334H112.971C113.066 14.6429 113.162 14.6222 113.245 14.5743C113.268 14.5553 113.287 14.531 113.3 14.5035C113.312 14.476 113.319 14.4459 113.318 14.4156C113.318 14.3751 113.306 14.3355 113.282 14.3026C113.258 14.2684 113.224 14.2424 113.185 14.2279C113.11 14.2071 113.031 14.1986 112.954 14.203H112.692V14.6334Z" fill="#58595B"/>
<path d="M28.3767 14.1118C30.5761 14.1118 32.359 12.3289 32.359 10.1296C32.359 7.9303 30.5761 6.1474 28.3767 6.1474C26.1774 6.1474 24.3945 7.9303 24.3945 10.1296C24.3945 12.3289 26.1774 14.1118 28.3767 14.1118Z" fill="#F16522"/>
<path d="M34.0174 31.6313C36.2167 31.6313 37.9996 29.8484 37.9996 27.6491C37.9996 25.4498 36.2167 23.6669 34.0174 23.6669C31.8181 23.6669 30.0352 25.4498 30.0352 27.6491C30.0352 29.8484 31.8181 31.6313 34.0174 31.6313Z" fill="#F16522"/>
<path d="M16.0994 27.9158C18.2987 27.9158 20.0816 26.1329 20.0816 23.9336C20.0816 21.7342 18.2987 19.9514 16.0994 19.9514C13.9001 19.9514 12.1172 21.7342 12.1172 23.9336C12.1172 26.1329 13.9001 27.9158 16.0994 27.9158Z" fill="#F16522"/>
<path d="M16.6314 18.4912C18.061 18.4912 19.2198 17.3323 19.2198 15.9028C19.2198 14.4732 18.061 13.3143 16.6314 13.3143C15.2019 13.3143 14.043 14.4732 14.043 15.9028C14.043 17.3323 15.2019 18.4912 16.6314 18.4912Z" fill="#F6921E"/>
<path d="M35.1431 17.4302C36.5727 17.4302 37.7316 16.2713 37.7316 14.8418C37.7316 13.4122 36.5727 12.2534 35.1431 12.2534C33.7136 12.2534 32.5547 13.4122 32.5547 14.8418C32.5547 16.2713 33.7136 17.4302 35.1431 17.4302Z" fill="#F6921E"/>
<path d="M26.6509 33.6225C28.0805 33.6225 29.2394 32.4637 29.2394 31.0341C29.2394 29.6046 28.0805 28.4457 26.6509 28.4457C25.2214 28.4457 24.0625 29.6046 24.0625 31.0341C24.0625 32.4637 25.2214 33.6225 26.6509 33.6225Z" fill="#F6921E"/>
<path d="M20.5459 31.3658C21.5356 31.3658 22.3379 30.5635 22.3379 29.5738C22.3379 28.5841 21.5356 27.7818 20.5459 27.7818C19.5562 27.7818 18.7539 28.5841 18.7539 29.5738C18.7539 30.5635 19.5562 31.3658 20.5459 31.3658Z" fill="#FFC10E"/>
<path d="M36.8701 22.4732C37.8598 22.4732 38.6621 21.6709 38.6621 20.6812C38.6621 19.6915 37.8598 18.8892 36.8701 18.8892C35.8804 18.8892 35.0781 19.6915 35.0781 20.6812C35.0781 21.6709 35.8804 22.4732 36.8701 22.4732Z" fill="#FFC10E"/>
<path d="M20.9443 13.1824C21.934 13.1824 22.7363 12.3801 22.7363 11.3904C22.7363 10.4008 21.934 9.59845 20.9443 9.59845C19.9546 9.59845 19.1523 10.4008 19.1523 11.3904C19.1523 12.3801 19.9546 13.1824 20.9443 13.1824Z" fill="#FFC10E"/>
<path d="M51.0547 34V13.8691H53.2065V16.413C53.7168 15.4368 54.3908 14.6874 55.2288 14.1647C56.0682 13.6417 57.0397 13.3696 58.0287 13.3807C59.9348 13.3807 61.4658 14.0465 62.6218 15.378C63.7777 16.7096 64.3553 18.475 64.3547 20.6742C64.3547 22.9128 63.7891 24.6906 62.6581 26.0076C61.527 27.3247 60.0136 27.9839 58.1179 27.9852C57.029 27.9852 56.0805 27.7312 55.2723 27.223C54.4641 26.7149 53.8046 25.9578 53.2936 24.9519V34H51.0547ZM53.2325 20.67C53.2325 22.191 53.6417 23.4092 54.4603 24.3245C55.2789 25.2399 56.3633 25.6996 57.7135 25.7038C59.0312 25.7038 60.0682 25.2845 60.8246 24.4458C61.5809 23.6072 61.9588 22.4433 61.9581 20.9542C61.9581 19.2873 61.5802 17.9806 60.8246 17.0342C60.0689 16.0877 59.017 15.6141 57.6689 15.6134C56.2917 15.6134 55.2084 16.0628 54.4188 16.9616C53.6293 17.8603 53.2349 19.0979 53.2356 20.6742L53.2325 20.67Z" fill="#58595B"/>
<path d="M78.9423 13.8691V27.4055H76.7469V24.9498C76.2174 25.9357 75.5409 26.6879 74.7175 27.2064C73.8904 27.7256 72.9313 27.996 71.9548 27.9852C70.0577 27.9852 68.5291 27.317 67.3691 25.9806C66.209 24.6443 65.6289 22.8754 65.6289 20.6741C65.6289 18.4452 66.1924 16.6722 67.3193 15.3552C68.4462 14.0382 69.953 13.3814 71.8397 13.3848C72.9459 13.3848 73.9062 13.6389 74.7206 14.1471C75.535 14.6552 76.1918 15.4119 76.6909 16.4171V13.8691H78.9423ZM76.7469 20.7633C76.7469 19.2347 76.3401 18.0041 75.5264 17.0715C74.7126 16.1389 73.6511 15.6729 72.3416 15.6736C70.9845 15.6736 69.9253 16.1026 69.1642 16.9605C68.403 17.8185 68.0227 19.017 68.0234 20.5559C68.0234 22.1931 68.4061 23.4555 69.1714 24.3432C69.9367 25.2309 71.0225 25.6747 72.4287 25.6747C73.7769 25.6747 74.8336 25.2433 75.599 24.3805C76.3643 23.5177 76.7469 22.312 76.7469 20.7633Z" fill="#58595B"/>
<path d="M94.4366 13.869V27.169C94.4366 28.6381 94.3405 29.6838 94.1483 30.306C93.9559 30.9256 93.6307 31.4957 93.1953 31.9767C92.5758 32.6599 91.8002 33.1829 90.9345 33.5011C90.0441 33.8336 89.0212 33.9999 87.866 33.9999C85.861 33.9999 84.2986 33.5315 83.1786 32.5947C82.0586 31.6579 81.4737 30.3312 81.4239 28.6146H83.9657V28.7919C83.9657 29.8082 84.3076 30.5926 84.9913 31.145C85.6751 31.6973 86.643 31.9739 87.895 31.9746C88.8 31.9746 89.5729 31.8242 90.2138 31.5235C90.8312 31.2429 91.3441 30.7743 91.6791 30.1847C91.8899 29.8253 92.0363 29.4319 92.1116 29.0221C92.1987 28.5783 92.2419 27.9422 92.2412 27.114V24.8325C91.731 25.8004 91.0621 26.5426 90.2345 27.059C89.3986 27.5788 88.4313 27.8483 87.447 27.8358C85.5492 27.8358 84.0206 27.1748 82.8612 25.853C81.7018 24.5311 81.1218 22.7754 81.1211 20.5859C81.1211 18.3735 81.6842 16.6206 82.8104 15.3271C83.9366 14.0335 85.4434 13.385 87.3309 13.3816C88.4287 13.3816 89.3918 13.6357 90.22 14.1438C91.0483 14.652 91.703 15.399 92.1842 16.3848V13.869H94.4366ZM92.2412 20.674C92.2412 19.153 91.8371 17.93 91.0289 17.005C90.2207 16.08 89.1567 15.6164 87.8369 15.6143C86.4791 15.6143 85.4199 16.0433 84.6595 16.9013C83.899 17.7593 83.5187 18.9577 83.5187 20.4967C83.5187 22.1345 83.9014 23.3969 84.6667 24.2839C85.432 25.1709 86.5182 25.6148 87.9251 25.6155C89.2732 25.6155 90.33 25.1792 91.0953 24.3068C91.8606 23.4343 92.2426 22.2233 92.2412 20.674Z" fill="#58595B"/>
<path d="M109.987 13.8691V27.4055H107.792V24.9498C107.263 25.9364 106.586 26.6886 105.76 27.2064C104.933 27.7256 103.974 27.996 102.998 27.9852C101.1 27.9852 99.5714 27.317 98.412 25.9806C97.2526 24.6443 96.6726 22.8754 96.6719 20.6741C96.6719 18.4452 97.235 16.6722 98.3612 15.3552C99.4874 14.0382 100.994 13.3814 102.882 13.3848C103.988 13.3848 104.948 13.6389 105.764 14.1471C106.579 14.6552 107.235 15.4119 107.734 16.4171V13.8691H109.987ZM107.792 20.7633C107.792 19.2347 107.385 18.0041 106.572 17.0715C105.759 16.1389 104.698 15.6729 103.388 15.6736C102.03 15.6736 100.971 16.1026 100.21 16.9605C99.4497 17.8185 99.0695 19.017 99.0695 20.5559C99.0695 22.1931 99.4522 23.4555 100.217 24.3432C100.983 25.2309 102.07 25.6747 103.479 25.6747C104.827 25.6747 105.884 25.2433 106.649 24.3805C107.415 23.5177 107.795 22.312 107.792 20.7633Z" fill="#58595B"/>
</g>
<defs>
<clipPath id="clip0_3504_37748">
<rect width="102.459" height="28" fill="white" transform="translate(12 6)"/>
</clipPath>
</defs>
</svg>
