<svg width="160" height="40" viewBox="0 0 160 40" fill="none" xmlns="http://www.w3.org/2000/svg">
<path d="M27.2486 11.9105C27.291 11.9275 27.3192 11.9275 27.3334 11.9416C28.6754 13.3119 30.0937 14.6171 31.3396 16.0722C33.0621 18.0837 33.9523 20.6765 33.8287 23.3218C33.8076 24.7634 33.4997 26.1863 32.923 27.5077C32.3462 28.829 31.5122 30.0223 30.4694 31.0179C28.7527 32.7409 26.5011 33.8289 24.0843 34.1031C22.6368 34.2974 21.1649 34.1973 19.757 33.809C18.3491 33.4206 17.0342 32.7518 15.891 31.8429C15.0957 31.2036 14.3582 30.4955 13.6873 29.7267C13.1548 29.1462 12.8594 28.3871 12.8594 27.5993C12.8594 26.8115 13.1548 26.0524 13.6873 25.4719C13.7296 25.4301 13.775 25.3913 13.8229 25.356C14.2891 25.8166 14.7468 26.2771 15.2101 26.7291C16.1001 27.5937 16.925 28.5458 17.8998 29.3001C19.4948 30.4751 21.4725 31.0089 23.4421 30.7959C25.4117 30.5829 27.2297 29.6387 28.5366 28.15C29.8436 26.6612 30.5444 24.7363 30.5005 22.7557C30.4566 20.7751 29.6712 18.8831 28.2996 17.4537C27.7882 16.9893 27.3158 16.4838 26.887 15.9422C26.4585 15.3368 26.2596 14.5986 26.3259 13.8598C26.3921 13.1211 26.7192 12.43 27.2486 11.9105Z" fill="#17BBEF"/>
<path d="M22.6994 7.26001C23.4622 8.10759 23.8154 9.01169 23.6346 10.1051C23.496 10.8526 23.1182 11.5348 22.5582 12.0489C19.6575 14.9306 16.7663 17.8218 13.8845 20.7225C11.6808 22.9168 9.47994 25.1167 7.28187 27.3223C6.94001 27.667 6.90611 27.667 6.62358 27.2771C6.15405 26.6522 5.92732 25.8782 5.98552 25.0987C6.04372 24.3192 6.38289 23.5874 6.94001 23.0392C11.2024 18.7843 15.4629 14.5276 19.7216 10.2689C20.7104 9.27161 21.6908 8.29124 22.6994 7.26001Z" fill="#1853A4"/>
<path d="M82.8933 18.7155C83.5039 18.0935 84.2837 17.6643 85.136 17.4814C85.9883 17.2985 86.8755 17.3698 87.6876 17.6865C88.4998 18.0032 89.201 18.5513 89.7045 19.2629C90.2079 19.9745 90.4914 20.8183 90.5197 21.6895C90.5562 23.4547 90.5197 25.2245 90.5197 26.9943C90.4907 27.5654 90.2716 28.1104 89.8972 28.5427C89.5228 28.975 89.0146 29.2696 88.4535 29.3798C87.9973 29.4619 88.0475 29.1426 88.0475 28.8735C88.0475 26.5929 88.0475 24.3122 88.0475 22.0316C88.035 21.5835 87.9179 21.1446 87.7054 20.7499C87.5062 20.3989 87.1962 20.1239 86.8239 19.9679C86.4517 19.8119 86.0382 19.7837 85.6483 19.8878C85.2169 19.9804 84.8302 20.2177 84.5522 20.5604C84.2743 20.903 84.1219 21.3304 84.1203 21.7716C84.1203 23.4319 84.1203 25.0876 84.1203 26.7479C84.1585 27.3574 83.9743 27.9601 83.6019 28.4441C83.2294 28.9282 82.694 29.2606 82.0951 29.3798C81.6891 29.4938 81.5614 29.3798 81.566 28.9784C81.566 27.6465 81.566 26.3146 81.566 24.9873C81.566 23.9838 81.566 22.9803 81.566 21.9769C81.5934 21.4424 81.4092 20.9186 81.0532 20.519C80.6971 20.1195 80.198 19.8763 79.6639 19.8422C79.3891 19.8407 79.1169 19.895 78.8638 20.0019C78.6106 20.1087 78.3818 20.2658 78.1911 20.4637C78.0005 20.6616 77.852 20.8961 77.7547 21.1531C77.6574 21.41 77.6133 21.6841 77.625 21.9586C77.6022 23.5778 77.625 25.2017 77.625 26.8255C77.6465 27.4212 77.4555 28.0051 77.0862 28.473C76.7169 28.9408 76.1933 29.2623 75.6089 29.3798C75.2349 29.471 75.1118 29.3798 75.1118 28.9875C75.1118 26.5837 75.0433 24.1708 75.1483 21.7716C75.1541 20.9136 75.4124 20.0762 75.891 19.3641C76.3695 18.6519 77.0472 18.0964 77.8394 17.7668C78.6108 17.3996 79.4753 17.275 80.319 17.4094C81.1626 17.5438 81.9457 17.9308 82.5649 18.5194C82.6333 18.5787 82.7063 18.6334 82.7793 18.6882C82.8167 18.6996 82.8548 18.7087 82.8933 18.7155Z" fill="#1853A4"/>
<path d="M41.8594 22.807C41.8594 20.9141 41.8594 19.0166 41.8594 17.1237C41.8594 15.3402 42.8902 14.323 44.6782 14.323C46.0466 14.323 47.415 14.323 48.7834 14.323C49.4629 14.3166 50.1368 14.4475 50.7645 14.7079C51.3923 14.9683 51.9609 15.3529 52.4363 15.8386C52.9117 16.3242 53.2841 16.9009 53.5311 17.534C53.7781 18.1671 53.8947 18.8436 53.8737 19.5229C53.8099 21.6348 52.1313 23.7512 50.056 24.0568C48.5552 24.2023 47.0481 24.2723 45.5403 24.2666C45.294 24.2666 44.961 24.2666 44.8196 24.3989C44.5879 24.6382 44.4378 24.9448 44.3909 25.2746C44.3225 25.9588 44.4411 26.6704 44.3316 27.3455C44.2587 27.8271 44.0406 28.2751 43.7065 28.6297C43.3723 28.9842 42.938 29.2284 42.4615 29.3296C41.9369 29.4801 41.8594 29.43 41.8594 28.8735V22.807ZM47.2782 16.8409H45.367C45.244 16.8243 45.119 16.8347 45.0004 16.8712C44.8818 16.9077 44.7726 16.9695 44.6802 17.0523C44.5878 17.1351 44.5145 17.237 44.4654 17.3509C44.4162 17.4648 44.3924 17.588 44.3954 17.7121C44.3589 18.7657 44.3954 19.8239 44.3954 20.8776C44.388 20.984 44.4023 21.0908 44.4375 21.1914C44.4727 21.2921 44.5281 21.3846 44.6003 21.4631C44.6724 21.5417 44.7598 21.6047 44.8571 21.6483C44.9545 21.6919 45.0596 21.7153 45.1663 21.7169C46.5835 21.7694 48.0026 21.7466 49.4174 21.6484C50.6307 21.5344 51.4563 20.3165 51.3651 19.0759C51.3191 18.4813 51.0545 17.9248 50.6224 17.5138C50.1903 17.1027 49.6213 16.8663 49.0251 16.85C48.4458 16.8272 47.8574 16.8409 47.2782 16.8409Z" fill="#1853A4"/>
<path d="M116.338 24.604C116.425 24.9817 116.592 25.3362 116.828 25.6432C117.064 25.9503 117.364 26.2026 117.707 26.3829C118.331 26.7872 119.067 26.9853 119.81 26.9493C120.553 26.9133 121.266 26.645 121.848 26.1822C122.294 25.8411 122.832 25.6417 123.392 25.61C123.953 25.5782 124.51 25.7156 124.991 26.0043C124.319 27.3691 123.158 28.4308 121.739 28.9783C120.549 29.4232 119.247 29.4765 118.025 29.1304C116.802 28.7843 115.722 28.0569 114.941 27.0541C114.161 26.0513 113.721 24.8256 113.686 23.5554C113.651 22.2852 114.022 21.0369 114.745 19.9924C115.469 18.9479 116.507 18.1617 117.709 17.7483C118.91 17.3349 120.212 17.3159 121.426 17.6941C122.639 18.0723 123.699 18.828 124.453 19.851C125.207 20.874 125.614 22.1109 125.616 23.3816C125.643 24.8138 125.803 24.5949 124.416 24.604C121.958 24.604 119.495 24.604 117.036 24.604H116.338ZM122.852 22.1501C122.459 20.7817 120.836 19.7554 119.349 19.8694C117.862 19.9835 116.398 21.3154 116.388 22.1501H122.852Z" fill="#17BBEF"/>
<path d="M137.446 18.3699C137.401 17.7246 137.401 17.0768 137.446 16.4314C137.501 15.9568 137.7 15.5105 138.018 15.1537C138.336 14.7969 138.756 14.5469 139.221 14.4381C139.677 14.2967 139.832 14.3925 139.832 14.8943C139.832 17.6857 139.864 20.4727 139.805 23.2642C139.78 24.1136 139.601 24.9514 139.276 25.7364C138.782 26.902 137.924 27.8765 136.831 28.5145C135.737 29.1524 134.467 29.4196 133.209 29.2759C131.677 29.1187 130.265 28.3762 129.268 27.2033C128.27 26.0304 127.764 24.5175 127.854 22.9803C127.945 21.4431 128.625 20.0003 129.754 18.9526C130.882 17.905 132.372 17.3335 133.912 17.3573C134.937 17.3665 135.941 17.6483 136.822 18.1738C136.944 18.2509 137.07 18.3209 137.2 18.3836C137.259 18.4064 137.323 18.3791 137.446 18.3699ZM137.374 23.3873C137.382 22.9138 137.295 22.4434 137.117 22.0045C136.939 21.5657 136.673 21.1675 136.337 20.8341C136.001 20.5007 135.6 20.239 135.16 20.0647C134.719 19.8905 134.248 19.8074 133.775 19.8204C132.856 19.8488 131.985 20.2328 131.344 20.8915C130.703 21.5501 130.343 22.4319 130.34 23.3509C130.334 23.8158 130.422 24.2771 130.598 24.7074C130.774 25.1378 131.035 25.5285 131.364 25.8564C131.694 26.1843 132.086 26.4428 132.517 26.6165C132.948 26.7902 133.41 26.8755 133.875 26.8676C134.337 26.8769 134.796 26.7928 135.225 26.6202C135.653 26.4477 136.043 26.1904 136.37 25.8636C136.696 25.5369 136.954 25.1475 137.126 24.7188C137.299 24.2902 137.383 23.8311 137.374 23.3691V23.3873Z" fill="#17BBEF"/>
<path d="M65.6815 28.4229C64.7902 28.778 63.8758 29.0721 62.9447 29.3032C60.5455 29.7594 57.9684 28.3636 56.8235 26.1377C56.4421 25.4061 56.2158 24.6037 56.1588 23.7806C56.1019 22.9575 56.2155 22.1315 56.4925 21.3544C56.7695 20.5772 57.204 19.8656 57.7688 19.2642C58.3336 18.6627 59.0164 18.1843 59.7746 17.859C60.5165 17.5406 61.3151 17.3756 62.1224 17.374C62.9297 17.3723 63.729 17.534 64.4722 17.8494C65.2154 18.1647 65.8871 18.6272 66.4469 19.2089C67.0066 19.7906 67.4429 20.4796 67.7295 21.2343C67.9837 21.9896 68.1266 22.7778 68.1537 23.5743C68.213 24.6462 68.1537 25.7226 68.1309 26.7945C68.1561 27.3728 67.9792 27.9419 67.6304 28.4039C67.2816 28.8659 66.7828 29.1919 66.2197 29.326C65.8411 29.4401 65.6586 29.3808 65.6906 28.952C65.6951 28.7604 65.6815 28.5689 65.6815 28.4229ZM58.6571 23.3462C58.6437 23.8014 58.7213 24.2546 58.8851 24.6795C59.049 25.1043 59.2959 25.4922 59.6115 25.8205C59.927 26.1488 60.3049 26.4109 60.7229 26.5915C61.141 26.772 61.5908 26.8674 62.0461 26.8721C62.5164 26.8842 62.9844 26.8029 63.423 26.633C63.8617 26.463 64.2623 26.2078 64.6016 25.882C64.941 25.5562 65.2124 25.1664 65.4001 24.735C65.5878 24.3037 65.6881 23.8394 65.6951 23.369C65.6758 22.449 65.3048 21.5713 64.6584 20.9164C64.0119 20.2614 63.1392 19.879 62.2195 19.8477C61.7532 19.8335 61.2889 19.9138 60.8545 20.0838C60.4201 20.2538 60.0245 20.5099 59.6917 20.8368C59.3589 21.1636 59.0957 21.5544 58.9179 21.9857C58.7401 22.417 58.6514 22.8798 58.6571 23.3462Z" fill="#1853A4"/>
<path d="M104.5 21.8263C104.044 21.966 103.561 21.9929 103.092 21.9047C102.624 21.8165 102.183 21.6159 101.809 21.32C101.336 20.9306 100.836 20.5755 100.313 20.2572C99.5442 19.8643 98.657 19.7704 97.8229 19.9937C96.9888 20.2169 96.2671 20.7415 95.7974 21.466C95.3208 22.1923 95.1272 23.0682 95.2532 23.9278C95.3793 24.7874 95.8164 25.5708 96.4815 26.1297C97.1466 26.6886 97.9937 26.984 98.8621 26.9601C99.7305 26.9362 100.56 26.5945 101.193 25.9999C101.528 25.6215 101.941 25.3201 102.403 25.1162C102.865 24.9123 103.366 24.8107 103.871 24.8185C103.998 24.8216 104.124 24.8338 104.249 24.855C104.334 24.8793 104.417 24.9114 104.496 24.9507C104.155 26.2591 103.377 27.4116 102.291 28.2171C101.205 29.0226 99.8761 29.4328 98.525 29.3797C97.4208 29.3405 96.3491 28.996 95.429 28.3843C94.5089 27.7726 93.7764 26.9178 93.3129 25.9148C92.8494 24.9118 92.6731 23.7999 92.8035 22.7028C92.934 21.6056 93.3661 20.5661 94.0518 19.6997C94.7376 18.8334 95.6501 18.1742 96.688 17.7953C97.7259 17.4164 98.8485 17.3327 99.9311 17.5535C101.014 17.7743 102.014 18.291 102.821 19.0461C103.627 19.8012 104.209 20.7652 104.5 21.8309V21.8263Z" fill="#17BBEF"/>
<path d="M151.853 19.8565V21.567C151.853 23.1543 151.853 24.7599 151.853 26.3198C151.853 26.6939 151.903 26.89 152.346 26.9812C152.797 27.0638 153.214 27.2755 153.546 27.5904C153.879 27.9054 154.113 28.3101 154.221 28.7556C154.339 29.1661 154.28 29.3941 153.796 29.3804C153.126 29.3804 152.428 29.4124 151.78 29.3439C151.447 29.3302 151.119 29.2495 150.817 29.1066C150.515 28.9637 150.245 28.7615 150.023 28.5122C149.801 28.2628 149.631 27.9713 149.524 27.655C149.417 27.3387 149.375 27.0041 149.399 26.6711C149.399 24.5957 149.399 22.5203 149.399 20.4404C149.399 19.9843 149.304 19.7334 148.765 19.7881C148.309 19.8337 147.853 19.7881 147.397 19.7881C146.941 19.7881 146.941 19.6604 147.032 19.2909C147.133 18.8248 147.37 18.3989 147.712 18.0669C148.055 17.735 148.488 17.5117 148.957 17.4254C149.308 17.3569 149.386 17.2201 149.39 16.8917C149.38 16.3046 149.576 15.7325 149.943 15.2744C150.311 14.8163 150.827 14.501 151.402 14.383C151.758 14.31 151.858 14.4058 151.858 14.7525C151.858 15.4595 151.858 16.171 151.858 16.8826C151.858 17.252 151.949 17.4071 152.346 17.3889C152.962 17.357 153.577 17.3889 154.17 17.3889C154.462 18.4973 153.427 19.6011 151.853 19.8565Z" fill="#17BBEF"/>
<path d="M70.3998 22.7614C70.3998 20.794 70.3998 18.8281 70.3998 16.8637C70.3801 16.2771 70.5712 15.7028 70.9386 15.2451C71.306 14.7873 71.8252 14.4764 72.4022 14.3687C72.7671 14.2866 72.9085 14.3687 72.904 14.761C72.904 18.8205 72.904 22.88 72.904 26.9396C72.8889 27.4908 72.6934 28.0219 72.3473 28.4512C72.0012 28.8805 71.5237 29.1843 70.9882 29.316C70.5686 29.4391 70.3953 29.357 70.3998 28.8598C70.4135 26.8392 70.3998 24.8186 70.3998 22.7614Z" fill="#1853A4"/>
<path d="M106.825 25.2757C106.825 23.8934 106.868 22.5374 106.953 21.1706C107.176 19.1636 108.814 17.704 110.857 17.4166C111.131 17.3802 111.313 17.4531 111.313 17.7907C111.351 18.2466 111.269 18.7045 111.076 19.1189C110.882 19.5334 110.583 19.8901 110.209 20.1534C109.912 20.3526 109.672 20.6254 109.512 20.9452C109.353 21.265 109.278 21.6209 109.297 21.9779C109.297 23.5607 109.297 25.1708 109.297 26.7307C109.321 27.3075 109.148 27.8752 108.805 28.3398C108.463 28.8043 107.972 29.1379 107.413 29.285C106.994 29.3945 106.811 29.285 106.825 28.8289C106.825 27.643 106.825 26.562 106.825 25.376V25.2757Z" fill="#17BBEF"/>
<path d="M142.156 24.2314C142.156 22.7581 142.156 21.2802 142.156 19.8069C142.165 19.2734 142.349 18.7574 142.678 18.3375C143.007 17.9176 143.465 17.6167 143.981 17.4807C144.546 17.3347 144.624 17.3849 144.628 17.9642C144.628 19.4785 144.628 20.9883 144.628 22.5026C144.628 24.017 144.628 25.5587 144.555 27.0867C144.53 27.5967 144.338 28.0843 144.008 28.4742C143.679 28.8641 143.23 29.1347 142.731 29.2442C142.275 29.3628 142.179 29.2442 142.184 28.8246C142.165 27.292 142.156 25.764 142.156 24.2314Z" fill="#17BBEF"/>
<path d="M23.2734 20.9351C23.2913 20.5042 23.4728 20.0963 23.7809 19.7944C24.0891 19.4926 24.5007 19.3196 24.9319 19.3106C25.3623 19.3329 25.7694 19.5133 26.0749 19.8173C26.3805 20.1213 26.563 20.5274 26.5875 20.9577C26.5725 21.3955 26.3905 21.8108 26.079 22.1187C25.7675 22.4265 25.35 22.6035 24.9121 22.6134C24.4734 22.6045 24.0558 22.4236 23.7493 22.1096C23.4428 21.7957 23.2719 21.3739 23.2734 20.9351Z" fill="#1853A4"/>
<path d="M20.62 26.8904C20.4 26.8982 20.1808 26.8613 19.9754 26.7822C19.77 26.703 19.5828 26.5831 19.4249 26.4298C19.267 26.2764 19.1417 26.0927 19.0566 25.8897C18.9716 25.6867 18.9284 25.4686 18.9297 25.2485C18.9311 25.0284 18.9769 24.8109 19.0644 24.6089C19.152 24.407 19.2794 24.2248 19.4391 24.0734C19.5989 23.9219 19.7876 23.8043 19.9939 23.7277C20.2002 23.651 20.4199 23.6169 20.6398 23.6272C20.8597 23.6195 21.079 23.6563 21.2844 23.7355C21.4898 23.8147 21.677 23.9345 21.8349 24.0879C21.9928 24.2413 22.118 24.4249 22.2031 24.6279C22.2882 24.8309 22.3314 25.049 22.33 25.2691C22.3287 25.4893 22.2829 25.7068 22.1954 25.9088C22.1078 26.1107 21.9803 26.2929 21.8206 26.4443C21.6609 26.5957 21.4722 26.7133 21.2659 26.79C21.0595 26.8667 20.8399 26.9008 20.62 26.8904Z" fill="#1853A4"/>
<path d="M144.554 15.5958C144.543 15.9151 144.406 16.2173 144.173 16.4359C143.94 16.6545 143.63 16.7715 143.311 16.7612C142.991 16.7509 142.689 16.6142 142.47 16.3811C142.252 16.148 142.135 15.8376 142.145 15.5182C142.171 15.2079 142.309 14.9175 142.533 14.7011C142.757 14.4847 143.052 14.3569 143.363 14.3414C143.684 14.3589 143.986 14.4986 144.208 14.7318C144.429 14.9651 144.553 15.2742 144.554 15.5958Z" fill="#1853A4"/>
</svg>
