<svg width="160" height="40" viewBox="0 0 160 40" fill="none" xmlns="http://www.w3.org/2000/svg">
<path d="M9.69155 18.5302C7.89017 18.5302 6.51894 17.6931 5.49139 16.2418C4.20393 14.423 4.02101 12.2433 3.631 10.1368C3.4904 9.37696 3.40175 8.60687 3.29223 7.84102C3.22934 7.40013 3.35613 7.12743 3.8581 7.21701C6.2586 7.64648 8.71609 7.76549 11.0216 8.70304C13.139 9.56403 14.5354 11.409 14.557 13.5158C14.5841 16.1704 12.2973 18.5272 9.69155 18.5302Z" fill="#52C4D0"/>
<path d="M14.5286 25.3321C14.5222 26.5441 14.1446 27.7239 13.4484 28.7074C12.7522 29.691 11.7719 30.4294 10.6439 30.8199C8.35779 31.6048 5.95902 31.7524 3.60356 32.1451C3.333 32.1902 3.13497 32.1663 3.21858 31.755C3.65724 29.5964 3.80101 27.3783 4.49037 25.2705C4.9424 23.8882 5.55332 22.6108 6.75342 21.7116C8.31505 20.5416 9.99698 20.4711 11.6739 21.2955C13.4433 22.1639 14.4201 23.6628 14.5286 25.3321Z" fill="#015F7E"/>
<path d="M16.7043 25.6667C16.7043 23.6511 18.2998 21.4584 20.1689 20.9059C22.2584 20.2882 24.5912 21.223 25.8329 23.1553C26.6544 24.4339 26.9958 25.8844 27.2545 27.3482C27.5088 28.7859 27.6503 30.2444 27.8437 31.6932C27.8906 32.0445 27.8846 32.3 27.3976 32.1941C25.5707 31.7976 23.6989 31.6404 21.8924 31.1316C20.6331 30.7769 19.408 30.3331 18.3941 29.4538C17.2518 28.4637 16.674 27.2027 16.7043 25.6667Z" fill="#015F7E"/>
<path d="M16.6801 13.566C16.568 11.1973 18.6566 8.49579 21.6426 8.58171C24.3726 8.66046 26.4663 10.7818 26.4971 13.5239C26.5285 16.3197 24.2595 18.521 21.6523 18.5446C18.9855 18.5679 16.6132 16.3851 16.6801 13.566Z" fill="#EF5923"/>
<path d="M76.3726 15.8246C76.7673 15.8111 76.882 15.4405 77.0652 15.2029C78.9197 12.7988 83.3571 12.7925 85.0496 15.596C85.4526 16.2645 85.6618 16.1311 86.0303 15.6024C87.8446 13 91.8554 12.9196 93.7887 14.4615C94.3226 14.8711 94.7644 15.3917 95.0848 15.9887C95.4052 16.5857 95.5967 17.2453 95.6467 17.9235C95.8598 20.438 95.7005 22.962 95.7389 25.4817C95.7461 25.9525 95.7261 26.4241 95.7437 26.8944C95.7912 28.179 96.0334 28.1825 94.5216 28.2219C93.8296 28.2398 93.6437 28.0266 93.6517 27.342C93.6848 24.6831 93.6788 22.0233 93.6579 19.3645C93.6424 17.3708 92.7045 15.9726 91.1416 15.5237C88.3791 14.7303 86.0994 16.6133 86.0593 19.7641C86.0273 22.2844 86.0003 24.8072 86.0729 27.3259C86.1067 28.5057 85.3557 28.1266 84.7776 28.212C84.0555 28.3184 83.9223 27.9729 83.9294 27.3151C83.959 24.5732 83.9776 21.8298 83.9294 19.0887C83.8823 16.3934 81.7131 14.8045 79.17 15.5332C77.518 16.0069 76.3028 17.8331 76.29 19.9113C76.2746 22.4043 76.2428 24.8984 76.299 27.3902C76.3268 28.6211 75.4917 28.095 74.9575 28.2013C74.2943 28.333 74.2091 27.9622 74.211 27.3903C74.2293 23.0966 74.2297 18.8029 74.2121 14.5091C74.21 13.959 74.3152 13.7229 74.9351 13.7501C76.3668 13.8128 76.3206 13.4428 76.3232 15.183C76.3241 15.3894 76.1851 15.6125 76.3726 15.8246Z" fill="#075979"/>
<path d="M150.286 25.5766C150.988 23.7119 151.692 21.8419 152.399 19.9666C153.062 18.2132 153.778 16.478 154.376 14.7017C154.625 13.9596 154.978 13.7007 155.728 13.7378C156.982 13.7999 156.981 13.7605 156.515 14.926C154.646 19.6055 152.778 24.2852 150.91 28.9651C150.618 29.7125 150.228 30.4165 149.752 31.0583C148.04 33.3261 145.561 32.9821 143.686 32.237C143.555 32.1851 143.408 32.1148 143.419 31.9611C143.47 31.4655 143.653 30.9934 143.948 30.5961C144.196 30.2383 144.484 30.5918 144.744 30.6575C147.127 31.2617 148.203 30.5004 149.055 28.3258C149.187 27.9892 148.953 27.7365 148.836 27.4735C146.919 23.1693 144.995 18.8685 143.063 14.5712C142.714 13.7926 142.723 13.7714 143.584 13.7624C145.042 13.7478 145.033 13.7507 145.597 15.0798C147.026 18.4531 148.46 21.8244 149.9 25.1935C149.924 25.2867 149.973 25.3715 150.041 25.4389C150.109 25.5063 150.193 25.5538 150.286 25.5766Z" fill="#055C7E"/>
<path d="M60.9876 16.147C61.7648 15.3452 62.2981 14.6557 63.0354 14.1757C66.2194 12.103 70.6614 14.1378 71.2191 17.9296C71.2995 18.5604 71.3332 19.1965 71.3199 19.8325C71.3174 22.3527 71.307 24.8733 71.3342 27.3932C71.3407 27.9893 71.1913 28.2491 70.5595 28.22C69.0484 28.1506 69.2355 28.4249 69.2239 26.9124C69.2049 24.4753 69.2191 22.038 69.219 19.6007C69.219 17.1532 67.9237 15.563 65.7631 15.3557C63.4555 15.1348 61.5968 16.5523 61.1392 18.8475C61.0491 19.3079 61.0053 19.7765 61.0084 20.2459C61.0107 22.544 60.976 24.8442 61.0266 27.1419C61.0446 27.9549 60.8623 28.3659 60.0008 28.209C59.9468 28.1997 59.8917 28.1997 59.8377 28.209C59.1221 28.3319 58.9069 28.043 58.9142 27.3006C58.9512 23.5341 58.9325 19.7675 58.9334 16.0002C58.9334 15.6402 58.9334 15.2802 58.9334 14.9201C58.9334 13.746 58.9357 13.793 60.0643 13.7416C60.8348 13.7068 61.1032 13.977 60.9967 14.7408C60.9442 15.1199 60.9876 15.5106 60.9876 16.147Z" fill="#085E80"/>
<path d="M116.979 15.9038C117.915 14.9589 118.771 14.0141 120.046 13.6989C123.85 12.7582 126.987 14.5308 127.237 18.6254C127.419 21.6073 127.278 24.609 127.294 27.6019C127.296 28.0583 127.154 28.2342 126.675 28.2167C124.969 28.1559 125.192 28.4542 125.183 26.7283C125.17 24.4283 125.193 22.1278 125.168 19.828C125.15 18.1206 124.789 16.5757 123.08 15.7421C120.351 14.4113 117.126 16.2927 117.017 19.3668C116.924 21.9962 116.957 24.6316 116.988 27.2633C116.997 27.9731 116.842 28.3124 116.092 28.2148C115.506 28.1388 114.798 28.4876 114.817 27.3147C114.884 23.0757 114.877 18.8346 114.829 14.5945C114.816 13.3889 115.614 13.8465 116.159 13.7499C116.815 13.6338 117.048 13.9453 116.986 14.5956C116.946 15.0289 116.979 15.4679 116.979 15.9038Z" fill="#085C80"/>
<path d="M37.4978 17.1139C37.9554 16.8339 38.0578 16.476 38.248 16.1967C39.2779 14.6838 40.6611 13.7626 42.4704 13.5224C43.0857 13.4407 43.4146 13.6307 43.3219 14.3208C43.2943 14.5133 43.2932 14.7088 43.3186 14.9017C43.4221 15.6175 43.1594 15.8464 42.4263 15.864C40.402 15.9128 38.5389 17.5857 37.8619 19.7881C37.5728 20.7292 37.5122 21.689 37.5028 22.6571C37.4871 24.2643 37.4787 25.8723 37.5028 27.4795C37.5112 28.0087 37.3608 28.2631 36.8133 28.2114C36.5416 28.1885 36.2684 28.1888 35.9966 28.2124C35.5426 28.2481 35.3654 28.06 35.3661 27.5908C35.3722 23.1839 35.3686 18.7771 35.3555 14.3704C35.3542 13.902 35.5348 13.7022 35.9873 13.749C36.0145 13.7508 36.0418 13.7508 36.069 13.749C37.4981 13.7095 37.4979 13.7095 37.4968 15.1339C37.4974 15.7564 37.4978 16.3777 37.4978 17.1139Z" fill="#0D5A79"/>
<path d="M51.1885 21.7842C49.6082 21.7842 48.0278 21.7842 46.4475 21.7842C45.5818 21.7851 45.4611 21.9562 45.7126 22.8172C46.8221 26.6194 50.9714 27.9508 54.0726 25.4999C54.1802 25.4148 54.2867 25.3285 54.3957 25.2455C55.0757 24.728 55.6983 24.8876 56.1474 25.6534C56.309 25.9286 56.1641 26.0505 56.0095 26.2105C53.9084 28.3861 51.3681 29.0618 48.526 28.2512C45.8699 27.4937 44.2406 25.6061 43.6236 22.8835C42.9726 20.0107 43.6104 17.4367 45.6586 15.3173C47.4 13.5145 49.6095 13.1042 51.9245 13.6557C54.3157 14.2256 55.767 15.905 56.4739 18.2922C56.7459 19.2106 56.7641 20.1439 56.8585 21.0774C56.9143 21.627 56.7169 21.7994 56.1745 21.7893C54.5131 21.7582 52.85 21.7781 51.1887 21.7781L51.1885 21.7842ZM53.413 20.1987C54.7758 20.1987 54.7881 20.1953 54.4763 18.877C54.0149 16.9274 52.4304 14.9591 49.651 15.2684C47.6138 15.4951 46.0795 17.3576 45.6489 19.5133C45.5547 19.9851 45.6906 20.2254 46.2369 20.2114C47.5409 20.1776 48.8462 20.2006 50.1513 20.1994C51.2385 20.1986 52.3257 20.1984 53.413 20.1988V20.1987Z" fill="#065A7F"/>
<path d="M136.973 21.787C135.366 21.787 133.759 21.8128 132.154 21.7752C131.449 21.7586 131.398 22.0605 131.543 22.6375C132.647 27.0427 137.122 27.5748 139.809 25.6217C139.986 25.4932 140.162 25.3625 140.333 25.2265C140.903 24.7701 141.886 25.0816 142.083 25.7754C142.152 26.0179 141.982 26.1397 141.859 26.2627C139.707 28.4062 137.129 29.0865 134.28 28.2192C131.618 27.4085 130.013 25.4661 129.455 22.6884C128.936 20.0992 129.449 17.7352 131.156 15.7118C132.886 13.661 135.182 13.0777 137.662 13.6162C140.113 14.1482 141.636 15.8394 142.342 18.3068C142.604 19.2235 142.676 20.147 142.743 21.0834C142.781 21.6306 142.563 21.8075 142.036 21.8006C140.349 21.7771 138.66 21.7919 136.973 21.7919L136.973 21.787ZM135.95 20.1984C136.985 20.1984 138.02 20.1984 139.055 20.1984C140.703 20.1984 140.703 20.1984 140.305 18.6175C139.862 16.8624 138.253 15.4549 136.641 15.2721C133.904 14.9619 132.033 17.0216 131.497 19.5532C131.381 20.1028 131.626 20.2204 132.11 20.2119C133.389 20.1902 134.67 20.2045 135.95 20.2045L135.95 20.1984Z" fill="#065B7F"/>
<path d="M105.24 13.4712C109.218 13.3345 112.72 16.6982 112.662 21.031C112.606 25.1605 109.355 28.5538 105.297 28.5599C101.146 28.5662 97.8434 25.2587 97.8321 21.0768C97.8204 16.8682 101.073 13.367 105.24 13.4712ZM110.526 21.0552C110.504 17.847 108.154 15.3295 105.171 15.341C102.167 15.3524 99.9457 18.0234 100.026 21.0178C100.113 24.2067 102.313 26.6351 105.252 26.6221C108.23 26.6089 110.546 24.1632 110.526 21.0559V21.0552Z" fill="#055C7F"/>
</svg>
