<svg width="182" height="42" viewBox="0 0 182 42" fill="none" xmlns="http://www.w3.org/2000/svg">
<g clip-path="url(#clip0_2015_22010)">
<path d="M173.151 22.9028C173.075 22.8518 172.973 22.8263 172.871 22.8518H171.876L170.321 29.6104C170.142 29.0748 169.938 28.5137 169.734 27.8761C169.53 27.2385 169.275 26.6264 169.046 26.0143C168.816 25.4022 168.612 24.8411 168.408 24.331C168.204 23.821 168.051 23.4384 167.949 23.1579C167.924 23.0558 167.847 22.9793 167.771 22.9283C167.669 22.8773 167.541 22.8518 167.414 22.8773H166.393L164.557 30.8601C164.506 31.0386 164.455 31.2171 164.43 31.3702C164.404 31.4722 164.379 31.5742 164.379 31.6762C164.379 31.8547 164.506 31.9312 164.736 31.9312H165.756L167.363 25.0451C167.465 25.3002 167.592 25.6317 167.745 25.9888C167.898 26.3459 168.026 26.7284 168.179 27.1365C168.332 27.5445 168.485 27.9526 168.638 28.3862C168.791 28.8197 168.944 29.2278 169.071 29.6104C169.199 29.9929 169.326 30.3755 169.454 30.7326C169.581 31.0896 169.658 31.3957 169.76 31.6507C169.811 31.8547 169.989 31.9823 170.193 31.9567H171.29L173.126 23.974C173.177 23.7955 173.202 23.6169 173.228 23.4639C173.253 23.3619 173.279 23.2599 173.279 23.1579C173.253 23.0303 173.202 22.9538 173.151 22.9028Z" fill="#9B9B9B"/>
<path d="M181.286 23.133C181.133 23.031 180.98 22.9544 180.827 22.9289C180.597 22.8524 180.368 22.8014 180.138 22.7759C179.858 22.7249 179.577 22.6994 179.271 22.6994C178.481 22.6739 177.69 22.8779 176.976 23.2605C176.313 23.6175 175.752 24.1021 175.293 24.6887C174.834 25.2753 174.477 25.9639 174.248 26.678C174.018 27.3921 173.891 28.1573 173.891 28.8969C173.891 29.356 173.967 29.8405 174.146 30.2741C174.299 30.6567 174.554 30.9882 174.86 31.2433C175.166 31.4983 175.548 31.7023 175.956 31.8043C176.415 31.9319 176.874 32.0084 177.359 31.9829C177.843 31.9829 178.328 31.9574 178.812 31.8809C179.22 31.8298 179.628 31.7278 180.036 31.5748L180.827 27.9277C180.852 27.8512 180.878 27.7237 180.903 27.5962C180.929 27.4942 180.954 27.4176 180.954 27.3156C180.954 27.2646 180.929 27.1881 180.878 27.1626C180.801 27.1116 180.699 27.0861 180.597 27.1116H178.124L177.996 27.6727C177.971 27.7747 177.971 27.8257 177.971 27.8767C177.971 27.9022 177.971 27.9532 177.971 27.9787C177.971 28.1318 178.073 28.2083 178.277 28.2083H179.45L178.863 30.7332C178.685 30.7842 178.506 30.8097 178.328 30.8352C178.098 30.8607 177.843 30.8862 177.614 30.8862C177.282 30.8862 176.925 30.8352 176.619 30.7332C176.364 30.6312 176.16 30.4781 175.982 30.2741C175.829 30.0701 175.701 29.866 175.625 29.611C175.548 29.356 175.523 29.0754 175.523 28.7949C175.523 28.2338 175.599 27.6472 175.752 27.0861C175.88 26.525 176.135 25.9894 176.441 25.5048C176.747 25.0203 177.155 24.6122 177.639 24.3062C178.175 23.9746 178.787 23.8216 179.399 23.8471C179.781 23.8471 180.138 23.8726 180.495 23.9491C180.801 24.0256 181.056 24.1021 181.235 24.1531L181.413 23.7961C181.439 23.7196 181.464 23.643 181.49 23.5665C181.515 23.5155 181.541 23.439 181.541 23.3625C181.439 23.286 181.362 23.184 181.286 23.133Z" fill="#9B9B9B"/>
<path d="M52.0233 25.9365C52.0233 25.2989 51.6153 24.8653 50.7737 24.6358C49.7537 24.3808 48.7336 24.2277 47.6881 24.1512L43.6589 23.7942C42.2819 23.6922 40.9303 23.3861 39.6298 22.927C38.4567 22.519 37.3857 21.8304 36.5186 20.9377C35.7026 20.0451 35.2691 18.7954 35.2691 17.1631C35.2181 15.8369 35.6006 14.5617 36.3146 13.465C37.0542 12.4194 38.0232 11.5267 39.1708 10.9401C40.4713 10.2515 41.8739 9.76696 43.3274 9.48642C44.9595 9.18037 46.5916 9.02734 48.2491 9.02734C48.7336 9.02734 49.3712 9.05285 50.1362 9.10386C50.9012 9.15486 51.7173 9.23138 52.5588 9.3589C53.4258 9.48642 54.2674 9.66494 55.1089 9.91998C55.9249 10.1495 56.69 10.4811 57.4295 10.8891C58.0925 11.2462 58.6536 11.7563 59.1126 12.3429C59.5461 12.9295 59.7756 13.6181 59.7501 14.3577C59.7501 15.1228 59.4441 15.8624 58.9086 16.398C58.2965 17.0101 57.5825 17.4947 56.8175 17.9027C56.8685 17.3417 56.69 16.7551 56.3075 16.347C55.8484 15.8114 55.3129 15.4034 54.6754 15.0973C53.9104 14.7402 53.1198 14.4597 52.3038 14.2812C51.4368 14.0771 50.5697 13.9751 49.6772 13.9751C47.8411 13.9751 46.3875 14.2047 45.3165 14.6892C44.2455 15.1738 43.7354 15.8114 43.7354 16.6531C43.7354 17.2907 44.1435 17.7242 44.9595 17.9538C45.9795 18.2088 46.9996 18.3618 48.0451 18.4383L52.0488 18.7954C53.4003 18.8974 54.7519 19.1779 56.0524 19.6115C57.2255 19.9686 58.271 20.6317 59.1381 21.4988C59.9541 22.3405 60.3621 23.5646 60.3621 25.1204C60.4131 26.4466 60.0051 27.7218 59.2401 28.793C58.4495 29.8386 57.4295 30.6803 56.2565 31.2924C54.9304 31.981 53.4768 32.4656 51.9978 32.7206C50.3657 33.0266 48.6826 33.1542 47.0251 33.1542C46.464 33.1542 45.801 33.1542 44.985 33.1287C44.169 33.1032 43.3274 33.0521 42.4349 32.9501C41.5168 32.8481 40.6243 32.6696 39.7318 32.44C38.8902 32.236 38.0742 31.93 37.3092 31.5219C36.6206 31.1648 36.0341 30.6548 35.5751 30.0427C35.1161 29.4051 34.8866 28.6399 34.9121 27.8493C34.9376 27.2117 35.0651 26.5996 35.3201 26.013C35.6516 25.2479 36.1871 24.5593 36.8757 24.0747C37.1052 24.8398 37.5642 25.503 38.2017 25.962C38.9157 26.4976 39.6808 26.9312 40.5223 27.2372C41.3893 27.5688 42.3074 27.7983 43.2254 27.9513C44.0415 28.1044 44.883 28.1809 45.7245 28.1809C46.2345 28.1809 46.8721 28.1554 47.5861 28.1044C48.2746 28.0534 48.9632 27.9768 49.6517 27.8238C50.2382 27.7218 50.8247 27.4923 51.3348 27.1862C51.7938 26.8802 52.0488 26.4211 52.0233 25.9365Z" fill="#111111"/>
<path d="M90.9102 32.4932H87.9265C86.932 32.5187 85.9375 32.4421 84.9684 32.3146C84.3054 32.2381 83.6679 32.0341 83.0558 31.7535C82.5968 31.524 82.1888 31.1924 81.8828 30.7589C81.5768 30.2998 81.2963 29.7897 81.1178 29.2541L78.2616 17.9303L75.3545 29.2541C75.2015 29.7897 74.972 30.2743 74.666 30.7589C74.3855 31.1924 73.9775 31.524 73.5184 31.7535C72.9064 32.0341 72.2689 32.2126 71.6059 32.3146C70.6113 32.4421 69.6168 32.5187 68.6477 32.4932H65.4346L60.6914 9.4375H68.2907L71.0448 23.2097C71.0703 23.4902 71.1213 23.8218 71.1723 24.2553C71.2233 24.6889 71.2743 24.995 71.2998 25.25C71.3253 24.9695 71.3508 24.6889 71.4274 24.4084C71.5039 23.9748 71.5804 23.5667 71.6314 23.2352L75.227 9.463H81.2708L84.7644 23.2352C84.8154 23.4392 84.8919 23.6688 84.9174 23.8983C84.9429 24.1278 84.9939 24.3574 85.0449 24.5614L85.1469 25.301C85.1214 25.0715 85.1214 24.8419 85.1469 24.6124C85.1469 24.3829 85.1724 24.1533 85.1979 23.9493C85.2234 23.7198 85.2744 23.4647 85.3254 23.2352L88.1815 9.463H95.7809L90.9102 32.4932Z" fill="#111111"/>
<path d="M96.7773 3.41687C96.7773 2.49872 97.1854 1.68259 98.0014 1.01949C98.8174 0.330876 99.863 -0.0261801 100.934 -0.000676027C101.495 -0.000676027 102.056 0.10134 102.592 0.279868C103.076 0.458397 103.535 0.713437 103.943 1.01949C104.326 1.32553 104.632 1.68259 104.836 2.09066C105.269 2.90678 105.269 3.90144 104.836 4.71757C104.606 5.12564 104.3 5.5082 103.943 5.78874C103.535 6.12029 103.076 6.34983 102.592 6.52836C102.056 6.70689 101.495 6.8089 100.934 6.8089C99.863 6.83441 98.8174 6.47735 98.0014 5.78874C97.1854 5.12564 96.7773 4.33501 96.7773 3.41687ZM104.734 32.4915H101.75C100.602 32.517 99.4549 32.1854 98.5114 31.5478C97.5934 30.9102 97.1599 29.8391 97.1599 28.3343V9.43582H100.704C101.929 9.43582 102.923 9.69086 103.663 10.1754C104.402 10.66 104.759 11.5782 104.759 12.9044L104.734 32.4915Z" fill="#111111"/>
<path d="M106.902 41.4174V9.40985C107.591 9.35885 108.305 9.28233 109.07 9.25683C109.809 9.20582 110.523 9.23133 111.263 9.35885C111.926 9.46086 112.564 9.66489 113.15 9.97094C113.737 10.3025 114.221 10.7871 114.502 11.3992C115.675 10.634 116.975 10.0475 118.327 9.6649C119.908 9.25683 121.54 9.0528 123.172 9.0783C124.524 9.0783 125.85 9.28233 127.125 9.74141C128.323 10.175 129.394 10.8891 130.287 11.8072C131.23 12.8019 131.944 14.0006 132.403 15.3013C132.964 16.908 133.219 18.6168 133.194 20.3001C133.194 22.7995 132.913 24.8398 132.327 26.4466C131.74 28.0533 130.975 29.303 130.057 30.2212C129.165 31.1138 128.094 31.7769 126.895 32.1595C125.773 32.5165 124.575 32.7205 123.402 32.7205C120.163 32.7461 117.026 31.6239 114.553 29.5325V37.9744C114.502 39.4536 114.068 40.3973 113.278 40.8053C112.487 41.2134 111.391 41.4174 109.962 41.4174H106.902ZM119.933 14.5107C118.174 14.5107 116.848 14.9952 115.904 15.9389C114.961 16.8825 114.502 18.1832 114.502 19.8155V22.3914C114.476 23.2075 114.629 23.9982 114.935 24.7378C115.216 25.3754 115.624 25.962 116.134 26.4466C116.644 26.9056 117.23 27.2627 117.893 27.5177C118.556 27.7728 119.245 27.9003 119.933 27.8748C121.973 27.8748 123.402 27.3647 124.269 26.37C125.136 25.3754 125.569 23.6921 125.569 21.3202C125.569 18.9229 125.136 17.1886 124.269 16.1174C123.402 15.0462 121.973 14.5107 119.933 14.5107Z" fill="#111111"/>
<path d="M142.5 23.0315C142.628 24.7912 143.265 26.0154 144.439 26.7551C145.612 27.4947 147.244 27.8517 149.36 27.8517C151.477 27.8517 153.16 27.6222 154.384 27.1376C155.583 26.6785 156.577 25.8624 157.24 24.7657C157.827 25.0718 158.388 25.5054 158.847 25.9899C159.331 26.5 159.612 27.1631 159.586 27.8517C159.586 28.6679 159.306 29.433 158.77 30.0451C158.158 30.7337 157.368 31.2693 156.526 31.6263C155.404 32.1109 154.231 32.4425 153.032 32.621C151.528 32.8505 150.023 32.978 148.493 32.978C146.402 33.0035 144.311 32.7995 142.271 32.3149C140.715 31.9579 139.262 31.2183 138.038 30.1981C136.916 29.2034 136.074 27.9282 135.615 26.5255C135.105 25.0463 134.85 23.2355 134.85 21.1187C134.799 19.2824 135.054 17.4206 135.59 15.6608C136.023 14.2326 136.814 12.9319 137.885 11.9117C139.032 10.866 140.409 10.1264 141.914 9.74386C143.852 9.25928 145.841 9.00424 147.83 9.05525C150.355 9.05525 152.42 9.31029 154.078 9.82037C155.736 10.3305 157.036 11.0446 157.98 11.9627C158.949 12.8809 159.663 14.054 160.02 15.3547C160.453 16.8085 160.657 18.3132 160.657 19.8435C160.657 20.4045 160.606 20.9401 160.53 21.5012C160.453 22.1898 160.377 22.6999 160.326 23.057H142.5V23.0315ZM148.544 14.3346C147.754 14.3346 146.989 14.3856 146.224 14.5131C145.586 14.6151 144.974 14.8447 144.413 15.1762C143.878 15.5078 143.444 15.9668 143.138 16.5024C142.781 17.191 142.551 17.9307 142.475 18.6958H154.129C154.078 17.9307 153.899 17.2165 153.593 16.5024C153.364 15.9668 152.981 15.5078 152.522 15.1762C152.012 14.8447 151.451 14.6151 150.839 14.5131C150.074 14.3856 149.309 14.3346 148.544 14.3346Z" fill="#111111"/>
<path d="M2.70561 21.2447C2.16889 21.2447 1.75906 20.7653 1.84253 20.2351L3.45452 9.99565C3.5214 9.5708 3.88751 9.25781 4.31759 9.25781H27.4653C28.0013 9.25781 28.4109 9.73597 28.3287 10.2656L26.7385 20.5051C26.6724 20.9307 26.3059 21.2447 25.8751 21.2447H2.70561Z" fill="url(#paint0_radial_2015_22010)"/>
<path d="M1.02285 32.0327C0.485847 32.0327 0.0759426 31.5528 0.159881 31.0224L0.460829 29.1207C0.520461 28.7439 0.817686 28.4494 1.19502 28.3931L24.8866 24.8627C25.4696 24.7758 25.9696 25.2793 25.8786 25.8617L25.03 31.2938C24.9635 31.7191 24.5972 32.0327 24.1667 32.0327H1.02285Z" fill="url(#paint1_linear_2015_22010)"/>
</g>
<defs>
<radialGradient id="paint0_radial_2015_22010" cx="0" cy="0" r="1" gradientUnits="userSpaceOnUse" gradientTransform="translate(11.4503 19.574) rotate(-126.244) scale(21.0903 19.1674)">
<stop offset="0.0190827" stop-color="#8C88FC"/>
<stop offset="0.3598" stop-color="#8A6DFC"/>
<stop offset="0.8268" stop-color="#8843FB"/>
</radialGradient>
<linearGradient id="paint1_linear_2015_22010" x1="0" y1="28.3573" x2="26.0723" y2="28.3573" gradientUnits="userSpaceOnUse">
<stop offset="0.0190827" stop-color="#5CDAF8"/>
<stop offset="0.2629" stop-color="#56D5F8"/>
<stop offset="0.6003" stop-color="#44C9F9"/>
<stop offset="0.8626" stop-color="#31BBFA"/>
</linearGradient>
<clipPath id="clip0_2015_22010">
<rect width="181.44" height="41.4186" fill="white"/>
</clipPath>
</defs>
</svg>
