<svg width="160" height="40" viewBox="0 0 160 40" fill="none" xmlns="http://www.w3.org/2000/svg">
<g clip-path="url(#clip0_2226_27435)">
<path d="M64.7549 14.0749C67.3624 11.0236 72.067 11.5451 73.8756 14.9404C74.4192 14.1415 75.0406 13.4535 75.8617 12.9542C79.4123 10.7573 83.7729 12.7434 84.4498 16.8599C84.5385 17.3925 84.5829 17.914 84.5718 18.4577C84.5607 21.4092 84.5718 24.3606 84.5718 27.3121C84.5718 28.4438 83.9726 29.1429 82.9851 29.154C81.9643 29.1651 81.3208 28.4771 81.3208 27.3121C81.3097 24.5049 81.3319 21.7087 81.3097 18.9015C81.2986 17.5257 80.8326 16.3606 79.5898 15.6505C77.8589 14.663 75.662 15.595 74.9185 17.5922C74.6855 18.2247 74.6301 18.8793 74.6301 19.5451C74.619 22.2191 74.6301 24.8932 74.619 27.5673C74.619 28.3994 74.042 29.0541 73.2764 29.1429C72.3998 29.2538 71.6564 28.7989 71.4345 27.9889C71.379 27.7781 71.379 27.5562 71.379 27.3343C71.379 24.6269 71.379 21.9085 71.379 19.2011C71.379 18.724 71.3568 18.2469 71.2348 17.7809C70.8575 16.3495 69.748 15.362 68.4609 15.2954C66.8409 15.2067 65.5316 16.0721 64.9657 17.6366C64.7993 18.0915 64.7216 18.5576 64.7216 19.0458C64.7327 21.7975 64.7327 24.5381 64.7216 27.2899C64.7216 28.3218 64.1779 29.043 63.3457 29.154C62.2362 29.3093 61.4262 28.5881 61.4151 27.423C61.404 24.8266 61.4151 22.2191 61.4151 19.6227C61.4151 17.9029 61.4151 16.1942 61.4151 14.4743C61.4151 13.2538 61.9144 12.5326 62.8242 12.4327C63.8339 12.2996 64.422 12.7989 64.7549 14.0749Z" fill="#4F8ECA"/>
<path d="M43.0721 18.6574C43.0721 17.1484 43.0721 15.6394 43.0721 14.1193C43.0721 13.0985 43.6934 12.4217 44.6144 12.3995C45.613 12.3773 46.3231 13.043 46.3231 14.0971C46.3453 16.8821 46.3342 19.6671 46.3342 22.4522C46.3342 24.5714 47.932 26.2358 49.9847 26.2469C52.0041 26.2469 53.613 24.6158 53.6352 22.5076C53.6574 19.7226 53.6463 16.9376 53.6352 14.1526C53.6352 13.1429 54.2676 12.4328 55.2219 12.4106C56.1872 12.3884 56.864 13.0763 56.8751 14.086C56.8751 17.0153 56.8862 19.9445 56.8751 22.8849C56.8529 26.4022 53.7572 29.3981 50.2288 29.509C46.8779 29.6089 43.7933 27.2566 43.1941 23.8613C43.1276 23.4619 43.1054 23.0513 43.0943 22.6519C43.061 21.3093 43.0721 19.9889 43.0721 18.6574Z" fill="#4F8ECA"/>
<path d="M49.9749 36C46.3133 35.9223 43.1621 34.6685 40.5435 32.1165C40.0664 31.6505 39.8889 31.0957 40.0886 30.4522C40.2772 29.8086 40.7211 29.4203 41.3757 29.2982C41.9638 29.1873 42.452 29.3981 42.8736 29.8086C44.8265 31.6838 47.201 32.6047 49.875 32.6269C52.6157 32.6491 55.0456 31.7282 57.065 29.8419C57.8861 29.0763 58.8071 29.0763 59.5061 29.8197C60.1718 30.5298 60.0609 31.5063 59.2731 32.2608C56.6545 34.724 53.5366 35.9334 49.9749 36Z" fill="#4F8ECA"/>
<path d="M92.3396 27.1678C92.262 28.5437 91.6406 29.1984 90.5421 29.1429C89.7765 29.1096 89.1441 28.5104 89.0775 27.7448C89.0664 27.6339 89.0664 27.5229 89.0664 27.4119C89.0664 20.1775 89.0664 12.9542 89.0664 5.71984C89.0664 5.02082 89.3327 4.51041 89.943 4.18864C90.5421 3.87796 91.1302 3.94453 91.6628 4.34398C92.1399 4.69904 92.3175 5.19835 92.3175 5.79751C92.3064 8.63801 92.3064 11.4785 92.3064 14.319C92.5172 14.3412 92.5505 14.1637 92.6392 14.0638C95.2578 11.0902 99.8736 11.4674 102.293 14.8516C103.191 16.1054 103.691 17.5146 103.901 19.0347C104.245 21.5534 103.946 23.9612 102.636 26.1803C101.039 28.8877 98.1538 30.0749 95.3133 29.2538C94.115 28.8988 93.1829 28.1665 92.3396 27.1678ZM93.0609 24.3384C94.6697 26.8128 97.8986 26.9459 99.6628 24.5936C101.205 22.5187 101.172 18.9015 99.5962 16.8599C97.9319 14.7074 94.9582 14.7296 93.2939 16.9043C92.5727 17.8474 92.2065 19.2899 92.1843 20.7323C92.1732 22.0749 92.4617 23.4064 93.0609 24.3384Z" fill="#4F8ECA"/>
<path d="M116.648 27.3897C115.971 27.9001 115.316 28.4105 114.573 28.7656C113.352 29.3537 112.076 29.6533 110.734 29.4535C109.169 29.2205 108.038 28.344 107.339 26.9237C106.284 24.7711 106.717 22.1082 108.37 20.6657C109.214 19.9223 110.235 19.5895 111.355 19.4896C112.897 19.3564 114.395 19.6671 115.893 19.9778C116.182 20.0333 116.47 20.0777 116.803 20.1331C116.781 19.1678 116.881 18.2358 116.681 17.3037C116.404 16.0499 115.272 15.1068 113.874 14.9736C112.465 14.8405 111.189 15.1401 110.09 16.0943C109.425 16.6824 108.537 16.6491 108.015 16.0721C107.438 15.4508 107.483 14.5409 108.137 13.9085C109.18 12.8988 110.445 12.3662 111.877 12.1664C113.552 11.9334 115.194 12 116.781 12.699C118.49 13.4424 119.422 14.7739 119.843 16.5381C120.043 17.3703 120.043 18.2136 120.043 19.0569C120.032 21.7864 120.043 24.5159 120.043 27.2455C120.043 28.3773 119.477 29.0985 118.556 29.1539C117.469 29.2205 116.792 28.5992 116.648 27.3897ZM116.981 23.1623C116.87 22.3412 116.06 22.2413 115.405 22.1193C114.517 21.9639 113.608 21.7864 112.698 21.8086C110.723 21.853 109.691 23.5173 110.412 25.2926C110.8 26.258 111.943 26.7906 112.975 26.613C114.551 26.3467 116.592 25.3259 116.958 23.6061C116.992 23.4619 117.003 23.3176 116.981 23.1623Z" fill="#4F8ECA"/>
</g>
<defs>
<clipPath id="clip0_2226_27435">
<rect width="80.0111" height="32" fill="white" transform="translate(40 4)"/>
</clipPath>
</defs>
</svg>
