<svg width="24" height="24" viewBox="0 0 24 24" fill="none" xmlns="http://www.w3.org/2000/svg">
<path d="M16 7V21C16 21.5304 15.7893 22.0391 15.4142 22.4142C15.0391 22.7893 14.5304 23 14 23H6C5.46957 23 4.96086 22.7893 4.58579 22.4142C4.21071 22.0391 4 21.5304 4 21V7C4 6.46957 4.21071 5.96086 4.58579 5.58579C4.96086 5.21071 5.46957 5 6 5H14C14.5304 5 15.0391 5.21071 15.4142 5.58579C15.7893 5.96086 16 6.46957 16 7Z" fill="#F8E53F"/>
<path d="M18 10.33V19C18 19.5304 17.7893 20.0391 17.4142 20.4142C17.0391 20.7893 16.5304 21 16 21H8C7.46957 21 6.96086 20.7893 6.58579 20.4142C6.21071 20.0391 6 19.5304 6 19V5C6 4.46957 6.21071 3.96086 6.58579 3.58579C6.96086 3.21071 7.46957 3 8 3H13" stroke="#222C3B" stroke-miterlimit="10" stroke-linecap="round"/>
<path d="M15.6795 4.75621C15.4675 4.93323 15.4392 5.24854 15.6162 5.46049C15.7933 5.67243 16.1086 5.70075 16.3205 5.52373L15.6795 4.75621ZM19.6795 5.52373C19.8914 5.70075 20.2067 5.67243 20.3838 5.46049C20.5608 5.24854 20.5325 4.93323 20.3205 4.75621L19.6795 5.52373ZM14.6703 3.76405C14.4627 3.94612 14.442 4.26203 14.6241 4.46964C14.8061 4.67726 15.1221 4.69797 15.3297 4.51589L14.6703 3.76405ZM18 3.01086V2.51086V3.01086ZM20.6703 4.51589C20.8779 4.69797 21.1939 4.67726 21.3759 4.46964C21.558 4.26203 21.5373 3.94612 21.3297 3.76405L20.6703 4.51589ZM16.7121 5.73119C16.4863 5.8902 16.4322 6.20212 16.5912 6.42789C16.7502 6.65365 17.0621 6.70777 17.2879 6.54876L16.7121 5.73119ZM18 5.82997L17.9938 6.32998L18.0007 6.32997L18 5.82997ZM18.7166 6.5519C18.9441 6.70842 19.2554 6.65087 19.4119 6.42337C19.5684 6.19586 19.5109 5.88456 19.2834 5.72804L18.7166 6.5519ZM18.79 7.53029C18.7902 7.25415 18.5665 7.03015 18.2903 7.02997C18.0142 7.0298 17.7902 7.25351 17.79 7.52965L18.79 7.53029ZM18 7.24997L17.9997 6.74997C17.9938 6.74998 17.988 6.75008 17.9821 6.75029L18 7.24997ZM17.7948 7.60872C17.8936 7.86657 18.1828 7.99546 18.4406 7.89662C18.6984 7.79777 18.8273 7.50862 18.7285 7.25077L17.7948 7.60872ZM16.3205 5.52373C16.7917 5.13021 17.3861 4.91463 18 4.91463V3.91463C17.1518 3.91463 16.3305 4.21249 15.6795 4.75621L16.3205 5.52373ZM18 4.91463C18.6139 4.91463 19.2083 5.13021 19.6795 5.52373L20.3205 4.75621C19.6695 4.21249 18.8482 3.91463 18 3.91463V4.91463ZM15.3297 4.51589C16.0684 3.86806 17.0174 3.51086 18 3.51086V2.51086C16.7748 2.51086 15.5915 2.95625 14.6703 3.76405L15.3297 4.51589ZM18 3.51086C18.9826 3.51086 19.9316 3.86806 20.6703 4.51589L21.3297 3.76405C20.4085 2.95625 19.2252 2.51086 18 2.51086V3.51086ZM17.2879 6.54876C17.4943 6.40338 17.7413 6.3268 17.9938 6.32993L18.0062 5.33001C17.5434 5.32427 17.0905 5.46465 16.7121 5.73119L17.2879 6.54876ZM18.0007 6.32997C18.2563 6.32962 18.506 6.40702 18.7166 6.5519L19.2834 5.72804C18.9057 5.46817 18.4578 5.32933 17.9993 5.32997L18.0007 6.32997ZM17.79 7.52965C17.79 7.48648 17.8028 7.44427 17.8266 7.40828L18.6602 7.9606C18.7448 7.83301 18.7899 7.68336 18.79 7.53029L17.79 7.52965ZM17.8266 7.40828C17.8504 7.37229 17.8844 7.34412 17.9241 7.32726L18.3146 8.24787C18.4555 8.18811 18.5757 8.0882 18.6602 7.9606L17.8266 7.40828ZM17.9241 7.32726C17.9638 7.3104 18.0077 7.30561 18.0501 7.31348L17.8678 8.29672C18.0183 8.32463 18.1737 8.30764 18.3146 8.24787L17.9241 7.32726ZM18.0501 7.31348C18.0926 7.32135 18.1318 7.34154 18.1628 7.37153L17.4682 8.09093C17.5783 8.19724 17.7173 8.26881 17.8678 8.29672L18.0501 7.31348ZM18.1628 7.37153C18.1939 7.40151 18.2154 7.43998 18.2248 7.48212L17.2485 7.69882C17.2817 7.84825 17.3581 7.98461 17.4682 8.09093L18.1628 7.37153ZM18.2248 7.48212C18.2341 7.52426 18.2309 7.56823 18.2154 7.60854L17.2817 7.2506C17.2269 7.39352 17.2154 7.5494 17.2485 7.69882L18.2248 7.48212ZM18.2154 7.60854C18.2 7.64886 18.173 7.68373 18.1379 7.70882L17.5567 6.89507C17.4321 6.98403 17.3365 7.10767 17.2817 7.2506L18.2154 7.60854ZM18.1379 7.70882C18.1027 7.73391 18.061 7.74811 18.0179 7.74965L17.9821 6.75029C17.8292 6.75576 17.6812 6.80611 17.5567 6.89507L18.1379 7.70882ZM18.0003 7.74997C17.9707 7.74999 17.9415 7.74405 17.9143 7.73251L18.3048 6.8119C18.2083 6.77097 18.1045 6.74991 17.9997 6.74997L18.0003 7.74997ZM17.9143 7.73251C17.8871 7.72096 17.8624 7.70405 17.8419 7.68278L18.5613 6.98819C18.4885 6.91278 18.4012 6.85282 18.3048 6.8119L17.9143 7.73251ZM17.8419 7.68278C17.8214 7.66152 17.8053 7.63634 17.7948 7.60872L18.7285 7.25077C18.691 7.15289 18.6341 7.06359 18.5613 6.98819L17.8419 7.68278Z" fill="#222C3B"/>
<path d="M11 6H13" stroke="#222C3B" stroke-miterlimit="10" stroke-linecap="round"/>
<path d="M9.5 18H14.5" stroke="#222C3B" stroke-miterlimit="10" stroke-linecap="round"/>
</svg>
