<svg width="24" height="24" viewBox="0 0 24 24" fill="none" xmlns="http://www.w3.org/2000/svg">
<path d="M11 21H5C4.46957 21 3.96086 20.7893 3.58579 20.4142C3.21071 20.0391 3 19.5304 3 19V7.74C2.99979 7.47609 3.05182 7.21475 3.15308 6.97103C3.25434 6.72732 3.40283 6.50606 3.59 6.32L6.34 3.58C6.71498 3.20808 7.22186 2.99958 7.75 3H19C19.5304 3 20.0391 3.21071 20.4142 3.58579C20.7893 3.96086 21 4.46957 21 5V11" stroke="#222C3B" stroke-miterlimit="10" stroke-linecap="round"/>
<path d="M6.98999 9.87H12.98" stroke="#222C3B" stroke-miterlimit="10" stroke-linecap="round"/>
<path d="M6.98999 7.35999H17.01" stroke="#222C3B" stroke-miterlimit="10" stroke-linecap="round"/>
<path d="M17.36 22.3C19.8453 22.3 21.86 20.2853 21.86 17.8C21.86 15.3147 19.8453 13.3 17.36 13.3C14.8747 13.3 12.86 15.3147 12.86 17.8C12.86 20.2853 14.8747 22.3 17.36 22.3Z" fill="#C0FC72"/>
<path d="M16.5 21C18.9853 21 21 18.9853 21 16.5C21 14.0147 18.9853 12 16.5 12C14.0147 12 12 14.0147 12 16.5C12 18.9853 14.0147 21 16.5 21Z" stroke="#222C3B" stroke-miterlimit="10"/>
<path d="M17.8 18.24C18.043 18.24 18.24 18.043 18.24 17.8C18.24 17.557 18.043 17.36 17.8 17.36C17.557 17.36 17.36 17.557 17.36 17.8C17.36 18.043 17.557 18.24 17.8 18.24Z" stroke="#222C3B" stroke-miterlimit="10" stroke-linecap="round"/>
<path d="M15.2 15.64C15.443 15.64 15.64 15.443 15.64 15.2C15.64 14.957 15.443 14.76 15.2 14.76C14.957 14.76 14.76 14.957 14.76 15.2C14.76 15.443 14.957 15.64 15.2 15.64Z" stroke="#222C3B" stroke-miterlimit="10" stroke-linecap="round"/>
<path d="M17.5599 15.44L15.4399 17.56" stroke="#222C3B" stroke-miterlimit="10" stroke-linecap="round"/>
</svg>
