<svg width="24" height="24" viewBox="0 0 24 24" fill="none" xmlns="http://www.w3.org/2000/svg">
<path d="M21 5H7C5.89543 5 5 5.89543 5 7V21C5 22.1046 5.89543 23 7 23H21C22.1046 23 23 22.1046 23 21V7C23 5.89543 22.1046 5 21 5Z" fill="#B5A6FE"/>
<path d="M6 14L10 18" stroke="#222C3B" stroke-miterlimit="10" stroke-linecap="round"/>
<path d="M10 14L6 18" stroke="#222C3B" stroke-miterlimit="10" stroke-linecap="round"/>
<path d="M14 14H18" stroke="#222C3B" stroke-miterlimit="10" stroke-linecap="round"/>
<path d="M14 18H18" stroke="#222C3B" stroke-miterlimit="10" stroke-linecap="round"/>
<path d="M19 3H5C3.89543 3 3 3.89543 3 5V19C3 20.1046 3.89543 21 5 21H19C20.1046 21 21 20.1046 21 19V5C21 3.89543 20.1046 3 19 3Z" stroke="#222C3B" stroke-miterlimit="10" stroke-linecap="round"/>
<path d="M17 5.54999H7C6.44772 5.54999 6 5.9977 6 6.54999V8.54999C6 9.10227 6.44772 9.54999 7 9.54999H17C17.5523 9.54999 18 9.10227 18 8.54999V6.54999C18 5.9977 17.5523 5.54999 17 5.54999Z" stroke="#222C3B" stroke-miterlimit="10" stroke-linecap="round"/>
</svg>
