<svg width="722" height="479" viewBox="0 0 722 479" fill="none" xmlns="http://www.w3.org/2000/svg">
<rect width="722" height="479" rx="8" fill="white"/>
<path d="M85.952 63.16C88.256 63.16 89.76 61.928 89.76 59.384V51.32H87.52V59.384C87.52 60.6 86.976 61.304 85.952 61.304C84.944 61.304 84.32 60.552 84.32 59.144V58.344H82.08V59.144C82.08 61.848 83.632 63.16 85.952 63.16ZM93.9173 53.4V51.32H91.5973V53.4H93.9173ZM93.8213 63V54.488H91.6933V63H93.8213ZM97.8153 63V58.392C97.8153 56.968 98.3753 56.024 99.4953 56.024C100.423 56.024 101.047 56.6 101.047 57.752V63H103.175V58.392C103.175 56.968 103.735 56.024 104.887 56.024C105.799 56.024 106.407 56.584 106.407 57.784V63H108.535V57.672C108.535 55.672 107.479 54.328 105.335 54.328C104.279 54.328 103.223 54.808 102.615 55.656H102.583C102.119 54.808 101.367 54.328 100.183 54.328C99.2233 54.328 98.2953 54.824 97.8473 55.608H97.8153V54.488H95.6873V63H97.8153ZM112.327 63V58.392C112.327 56.968 112.887 56.024 114.007 56.024C114.935 56.024 115.559 56.6 115.559 57.752V63H117.687V58.392C117.687 56.968 118.247 56.024 119.399 56.024C120.311 56.024 120.919 56.584 120.919 57.784V63H123.047V57.672C123.047 55.672 121.991 54.328 119.847 54.328C118.791 54.328 117.735 54.808 117.127 55.656H117.095C116.631 54.808 115.879 54.328 114.695 54.328C113.735 54.328 112.807 54.824 112.359 55.608H112.327V54.488H110.199V63H112.327ZM127.031 53.4V51.32H124.711V53.4H127.031ZM126.935 63V54.488H124.807V63H126.935ZM132.673 63.16C134.673 63.16 136.369 61.96 136.593 60.28H134.497C134.225 61.032 133.665 61.464 132.721 61.464C131.521 61.464 130.641 60.696 130.641 59.224H136.673C136.689 58.888 136.689 58.744 136.689 58.536C136.689 56.008 134.929 54.328 132.609 54.328C130.193 54.328 128.401 56.088 128.401 58.744C128.401 61.256 130.145 63.16 132.673 63.16ZM130.657 57.848C130.753 56.76 131.473 56.024 132.609 56.024C133.665 56.024 134.433 56.664 134.529 57.848H130.657ZM146.774 63.16C147.318 63.16 148.118 63.064 148.39 63.048C149.254 63 149.702 63 149.702 63H153.094V61.112H152.07C151.494 61.112 150.678 61.192 150.246 61.304V61.256C151.494 60.456 152.294 59.064 152.294 57.16C152.294 53.56 150.086 51.16 146.774 51.16C143.462 51.16 141.254 53.56 141.254 57.16C141.254 60.76 143.462 63.16 146.774 63.16ZM146.774 61.256C144.854 61.256 143.574 59.608 143.574 57.16C143.574 54.712 144.854 53.064 146.774 53.064C148.694 53.064 149.974 54.712 149.974 57.16C149.974 59.608 148.742 61.256 146.774 61.256ZM156.246 63V60.632H153.91V63H156.246ZM166.4 63C168.864 63 170.496 61.944 170.496 59.768C170.496 58.344 169.632 57.192 168.192 56.888V56.84C169.328 56.584 170.08 55.704 170.08 54.28C170.08 52.456 168.704 51.32 166.096 51.32H161.536V63H166.4ZM163.776 53.176H165.984C167.04 53.176 167.76 53.624 167.76 54.616C167.76 55.48 167.152 56.056 165.888 56.056H163.776V53.176ZM163.776 57.912H166.144C167.312 57.912 168.096 58.424 168.096 59.528C168.096 60.504 167.472 61.144 166.144 61.144H163.776V57.912ZM175.98 63.16C178.572 63.16 180.3 61.416 180.3 58.728C180.3 56.056 178.572 54.328 175.98 54.328C173.372 54.328 171.644 56.056 171.644 58.728C171.644 61.416 173.372 63.16 175.98 63.16ZM175.98 61.464C174.716 61.464 173.884 60.488 173.884 58.728C173.884 57.112 174.636 56.024 175.98 56.024C177.228 56.024 178.06 57 178.06 58.728C178.06 60.376 177.324 61.464 175.98 61.464ZM186.385 63.16C188.593 63.16 190.065 61.528 190.065 58.76C190.065 56.104 188.689 54.328 186.353 54.328C185.377 54.328 184.385 54.728 183.809 55.544H183.761C183.825 54.136 183.825 51.32 183.825 51.32H181.697V63H183.825V61.992H183.857C184.401 62.744 185.313 63.16 186.385 63.16ZM185.777 61.464C184.545 61.464 183.713 60.488 183.713 58.76C183.713 57.112 184.449 56.024 185.761 56.024C186.993 56.024 187.825 57.048 187.825 58.76C187.825 60.392 187.057 61.464 185.777 61.464ZM195.394 63.16C197.986 63.16 199.714 61.416 199.714 58.728C199.714 56.056 197.986 54.328 195.394 54.328C192.786 54.328 191.058 56.056 191.058 58.728C191.058 61.416 192.786 63.16 195.394 63.16ZM195.394 61.464C194.13 61.464 193.298 60.488 193.298 58.728C193.298 57.112 194.05 56.024 195.394 56.024C196.642 56.024 197.474 57 197.474 58.728C197.474 60.376 196.738 61.464 195.394 61.464Z" fill="#344053"/>
<line x1="84" y1="84.5" x2="639" y2="84.5" stroke="#EAEEF9"/>
<line x1="82" y1="139.344" x2="646.733" y2="139.344" stroke="#DFE2E6" stroke-width="0.507853"/>
<circle cx="108.411" cy="112.094" r="10.1571" fill="#E0F3EE"/>
<path d="M109.861 110.645L106.959 113.547M106.959 113.547H109.861M106.959 113.547V110.645" stroke="#009E74" stroke-width="0.76178" stroke-linecap="round" stroke-linejoin="round"/>
<path d="M128.784 108V104.057H130.216V103.551H126.804V104.057H128.236V108H128.784ZM131.734 108.061C132.654 108.061 133.275 107.397 133.275 106.397C133.275 105.398 132.654 104.74 131.734 104.74C130.813 104.74 130.192 105.398 130.192 106.397C130.192 107.397 130.813 108.061 131.734 108.061ZM131.734 107.634C131.136 107.634 130.74 107.189 130.74 106.397C130.74 105.66 131.1 105.166 131.734 105.166C132.331 105.166 132.727 105.611 132.727 106.397C132.727 107.141 132.367 107.634 131.734 107.634ZM135.054 108.03C135.188 108.03 135.279 108.018 135.37 108V107.543C135.34 107.549 135.273 107.555 135.206 107.555C134.81 107.555 134.767 107.47 134.767 107.196V105.245H135.37V104.801H134.767V103.886H134.261V104.801H133.743V105.245H134.261V107.324C134.261 107.829 134.536 108.03 135.054 108.03ZM137.069 108.061C137.532 108.061 137.959 107.866 138.093 107.573H138.117C138.117 107.573 138.123 107.86 138.215 108H138.751V107.976C138.678 107.811 138.623 107.653 138.623 107.391V105.995C138.623 105.239 138.172 104.74 137.367 104.74C136.606 104.74 136.094 105.124 136.076 105.806H136.612C136.624 105.422 136.837 105.166 137.367 105.166C137.818 105.166 138.117 105.416 138.117 106.05L137.367 106.105C136.581 106.16 135.948 106.348 135.948 107.092C135.948 107.671 136.398 108.061 137.069 108.061ZM137.209 107.634C136.813 107.634 136.496 107.427 136.496 107.092C136.496 106.763 136.752 106.598 137.367 106.531L138.117 106.452V106.72C138.117 107.165 137.855 107.634 137.209 107.634ZM140.12 108V103.551H139.614V108H140.12ZM143.336 104.191V103.551H142.757V104.191H143.336ZM143.299 108V104.801H142.793V108H143.299ZM144.807 108V106.324C144.807 105.629 145.13 105.166 145.703 105.166C146.148 105.166 146.446 105.422 146.446 105.971V108H146.952V105.971C146.952 105.233 146.587 104.74 145.831 104.74C145.392 104.74 145.002 104.916 144.831 105.227H144.807V104.801H144.301V108H144.807ZM149.234 108.061C149.99 108.061 150.557 107.592 150.618 106.958H150.069C150.002 107.366 149.697 107.634 149.234 107.634C148.655 107.634 148.271 107.183 148.271 106.385C148.271 105.654 148.625 105.166 149.247 105.166C149.673 105.166 149.996 105.41 150.069 105.837H150.618C150.557 105.203 149.978 104.74 149.247 104.74C148.332 104.74 147.723 105.398 147.723 106.385C147.723 107.391 148.265 108.061 149.234 108.061ZM152.821 108.061C153.741 108.061 154.363 107.397 154.363 106.397C154.363 105.398 153.741 104.74 152.821 104.74C151.901 104.74 151.279 105.398 151.279 106.397C151.279 107.397 151.901 108.061 152.821 108.061ZM152.821 107.634C152.224 107.634 151.828 107.189 151.828 106.397C151.828 105.66 152.187 105.166 152.821 105.166C153.418 105.166 153.814 105.611 153.814 106.397C153.814 107.141 153.455 107.634 152.821 107.634ZM155.684 108V106.202C155.684 105.587 155.964 105.166 156.464 105.166C156.921 105.166 157.22 105.447 157.22 105.958V108H157.725V106.202C157.725 105.587 158.012 105.166 158.518 105.166C158.969 105.166 159.261 105.428 159.261 105.971V108H159.767V105.971C159.767 105.227 159.401 104.74 158.658 104.74C158.189 104.74 157.817 104.941 157.634 105.288H157.61C157.427 104.941 157.086 104.74 156.61 104.74C156.251 104.74 155.891 104.898 155.708 105.227H155.684V104.801H155.178V108H155.684ZM162.057 108.061C162.764 108.061 163.313 107.64 163.435 107.007H162.929C162.783 107.433 162.545 107.634 162.057 107.634C161.478 107.634 161.088 107.189 161.088 106.519H163.483C163.49 106.415 163.49 106.324 163.49 106.275C163.49 105.355 162.904 104.74 162.033 104.74C161.137 104.74 160.54 105.398 160.54 106.391C160.54 107.391 161.149 108.061 162.057 108.061ZM161.088 106.105C161.131 105.544 161.497 105.166 162.033 105.166C162.563 105.166 162.898 105.544 162.923 106.105H161.088Z" fill="#54667F"/>
<path d="M127.246 120V117.993H126.775V117.392H127.246V116.807H126.775V116.205H127.246V114.198H128.522L129.156 116.205H129.895V114.198H130.797V116.205H131.26V116.807H130.797V117.392H131.26V117.993H130.797V120H129.513L128.863 117.993H128.148V120H127.246ZM128.116 116.205H128.343L128.108 115.425H128.075L128.116 116.205ZM128.148 117.392H128.685L128.506 116.807H128.132L128.148 117.392ZM129.538 117.392H129.912L129.895 116.807H129.351L129.538 117.392ZM129.92 118.732H129.96L129.928 117.993H129.708L129.92 118.732ZM135.897 120V119.179H132.769C132.793 118.757 133.362 118.367 134.386 117.782C135.328 117.245 135.857 116.75 135.857 115.88C135.857 114.848 135.077 114.15 133.89 114.15C132.663 114.15 131.859 114.889 131.859 116.083V116.27H132.826C132.785 115.458 133.159 114.913 133.898 114.913C134.5 114.913 134.898 115.295 134.898 115.856C134.898 116.555 134.362 116.831 133.679 117.237C132.517 117.944 131.778 118.31 131.737 120H135.897ZM138.75 120.081C140.131 120.081 140.984 118.968 140.984 117.115C140.984 115.287 140.139 114.15 138.75 114.15C137.409 114.15 136.507 115.214 136.507 117.115C136.507 118.895 137.311 120.081 138.75 120.081ZM138.75 119.317C138.002 119.309 137.506 118.611 137.506 117.115C137.506 115.799 137.905 114.913 138.75 114.913C139.489 114.913 139.985 115.62 139.985 117.115C139.985 118.432 139.587 119.309 138.75 119.317ZM143.839 120.081C145.147 120.081 146.008 119.293 146.008 118.107C146.008 116.92 145.204 116.132 144.001 116.132C143.465 116.132 142.994 116.335 142.742 116.644H142.717L142.961 115.051H145.667V114.231H142.222L141.734 117.652H142.693C142.782 117.189 143.237 116.896 143.83 116.896C144.537 116.896 145.009 117.384 145.009 118.107C145.009 118.83 144.529 119.317 143.806 119.317C143.172 119.317 142.734 118.96 142.693 118.432H141.693C141.758 119.415 142.62 120.081 143.839 120.081ZM147.327 121.211L147.896 120.081V118.936H146.864V120H147.327V120.065L146.904 121.211H147.327ZM150.183 120C150.288 117.936 151.06 116.002 152.409 114.97V114.231H148.168V115.051H149.825C150.938 115.051 151.288 115.019 151.288 115.019V115.043C150.175 115.986 149.354 117.855 149.126 120H150.183ZM154.884 120.081C156.168 120.081 157.021 119.415 157.021 118.375C157.021 117.725 156.549 117.156 155.916 117.042V117.018C156.444 116.847 156.834 116.36 156.834 115.767C156.834 114.808 156.078 114.15 154.835 114.15C153.592 114.15 152.763 114.856 152.763 115.986H153.762C153.762 115.344 154.136 114.913 154.851 114.913C155.485 114.913 155.875 115.246 155.875 115.791C155.875 116.392 155.444 116.668 154.762 116.636L154.315 116.612V117.44L154.762 117.424C155.534 117.392 156.021 117.717 156.021 118.375C156.005 118.936 155.615 119.317 154.892 119.317C154.144 119.317 153.673 118.903 153.673 118.082H152.674C152.674 119.277 153.478 120.081 154.884 120.081ZM161.847 120V119.179H158.718C158.743 118.757 159.311 118.367 160.335 117.782C161.278 117.245 161.806 116.75 161.806 115.88C161.806 114.848 161.026 114.15 159.84 114.15C158.613 114.15 157.808 114.889 157.808 116.083V116.27H158.775C158.735 115.458 159.108 114.913 159.848 114.913C160.449 114.913 160.847 115.295 160.847 115.856C160.847 116.555 160.311 116.831 159.628 117.237C158.466 117.944 157.727 118.31 157.686 120H161.847ZM163.066 121.211L163.635 120.081V118.936H162.603V120H163.066V120.065L162.643 121.211H163.066ZM166.565 120.081C167.849 120.081 168.702 119.415 168.702 118.375C168.702 117.725 168.231 117.156 167.597 117.042V117.018C168.125 116.847 168.515 116.36 168.515 115.767C168.515 114.808 167.759 114.15 166.516 114.15C165.273 114.15 164.444 114.856 164.444 115.986H165.444C165.444 115.344 165.817 114.913 166.532 114.913C167.166 114.913 167.556 115.246 167.556 115.791C167.556 116.392 167.126 116.668 166.443 116.636L165.996 116.612V117.44L166.443 117.424C167.215 117.392 167.703 117.717 167.703 118.375C167.686 118.936 167.296 119.317 166.573 119.317C165.826 119.317 165.354 118.903 165.354 118.082H164.355C164.355 119.277 165.159 120.081 166.565 120.081ZM171.456 120.081C172.74 120.081 173.593 119.415 173.593 118.375C173.593 117.725 173.122 117.156 172.488 117.042V117.018C173.016 116.847 173.406 116.36 173.406 115.767C173.406 114.808 172.65 114.15 171.407 114.15C170.164 114.15 169.335 114.856 169.335 115.986H170.335C170.335 115.344 170.708 114.913 171.423 114.913C172.057 114.913 172.447 115.246 172.447 115.791C172.447 116.392 172.017 116.668 171.334 116.636L170.887 116.612V117.44L171.334 117.424C172.106 117.392 172.594 117.717 172.594 118.375C172.577 118.936 172.187 119.317 171.464 119.317C170.716 119.317 170.245 118.903 170.245 118.082H169.246C169.246 119.277 170.05 120.081 171.456 120.081ZM176.347 120.081C177.631 120.081 178.484 119.415 178.484 118.375C178.484 117.725 178.013 117.156 177.379 117.042V117.018C177.907 116.847 178.297 116.36 178.297 115.767C178.297 114.808 177.541 114.15 176.298 114.15C175.055 114.15 174.226 114.856 174.226 115.986H175.226C175.226 115.344 175.599 114.913 176.314 114.913C176.948 114.913 177.338 115.246 177.338 115.791C177.338 116.392 176.908 116.668 176.225 116.636L175.778 116.612V117.44L176.225 117.424C176.997 117.392 177.484 117.717 177.484 118.375C177.468 118.936 177.078 119.317 176.355 119.317C175.607 119.317 175.136 118.903 175.136 118.082H174.137C174.137 119.277 174.941 120.081 176.347 120.081ZM180.23 120V118.936H179.19V120H180.23ZM183.218 120.081C184.526 120.081 185.387 119.293 185.387 118.107C185.387 116.92 184.583 116.132 183.38 116.132C182.844 116.132 182.373 116.335 182.121 116.644H182.097L182.34 115.051H185.046V114.231H181.601L181.113 117.652H182.072C182.162 117.189 182.617 116.896 183.21 116.896C183.917 116.896 184.388 117.384 184.388 118.107C184.388 118.83 183.909 119.317 183.185 119.317C182.552 119.317 182.113 118.96 182.072 118.432H181.073C181.138 119.415 181.999 120.081 183.218 120.081ZM188.123 120V114.231H187.31C187.229 114.93 186.904 115.393 185.823 115.393V115.986H187.205V120H188.123Z" fill="#344053"/>
<circle cx="325.263" cy="112.094" r="10.1571" fill="#FFECEF"/>
<path d="M323.811 113.547L326.713 110.645M326.713 110.645H323.811M326.713 110.645V113.547" stroke="#D12564" stroke-width="0.76178" stroke-linecap="round" stroke-linejoin="round"/>
<path d="M345.636 108V104.057H347.068V103.551H343.655V104.057H345.087V108H345.636ZM348.585 108.061C349.505 108.061 350.127 107.397 350.127 106.397C350.127 105.398 349.505 104.74 348.585 104.74C347.665 104.74 347.043 105.398 347.043 106.397C347.043 107.397 347.665 108.061 348.585 108.061ZM348.585 107.634C347.988 107.634 347.592 107.189 347.592 106.397C347.592 105.66 347.951 105.166 348.585 105.166C349.182 105.166 349.578 105.611 349.578 106.397C349.578 107.141 349.219 107.634 348.585 107.634ZM351.905 108.03C352.039 108.03 352.131 108.018 352.222 108V107.543C352.192 107.549 352.124 107.555 352.057 107.555C351.661 107.555 351.619 107.47 351.619 107.196V105.245H352.222V104.801H351.619V103.886H351.113V104.801H350.595V105.245H351.113V107.324C351.113 107.829 351.387 108.03 351.905 108.03ZM353.92 108.061C354.384 108.061 354.81 107.866 354.944 107.573H354.969C354.969 107.573 354.975 107.86 355.066 108H355.602V107.976C355.529 107.811 355.474 107.653 355.474 107.391V105.995C355.474 105.239 355.023 104.74 354.219 104.74C353.457 104.74 352.945 105.124 352.927 105.806H353.463C353.476 105.422 353.689 105.166 354.219 105.166C354.67 105.166 354.969 105.416 354.969 106.05L354.219 106.105C353.433 106.16 352.799 106.348 352.799 107.092C352.799 107.671 353.25 108.061 353.92 108.061ZM354.061 107.634C353.664 107.634 353.348 107.427 353.348 107.092C353.348 106.763 353.604 106.598 354.219 106.531L354.969 106.452V106.72C354.969 107.165 354.707 107.634 354.061 107.634ZM356.971 108V103.551H356.466V108H356.971ZM360.973 108.061C361.68 108.061 362.229 107.64 362.351 107.007H361.845C361.699 107.433 361.461 107.634 360.973 107.634C360.394 107.634 360.004 107.189 360.004 106.519H362.399C362.406 106.415 362.406 106.324 362.406 106.275C362.406 105.355 361.82 104.74 360.949 104.74C360.053 104.74 359.456 105.398 359.456 106.391C359.456 107.391 360.065 108.061 360.973 108.061ZM360.004 106.105C360.047 105.544 360.413 105.166 360.949 105.166C361.479 105.166 361.814 105.544 361.839 106.105H360.004ZM363.396 108L363.932 107.269C364.286 106.781 364.298 106.738 364.298 106.738H364.322C364.322 106.738 364.335 106.781 364.7 107.269L365.243 108H365.852L364.609 106.373L365.797 104.801H365.218L364.725 105.489C364.371 105.977 364.341 106.038 364.341 106.038H364.316C364.316 106.038 364.292 105.977 363.92 105.489L363.421 104.801H362.811L364.036 106.373L362.817 108H363.396ZM366.976 109.188C366.976 109.188 366.976 107.866 366.952 107.573H366.976C367.153 107.866 367.574 108.061 367.994 108.061C368.823 108.061 369.378 107.403 369.378 106.415C369.378 105.41 368.829 104.74 368.006 104.74C367.592 104.74 367.19 104.935 367.001 105.227H366.976V104.801H366.471V109.188H366.976ZM367.903 107.634C367.348 107.634 366.976 107.196 366.976 106.415C366.976 105.666 367.312 105.166 367.915 105.166C368.463 105.166 368.829 105.666 368.829 106.415C368.829 107.147 368.457 107.634 367.903 107.634ZM371.553 108.061C372.26 108.061 372.808 107.64 372.93 107.007H372.424C372.278 107.433 372.04 107.634 371.553 107.634C370.974 107.634 370.584 107.189 370.584 106.519H372.979C372.985 106.415 372.985 106.324 372.985 106.275C372.985 105.355 372.4 104.74 371.528 104.74C370.632 104.74 370.035 105.398 370.035 106.391C370.035 107.391 370.645 108.061 371.553 108.061ZM370.584 106.105C370.626 105.544 370.992 105.166 371.528 105.166C372.058 105.166 372.394 105.544 372.418 106.105H370.584ZM374.303 108V106.324C374.303 105.629 374.626 105.166 375.199 105.166C375.644 105.166 375.942 105.422 375.942 105.971V108H376.448V105.971C376.448 105.233 376.083 104.74 375.327 104.74C374.888 104.74 374.498 104.916 374.327 105.227H374.303V104.801H373.797V108H374.303ZM378.547 108.061C379.303 108.061 379.821 107.64 379.821 107.074C379.821 106.348 379.169 106.263 378.56 106.141C378.133 106.056 377.84 105.995 377.84 105.654C377.84 105.373 378.078 105.166 378.499 105.166C378.925 105.166 379.206 105.367 379.206 105.776H379.742C379.742 105.136 379.248 104.74 378.499 104.74C377.798 104.74 377.322 105.13 377.322 105.684C377.322 106.251 377.682 106.434 378.279 106.568C378.937 106.714 379.273 106.72 379.273 107.135C379.273 107.421 379.011 107.634 378.547 107.634C378.054 107.634 377.725 107.372 377.725 106.903H377.176C377.176 107.598 377.712 108.061 378.547 108.061ZM381.924 108.061C382.63 108.061 383.179 107.64 383.301 107.007H382.795C382.649 107.433 382.411 107.634 381.924 107.634C381.345 107.634 380.955 107.189 380.955 106.519H383.35C383.356 106.415 383.356 106.324 383.356 106.275C383.356 105.355 382.771 104.74 381.899 104.74C381.003 104.74 380.406 105.398 380.406 106.391C380.406 107.391 381.015 108.061 381.924 108.061ZM380.955 106.105C380.997 105.544 381.363 105.166 381.899 105.166C382.429 105.166 382.765 105.544 382.789 106.105H380.955ZM385.344 108.061C386.1 108.061 386.618 107.64 386.618 107.074C386.618 106.348 385.966 106.263 385.357 106.141C384.93 106.056 384.637 105.995 384.637 105.654C384.637 105.373 384.875 105.166 385.296 105.166C385.722 105.166 386.002 105.367 386.002 105.776H386.539C386.539 105.136 386.045 104.74 385.296 104.74C384.595 104.74 384.119 105.13 384.119 105.684C384.119 106.251 384.479 106.434 385.076 106.568C385.734 106.714 386.07 106.72 386.07 107.135C386.07 107.421 385.807 107.634 385.344 107.634C384.851 107.634 384.522 107.372 384.522 106.903H383.973C383.973 107.598 384.509 108.061 385.344 108.061Z" fill="#54667F"/>
<path d="M344.098 120V117.993H343.627V117.392H344.098V116.807H343.627V116.205H344.098V114.198H345.374L346.007 116.205H346.747V114.198H347.649V116.205H348.112V116.807H347.649V117.392H348.112V117.993H347.649V120H346.365L345.715 117.993H345V120H344.098ZM344.967 116.205H345.195L344.959 115.425H344.927L344.967 116.205ZM345 117.392H345.536L345.357 116.807H344.984L345 117.392ZM346.389 117.392H346.763L346.747 116.807H346.202L346.389 117.392ZM346.771 118.732H346.812L346.779 117.993H346.56L346.771 118.732ZM350.652 120V114.231H349.84C349.759 114.93 349.434 115.393 348.353 115.393V115.986H349.734V120H350.652ZM354.078 120.081C355.459 120.081 356.312 118.968 356.312 117.115C356.312 115.287 355.467 114.15 354.078 114.15C352.737 114.15 351.835 115.214 351.835 117.115C351.835 118.895 352.639 120.081 354.078 120.081ZM354.078 119.317C353.33 119.309 352.834 118.611 352.834 117.115C352.834 115.799 353.233 114.913 354.078 114.913C354.817 114.913 355.313 115.62 355.313 117.115C355.313 118.432 354.915 119.309 354.078 119.317ZM359.006 120V114.231H358.193C358.112 114.93 357.787 115.393 356.706 115.393V115.986H358.088V120H359.006ZM360.639 121.211L361.208 120.081V118.936H360.176V120H360.639V120.065L360.217 121.211H360.639ZM366.21 120V119.179H363.082C363.106 118.757 363.675 118.367 364.699 117.782C365.642 117.245 366.17 116.75 366.17 115.88C366.17 114.848 365.39 114.15 364.203 114.15C362.976 114.15 362.172 114.889 362.172 116.083V116.27H363.139C363.098 115.458 363.472 114.913 364.212 114.913C364.813 114.913 365.211 115.295 365.211 115.856C365.211 116.555 364.675 116.831 363.992 117.237C362.83 117.944 362.091 118.31 362.05 120H366.21ZM368.99 120.081C370.274 120.081 371.127 119.415 371.127 118.375C371.127 117.725 370.655 117.156 370.022 117.042V117.018C370.55 116.847 370.94 116.36 370.94 115.767C370.94 114.808 370.184 114.15 368.941 114.15C367.698 114.15 366.869 114.856 366.869 115.986H367.868C367.868 115.344 368.242 114.913 368.957 114.913C369.591 114.913 369.981 115.246 369.981 115.791C369.981 116.392 369.55 116.668 368.868 116.636L368.421 116.612V117.44L368.868 117.424C369.64 117.392 370.127 117.717 370.127 118.375C370.111 118.936 369.721 119.317 368.998 119.317C368.25 119.317 367.779 118.903 367.779 118.082H366.78C366.78 119.277 367.584 120.081 368.99 120.081ZM373.938 120.081C375.246 120.081 376.107 119.293 376.107 118.107C376.107 116.92 375.303 116.132 374.1 116.132C373.564 116.132 373.092 116.335 372.841 116.644H372.816L373.06 115.051H375.766V114.231H372.321L371.833 117.652H372.792C372.881 117.189 373.336 116.896 373.929 116.896C374.636 116.896 375.108 117.384 375.108 118.107C375.108 118.83 374.628 119.317 373.905 119.317C373.271 119.317 372.832 118.96 372.792 118.432H371.792C371.857 119.415 372.719 120.081 373.938 120.081ZM377.426 121.211L377.995 120.081V118.936H376.963V120H377.426V120.065L377.003 121.211H377.426ZM380.957 120.081C382.257 120.081 383.135 119.391 383.135 118.35C383.135 117.684 382.729 117.148 382.111 116.945V116.92C382.599 116.733 382.924 116.246 382.924 115.71C382.924 114.767 382.127 114.15 380.957 114.15C379.779 114.15 378.983 114.767 378.983 115.71C378.983 116.254 379.308 116.733 379.804 116.92V116.945C379.186 117.156 378.772 117.7 378.772 118.35C378.772 119.391 379.657 120.081 380.957 120.081ZM380.957 116.612C380.356 116.612 379.942 116.287 379.942 115.767C379.942 115.263 380.348 114.913 380.957 114.913C381.567 114.913 381.965 115.263 381.965 115.767C381.965 116.287 381.551 116.612 380.957 116.612ZM380.957 119.317C380.259 119.317 379.771 118.919 379.771 118.302C379.771 117.692 380.242 117.294 380.957 117.294C381.672 117.294 382.136 117.692 382.136 118.302C382.136 118.919 381.656 119.317 380.957 119.317ZM385.774 120.081C387.131 120.081 388.033 119.041 388.033 116.88C388.033 115.181 387.155 114.15 385.79 114.15C384.522 114.15 383.669 114.905 383.669 116.043C383.669 117.18 384.474 117.936 385.676 117.936C386.342 117.936 386.895 117.635 387.114 117.18H387.139C387.123 118.497 386.708 119.317 385.774 119.317C385.124 119.317 384.725 118.968 384.685 118.375H383.71C383.742 119.35 384.604 120.081 385.774 120.081ZM385.79 117.172C385.124 117.172 384.669 116.717 384.669 116.043C384.669 115.368 385.124 114.913 385.79 114.913C386.472 114.913 386.911 115.344 386.911 116.043C386.911 116.742 386.472 117.172 385.79 117.172ZM390.77 120V114.231H389.957C389.876 114.93 389.551 115.393 388.47 115.393V115.986H389.851V120H390.77ZM392.955 120V118.936H391.915V120H392.955ZM396 120.081C397.284 120.081 398.08 119.309 398.08 118.147C398.08 116.985 397.276 116.213 396.033 116.213C395.382 116.213 394.846 116.53 394.602 117.042H394.578C394.594 115.823 395.09 114.913 396.065 114.913C396.691 114.913 397.04 115.279 397.089 115.84H398.064C397.999 114.889 397.227 114.15 396.065 114.15C394.659 114.15 393.717 115.214 393.717 117.319C393.717 119.025 394.594 120.081 396 120.081ZM395.959 119.317C395.277 119.317 394.814 118.854 394.814 118.147C394.814 117.44 395.277 116.977 395.959 116.977C396.642 116.977 397.081 117.44 397.081 118.147C397.081 118.854 396.642 119.317 395.959 119.317ZM400.483 120C400.589 117.936 401.361 116.002 402.71 114.97V114.231H398.468V115.051H400.126C401.239 115.051 401.588 115.019 401.588 115.019V115.043C400.475 115.986 399.654 117.855 399.427 120H400.483Z" fill="#2B2C2C"/>
<circle cx="539.579" cy="111.665" r="10.1571" fill="#EEE9FF"/>
<g clip-path="url(#clip0_4210_45688)">
<path opacity="0.8" d="M537.203 110.392H541.943" stroke="#7664FE" stroke-width="0.76178" stroke-miterlimit="10" stroke-linecap="round"/>
<path opacity="0.4" d="M538.055 109.547H541.102" stroke="#7664FE" stroke-width="0.76178" stroke-miterlimit="10" stroke-linecap="round"/>
<path d="M542.111 111.24H537.033C536.659 111.24 536.355 111.543 536.355 111.917V113.949C536.355 114.323 536.659 114.626 537.033 114.626H542.111C542.485 114.626 542.788 114.323 542.788 113.949V111.917C542.788 111.543 542.485 111.24 542.111 111.24Z" stroke="#7664FE" stroke-width="0.76178" stroke-miterlimit="10" stroke-linecap="round"/>
<path d="M538.055 112.931H541.102" stroke="#7664FE" stroke-width="0.76178" stroke-miterlimit="10" stroke-linecap="round"/>
<path opacity="0.2" d="M538.727 108.701H540.419" stroke="#7664FE" stroke-width="0.76178" stroke-miterlimit="10" stroke-linecap="round"/>
</g>
<path d="M560.184 108.061C561.159 108.061 561.89 107.464 562.012 106.574H561.421C561.299 107.171 560.805 107.573 560.184 107.573C559.312 107.573 558.733 106.854 558.733 105.776C558.733 104.697 559.312 103.978 560.184 103.978C560.818 103.978 561.311 104.368 561.421 104.953H562.012C561.896 104.075 561.165 103.49 560.184 103.49C558.965 103.49 558.154 104.404 558.154 105.776C558.154 107.147 558.965 108.061 560.184 108.061ZM563.84 108.061C564.279 108.061 564.638 107.884 564.809 107.573H564.833V108H565.339V104.801H564.833V106.476C564.833 107.171 564.541 107.634 563.968 107.634C563.523 107.634 563.255 107.378 563.255 106.83V104.801H562.749V106.83C562.749 107.567 563.084 108.061 563.84 108.061ZM566.812 108V106.434C566.812 105.745 567.019 105.288 567.836 105.288C568.012 105.288 568.122 105.306 568.122 105.306H568.14V104.801C568.14 104.801 568.049 104.77 567.903 104.77C567.251 104.77 566.989 105.05 566.836 105.379H566.812V104.801H566.306V108H566.812ZM569.297 108V106.434C569.297 105.745 569.504 105.288 570.321 105.288C570.497 105.288 570.607 105.306 570.607 105.306H570.625V104.801C570.625 104.801 570.534 104.77 570.388 104.77C569.736 104.77 569.474 105.05 569.321 105.379H569.297V104.801H568.791V108H569.297ZM572.641 108.061C573.348 108.061 573.896 107.64 574.018 107.007H573.512C573.366 107.433 573.129 107.634 572.641 107.634C572.062 107.634 571.672 107.189 571.672 106.519H574.067C574.073 106.415 574.073 106.324 574.073 106.275C574.073 105.355 573.488 104.74 572.617 104.74C571.721 104.74 571.124 105.398 571.124 106.391C571.124 107.391 571.733 108.061 572.641 108.061ZM571.672 106.105C571.715 105.544 572.08 105.166 572.617 105.166C573.147 105.166 573.482 105.544 573.506 106.105H571.672ZM575.391 108V106.324C575.391 105.629 575.714 105.166 576.287 105.166C576.732 105.166 577.031 105.422 577.031 105.971V108H577.537V105.971C577.537 105.233 577.171 104.74 576.415 104.74C575.976 104.74 575.586 104.916 575.416 105.227H575.391V104.801H574.886V108H575.391ZM579.423 108.03C579.557 108.03 579.648 108.018 579.739 108V107.543C579.709 107.549 579.642 107.555 579.575 107.555C579.179 107.555 579.136 107.47 579.136 107.196V105.245H579.739V104.801H579.136V103.886H578.63V104.801H578.112V105.245H578.63V107.324C578.63 107.829 578.905 108.03 579.423 108.03ZM583.697 108.061C584.532 108.061 585.087 107.391 585.087 106.385C585.087 105.398 584.526 104.74 583.685 104.74C583.277 104.74 582.887 104.916 582.698 105.227H582.673C582.685 104.666 582.685 103.551 582.685 103.551H582.18V108H582.685V107.573H582.71C582.899 107.866 583.264 108.061 583.697 108.061ZM583.624 107.634C583.063 107.634 582.685 107.183 582.685 106.385C582.685 105.654 583.021 105.166 583.612 105.166C584.166 105.166 584.538 105.654 584.538 106.385C584.538 107.135 584.172 107.634 583.624 107.634ZM586.884 108.061C587.347 108.061 587.774 107.866 587.908 107.573H587.932C587.932 107.573 587.938 107.86 588.029 108H588.566V107.976C588.493 107.811 588.438 107.653 588.438 107.391V105.995C588.438 105.239 587.987 104.74 587.182 104.74C586.421 104.74 585.909 105.124 585.89 105.806H586.427C586.439 105.422 586.652 105.166 587.182 105.166C587.633 105.166 587.932 105.416 587.932 106.05L587.182 106.105C586.396 106.16 585.762 106.348 585.762 107.092C585.762 107.671 586.213 108.061 586.884 108.061ZM587.024 107.634C586.628 107.634 586.311 107.427 586.311 107.092C586.311 106.763 586.567 106.598 587.182 106.531L587.932 106.452V106.72C587.932 107.165 587.67 107.634 587.024 107.634ZM589.935 108V103.551H589.429V108H589.935ZM591.889 108.061C592.352 108.061 592.779 107.866 592.913 107.573H592.938C592.938 107.573 592.944 107.86 593.035 108H593.571V107.976C593.498 107.811 593.443 107.653 593.443 107.391V105.995C593.443 105.239 592.992 104.74 592.188 104.74C591.426 104.74 590.914 105.124 590.896 105.806H591.432C591.444 105.422 591.658 105.166 592.188 105.166C592.639 105.166 592.938 105.416 592.938 106.05L592.188 106.105C591.402 106.16 590.768 106.348 590.768 107.092C590.768 107.671 591.219 108.061 591.889 108.061ZM592.029 107.634C591.633 107.634 591.316 107.427 591.316 107.092C591.316 106.763 591.572 106.598 592.188 106.531L592.938 106.452V106.72C592.938 107.165 592.675 107.634 592.029 107.634ZM594.94 108V106.324C594.94 105.629 595.263 105.166 595.836 105.166C596.281 105.166 596.58 105.422 596.58 105.971V108H597.085V105.971C597.085 105.233 596.72 104.74 595.964 104.74C595.525 104.74 595.135 104.916 594.965 105.227H594.94V104.801H594.434V108H594.94ZM599.367 108.061C600.123 108.061 600.69 107.592 600.751 106.958H600.202C600.135 107.366 599.831 107.634 599.367 107.634C598.788 107.634 598.405 107.183 598.405 106.385C598.405 105.654 598.758 105.166 599.38 105.166C599.806 105.166 600.129 105.41 600.202 105.837H600.751C600.69 105.203 600.111 104.74 599.38 104.74C598.465 104.74 597.856 105.398 597.856 106.385C597.856 107.391 598.398 108.061 599.367 108.061ZM602.93 108.061C603.637 108.061 604.185 107.64 604.307 107.007H603.801C603.655 107.433 603.417 107.634 602.93 107.634C602.351 107.634 601.961 107.189 601.961 106.519H604.356C604.362 106.415 604.362 106.324 604.362 106.275C604.362 105.355 603.777 104.74 602.905 104.74C602.009 104.74 601.412 105.398 601.412 106.391C601.412 107.391 602.022 108.061 602.93 108.061ZM601.961 106.105C602.003 105.544 602.369 105.166 602.905 105.166C603.436 105.166 603.771 105.544 603.795 106.105H601.961Z" fill="#54667F"/>
<path d="M558.414 119.141V117.134H557.943V116.533H558.414V115.948H557.943V115.347H558.414V113.34H559.69L560.324 115.347H561.063V113.34H561.965V115.347H562.428V115.948H561.965V116.533H562.428V117.134H561.965V119.141H560.681L560.031 117.134H559.316V119.141H558.414ZM559.284 115.347H559.511L559.276 114.567H559.243L559.284 115.347ZM559.316 116.533H559.853L559.674 115.948H559.3L559.316 116.533ZM560.706 116.533H561.08L561.063 115.948H560.519L560.706 116.533ZM561.088 117.874H561.128L561.096 117.134H560.876L561.088 117.874ZM564.969 119.141V113.372H564.156C564.075 114.071 563.75 114.534 562.669 114.534V115.127H564.051V119.141H564.969ZM568.394 119.223C569.775 119.223 570.629 118.109 570.629 116.257C570.629 114.428 569.784 113.291 568.394 113.291C567.053 113.291 566.151 114.355 566.151 116.257C566.151 118.036 566.956 119.223 568.394 119.223ZM568.394 118.459C567.647 118.451 567.151 117.752 567.151 116.257C567.151 114.94 567.549 114.055 568.394 114.055C569.133 114.055 569.629 114.762 569.629 116.257C569.629 117.573 569.231 118.451 568.394 118.459ZM574.994 119.141V117.849H575.896V117.029H574.994V113.372H573.995L571.192 117.029V117.849H574.076V119.141H574.994ZM572.102 117.004C572.102 117.004 572.256 116.858 572.508 116.541L573.572 115.152C573.922 114.705 574.052 114.477 574.052 114.477H574.076V117.029H572.102V117.004ZM577.035 120.352L577.603 119.223V118.077H576.572V119.141H577.035V119.206L576.612 120.352H577.035ZM582.102 119.141V117.849H583.004V117.029H582.102V113.372H581.103L578.299 117.029V117.849H581.184V119.141H582.102ZM579.209 117.004C579.209 117.004 579.364 116.858 579.616 116.541L580.68 115.152C581.03 114.705 581.16 114.477 581.16 114.477H581.184V117.029H579.209V117.004ZM585.597 119.223C586.954 119.223 587.856 118.183 587.856 116.021C587.856 114.323 586.978 113.291 585.613 113.291C584.346 113.291 583.492 114.047 583.492 115.184C583.492 116.322 584.297 117.077 585.499 117.077C586.166 117.077 586.718 116.777 586.938 116.322H586.962C586.946 117.638 586.531 118.459 585.597 118.459C584.947 118.459 584.549 118.109 584.508 117.516H583.533C583.565 118.491 584.427 119.223 585.597 119.223ZM585.613 116.314C584.947 116.314 584.492 115.859 584.492 115.184C584.492 114.51 584.947 114.055 585.613 114.055C586.296 114.055 586.734 114.485 586.734 115.184C586.734 115.883 586.296 116.314 585.613 116.314ZM590.85 119.223C592.134 119.223 592.93 118.451 592.93 117.289C592.93 116.127 592.126 115.355 590.883 115.355C590.233 115.355 589.696 115.672 589.452 116.184H589.428C589.444 114.965 589.94 114.055 590.915 114.055C591.541 114.055 591.89 114.42 591.939 114.981H592.914C592.849 114.03 592.077 113.291 590.915 113.291C589.509 113.291 588.567 114.355 588.567 116.46C588.567 118.166 589.444 119.223 590.85 119.223ZM590.809 118.459C590.127 118.459 589.664 117.996 589.664 117.289C589.664 116.582 590.127 116.119 590.809 116.119C591.492 116.119 591.931 116.582 591.931 117.289C591.931 117.996 591.492 118.459 590.809 118.459ZM594.131 120.352L594.699 119.223V118.077H593.667V119.141H594.131V119.206L593.708 120.352H594.131ZM599.198 119.141V117.849H600.1V117.029H599.198V113.372H598.199L595.395 117.029V117.849H598.28V119.141H599.198ZM596.305 117.004C596.305 117.004 596.46 116.858 596.712 116.541L597.776 115.152C598.125 114.705 598.255 114.477 598.255 114.477H598.28V117.029H596.305V117.004ZM604.367 119.141V117.849H605.269V117.029H604.367V113.372H603.367L600.564 117.029V117.849H603.449V119.141H604.367ZM601.474 117.004C601.474 117.004 601.628 116.858 601.88 116.541L602.945 115.152C603.294 114.705 603.424 114.477 603.424 114.477H603.449V117.029H601.474V117.004ZM607.824 119.141V113.372H607.011C606.93 114.071 606.605 114.534 605.524 114.534V115.127H606.906V119.141H607.824ZM610.01 119.141V118.077H608.969V119.141H610.01ZM612.973 119.223C614.273 119.223 615.15 118.532 615.15 117.492C615.15 116.826 614.744 116.289 614.127 116.086V116.062C614.614 115.875 614.939 115.387 614.939 114.851C614.939 113.908 614.143 113.291 612.973 113.291C611.795 113.291 610.998 113.908 610.998 114.851C610.998 115.395 611.323 115.875 611.819 116.062V116.086C611.201 116.297 610.787 116.842 610.787 117.492C610.787 118.532 611.673 119.223 612.973 119.223ZM612.973 115.753C612.371 115.753 611.957 115.428 611.957 114.908C611.957 114.404 612.363 114.055 612.973 114.055C613.582 114.055 613.98 114.404 613.98 114.908C613.98 115.428 613.566 115.753 612.973 115.753ZM612.973 118.459C612.274 118.459 611.786 118.061 611.786 117.443C611.786 116.834 612.258 116.436 612.973 116.436C613.688 116.436 614.151 116.834 614.151 117.443C614.151 118.061 613.672 118.459 612.973 118.459ZM619.542 119.141V117.849H620.444V117.029H619.542V113.372H618.543L615.74 117.029V117.849H618.624V119.141H619.542ZM616.65 117.004C616.65 117.004 616.804 116.858 617.056 116.541L618.12 115.152C618.47 114.705 618.6 114.477 618.6 114.477H618.624V117.029H616.65V117.004Z" fill="#344053"/>
<line x1="254.926" y1="104.048" x2="254.926" y2="120.299" stroke="#DFE2E6" stroke-width="0.507853"/>
<line x1="469.238" y1="104.048" x2="469.238" y2="120.299" stroke="#DFE2E6" stroke-width="0.507853"/>
<line x1="82.0039" y1="433.898" x2="646.737" y2="433.898" stroke="#DFE2E6" stroke-width="0.507853"/>
<line x1="630.484" y1="278.498" x2="124.155" y2="278.498" stroke="#DFE2E6" stroke-width="0.507853"/>
<line x1="630.484" y1="307.952" x2="124.155" y2="307.952" stroke="#DFE2E6" stroke-width="0.507853" stroke-dasharray="3.05 3.05"/>
<line x1="630.484" y1="160.674" x2="124.155" y2="160.674" stroke="#DFE2E6" stroke-width="0.507853" stroke-dasharray="3.05 3.05"/>
<line x1="630.484" y1="337.41" x2="124.155" y2="337.41" stroke="#DFE2E6" stroke-width="0.507853" stroke-dasharray="3.05 3.05"/>
<line x1="630.484" y1="190.129" x2="124.155" y2="190.129" stroke="#DFE2E6" stroke-width="0.507853" stroke-dasharray="3.05 3.05"/>
<line x1="630.484" y1="366.863" x2="124.155" y2="366.863" stroke="#DFE2E6" stroke-width="0.507853" stroke-dasharray="3.05 3.05"/>
<line x1="630.484" y1="219.586" x2="124.155" y2="219.586" stroke="#DFE2E6" stroke-width="0.507853" stroke-dasharray="3.05 3.05"/>
<path d="M630.484 249.043L124.154 249.043" stroke="#DFE2E6" stroke-width="0.507853" stroke-dasharray="3.05 3.05"/>
<path d="M109.215 280.674V279.108H108.74V278.718H109.215V278.218H108.74V277.828H109.215V276.323H109.849L110.428 277.828H111.147V276.323H111.628V277.828H112.104V278.218H111.628V278.718H112.104V279.108H111.628V280.674H110.988L110.409 279.108H109.69V280.674H109.215ZM109.678 277.828H109.934L109.678 277.072H109.654L109.678 277.828ZM109.69 278.718H110.263L110.08 278.218H109.678L109.69 278.718ZM110.751 278.718H111.159L111.147 278.218H110.568L110.751 278.718ZM111.147 279.815H111.171L111.153 279.108H110.897L111.147 279.815ZM114.125 280.735C115.093 280.735 115.739 279.936 115.739 278.51C115.739 277.176 115.161 276.286 114.125 276.286C113.156 276.286 112.51 277.084 112.51 278.51C112.51 279.845 113.088 280.735 114.125 280.735ZM114.125 280.29C113.497 280.29 113.076 279.723 113.076 278.51C113.076 277.444 113.411 276.731 114.125 276.731C114.752 276.731 115.173 277.298 115.173 278.51C115.173 279.577 114.838 280.29 114.125 280.29Z" fill="#222222"/>
<path d="M98.2128 308.726V308.281H96.5369V308.726H98.2128ZM99.2557 310.128V308.562H98.7804V308.172H99.2557V307.672H98.7804V307.282H99.2557V305.777H99.8895L100.468 307.282H101.188V305.777H101.669V307.282H102.144V307.672H101.669V308.172H102.144V308.562H101.669V310.128H101.029L100.45 308.562H99.7311V310.128H99.2557ZM99.7189 307.282H99.9749L99.7189 306.526H99.6945L99.7189 307.282ZM99.7311 308.172H100.304L100.121 307.672H99.7189L99.7311 308.172ZM100.791 308.172H101.2L101.188 307.672H100.609L100.791 308.172ZM101.188 309.269H101.212L101.194 308.562H100.938L101.188 309.269ZM103.976 310.128V305.801H103.544C103.477 306.295 103.239 306.624 102.459 306.624V306.989H103.471V310.128H103.976ZM106.692 310.189C107.661 310.189 108.307 309.391 108.307 307.964C108.307 306.63 107.728 305.74 106.692 305.74C105.723 305.74 105.077 306.538 105.077 307.964C105.077 309.299 105.656 310.189 106.692 310.189ZM106.692 309.744C106.064 309.744 105.644 309.177 105.644 307.964C105.644 306.898 105.979 306.185 106.692 306.185C107.32 306.185 107.74 306.752 107.74 307.964C107.74 309.031 107.405 309.744 106.692 309.744ZM110.587 310.189C111.556 310.189 112.202 309.391 112.202 307.964C112.202 306.63 111.623 305.74 110.587 305.74C109.618 305.74 108.972 306.538 108.972 307.964C108.972 309.299 109.551 310.189 110.587 310.189ZM110.587 309.744C109.96 309.744 109.539 309.177 109.539 307.964C109.539 306.898 109.874 306.185 110.587 306.185C111.215 306.185 111.635 306.752 111.635 307.964C111.635 309.031 111.3 309.744 110.587 309.744ZM113.508 310.128V309.007L113.947 308.598L115.3 310.128H115.97L114.313 308.251L115.714 306.928H115.044L113.52 308.367H113.496C113.496 308.367 113.508 308.239 113.508 307.69V305.679H113.002V310.128H113.508Z" fill="#222222"/>
<path d="M99.2555 251.217V249.651H98.7802V249.261H99.2555V248.761H98.7802V248.371H99.2555V246.866H99.8893L100.468 248.371H101.187V246.866H101.669V248.371H102.144V248.761H101.669V249.261H102.144V249.651H101.669V251.217H101.029L100.45 249.651H99.7309V251.217H99.2555ZM99.7187 248.371H99.9747L99.7187 247.615H99.6943L99.7187 248.371ZM99.7309 249.261H100.304L100.121 248.761H99.7187L99.7309 249.261ZM100.791 249.261H101.2L101.187 248.761H100.608L100.791 249.261ZM101.187 250.358H101.212L101.194 249.651H100.938L101.187 250.358ZM103.976 251.217V246.89H103.543C103.476 247.384 103.239 247.713 102.459 247.713V248.078H103.47V251.217H103.976ZM106.692 251.278C107.661 251.278 108.307 250.479 108.307 249.053C108.307 247.719 107.728 246.829 106.692 246.829C105.723 246.829 105.077 247.627 105.077 249.053C105.077 250.388 105.656 251.278 106.692 251.278ZM106.692 250.833C106.064 250.833 105.643 250.266 105.643 249.053C105.643 247.987 105.979 247.274 106.692 247.274C107.319 247.274 107.74 247.841 107.74 249.053C107.74 250.12 107.405 250.833 106.692 250.833ZM110.587 251.278C111.556 251.278 112.202 250.479 112.202 249.053C112.202 247.719 111.623 246.829 110.587 246.829C109.618 246.829 108.972 247.627 108.972 249.053C108.972 250.388 109.551 251.278 110.587 251.278ZM110.587 250.833C109.959 250.833 109.539 250.266 109.539 249.053C109.539 247.987 109.874 247.274 110.587 247.274C111.215 247.274 111.635 247.841 111.635 249.053C111.635 250.12 111.3 250.833 110.587 250.833ZM113.508 251.217V250.095L113.947 249.687L115.3 251.217H115.97L114.312 249.34L115.714 248.017H115.044L113.52 249.456H113.496C113.496 249.456 113.508 249.328 113.508 248.779V246.768H113.002V251.217H113.508Z" fill="#222222"/>
<path d="M98.1507 221.762V220.195H97.6754V219.805H98.1507V219.306H97.6754V218.916H98.1507V217.41H98.7845L99.3635 218.916H100.083V217.41H100.564V218.916H101.039V219.306H100.564V219.805H101.039V220.195H100.564V221.762H99.9241L99.3452 220.195H98.6261V221.762H98.1507ZM98.6139 218.916H98.8698L98.6139 218.16H98.5895L98.6139 218.916ZM98.6261 219.805H99.1989L99.0161 219.306H98.6139L98.6261 219.805ZM99.6865 219.805H100.095L100.083 219.306H99.5036L99.6865 219.805ZM100.083 220.902H100.107L100.089 220.195H99.8327L100.083 220.902ZM104.468 221.762V221.274H102.097C102.097 220.896 102.56 220.531 103.365 220.055C104.023 219.665 104.438 219.281 104.438 218.648C104.438 217.886 103.877 217.374 103.042 217.374C102.177 217.374 101.598 217.874 101.598 218.769V218.897H102.164C102.134 218.251 102.457 217.819 103.054 217.819C103.56 217.819 103.901 218.142 103.901 218.629C103.901 219.214 103.389 219.458 102.908 219.769C102.11 220.287 101.506 220.567 101.506 221.762H104.468ZM106.688 221.823C107.657 221.823 108.303 221.024 108.303 219.598C108.303 218.264 107.724 217.374 106.688 217.374C105.719 217.374 105.073 218.172 105.073 219.598C105.073 220.933 105.652 221.823 106.688 221.823ZM106.688 221.378C106.06 221.378 105.64 220.811 105.64 219.598C105.64 218.532 105.975 217.819 106.688 217.819C107.316 217.819 107.736 218.386 107.736 219.598C107.736 220.665 107.401 221.378 106.688 221.378ZM110.583 221.823C111.552 221.823 112.198 221.024 112.198 219.598C112.198 218.264 111.619 217.374 110.583 217.374C109.614 217.374 108.968 218.172 108.968 219.598C108.968 220.933 109.547 221.823 110.583 221.823ZM110.583 221.378C109.955 221.378 109.535 220.811 109.535 219.598C109.535 218.532 109.87 217.819 110.583 217.819C111.211 217.819 111.631 218.386 111.631 219.598C111.631 220.665 111.296 221.378 110.583 221.378ZM113.504 221.762V220.64L113.943 220.232L115.296 221.762H115.966L114.309 219.885L115.71 218.562H115.04L113.516 220H113.492C113.492 220 113.504 219.873 113.504 219.324V217.313H112.998V221.762H113.504Z" fill="#222222"/>
<path d="M97.9007 162.851V161.284H97.4254V160.894H97.9007V160.395H97.4254V160.005H97.9007V158.499H98.5345L99.1135 160.005H99.8326V158.499H100.314V160.005H100.789V160.395H100.314V160.894H100.789V161.284H100.314V162.851H99.6742L99.0952 161.284H98.3761V162.851H97.9007ZM98.3639 160.005H98.6199L98.3639 159.249H98.3395L98.3639 160.005ZM98.3761 160.894H98.949L98.7661 160.395H98.3639L98.3761 160.894ZM99.4365 160.894H99.8448L99.8326 160.395H99.2537L99.4365 160.894ZM99.8326 161.991H99.857L99.8387 161.284H99.5828L99.8326 161.991ZM103.816 162.851V161.845H104.517V161.357H103.816V158.524H103.249L101.147 161.357V161.845H103.31V162.851H103.816ZM101.695 161.333C101.695 161.333 101.762 161.284 101.933 161.053L102.975 159.651C103.255 159.273 103.286 159.194 103.286 159.194H103.31V161.357H101.695V161.333ZM106.688 162.912C107.657 162.912 108.303 162.113 108.303 160.687C108.303 159.352 107.724 158.463 106.688 158.463C105.719 158.463 105.073 159.261 105.073 160.687C105.073 162.022 105.652 162.912 106.688 162.912ZM106.688 162.467C106.06 162.467 105.64 161.9 105.64 160.687C105.64 159.621 105.975 158.908 106.688 158.908C107.316 158.908 107.736 159.474 107.736 160.687C107.736 161.754 107.401 162.467 106.688 162.467ZM110.583 162.912C111.552 162.912 112.198 162.113 112.198 160.687C112.198 159.352 111.619 158.463 110.583 158.463C109.614 158.463 108.968 159.261 108.968 160.687C108.968 162.022 109.547 162.912 110.583 162.912ZM110.583 162.467C109.955 162.467 109.535 161.9 109.535 160.687C109.535 159.621 109.87 158.908 110.583 158.908C111.211 158.908 111.631 159.474 111.631 160.687C111.631 161.754 111.296 162.467 110.583 162.467ZM113.504 162.851V161.729L113.943 161.321L115.296 162.851H115.966L114.309 160.974L115.71 159.651H115.04L113.516 161.089H113.492C113.492 161.089 113.504 160.961 113.504 160.413V158.402H112.998V162.851H113.504Z" fill="#222222"/>
<path d="M98.109 192.305V190.738H97.6337V190.348H98.109V189.849H97.6337V189.459H98.109V187.953H98.7428L99.3218 189.459H100.041V187.953H100.522V189.459H100.998V189.849H100.522V190.348H100.998V190.738H100.522V192.305H99.8825L99.3035 190.738H98.5844V192.305H98.109ZM98.5722 189.459H98.8282L98.5722 188.703H98.5478L98.5722 189.459ZM98.5844 190.348H99.1573L98.9744 189.849H98.5722L98.5844 190.348ZM99.6448 190.348H100.053L100.041 189.849H99.462L99.6448 190.348ZM100.041 191.445H100.065L100.047 190.738H99.7911L100.041 191.445ZM102.964 192.366C103.884 192.366 104.499 191.848 104.499 191.104C104.499 190.592 104.134 190.153 103.622 190.08V190.056C104.036 189.934 104.359 189.544 104.359 189.13C104.359 188.404 103.793 187.917 102.921 187.917C102.031 187.917 101.44 188.453 101.44 189.258H102.007C102.007 188.721 102.354 188.362 102.921 188.362C103.482 188.362 103.823 188.66 103.823 189.13C103.823 189.666 103.402 189.861 102.866 189.837L102.604 189.824V190.312L102.866 190.3C103.537 190.269 103.933 190.592 103.933 191.104C103.921 191.592 103.585 191.921 102.964 191.921C102.33 191.921 101.94 191.555 101.94 190.903H101.373C101.373 191.781 101.952 192.366 102.964 192.366ZM106.688 192.366C107.657 192.366 108.303 191.567 108.303 190.141C108.303 188.807 107.724 187.917 106.688 187.917C105.719 187.917 105.073 188.715 105.073 190.141C105.073 191.476 105.652 192.366 106.688 192.366ZM106.688 191.921C106.06 191.921 105.64 191.354 105.64 190.141C105.64 189.075 105.975 188.362 106.688 188.362C107.316 188.362 107.736 188.928 107.736 190.141C107.736 191.208 107.401 191.921 106.688 191.921ZM110.583 192.366C111.552 192.366 112.198 191.567 112.198 190.141C112.198 188.807 111.619 187.917 110.583 187.917C109.614 187.917 108.968 188.715 108.968 190.141C108.968 191.476 109.547 192.366 110.583 192.366ZM110.583 191.921C109.955 191.921 109.535 191.354 109.535 190.141C109.535 189.075 109.87 188.362 110.583 188.362C111.211 188.362 111.631 188.928 111.631 190.141C111.631 191.208 111.296 191.921 110.583 191.921ZM113.504 192.305V191.183L113.943 190.775L115.296 192.305H115.966L114.309 190.428L115.71 189.105H115.04L113.516 190.543H113.492C113.492 190.543 113.504 190.415 113.504 189.867V187.856H112.998V192.305H113.504Z" fill="#222222"/>
<path d="M97.9007 162.851V161.284H97.4254V160.894H97.9007V160.395H97.4254V160.005H97.9007V158.499H98.5345L99.1135 160.005H99.8326V158.499H100.314V160.005H100.789V160.395H100.314V160.894H100.789V161.284H100.314V162.851H99.6742L99.0952 161.284H98.3761V162.851H97.9007ZM98.3639 160.005H98.6199L98.3639 159.249H98.3395L98.3639 160.005ZM98.3761 160.894H98.949L98.7661 160.395H98.3639L98.3761 160.894ZM99.4365 160.894H99.8448L99.8326 160.395H99.2537L99.4365 160.894ZM99.8326 161.991H99.857L99.8387 161.284H99.5828L99.8326 161.991ZM103.816 162.851V161.845H104.517V161.357H103.816V158.524H103.249L101.147 161.357V161.845H103.31V162.851H103.816ZM101.695 161.333C101.695 161.333 101.762 161.284 101.933 161.053L102.975 159.651C103.255 159.273 103.286 159.194 103.286 159.194H103.31V161.357H101.695V161.333ZM106.688 162.912C107.657 162.912 108.303 162.113 108.303 160.687C108.303 159.352 107.724 158.463 106.688 158.463C105.719 158.463 105.073 159.261 105.073 160.687C105.073 162.022 105.652 162.912 106.688 162.912ZM106.688 162.467C106.06 162.467 105.64 161.9 105.64 160.687C105.64 159.621 105.975 158.908 106.688 158.908C107.316 158.908 107.736 159.474 107.736 160.687C107.736 161.754 107.401 162.467 106.688 162.467ZM110.583 162.912C111.552 162.912 112.198 162.113 112.198 160.687C112.198 159.352 111.619 158.463 110.583 158.463C109.614 158.463 108.968 159.261 108.968 160.687C108.968 162.022 109.547 162.912 110.583 162.912ZM110.583 162.467C109.955 162.467 109.535 161.9 109.535 160.687C109.535 159.621 109.87 158.908 110.583 158.908C111.211 158.908 111.631 159.474 111.631 160.687C111.631 161.754 111.296 162.467 110.583 162.467ZM113.504 162.851V161.729L113.943 161.321L115.296 162.851H115.966L114.309 160.974L115.71 159.651H115.04L113.516 161.089H113.492C113.492 161.089 113.504 160.961 113.504 160.413V158.402H112.998V162.851H113.504Z" fill="#222222"/>
<path d="M97.108 338.18V337.735H95.432V338.18H97.108ZM98.1509 339.582V338.016H97.6756V337.626H98.1509V337.126H97.6756V336.736H98.1509V335.231H98.7847L99.3637 336.736H100.083V335.231H100.564V336.736H101.04V337.126H100.564V337.626H101.04V338.016H100.564V339.582H99.9243L99.3454 338.016H98.6263V339.582H98.1509ZM98.6141 336.736H98.87L98.6141 335.98H98.5897L98.6141 336.736ZM98.6263 337.626H99.1991L99.0163 337.126H98.6141L98.6263 337.626ZM99.6867 337.626H100.095L100.083 337.126H99.5038L99.6867 337.626ZM100.083 338.723H100.107L100.089 338.016H99.8329L100.083 338.723ZM104.468 339.582V339.094H102.098C102.098 338.717 102.561 338.351 103.365 337.876C104.023 337.486 104.438 337.102 104.438 336.468C104.438 335.706 103.877 335.194 103.042 335.194C102.177 335.194 101.598 335.694 101.598 336.59V336.718H102.165C102.134 336.072 102.457 335.639 103.054 335.639C103.56 335.639 103.901 335.962 103.901 336.45C103.901 337.035 103.39 337.278 102.908 337.589C102.11 338.107 101.506 338.388 101.506 339.582H104.468ZM106.688 339.643C107.657 339.643 108.303 338.845 108.303 337.419C108.303 336.084 107.724 335.194 106.688 335.194C105.719 335.194 105.073 335.993 105.073 337.419C105.073 338.753 105.652 339.643 106.688 339.643ZM106.688 339.198C106.06 339.198 105.64 338.631 105.64 337.419C105.64 336.352 105.975 335.639 106.688 335.639C107.316 335.639 107.736 336.206 107.736 337.419C107.736 338.485 107.401 339.198 106.688 339.198ZM110.583 339.643C111.552 339.643 112.198 338.845 112.198 337.419C112.198 336.084 111.619 335.194 110.583 335.194C109.614 335.194 108.968 335.993 108.968 337.419C108.968 338.753 109.547 339.643 110.583 339.643ZM110.583 339.198C109.956 339.198 109.535 338.631 109.535 337.419C109.535 336.352 109.87 335.639 110.583 335.639C111.211 335.639 111.632 336.206 111.632 337.419C111.632 338.485 111.296 339.198 110.583 339.198ZM113.504 339.582V338.461L113.943 338.052L115.296 339.582H115.966L114.309 337.705L115.711 336.383H115.04L113.517 337.821H113.492C113.492 337.821 113.504 337.693 113.504 337.144V335.133H112.999V339.582H113.504Z" fill="#222222"/>
<path d="M97.0663 367.637V367.193H95.3904V367.637H97.0663ZM98.1092 369.039V367.473H97.6339V367.083H98.1092V366.583H97.6339V366.193H98.1092V364.688H98.743L99.322 366.193H100.041V364.688H100.523V366.193H100.998V366.583H100.523V367.083H100.998V367.473H100.523V369.039H99.8827L99.3037 367.473H98.5846V369.039H98.1092ZM98.5724 366.193H98.8284L98.5724 365.437H98.548L98.5724 366.193ZM98.5846 367.083H99.1575L98.9746 366.583H98.5724L98.5846 367.083ZM99.645 367.083H100.053L100.041 366.583H99.4622L99.645 367.083ZM100.041 368.18H100.065L100.047 367.473H99.7913L100.041 368.18ZM102.964 369.1C103.884 369.1 104.5 368.582 104.5 367.838C104.5 367.327 104.134 366.888 103.622 366.815V366.79C104.037 366.668 104.359 366.278 104.359 365.864C104.359 365.139 103.793 364.651 102.921 364.651C102.031 364.651 101.44 365.188 101.44 365.992H102.007C102.007 365.456 102.354 365.096 102.921 365.096C103.482 365.096 103.823 365.395 103.823 365.864C103.823 366.4 103.403 366.595 102.866 366.571L102.604 366.559V367.046L102.866 367.034C103.537 367.004 103.933 367.327 103.933 367.838C103.921 368.326 103.586 368.655 102.964 368.655C102.33 368.655 101.94 368.289 101.94 367.637H101.373C101.373 368.515 101.952 369.1 102.964 369.1ZM106.688 369.1C107.657 369.1 108.303 368.302 108.303 366.876C108.303 365.541 107.724 364.651 106.688 364.651C105.719 364.651 105.073 365.45 105.073 366.876C105.073 368.21 105.652 369.1 106.688 369.1ZM106.688 368.655C106.06 368.655 105.64 368.088 105.64 366.876C105.64 365.809 105.975 365.096 106.688 365.096C107.316 365.096 107.736 365.663 107.736 366.876C107.736 367.942 107.401 368.655 106.688 368.655ZM110.583 369.1C111.552 369.1 112.198 368.302 112.198 366.876C112.198 365.541 111.619 364.651 110.583 364.651C109.614 364.651 108.968 365.45 108.968 366.876C108.968 368.21 109.547 369.1 110.583 369.1ZM110.583 368.655C109.956 368.655 109.535 368.088 109.535 366.876C109.535 365.809 109.87 365.096 110.583 365.096C111.211 365.096 111.632 365.663 111.632 366.876C111.632 367.942 111.296 368.655 110.583 368.655ZM113.504 369.039V367.918L113.943 367.509L115.296 369.039H115.966L114.309 367.162L115.711 365.84H115.04L113.517 367.278H113.492C113.492 367.278 113.504 367.15 113.504 366.601V364.59H112.999V369.039H113.504Z" fill="#222222"/>
<line x1="630.484" y1="396.318" x2="124.155" y2="396.318" stroke="#DFE2E6" stroke-width="0.507853" stroke-dasharray="3.05 3.05"/>
<path d="M96.858 397.092V396.648H95.1821V397.092H96.858ZM97.9009 398.494V396.928H97.4256V396.538H97.9009V396.038H97.4256V395.648H97.9009V394.143H98.5347L99.1137 395.648H99.8328V394.143H100.314V395.648H100.79V396.038H100.314V396.538H100.79V396.928H100.314V398.494H99.6744L99.0954 396.928H98.3763V398.494H97.9009ZM98.3641 395.648H98.6201L98.3641 394.892H98.3397L98.3641 395.648ZM98.3763 396.538H98.9492L98.7663 396.038H98.3641L98.3763 396.538ZM99.4367 396.538H99.845L99.8328 396.038H99.2539L99.4367 396.538ZM99.8328 397.635H99.8572L99.8389 396.928H99.583L99.8328 397.635ZM103.816 398.494V397.489H104.517V397.001H103.816V394.167H103.249L101.147 397.001V397.489H103.31V398.494H103.816ZM101.695 396.977C101.695 396.977 101.762 396.928 101.933 396.696L102.975 395.295C103.255 394.917 103.286 394.838 103.286 394.838H103.31V397.001H101.695V396.977ZM106.688 398.555C107.657 398.555 108.303 397.757 108.303 396.331C108.303 394.996 107.724 394.106 106.688 394.106C105.719 394.106 105.073 394.905 105.073 396.331C105.073 397.665 105.652 398.555 106.688 398.555ZM106.688 398.11C106.06 398.11 105.64 397.543 105.64 396.331C105.64 395.264 105.975 394.551 106.688 394.551C107.316 394.551 107.736 395.118 107.736 396.331C107.736 397.397 107.401 398.11 106.688 398.11ZM110.583 398.555C111.552 398.555 112.198 397.757 112.198 396.331C112.198 394.996 111.619 394.106 110.583 394.106C109.614 394.106 108.968 394.905 108.968 396.331C108.968 397.665 109.547 398.555 110.583 398.555ZM110.583 398.11C109.956 398.11 109.535 397.543 109.535 396.331C109.535 395.264 109.87 394.551 110.583 394.551C111.211 394.551 111.632 395.118 111.632 396.331C111.632 397.397 111.296 398.11 110.583 398.11ZM113.504 398.494V397.373L113.943 396.964L115.296 398.494H115.966L114.309 396.617L115.711 395.295H115.04L113.517 396.733H113.492C113.492 396.733 113.504 396.605 113.504 396.056V394.045H112.999V398.494H113.504Z" fill="#222222"/>
<path d="M135.043 415.821C135.854 415.821 136.384 415.382 136.384 414.45V411.311H135.835V414.45C135.835 415.053 135.524 415.333 135.043 415.333C134.513 415.333 134.226 414.943 134.226 414.358V414.114H133.678V414.358C133.678 415.351 134.226 415.821 135.043 415.821ZM138.354 415.821C138.818 415.821 139.244 415.626 139.378 415.333H139.403C139.403 415.333 139.409 415.62 139.5 415.76H140.036V415.735C139.963 415.571 139.908 415.412 139.908 415.15V413.755C139.908 412.999 139.458 412.499 138.653 412.499C137.891 412.499 137.379 412.883 137.361 413.566H137.897C137.91 413.182 138.123 412.926 138.653 412.926C139.104 412.926 139.403 413.176 139.403 413.81L138.653 413.864C137.867 413.919 137.233 414.108 137.233 414.852C137.233 415.431 137.684 415.821 138.354 415.821ZM138.495 415.394C138.098 415.394 137.782 415.187 137.782 414.852C137.782 414.523 138.038 414.358 138.653 414.291L139.403 414.212V414.48C139.403 414.925 139.141 415.394 138.495 415.394ZM141.405 415.76V414.084C141.405 413.389 141.728 412.926 142.301 412.926C142.746 412.926 143.045 413.182 143.045 413.73V415.76H143.551V413.73C143.551 412.993 143.185 412.499 142.429 412.499C141.99 412.499 141.6 412.676 141.43 412.987H141.405V412.56H140.9V415.76H141.405Z" fill="#222222"/>
<path d="M177.799 415.76V413.736H179.993V413.249H177.799V411.799H180.145V411.311H177.25V415.76H177.799ZM182.188 415.821C182.895 415.821 183.443 415.4 183.565 414.766H183.059C182.913 415.193 182.675 415.394 182.188 415.394C181.609 415.394 181.219 414.949 181.219 414.279H183.614C183.62 414.175 183.62 414.084 183.62 414.035C183.62 413.115 183.035 412.499 182.164 412.499C181.268 412.499 180.67 413.158 180.67 414.151C180.67 415.15 181.28 415.821 182.188 415.821ZM181.219 413.864C181.262 413.304 181.627 412.926 182.164 412.926C182.694 412.926 183.029 413.304 183.053 413.864H181.219ZM185.95 415.821C186.785 415.821 187.339 415.15 187.339 414.145C187.339 413.158 186.779 412.499 185.938 412.499C185.529 412.499 185.139 412.676 184.951 412.987H184.926C184.938 412.426 184.938 411.311 184.938 411.311H184.433V415.76H184.938V415.333H184.963C185.152 415.626 185.517 415.821 185.95 415.821ZM185.877 415.394C185.316 415.394 184.938 414.943 184.938 414.145C184.938 413.413 185.274 412.926 185.865 412.926C186.419 412.926 186.791 413.413 186.791 414.145C186.791 414.894 186.425 415.394 185.877 415.394Z" fill="#222222"/>
<path d="M220.697 415.76V411.829H220.721C220.721 411.829 220.758 412.042 220.989 412.67L222.123 415.76H222.793L223.939 412.67C224.171 412.042 224.207 411.829 224.207 411.829H224.232V415.76H224.78V411.311H223.866L222.708 414.492C222.495 415.077 222.476 415.211 222.476 415.211H222.452C222.452 415.211 222.434 415.077 222.227 414.492L221.093 411.311H220.148V415.76H220.697ZM226.791 415.821C227.254 415.821 227.681 415.626 227.815 415.333H227.84C227.84 415.333 227.846 415.62 227.937 415.76H228.473V415.735C228.4 415.571 228.345 415.412 228.345 415.15V413.755C228.345 412.999 227.894 412.499 227.09 412.499C226.328 412.499 225.816 412.883 225.798 413.566H226.334C226.346 413.182 226.56 412.926 227.09 412.926C227.541 412.926 227.84 413.176 227.84 413.81L227.09 413.864C226.304 413.919 225.67 414.108 225.67 414.852C225.67 415.431 226.121 415.821 226.791 415.821ZM226.932 415.394C226.535 415.394 226.218 415.187 226.218 414.852C226.218 414.523 226.474 414.358 227.09 414.291L227.84 414.212V414.48C227.84 414.925 227.577 415.394 226.932 415.394ZM229.842 415.76V414.194C229.842 413.505 230.049 413.048 230.866 413.048C231.043 413.048 231.153 413.066 231.153 413.066H231.171V412.56C231.171 412.56 231.079 412.53 230.933 412.53C230.281 412.53 230.019 412.81 229.867 413.139H229.842V412.56H229.336V415.76H229.842Z" fill="#222222"/>
<path d="M263.486 415.76L263.997 414.462H266.1L266.612 415.76H267.221L265.363 411.311H264.741L262.907 415.76H263.486ZM264.875 412.256C265.033 411.853 265.033 411.799 265.033 411.799H265.058C265.058 411.799 265.064 411.853 265.222 412.256L265.905 413.974H264.192L264.875 412.256ZM268.282 416.948C268.282 416.948 268.282 415.626 268.257 415.333H268.282C268.458 415.626 268.879 415.821 269.299 415.821C270.128 415.821 270.683 415.163 270.683 414.175C270.683 413.17 270.134 412.499 269.311 412.499C268.897 412.499 268.495 412.694 268.306 412.987H268.282V412.56H267.776V416.948H268.282ZM269.208 415.394C268.653 415.394 268.282 414.955 268.282 414.175C268.282 413.426 268.617 412.926 269.22 412.926C269.769 412.926 270.134 413.426 270.134 414.175C270.134 414.907 269.762 415.394 269.208 415.394ZM271.998 415.76V414.194C271.998 413.505 272.206 413.048 273.022 413.048C273.199 413.048 273.309 413.066 273.309 413.066H273.327V412.56C273.327 412.56 273.236 412.53 273.089 412.53C272.437 412.53 272.175 412.81 272.023 413.139H271.998V412.56H271.493V415.76H271.998Z" fill="#222222"/>
<path d="M306.349 415.76V411.829H306.373C306.373 411.829 306.409 412.042 306.641 412.67L307.775 415.76H308.445L309.591 412.67C309.822 412.042 309.859 411.829 309.859 411.829H309.883V415.76H310.432V411.311H309.518L308.36 414.492C308.146 415.077 308.128 415.211 308.128 415.211H308.104C308.104 415.211 308.085 415.077 307.878 414.492L306.745 411.311H305.8V415.76H306.349ZM312.443 415.821C312.906 415.821 313.333 415.626 313.467 415.333H313.491C313.491 415.333 313.497 415.62 313.589 415.76H314.125V415.735C314.052 415.571 313.997 415.412 313.997 415.15V413.755C313.997 412.999 313.546 412.499 312.742 412.499C311.98 412.499 311.468 412.883 311.45 413.566H311.986C311.998 413.182 312.211 412.926 312.742 412.926C313.192 412.926 313.491 413.176 313.491 413.81L312.742 413.864C311.955 413.919 311.322 414.108 311.322 414.852C311.322 415.431 311.773 415.821 312.443 415.821ZM312.583 415.394C312.187 415.394 311.87 415.187 311.87 414.852C311.87 414.523 312.126 414.358 312.742 414.291L313.491 414.212V414.48C313.491 414.925 313.229 415.394 312.583 415.394ZM315.216 416.979C315.74 416.979 315.978 416.717 316.179 416.186L317.538 412.56H317.02L316.362 414.328C316.094 415.053 316.076 415.15 316.076 415.15H316.051C316.051 415.15 316.039 415.059 315.765 414.328L315.101 412.56H314.522L315.82 415.76L315.71 416.095C315.631 416.345 315.552 416.491 315.18 416.491C315.107 416.491 314.954 416.485 314.771 416.412V416.899C314.899 416.942 315.027 416.979 315.216 416.979Z" fill="#222222"/>
<path d="M350.897 415.821C351.707 415.821 352.238 415.382 352.238 414.45V411.311H351.689V414.45C351.689 415.053 351.378 415.333 350.897 415.333C350.367 415.333 350.08 414.943 350.08 414.358V414.114H349.532V414.358C349.532 415.351 350.08 415.821 350.897 415.821ZM354.269 415.821C354.708 415.821 355.068 415.644 355.238 415.333H355.263V415.76H355.768V412.56H355.263V414.236C355.263 414.931 354.97 415.394 354.397 415.394C353.952 415.394 353.684 415.138 353.684 414.59V412.56H353.178V414.59C353.178 415.327 353.513 415.821 354.269 415.821ZM357.241 415.76V414.084C357.241 413.389 357.564 412.926 358.137 412.926C358.582 412.926 358.881 413.182 358.881 413.73V415.76H359.386V413.73C359.386 412.993 359.021 412.499 358.265 412.499C357.826 412.499 357.436 412.676 357.266 412.987H357.241V412.56H356.735V415.76H357.241Z" fill="#222222"/>
<path d="M394.134 415.821C394.945 415.821 395.475 415.382 395.475 414.45V411.311H394.926V414.45C394.926 415.053 394.616 415.333 394.134 415.333C393.604 415.333 393.318 414.943 393.318 414.358V414.114H392.769V414.358C392.769 415.351 393.318 415.821 394.134 415.821ZM397.507 415.821C397.945 415.821 398.305 415.644 398.476 415.333H398.5V415.76H399.006V412.56H398.5V414.236C398.5 414.931 398.207 415.394 397.635 415.394C397.19 415.394 396.922 415.138 396.922 414.59V412.56H396.416V414.59C396.416 415.327 396.751 415.821 397.507 415.821ZM400.479 415.76V411.311H399.973V415.76H400.479Z" fill="#222222"/>
<path d="M434.775 415.76L435.287 414.462H437.389L437.901 415.76H438.511L436.652 411.311H436.03L434.196 415.76H434.775ZM436.164 412.256C436.323 411.853 436.323 411.799 436.323 411.799H436.347C436.347 411.799 436.353 411.853 436.512 412.256L437.194 413.974H435.482L436.164 412.256ZM439.994 415.821C440.433 415.821 440.793 415.644 440.963 415.333H440.988V415.76H441.493V412.56H440.988V414.236C440.988 414.931 440.695 415.394 440.122 415.394C439.677 415.394 439.409 415.138 439.409 414.59V412.56H438.903V414.59C438.903 415.327 439.238 415.821 439.994 415.821ZM443.807 416.948C444.636 416.948 445.191 416.491 445.191 415.668V412.56H444.685V412.987H444.66C444.496 412.694 444.124 412.499 443.722 412.499C442.875 412.499 442.308 413.133 442.308 414.084C442.308 415.053 442.869 415.699 443.71 415.699C444.118 415.699 444.502 415.504 444.66 415.211H444.685V415.638C444.685 416.156 444.405 416.522 443.807 416.522C443.326 416.522 442.985 416.29 442.96 415.882H442.412C442.442 416.522 442.948 416.948 443.807 416.948ZM443.759 415.272C443.216 415.272 442.85 414.797 442.85 414.084C442.85 413.389 443.216 412.926 443.771 412.926C444.319 412.926 444.685 413.304 444.685 414.114C444.685 414.809 444.386 415.272 443.759 415.272Z" fill="#222222"/>
<path d="M479.524 415.821C480.505 415.821 481.169 415.266 481.169 414.51C481.169 413.554 480.548 413.45 479.402 413.225C478.841 413.115 478.531 412.938 478.531 412.469C478.531 412.03 478.89 411.738 479.524 411.738C480.133 411.738 480.542 412.061 480.548 412.627H481.127C481.127 411.799 480.548 411.25 479.524 411.25C478.573 411.25 477.952 411.799 477.952 412.56C477.952 413.139 478.262 413.56 479.219 413.749C480.146 413.931 480.56 414.011 480.56 414.571C480.56 415.01 480.133 415.333 479.524 415.333C478.854 415.333 478.421 414.955 478.427 414.279H477.848C477.848 415.205 478.5 415.821 479.524 415.821ZM483.344 415.821C484.051 415.821 484.6 415.4 484.721 414.766H484.216C484.069 415.193 483.832 415.394 483.344 415.394C482.765 415.394 482.375 414.949 482.375 414.279H484.77C484.776 414.175 484.776 414.084 484.776 414.035C484.776 413.115 484.191 412.499 483.32 412.499C482.424 412.499 481.827 413.158 481.827 414.151C481.827 415.15 482.436 415.821 483.344 415.821ZM482.375 413.864C482.418 413.304 482.784 412.926 483.32 412.926C483.85 412.926 484.185 413.304 484.21 413.864H482.375ZM486.095 416.948C486.095 416.948 486.095 415.626 486.07 415.333H486.095C486.271 415.626 486.692 415.821 487.112 415.821C487.941 415.821 488.496 415.163 488.496 414.175C488.496 413.17 487.947 412.499 487.125 412.499C486.71 412.499 486.308 412.694 486.119 412.987H486.095V412.56H485.589V416.948H486.095ZM487.021 415.394C486.466 415.394 486.095 414.955 486.095 414.175C486.095 413.426 486.43 412.926 487.033 412.926C487.582 412.926 487.947 413.426 487.947 414.175C487.947 414.907 487.576 415.394 487.021 415.394Z" fill="#222222"/>
<path d="M523.549 415.821C524.737 415.821 525.529 414.907 525.529 413.535C525.529 412.164 524.737 411.25 523.549 411.25C522.36 411.25 521.568 412.164 521.568 413.535C521.568 414.907 522.36 415.821 523.549 415.821ZM523.549 415.333C522.707 415.333 522.147 414.614 522.147 413.535C522.147 412.457 522.707 411.738 523.549 411.738C524.39 411.738 524.95 412.457 524.95 413.535C524.95 414.614 524.39 415.333 523.549 415.333ZM527.718 415.821C528.474 415.821 529.041 415.351 529.102 414.718H528.553C528.486 415.126 528.181 415.394 527.718 415.394C527.139 415.394 526.755 414.943 526.755 414.145C526.755 413.413 527.109 412.926 527.73 412.926C528.157 412.926 528.48 413.17 528.553 413.596H529.102C529.041 412.963 528.462 412.499 527.73 412.499C526.816 412.499 526.207 413.158 526.207 414.145C526.207 415.15 526.749 415.821 527.718 415.821ZM530.878 415.79C531.012 415.79 531.104 415.778 531.195 415.76V415.303C531.165 415.309 531.098 415.315 531.031 415.315C530.634 415.315 530.592 415.23 530.592 414.955V413.005H531.195V412.56H530.592V411.646H530.086V412.56H529.568V413.005H530.086V415.083C530.086 415.589 530.36 415.79 530.878 415.79Z" fill="#222222"/>
<path d="M564.553 415.76V411.829H564.577C564.577 411.829 564.614 411.981 565.034 412.719L566.777 415.76H567.6V411.311H567.052V415.211H567.027C567.027 415.211 567.009 415.126 566.552 414.322L564.827 411.311H564.004V415.76H564.553ZM570.014 415.821C570.934 415.821 571.556 415.156 571.556 414.157C571.556 413.158 570.934 412.499 570.014 412.499C569.094 412.499 568.472 413.158 568.472 414.157C568.472 415.156 569.094 415.821 570.014 415.821ZM570.014 415.394C569.417 415.394 569.021 414.949 569.021 414.157C569.021 413.42 569.38 412.926 570.014 412.926C570.611 412.926 571.007 413.371 571.007 414.157C571.007 414.9 570.648 415.394 570.014 415.394ZM573.806 415.76L575.025 412.56H574.476L573.867 414.236C573.532 415.15 573.507 415.254 573.507 415.254H573.483C573.483 415.254 573.459 415.15 573.111 414.236L572.471 412.56H571.905L573.178 415.76H573.806Z" fill="#222222"/>
<path d="M612.395 415.76C613.663 415.76 614.4 414.797 614.4 413.505C614.4 412.213 613.663 411.311 612.395 411.311H610.804V415.76H612.395ZM611.353 411.799H612.395C613.321 411.799 613.821 412.426 613.821 413.505C613.821 414.584 613.321 415.272 612.395 415.272H611.353V411.799ZM616.563 415.821C617.27 415.821 617.819 415.4 617.941 414.766H617.435C617.289 415.193 617.051 415.394 616.563 415.394C615.985 415.394 615.594 414.949 615.594 414.279H617.99C617.996 414.175 617.996 414.084 617.996 414.035C617.996 413.115 617.411 412.499 616.539 412.499C615.643 412.499 615.046 413.158 615.046 414.151C615.046 415.15 615.655 415.821 616.563 415.821ZM615.594 413.864C615.637 413.304 616.003 412.926 616.539 412.926C617.069 412.926 617.404 413.304 617.429 413.864H615.594ZM620.167 415.821C620.923 415.821 621.49 415.351 621.551 414.718H621.002C620.935 415.126 620.63 415.394 620.167 415.394C619.588 415.394 619.204 414.943 619.204 414.145C619.204 413.413 619.558 412.926 620.179 412.926C620.606 412.926 620.929 413.17 621.002 413.596H621.551C621.49 412.963 620.911 412.499 620.179 412.499C619.265 412.499 618.656 413.158 618.656 414.145C618.656 415.15 619.198 415.821 620.167 415.821Z" fill="#222222"/>
<path d="M502.566 448.912V453.344H502.029V448.912H502.566ZM504.083 451.344V453.344H503.572V450.02H504.066V450.539H504.109C504.187 450.37 504.305 450.235 504.464 450.132C504.623 450.028 504.828 449.976 505.079 449.976C505.304 449.976 505.501 450.023 505.67 450.115C505.838 450.206 505.97 450.344 506.063 450.53C506.157 450.715 506.204 450.949 506.204 451.232V453.344H505.693V451.266C505.693 451.005 505.626 450.802 505.49 450.656C505.354 450.509 505.168 450.435 504.932 450.435C504.769 450.435 504.623 450.47 504.494 450.541C504.367 450.612 504.267 450.715 504.194 450.851C504.12 450.986 504.083 451.151 504.083 451.344ZM508.488 453.413C508.176 453.413 507.908 453.339 507.683 453.192C507.458 453.045 507.285 452.842 507.163 452.584C507.042 452.326 506.982 452.031 506.982 451.699C506.982 451.361 507.044 451.063 507.168 450.805C507.293 450.546 507.468 450.343 507.691 450.197C507.916 450.05 508.179 449.976 508.479 449.976C508.713 449.976 508.924 450.02 509.111 450.106C509.299 450.193 509.452 450.314 509.572 450.47C509.692 450.626 509.766 450.807 509.795 451.015H509.284C509.245 450.864 509.159 450.729 509.025 450.613C508.892 450.494 508.713 450.435 508.488 450.435C508.289 450.435 508.114 450.487 507.964 450.591C507.815 450.693 507.699 450.838 507.616 451.026C507.533 451.212 507.492 451.431 507.492 451.682C507.492 451.938 507.533 452.162 507.613 452.353C507.696 452.543 507.811 452.691 507.96 452.796C508.11 452.902 508.286 452.954 508.488 452.954C508.621 452.954 508.741 452.931 508.849 452.885C508.957 452.839 509.049 452.772 509.124 452.686C509.199 452.599 509.252 452.495 509.284 452.374H509.795C509.766 452.57 509.695 452.747 509.581 452.904C509.468 453.06 509.319 453.184 509.133 453.277C508.948 453.368 508.733 453.413 508.488 453.413ZM511.892 453.413C511.592 453.413 511.329 453.342 511.102 453.199C510.877 453.056 510.701 452.856 510.574 452.599C510.449 452.342 510.386 452.042 510.386 451.699C510.386 451.353 510.449 451.05 510.574 450.792C510.701 450.534 510.877 450.333 511.102 450.191C511.329 450.048 511.592 449.976 511.892 449.976C512.192 449.976 512.455 450.048 512.68 450.191C512.906 450.333 513.082 450.534 513.208 450.792C513.335 451.05 513.398 451.353 513.398 451.699C513.398 452.042 513.335 452.342 513.208 452.599C513.082 452.856 512.906 453.056 512.68 453.199C512.455 453.342 512.192 453.413 511.892 453.413ZM511.892 452.954C512.12 452.954 512.308 452.896 512.455 452.779C512.602 452.662 512.711 452.508 512.781 452.318C512.852 452.127 512.888 451.921 512.888 451.699C512.888 451.477 512.852 451.27 512.781 451.078C512.711 450.886 512.602 450.731 512.455 450.613C512.308 450.494 512.12 450.435 511.892 450.435C511.664 450.435 511.476 450.494 511.329 450.613C511.182 450.731 511.073 450.886 511.003 451.078C510.932 451.27 510.896 451.477 510.896 451.699C510.896 451.921 510.932 452.127 511.003 452.318C511.073 452.508 511.182 452.662 511.329 452.779C511.476 452.896 511.664 452.954 511.892 452.954ZM514.178 453.344V450.02H514.671V450.539H514.715C514.784 450.362 514.896 450.224 515.05 450.126C515.204 450.026 515.39 449.976 515.606 449.976C515.826 449.976 516.008 450.026 516.154 450.126C516.301 450.224 516.416 450.362 516.498 450.539H516.532C516.618 450.367 516.745 450.231 516.916 450.13C517.086 450.028 517.29 449.976 517.528 449.976C517.825 449.976 518.068 450.069 518.257 450.256C518.446 450.44 518.541 450.728 518.541 451.119V453.344H518.03V451.119C518.03 450.874 517.963 450.698 517.829 450.593C517.695 450.488 517.537 450.435 517.355 450.435C517.121 450.435 516.94 450.506 516.812 450.647C516.683 450.787 516.619 450.965 516.619 451.18V453.344H516.1V451.067C516.1 450.878 516.038 450.726 515.916 450.61C515.793 450.494 515.635 450.435 515.442 450.435C515.309 450.435 515.185 450.47 515.07 450.541C514.956 450.612 514.863 450.71 514.793 450.836C514.723 450.96 514.689 451.103 514.689 451.266V453.344H514.178ZM520.868 453.413C520.548 453.413 520.272 453.342 520.039 453.201C519.809 453.058 519.63 452.859 519.505 452.604C519.381 452.347 519.319 452.048 519.319 451.708C519.319 451.367 519.381 451.067 519.505 450.807C519.63 450.546 519.805 450.343 520.029 450.197C520.254 450.05 520.516 449.976 520.816 449.976C520.99 449.976 521.161 450.005 521.329 450.063C521.498 450.121 521.652 450.214 521.79 450.344C521.929 450.473 522.039 450.643 522.121 450.855C522.204 451.067 522.245 451.328 522.245 451.638V451.855H519.682V451.413H521.725C521.725 451.226 521.688 451.058 521.613 450.911C521.539 450.764 521.434 450.648 521.297 450.563C521.161 450.478 521.001 450.435 520.816 450.435C520.613 450.435 520.437 450.486 520.288 450.587C520.141 450.686 520.028 450.816 519.949 450.976C519.869 451.136 519.83 451.308 519.83 451.491V451.786C519.83 452.037 519.873 452.249 519.959 452.424C520.047 452.597 520.169 452.729 520.325 452.82C520.481 452.909 520.662 452.954 520.868 452.954C521.003 452.954 521.124 452.935 521.232 452.898C521.342 452.859 521.436 452.801 521.515 452.725C521.595 452.647 521.656 452.55 521.699 452.435L522.193 452.573C522.141 452.741 522.054 452.888 521.931 453.015C521.808 453.14 521.657 453.238 521.476 453.309C521.296 453.378 521.093 453.413 520.868 453.413Z" fill="#5C7187"/>
<circle cx="495.399" cy="451.423" r="2.03141" fill="#25D1A2"/>
<path d="M543.672 454.106V449.673H546.347V450.149H544.209V451.647H546.209V452.123H544.209V453.629H546.382V454.106H543.672ZM547.626 450.781L548.423 452.14L549.219 450.781H549.808L548.734 452.443L549.808 454.106H549.219L548.423 452.816L547.626 454.106H547.038L548.094 452.443L547.038 450.781H547.626ZM550.537 455.352V450.781H551.03V451.309H551.091C551.128 451.252 551.18 451.178 551.246 451.089C551.314 450.998 551.411 450.917 551.536 450.846C551.663 450.774 551.835 450.738 552.051 450.738C552.331 450.738 552.578 450.808 552.792 450.948C553.005 451.088 553.172 451.286 553.292 451.543C553.411 451.8 553.471 452.103 553.471 452.452C553.471 452.804 553.411 453.109 553.292 453.368C553.172 453.624 553.006 453.823 552.794 453.965C552.582 454.105 552.337 454.175 552.06 454.175C551.847 454.175 551.676 454.139 551.547 454.069C551.419 453.997 551.32 453.915 551.251 453.824C551.182 453.732 551.128 453.655 551.091 453.595H551.047V455.352H550.537ZM551.039 452.443C551.039 452.695 551.075 452.916 551.149 453.108C551.223 453.298 551.33 453.448 551.471 453.556C551.613 453.663 551.786 453.716 551.991 453.716C552.204 453.716 552.383 453.66 552.525 453.547C552.67 453.433 552.778 453.28 552.85 453.088C552.924 452.895 552.96 452.68 552.96 452.443C552.96 452.21 552.924 451.999 552.852 451.812C552.782 451.623 552.674 451.473 552.53 451.364C552.387 451.252 552.207 451.197 551.991 451.197C551.783 451.197 551.609 451.25 551.467 451.355C551.326 451.459 551.219 451.604 551.147 451.792C551.075 451.978 551.039 452.195 551.039 452.443ZM555.644 454.175C555.324 454.175 555.047 454.104 554.815 453.963C554.584 453.82 554.406 453.621 554.281 453.365C554.156 453.109 554.094 452.81 554.094 452.469C554.094 452.129 554.156 451.829 554.281 451.569C554.406 451.308 554.581 451.105 554.804 450.959C555.029 450.812 555.292 450.738 555.592 450.738C555.765 450.738 555.936 450.767 556.105 450.825C556.274 450.882 556.427 450.976 556.566 451.106C556.704 451.234 556.815 451.405 556.897 451.617C556.979 451.829 557.02 452.09 557.02 452.4V452.617H554.458V452.175H556.501C556.501 451.988 556.463 451.82 556.388 451.673C556.315 451.526 556.21 451.41 556.072 451.325C555.937 451.239 555.777 451.197 555.592 451.197C555.389 451.197 555.213 451.247 555.064 451.348C554.917 451.448 554.804 451.578 554.724 451.738C554.645 451.898 554.605 452.07 554.605 452.253V452.547C554.605 452.798 554.648 453.011 554.735 453.186C554.823 453.359 554.945 453.491 555.101 453.582C555.257 453.671 555.438 453.716 555.644 453.716C555.778 453.716 555.899 453.697 556.008 453.66C556.117 453.621 556.212 453.563 556.291 453.487C556.37 453.409 556.432 453.312 556.475 453.197L556.968 453.335C556.916 453.502 556.829 453.65 556.707 453.777C556.584 453.902 556.432 454 556.252 454.071C556.072 454.14 555.869 454.175 555.644 454.175ZM558.308 452.106V454.106H557.797V450.781H558.291V451.301H558.334C558.412 451.132 558.53 450.996 558.689 450.894C558.848 450.79 559.053 450.738 559.304 450.738C559.529 450.738 559.726 450.784 559.894 450.877C560.063 450.968 560.194 451.106 560.288 451.292C560.382 451.477 560.429 451.711 560.429 451.993V454.106H559.918V452.028C559.918 451.767 559.85 451.563 559.715 451.418C559.579 451.27 559.393 451.197 559.156 451.197C558.993 451.197 558.848 451.232 558.719 451.303C558.592 451.374 558.492 451.477 558.418 451.612C558.345 451.748 558.308 451.913 558.308 452.106ZM563.717 451.526L563.258 451.656C563.229 451.579 563.187 451.505 563.13 451.433C563.075 451.359 563 451.299 562.905 451.251C562.81 451.203 562.688 451.18 562.539 451.18C562.336 451.18 562.167 451.226 562.031 451.32C561.897 451.413 561.83 451.53 561.83 451.673C561.83 451.8 561.876 451.9 561.968 451.974C562.06 452.047 562.205 452.109 562.401 452.158L562.894 452.279C563.192 452.351 563.413 452.461 563.559 452.61C563.705 452.757 563.777 452.947 563.777 453.179C563.777 453.37 563.723 453.54 563.613 453.69C563.505 453.84 563.353 453.958 563.158 454.045C562.964 454.131 562.737 454.175 562.479 454.175C562.14 454.175 561.859 454.101 561.637 453.954C561.415 453.807 561.274 453.592 561.215 453.309L561.7 453.188C561.746 453.367 561.833 453.501 561.962 453.59C562.092 453.68 562.261 453.725 562.47 453.725C562.708 453.725 562.897 453.674 563.037 453.573C563.179 453.471 563.249 453.348 563.249 453.205C563.249 453.09 563.209 452.993 563.128 452.915C563.047 452.836 562.923 452.777 562.756 452.738L562.202 452.608C561.897 452.536 561.674 452.424 561.531 452.272C561.39 452.12 561.319 451.928 561.319 451.699C561.319 451.511 561.372 451.346 561.477 451.201C561.584 451.057 561.729 450.944 561.912 450.861C562.097 450.779 562.306 450.738 562.539 450.738C562.868 450.738 563.127 450.81 563.314 450.955C563.503 451.099 563.637 451.289 563.717 451.526ZM565.94 454.175C565.62 454.175 565.343 454.104 565.111 453.963C564.88 453.82 564.702 453.621 564.576 453.365C564.452 453.109 564.39 452.81 564.39 452.469C564.39 452.129 564.452 451.829 564.576 451.569C564.702 451.308 564.877 451.105 565.1 450.959C565.325 450.812 565.588 450.738 565.888 450.738C566.061 450.738 566.232 450.767 566.401 450.825C566.57 450.882 566.723 450.976 566.862 451.106C567 451.234 567.111 451.405 567.193 451.617C567.275 451.829 567.316 452.09 567.316 452.4V452.617H564.754V452.175H566.797C566.797 451.988 566.759 451.82 566.684 451.673C566.611 451.526 566.505 451.41 566.368 451.325C566.233 451.239 566.073 451.197 565.888 451.197C565.685 451.197 565.509 451.247 565.36 451.348C565.213 451.448 565.099 451.578 565.02 451.738C564.941 451.898 564.901 452.07 564.901 452.253V452.547C564.901 452.798 564.944 453.011 565.031 453.186C565.119 453.359 565.241 453.491 565.397 453.582C565.553 453.671 565.734 453.716 565.94 453.716C566.074 453.716 566.195 453.697 566.303 453.66C566.413 453.621 566.508 453.563 566.587 453.487C566.666 453.409 566.728 453.312 566.771 453.197L567.264 453.335C567.212 453.502 567.125 453.65 567.003 453.777C566.88 453.902 566.728 454 566.548 454.071C566.368 454.14 566.165 454.175 565.94 454.175ZM570.448 451.526L569.989 451.656C569.96 451.579 569.918 451.505 569.861 451.433C569.807 451.359 569.731 451.299 569.636 451.251C569.541 451.203 569.419 451.18 569.271 451.18C569.067 451.18 568.898 451.226 568.762 451.32C568.628 451.413 568.561 451.53 568.561 451.673C568.561 451.8 568.607 451.9 568.699 451.974C568.792 452.047 568.936 452.109 569.132 452.158L569.625 452.279C569.923 452.351 570.144 452.461 570.29 452.61C570.436 452.757 570.508 452.947 570.508 453.179C570.508 453.37 570.454 453.54 570.344 453.69C570.236 453.84 570.084 453.958 569.889 454.045C569.695 454.131 569.468 454.175 569.21 454.175C568.871 454.175 568.59 454.101 568.368 453.954C568.146 453.807 568.005 453.592 567.946 453.309L568.431 453.188C568.477 453.367 568.564 453.501 568.693 453.59C568.823 453.68 568.992 453.725 569.201 453.725C569.439 453.725 569.628 453.674 569.768 453.573C569.91 453.471 569.98 453.348 569.98 453.205C569.98 453.09 569.94 452.993 569.859 452.915C569.778 452.836 569.654 452.777 569.487 452.738L568.933 452.608C568.629 452.536 568.405 452.424 568.262 452.272C568.121 452.12 568.05 451.928 568.05 451.699C568.05 451.511 568.103 451.346 568.208 451.201C568.315 451.057 568.46 450.944 568.643 450.861C568.828 450.779 569.037 450.738 569.271 450.738C569.599 450.738 569.858 450.81 570.045 450.955C570.234 451.099 570.368 451.289 570.448 451.526Z" fill="#5C7187"/>
<circle cx="537.042" cy="451.168" r="2.03141" fill="#FF4560"/>
<path d="M591.918 453.344V448.912H593.467C593.776 448.912 594.03 448.965 594.231 449.072C594.432 449.177 594.581 449.319 594.679 449.498C594.777 449.676 594.826 449.872 594.826 450.089C594.826 450.279 594.792 450.437 594.724 450.561C594.658 450.685 594.57 450.783 594.46 450.855C594.352 450.927 594.235 450.981 594.108 451.015V451.058C594.243 451.067 594.38 451.115 594.517 451.201C594.654 451.288 594.768 451.412 594.861 451.573C594.953 451.735 594.999 451.933 594.999 452.166C594.999 452.389 594.949 452.588 594.848 452.766C594.747 452.943 594.587 453.084 594.37 453.188C594.152 453.292 593.868 453.344 593.519 453.344H591.918ZM592.454 452.868H593.519C593.87 452.868 594.119 452.8 594.266 452.664C594.414 452.527 594.489 452.361 594.489 452.166C594.489 452.016 594.45 451.878 594.374 451.751C594.297 451.623 594.188 451.52 594.047 451.444C593.906 451.366 593.738 451.327 593.545 451.327H592.454V452.868ZM592.454 450.859H593.45C593.611 450.859 593.757 450.828 593.887 450.764C594.018 450.701 594.122 450.611 594.199 450.496C594.276 450.38 594.315 450.245 594.315 450.089C594.315 449.894 594.248 449.729 594.112 449.593C593.976 449.456 593.761 449.388 593.467 449.388H592.454V450.859ZM596.79 453.422C596.58 453.422 596.388 453.382 596.217 453.303C596.045 453.222 595.909 453.106 595.808 452.954C595.707 452.801 595.656 452.617 595.656 452.4C595.656 452.21 595.694 452.055 595.769 451.937C595.844 451.817 595.944 451.724 596.069 451.656C596.195 451.588 596.334 451.537 596.485 451.504C596.638 451.47 596.792 451.442 596.946 451.422C597.148 451.396 597.312 451.377 597.437 451.364C597.564 451.349 597.657 451.325 597.714 451.292C597.773 451.259 597.803 451.201 597.803 451.119V451.102C597.803 450.888 597.745 450.722 597.628 450.604C597.512 450.486 597.337 450.426 597.102 450.426C596.858 450.426 596.667 450.48 596.528 450.587C596.39 450.693 596.292 450.807 596.236 450.929L595.751 450.755C595.838 450.553 595.953 450.396 596.098 450.284C596.243 450.17 596.402 450.09 596.574 450.046C596.747 449.999 596.917 449.976 597.084 449.976C597.191 449.976 597.314 449.989 597.452 450.015C597.592 450.04 597.727 450.091 597.857 450.169C597.988 450.247 598.097 450.364 598.184 450.522C598.27 450.679 598.314 450.89 598.314 451.154V453.344H597.803V452.894H597.777C597.742 452.966 597.685 453.043 597.604 453.125C597.523 453.207 597.416 453.277 597.281 453.335C597.147 453.393 596.983 453.422 596.79 453.422ZM596.868 452.963C597.07 452.963 597.24 452.923 597.379 452.844C597.519 452.764 597.624 452.662 597.695 452.537C597.767 452.411 597.803 452.279 597.803 452.14V451.673C597.781 451.699 597.734 451.723 597.66 451.744C597.588 451.765 597.504 451.783 597.409 451.799C597.315 451.813 597.224 451.826 597.134 451.838C597.046 451.848 596.975 451.856 596.92 451.863C596.787 451.881 596.663 451.909 596.548 451.948C596.434 451.985 596.341 452.042 596.271 452.119C596.201 452.194 596.167 452.296 596.167 452.426C596.167 452.604 596.233 452.738 596.364 452.829C596.497 452.918 596.665 452.963 596.868 452.963ZM599.757 451.344V453.344H599.246V450.02H599.739V450.539H599.783C599.861 450.37 599.979 450.235 600.138 450.132C600.296 450.028 600.501 449.976 600.752 449.976C600.977 449.976 601.174 450.023 601.343 450.115C601.512 450.206 601.643 450.344 601.737 450.53C601.831 450.715 601.878 450.949 601.878 451.232V453.344H601.367V451.266C601.367 451.005 601.299 450.802 601.163 450.656C601.028 450.509 600.842 450.435 600.605 450.435C600.442 450.435 600.296 450.47 600.168 450.541C600.041 450.612 599.941 450.715 599.867 450.851C599.793 450.986 599.757 451.151 599.757 451.344ZM603.287 452.132L603.278 451.5H603.382L604.836 450.02H605.468L603.919 451.586H603.876L603.287 452.132ZM602.811 453.344V448.912H603.322V453.344H602.811ZM604.923 453.344L603.625 451.699L603.988 451.344L605.572 453.344H604.923ZM607.909 453.344V448.912H608.42V450.548H608.463C608.501 450.49 608.552 450.416 608.619 450.327C608.687 450.236 608.783 450.155 608.909 450.085C609.036 450.012 609.207 449.976 609.424 449.976C609.704 449.976 609.951 450.046 610.164 450.186C610.378 450.326 610.544 450.525 610.664 450.781C610.784 451.038 610.844 451.341 610.844 451.69C610.844 452.042 610.784 452.348 610.664 452.606C610.544 452.863 610.378 453.062 610.166 453.203C609.954 453.343 609.71 453.413 609.433 453.413C609.219 453.413 609.048 453.378 608.92 453.307C608.791 453.235 608.692 453.153 608.623 453.062C608.554 452.97 608.501 452.894 608.463 452.833H608.402V453.344H607.909ZM608.411 451.682C608.411 451.933 608.448 452.154 608.521 452.346C608.595 452.537 608.703 452.686 608.844 452.794C608.985 452.901 609.158 452.954 609.363 452.954C609.577 452.954 609.755 452.898 609.898 452.785C610.042 452.671 610.15 452.518 610.222 452.327C610.296 452.133 610.333 451.918 610.333 451.682C610.333 451.448 610.297 451.237 610.225 451.05C610.154 450.861 610.046 450.711 609.902 450.602C609.759 450.491 609.58 450.435 609.363 450.435C609.156 450.435 608.981 450.488 608.84 450.593C608.698 450.697 608.591 450.843 608.519 451.03C608.447 451.216 608.411 451.434 608.411 451.682ZM612.603 453.422C612.392 453.422 612.201 453.382 612.03 453.303C611.858 453.222 611.722 453.106 611.621 452.954C611.52 452.801 611.469 452.617 611.469 452.4C611.469 452.21 611.507 452.055 611.582 451.937C611.657 451.817 611.757 451.724 611.882 451.656C612.008 451.588 612.146 451.537 612.298 451.504C612.451 451.47 612.604 451.442 612.759 451.422C612.961 451.396 613.125 451.377 613.25 451.364C613.377 451.349 613.469 451.325 613.527 451.292C613.586 451.259 613.616 451.201 613.616 451.119V451.102C613.616 450.888 613.557 450.722 613.441 450.604C613.325 450.486 613.15 450.426 612.915 450.426C612.671 450.426 612.48 450.48 612.341 450.587C612.203 450.693 612.105 450.807 612.049 450.929L611.564 450.755C611.651 450.553 611.766 450.396 611.911 450.284C612.056 450.17 612.215 450.09 612.387 450.046C612.56 449.999 612.73 449.976 612.897 449.976C613.004 449.976 613.127 449.989 613.265 450.015C613.405 450.04 613.54 450.091 613.67 450.169C613.801 450.247 613.91 450.364 613.997 450.522C614.083 450.679 614.127 450.89 614.127 451.154V453.344H613.616V452.894H613.59C613.555 452.966 613.498 453.043 613.417 453.125C613.336 453.207 613.228 453.277 613.094 453.335C612.96 453.393 612.796 453.422 612.603 453.422ZM612.681 452.963C612.883 452.963 613.053 452.923 613.192 452.844C613.332 452.764 613.437 452.662 613.508 452.537C613.58 452.411 613.616 452.279 613.616 452.14V451.673C613.594 451.699 613.547 451.723 613.473 451.744C613.401 451.765 613.317 451.783 613.222 451.799C613.128 451.813 613.037 451.826 612.947 451.838C612.859 451.848 612.788 451.856 612.733 451.863C612.6 451.881 612.476 451.909 612.361 451.948C612.247 451.985 612.154 452.042 612.084 452.119C612.014 452.194 611.98 452.296 611.98 452.426C611.98 452.604 612.045 452.738 612.177 452.829C612.309 452.918 612.478 452.963 612.681 452.963ZM615.57 448.912V453.344H615.059V448.912H615.57ZM617.483 453.422C617.273 453.422 617.081 453.382 616.91 453.303C616.738 453.222 616.602 453.106 616.501 452.954C616.4 452.801 616.349 452.617 616.349 452.4C616.349 452.21 616.387 452.055 616.462 451.937C616.537 451.817 616.637 451.724 616.763 451.656C616.888 451.588 617.027 451.537 617.178 451.504C617.331 451.47 617.485 451.442 617.639 451.422C617.841 451.396 618.005 451.377 618.13 451.364C618.257 451.349 618.35 451.325 618.407 451.292C618.466 451.259 618.496 451.201 618.496 451.119V451.102C618.496 450.888 618.438 450.722 618.321 450.604C618.205 450.486 618.03 450.426 617.795 450.426C617.551 450.426 617.36 450.48 617.221 450.587C617.083 450.693 616.985 450.807 616.929 450.929L616.444 450.755C616.531 450.553 616.646 450.396 616.791 450.284C616.936 450.17 617.095 450.09 617.267 450.046C617.44 449.999 617.61 449.976 617.778 449.976C617.884 449.976 618.007 449.989 618.145 450.015C618.285 450.04 618.42 450.091 618.55 450.169C618.681 450.247 618.79 450.364 618.877 450.522C618.963 450.679 619.007 450.89 619.007 451.154V453.344H618.496V452.894H618.47C618.435 452.966 618.378 453.043 618.297 453.125C618.216 453.207 618.109 453.277 617.974 453.335C617.84 453.393 617.677 453.422 617.483 453.422ZM617.561 452.963C617.763 452.963 617.933 452.923 618.072 452.844C618.212 452.764 618.317 452.662 618.388 452.537C618.46 452.411 618.496 452.279 618.496 452.14V451.673C618.474 451.699 618.427 451.723 618.353 451.744C618.281 451.765 618.197 451.783 618.102 451.799C618.008 451.813 617.917 451.826 617.827 451.838C617.739 451.848 617.668 451.856 617.613 451.863C617.48 451.881 617.356 451.909 617.241 451.948C617.127 451.985 617.034 452.042 616.964 452.119C616.895 452.194 616.86 452.296 616.86 452.426C616.86 452.604 616.926 452.738 617.057 452.829C617.19 452.918 617.358 452.963 617.561 452.963ZM620.45 451.344V453.344H619.939V450.02H620.432V450.539H620.476C620.554 450.37 620.672 450.235 620.831 450.132C620.989 450.028 621.194 449.976 621.445 449.976C621.67 449.976 621.867 450.023 622.036 450.115C622.205 450.206 622.336 450.344 622.43 450.53C622.524 450.715 622.571 450.949 622.571 451.232V453.344H622.06V451.266C622.06 451.005 621.992 450.802 621.856 450.656C621.721 450.509 621.535 450.435 621.298 450.435C621.135 450.435 620.989 450.47 620.861 450.541C620.734 450.612 620.634 450.715 620.56 450.851C620.486 450.986 620.45 451.151 620.45 451.344ZM624.854 453.413C624.543 453.413 624.274 453.339 624.049 453.192C623.824 453.045 623.651 452.842 623.53 452.584C623.409 452.326 623.348 452.031 623.348 451.699C623.348 451.361 623.41 451.063 623.534 450.805C623.66 450.546 623.834 450.343 624.058 450.197C624.283 450.05 624.546 449.976 624.846 449.976C625.079 449.976 625.29 450.02 625.478 450.106C625.665 450.193 625.819 450.314 625.939 450.47C626.058 450.626 626.133 450.807 626.161 451.015H625.651C625.612 450.864 625.525 450.729 625.391 450.613C625.258 450.494 625.079 450.435 624.854 450.435C624.655 450.435 624.481 450.487 624.331 450.591C624.182 450.693 624.066 450.838 623.982 451.026C623.9 451.212 623.859 451.431 623.859 451.682C623.859 451.938 623.899 452.162 623.98 452.353C624.062 452.543 624.178 452.691 624.326 452.796C624.476 452.902 624.652 452.954 624.854 452.954C624.987 452.954 625.107 452.931 625.216 452.885C625.324 452.839 625.416 452.772 625.491 452.686C625.566 452.599 625.619 452.495 625.651 452.374H626.161C626.133 452.57 626.061 452.747 625.947 452.904C625.835 453.06 625.685 453.184 625.499 453.277C625.315 453.368 625.1 453.413 624.854 453.413ZM628.302 453.413C627.981 453.413 627.705 453.342 627.473 453.201C627.242 453.058 627.064 452.859 626.938 452.604C626.814 452.347 626.752 452.048 626.752 451.708C626.752 451.367 626.814 451.067 626.938 450.807C627.064 450.546 627.238 450.343 627.462 450.197C627.687 450.05 627.95 449.976 628.25 449.976C628.423 449.976 628.594 450.005 628.763 450.063C628.932 450.121 629.085 450.214 629.224 450.344C629.362 450.473 629.473 450.643 629.555 450.855C629.637 451.067 629.678 451.328 629.678 451.638V451.855H627.116V451.413H629.159C629.159 451.226 629.121 451.058 629.046 450.911C628.973 450.764 628.867 450.648 628.73 450.563C628.595 450.478 628.434 450.435 628.25 450.435C628.046 450.435 627.87 450.486 627.722 450.587C627.575 450.686 627.461 450.816 627.382 450.976C627.303 451.136 627.263 451.308 627.263 451.491V451.786C627.263 452.037 627.306 452.249 627.393 452.424C627.481 452.597 627.603 452.729 627.759 452.82C627.914 452.909 628.095 452.954 628.302 452.954C628.436 452.954 628.557 452.935 628.665 452.898C628.775 452.859 628.869 452.801 628.949 452.725C629.028 452.647 629.09 452.55 629.133 452.435L629.626 452.573C629.574 452.741 629.487 452.888 629.364 453.015C629.242 453.14 629.09 453.238 628.91 453.309C628.73 453.378 628.527 453.413 628.302 453.413Z" fill="#5C7187"/>
<circle cx="585.287" cy="451.423" r="2.03141" fill="#FFCD4C"/>
<rect x="132.285" y="278.244" width="37.0733" height="12.1885" transform="rotate(-90 132.285 278.244)" fill="#00C68F"/>
<rect x="132.285" y="288.91" width="10.6649" height="12.1885" transform="rotate(-90 132.285 288.91)" fill="#FF4561"/>
<rect x="175.957" y="278.244" width="52.8168" height="12.1885" transform="rotate(-90 175.957 278.244)" fill="#00C68F"/>
<rect x="175.957" y="297.541" width="19.2984" height="12.1885" transform="rotate(-90 175.957 297.541)" fill="#FF4561"/>
<rect x="219.637" y="278.244" width="86.8429" height="12.1885" transform="rotate(-90 219.637 278.244)" fill="#00C68F"/>
<rect x="219.637" y="324.965" width="46.7225" height="12.1885" transform="rotate(-90 219.637 324.965)" fill="#FF4561"/>
<rect x="262.293" y="278.244" width="22.3455" height="12.1885" transform="rotate(-90 262.293 278.244)" fill="#00C68F"/>
<rect x="262.293" y="291.449" width="13.2042" height="12.1885" transform="rotate(-90 262.293 291.449)" fill="#FF4561"/>
<rect x="305.461" y="278.244" width="34.0262" height="12.1885" transform="rotate(-90 305.461 278.244)" fill="#00C68F"/>
<rect x="305.461" y="281.801" width="3.55497" height="12.1885" transform="rotate(-90 305.461 281.801)" fill="#FF4561"/>
<rect x="348.121" y="278.244" width="52.8168" height="12.1885" transform="rotate(-90 348.121 278.244)" fill="#00C68F"/>
<rect x="348.121" y="372.197" width="93.9529" height="12.1885" transform="rotate(-90 348.121 372.197)" fill="#FF4561"/>
<rect x="390.273" y="278.244" width="92.9372" height="12.1885" transform="rotate(-90 390.273 278.244)" fill="#00C68F"/>
<rect x="390.273" y="327.507" width="49.2618" height="12.1885" transform="rotate(-90 390.273 327.507)" fill="#FF4561"/>
<rect x="433.441" y="278.244" width="47.7382" height="12.1885" transform="rotate(-90 433.441 278.244)" fill="#00C68F"/>
<rect x="433.441" y="321.412" width="43.1675" height="12.1885" transform="rotate(-90 433.441 321.412)" fill="#FF4561"/>
<rect x="476.605" y="278.244" width="47.7382" height="12.1885" transform="rotate(-90 476.605 278.244)" fill="#00C68F"/>
<rect x="476.605" y="297.541" width="19.2984" height="12.1885" transform="rotate(-90 476.605 297.541)" fill="#FF4561"/>
<rect x="519.773" y="278.244" width="34.0262" height="12.1885" transform="rotate(-90 519.773 278.244)" fill="#00C68F"/>
<rect x="519.773" y="286.37" width="8.12565" height="12.1885" transform="rotate(-90 519.773 286.37)" fill="#FF4561"/>
<rect x="562.941" y="278.244" width="56.8796" height="12.1885" transform="rotate(-90 562.941 278.244)" fill="#00C68F"/>
<rect x="562.941" y="297.541" width="19.2984" height="12.1885" transform="rotate(-90 562.941 297.541)" fill="#FF4561"/>
<rect x="609.668" y="278.244" width="29.4555" height="12.1885" transform="rotate(-90 609.668 278.244)" fill="#00C68F"/>
<rect x="609.668" y="307.698" width="29.4555" height="12.1885" transform="rotate(-90 609.668 307.698)" fill="#FF4561"/>
<path d="M139.137 245.997L182.05 266.311L225.726 201.813L311.553 256.916L354.72 281.039L439.532 235.332L526.121 273.167L569.289 242.95L616.519 278.499" stroke="#FFCC4C" stroke-width="1.01571"/>
<circle cx="138.629" cy="245.994" r="1.52356" fill="#FFCC4C" stroke="#FFCC4C" stroke-width="0.507853"/>
<circle cx="182.309" cy="265.799" r="1.52356" fill="#FFCC4C" stroke="#FFCC4C" stroke-width="0.507853"/>
<circle cx="225.477" cy="201.813" r="1.52356" fill="#FFCC4C" stroke="#FFCC4C" stroke-width="0.507853"/>
<circle cx="266.61" cy="228.219" r="1.52356" fill="#FFCC4C" stroke="#FFCC4C" stroke-width="0.507853"/>
<circle cx="311.805" cy="257.168" r="1.52356" fill="#FFCC4C" stroke="#FFCC4C" stroke-width="0.507853"/>
<circle cx="354.465" cy="281.035" r="1.52356" fill="#FFCC4C" stroke="#FFCC4C" stroke-width="0.507853"/>
<circle cx="396.617" cy="258.69" r="1.52356" fill="#FFCC4C" stroke="#FFCC4C" stroke-width="0.507853"/>
<circle cx="439.785" cy="235.328" r="1.52356" fill="#FFCC4C" stroke="#FFCC4C" stroke-width="0.507853"/>
<circle cx="482.953" cy="254.12" r="1.52356" fill="#FFCC4C" stroke="#FFCC4C" stroke-width="0.507853"/>
<circle cx="526.117" cy="272.912" r="1.52356" fill="#FFCC4C" stroke="#FFCC4C" stroke-width="0.507853"/>
<circle cx="568.781" cy="243.454" r="1.52356" fill="#FFCC4C" stroke="#FFCC4C" stroke-width="0.507853"/>
<circle cx="616.012" cy="277.99" r="1.52356" fill="#FFCC4C" stroke="#FFCC4C" stroke-width="0.507853"/>
<defs>
<clipPath id="clip0_4210_45688">
<rect width="8.12565" height="8.12565" fill="white" transform="translate(535.516 107.6)"/>
</clipPath>
</defs>
</svg>
