<svg width="722" height="458" viewBox="0 0 722 458" fill="none" xmlns="http://www.w3.org/2000/svg">
<rect width="722" height="458" rx="8" fill="white"/>
<path d="M88.224 63.16C91.584 63.16 93.824 60.76 93.824 57.16C93.824 53.56 91.584 51.16 88.224 51.16C84.864 51.16 82.624 53.56 82.624 57.16C82.624 60.76 84.864 63.16 88.224 63.16ZM88.224 61.256C86.256 61.256 84.944 59.608 84.944 57.16C84.944 54.712 86.256 53.064 88.224 53.064C90.192 53.064 91.504 54.712 91.504 57.16C91.504 59.608 90.192 61.256 88.224 61.256ZM100.278 63L103.494 54.488H101.238L99.7175 58.936C99.0615 60.856 99.0615 61.048 99.0295 61.256H98.9815C98.9495 61.048 98.9495 60.872 98.2615 58.936L96.6615 54.488H94.3575L97.7335 63H100.278ZM107.95 63.16C109.95 63.16 111.646 61.96 111.87 60.28H109.774C109.502 61.032 108.942 61.464 107.998 61.464C106.798 61.464 105.918 60.696 105.918 59.224H111.95C111.966 58.888 111.966 58.744 111.966 58.536C111.966 56.008 110.206 54.328 107.886 54.328C105.47 54.328 103.678 56.088 103.678 58.744C103.678 61.256 105.422 63.16 107.95 63.16ZM105.934 57.848C106.03 56.76 106.75 56.024 107.886 56.024C108.942 56.024 109.71 56.664 109.806 57.848H105.934ZM115.243 63V59.352C115.243 57.528 116.139 56.552 117.787 56.552C118.315 56.552 118.507 56.616 118.507 56.616H118.571V54.488C118.459 54.456 118.299 54.424 118.043 54.424C116.539 54.424 115.659 55.24 115.291 56.056H115.243V54.488H113.115V63H115.243ZM124.751 63L127.967 54.488H125.711L124.191 58.936C123.535 60.856 123.535 61.048 123.503 61.256H123.455C123.423 61.048 123.423 60.872 122.735 58.936L121.135 54.488H118.831L122.207 63H124.751ZM131.184 53.4V51.32H128.864V53.4H131.184ZM131.088 63V54.488H128.96V63H131.088ZM136.826 63.16C138.826 63.16 140.522 61.96 140.746 60.28H138.65C138.378 61.032 137.818 61.464 136.874 61.464C135.674 61.464 134.794 60.696 134.794 59.224H140.826C140.842 58.888 140.842 58.744 140.842 58.536C140.842 56.008 139.082 54.328 136.762 54.328C134.346 54.328 132.554 56.088 132.554 58.744C132.554 61.256 134.298 63.16 136.826 63.16ZM134.81 57.848C134.906 56.76 135.626 56.024 136.762 56.024C137.818 56.024 138.586 56.664 138.682 57.848H134.81ZM146.251 63L147.659 58.44C148.043 57.176 148.139 56.648 148.171 56.456H148.203C148.235 56.648 148.331 57.16 148.715 58.44L150.059 63H152.523L155.115 54.488H152.875L151.787 58.952C151.435 60.296 151.275 61 151.243 61.208H151.195C151.083 60.744 150.875 59.88 150.603 58.952L149.307 54.488H147.067L145.755 58.952C145.483 59.864 145.291 60.76 145.179 61.208H145.147C145.115 61.016 145.019 60.312 144.683 58.952L143.595 54.488H141.307L143.835 63H146.251Z" fill="#344053"/>
<circle cx="109.943" cy="144.985" r="11.9784" fill="#EEE9FF"/>
<path d="M110.887 147.982H106.081C105.882 147.982 105.692 147.903 105.551 147.763C105.411 147.622 105.332 147.432 105.332 147.233V142.741C105.332 142.543 105.411 142.352 105.551 142.212C105.692 142.072 105.882 141.993 106.081 141.993H112.819C113.017 141.993 113.208 142.072 113.348 142.212C113.488 142.352 113.567 142.543 113.567 142.741V144.239M105.332 144.239H111.945H105.332Z" stroke="#7664FE" stroke-width="0.748649" stroke-linecap="round" stroke-linejoin="round"/>
<path d="M106.828 146.483H109.259" stroke="#7664FE" stroke-width="0.748649" stroke-linecap="round"/>
<path d="M113.562 145.983V147.979" stroke="#7664FE" stroke-width="0.748649" stroke-linecap="round" stroke-linejoin="round"/>
<path d="M114.559 146.983H112.562" stroke="#7664FE" stroke-width="0.748649" stroke-linecap="round" stroke-linejoin="round"/>
<path d="M130.955 139.008V137.151H132.093C132.974 137.151 133.561 136.708 133.561 135.894C133.561 135.127 133.034 134.636 132.093 134.636H130.416V139.008H130.955ZM130.955 135.115H132.063C132.62 135.115 132.992 135.355 132.992 135.894C132.992 136.373 132.692 136.672 132.063 136.672H130.955V135.115ZM134.968 139.068C135.423 139.068 135.842 138.876 135.974 138.589H135.998C135.998 138.589 136.004 138.87 136.094 139.008H136.621V138.984C136.549 138.822 136.495 138.667 136.495 138.409V137.038C136.495 136.295 136.052 135.804 135.261 135.804C134.513 135.804 134.009 136.181 133.992 136.852H134.519C134.531 136.475 134.74 136.223 135.261 136.223C135.704 136.223 135.998 136.469 135.998 137.092L135.261 137.145C134.489 137.199 133.866 137.385 133.866 138.116C133.866 138.685 134.309 139.068 134.968 139.068ZM135.106 138.649C134.716 138.649 134.405 138.445 134.405 138.116C134.405 137.792 134.656 137.631 135.261 137.565L135.998 137.487V137.75C135.998 138.188 135.74 138.649 135.106 138.649ZM137.693 140.206C138.208 140.206 138.442 139.948 138.64 139.427L139.975 135.864H139.466L138.819 137.601C138.556 138.313 138.538 138.409 138.538 138.409H138.514C138.514 138.409 138.502 138.319 138.232 137.601L137.58 135.864H137.011L138.286 139.008L138.179 139.338C138.101 139.583 138.023 139.727 137.657 139.727C137.586 139.727 137.436 139.721 137.256 139.649V140.128C137.382 140.17 137.508 140.206 137.693 140.206ZM141.081 139.008V137.241C141.081 136.636 141.356 136.223 141.847 136.223C142.297 136.223 142.59 136.499 142.59 137.002V139.008H143.087V137.241C143.087 136.636 143.369 136.223 143.866 136.223C144.309 136.223 144.596 136.481 144.596 137.014V139.008H145.094V137.014C145.094 136.283 144.734 135.804 144.003 135.804C143.542 135.804 143.177 136.002 142.997 136.343H142.973C142.794 136.002 142.458 135.804 141.991 135.804C141.638 135.804 141.284 135.96 141.105 136.283H141.081V135.864H140.584V139.008H141.081ZM147.344 139.068C148.039 139.068 148.578 138.655 148.698 138.032H148.201C148.057 138.451 147.824 138.649 147.344 138.649C146.775 138.649 146.392 138.212 146.392 137.553H148.746C148.752 137.451 148.752 137.361 148.752 137.313C148.752 136.409 148.177 135.804 147.32 135.804C146.44 135.804 145.853 136.451 145.853 137.427C145.853 138.409 146.452 139.068 147.344 139.068ZM146.392 137.145C146.434 136.594 146.793 136.223 147.32 136.223C147.841 136.223 148.171 136.594 148.195 137.145H146.392ZM150.047 139.008V137.361C150.047 136.678 150.365 136.223 150.928 136.223C151.365 136.223 151.659 136.475 151.659 137.014V139.008H152.156V137.014C152.156 136.289 151.796 135.804 151.054 135.804C150.622 135.804 150.239 135.978 150.071 136.283H150.047V135.864H149.55V139.008H150.047ZM154.009 139.038C154.141 139.038 154.231 139.026 154.32 139.008V138.559C154.291 138.565 154.225 138.571 154.159 138.571C153.769 138.571 153.728 138.487 153.728 138.218V136.301H154.32V135.864H153.728V134.965H153.23V135.864H152.721V136.301H153.23V138.343C153.23 138.84 153.5 139.038 154.009 139.038ZM158.054 139.068C158.797 139.068 159.354 138.607 159.414 137.984H158.875C158.809 138.385 158.509 138.649 158.054 138.649C157.485 138.649 157.108 138.206 157.108 137.421C157.108 136.702 157.455 136.223 158.066 136.223C158.485 136.223 158.803 136.463 158.875 136.882H159.414C159.354 136.259 158.785 135.804 158.066 135.804C157.168 135.804 156.569 136.451 156.569 137.421C156.569 138.409 157.102 139.068 158.054 139.068ZM161.579 139.068C162.483 139.068 163.094 138.415 163.094 137.433C163.094 136.451 162.483 135.804 161.579 135.804C160.675 135.804 160.064 136.451 160.064 137.433C160.064 138.415 160.675 139.068 161.579 139.068ZM161.579 138.649C160.992 138.649 160.603 138.212 160.603 137.433C160.603 136.708 160.956 136.223 161.579 136.223C162.166 136.223 162.555 136.66 162.555 137.433C162.555 138.164 162.202 138.649 161.579 138.649ZM164.926 139.068C165.357 139.068 165.71 138.894 165.878 138.589H165.902V139.008H166.399V135.864H165.902V137.511C165.902 138.194 165.614 138.649 165.051 138.649C164.614 138.649 164.351 138.397 164.351 137.858V135.864H163.854V137.858C163.854 138.583 164.183 139.068 164.926 139.068ZM167.847 139.008V137.361C167.847 136.678 168.164 136.223 168.727 136.223C169.164 136.223 169.458 136.475 169.458 137.014V139.008H169.955V137.014C169.955 136.289 169.595 135.804 168.853 135.804C168.422 135.804 168.038 135.978 167.871 136.283H167.847V135.864H167.349V139.008H167.847ZM171.808 139.038C171.94 139.038 172.03 139.026 172.12 139.008V138.559C172.09 138.565 172.024 138.571 171.958 138.571C171.569 138.571 171.527 138.487 171.527 138.218V136.301H172.12V135.864H171.527V134.965H171.03V135.864H170.52V136.301H171.03V138.343C171.03 138.84 171.299 139.038 171.808 139.038Z" fill="#737A91"/>
<path d="M132.719 155.075C134.166 155.075 135.118 154.203 135.118 152.891C135.118 151.58 134.228 150.708 132.899 150.708C132.306 150.708 131.785 150.933 131.506 151.274H131.479L131.749 149.514H134.741V148.606H130.931L130.392 152.388H131.452C131.551 151.876 132.054 151.553 132.71 151.553C133.492 151.553 134.013 152.092 134.013 152.891C134.013 153.691 133.483 154.23 132.683 154.23C131.982 154.23 131.497 153.835 131.452 153.251H130.347C130.419 154.338 131.372 155.075 132.719 155.075ZM138.098 154.985V148.606H137.199C137.11 149.379 136.75 149.891 135.555 149.891V150.547H137.083V154.985H138.098Z" fill="#222222"/>
<line x1="241.079" y1="136.999" x2="241.079" y2="152.97" stroke="#DFE2E6" stroke-width="0.4991"/>
<circle cx="320.808" cy="144.985" r="11.9784" fill="#E0F3EE"/>
<path d="M316.541 147.432C316.541 148.251 318.382 149.169 320.813 149.169C323.243 149.169 325.005 148.286 325.08 147.482" stroke="#009E74" stroke-width="0.748649" stroke-miterlimit="10" stroke-linecap="round"/>
<path d="M316.541 144.987C316.541 145.805 318.382 146.724 320.813 146.724C323.243 146.724 325.005 145.845 325.08 145.037" stroke="#009E74" stroke-width="0.748649" stroke-miterlimit="10" stroke-linecap="round"/>
<path d="M320.813 144.275C323.172 144.275 325.085 143.497 325.085 142.538C325.085 141.579 323.172 140.801 320.813 140.801C318.453 140.801 316.541 141.579 316.541 142.538C316.541 143.497 318.453 144.275 320.813 144.275Z" stroke="#009E74" stroke-width="0.748649" stroke-miterlimit="10" stroke-linecap="round"/>
<path d="M341.82 139.008V137.151H342.718C343.365 137.151 343.551 137.229 343.707 137.708C343.85 138.158 343.94 138.649 344.216 139.008H344.875V138.996C344.563 138.589 344.413 138.122 344.276 137.732C344.132 137.325 343.946 137.092 343.599 137.002V136.978C344.18 136.894 344.635 136.553 344.635 135.864C344.635 135.127 344.204 134.636 343.216 134.636H341.281V139.008H341.82ZM341.82 135.115H343.186C343.731 135.115 344.066 135.355 344.066 135.864C344.066 136.313 343.874 136.672 343.186 136.672H341.82V135.115ZM346.836 139.068C347.53 139.068 348.069 138.655 348.189 138.032H347.692C347.548 138.451 347.315 138.649 346.836 138.649C346.267 138.649 345.883 138.212 345.883 137.553H348.237C348.243 137.451 348.243 137.361 348.243 137.313C348.243 136.409 347.668 135.804 346.812 135.804C345.931 135.804 345.344 136.451 345.344 137.427C345.344 138.409 345.943 139.068 346.836 139.068ZM345.883 137.145C345.925 136.594 346.284 136.223 346.812 136.223C347.333 136.223 347.662 136.594 347.686 137.145H345.883ZM350.51 139.008L351.708 135.864H351.169L350.57 137.511C350.241 138.409 350.217 138.511 350.217 138.511H350.193C350.193 138.511 350.169 138.409 349.827 137.511L349.199 135.864H348.642L349.893 139.008H350.51ZM353.539 139.068C354.233 139.068 354.772 138.655 354.892 138.032H354.395C354.251 138.451 354.018 138.649 353.539 138.649C352.97 138.649 352.586 138.212 352.586 137.553H354.94C354.946 137.451 354.946 137.361 354.946 137.313C354.946 136.409 354.371 135.804 353.515 135.804C352.634 135.804 352.047 136.451 352.047 137.427C352.047 138.409 352.646 139.068 353.539 139.068ZM352.586 137.145C352.628 136.594 352.988 136.223 353.515 136.223C354.036 136.223 354.365 136.594 354.389 137.145H352.586ZM356.242 139.008V137.361C356.242 136.678 356.559 136.223 357.122 136.223C357.559 136.223 357.853 136.475 357.853 137.014V139.008H358.35V137.014C358.35 136.289 357.991 135.804 357.248 135.804C356.817 135.804 356.433 135.978 356.266 136.283H356.242V135.864H355.745V139.008H356.242ZM360.287 139.068C360.718 139.068 361.072 138.894 361.239 138.589H361.263V139.008H361.76V135.864H361.263V137.511C361.263 138.194 360.976 138.649 360.413 138.649C359.976 138.649 359.712 138.397 359.712 137.858V135.864H359.215V137.858C359.215 138.583 359.544 139.068 360.287 139.068ZM364.052 139.068C364.747 139.068 365.286 138.655 365.406 138.032H364.909C364.765 138.451 364.532 138.649 364.052 138.649C363.484 138.649 363.1 138.212 363.1 137.553H365.454C365.46 137.451 365.46 137.361 365.46 137.313C365.46 136.409 364.885 135.804 364.029 135.804C363.148 135.804 362.561 136.451 362.561 137.427C362.561 138.409 363.16 139.068 364.052 139.068ZM363.1 137.145C363.142 136.594 363.501 136.223 364.029 136.223C364.55 136.223 364.879 136.594 364.903 137.145H363.1Z" fill="#737A91"/>
<path d="M341.383 154.985V152.766H340.862V152.101H341.383V151.454H340.862V150.789H341.383V148.57H342.793L343.494 150.789H344.312V148.57H345.309V150.789H345.821V151.454H345.309V152.101H345.821V152.766H345.309V154.985H343.889L343.171 152.766H342.38V154.985H341.383ZM342.344 150.789H342.596L342.335 149.927H342.299L342.344 150.789ZM342.38 152.101H342.973L342.775 151.454H342.362L342.38 152.101ZM343.916 152.101H344.33L344.312 151.454H343.71L343.916 152.101ZM344.339 153.583H344.383L344.348 152.766H344.105L344.339 153.583ZM348.585 154.985V148.606H347.687C347.597 149.379 347.238 149.891 346.043 149.891V150.547H347.57V154.985H348.585ZM350.347 156.323L350.976 155.075V153.808H349.835V154.985H350.347V155.057L349.88 156.323H350.347ZM354.252 155.075C355.779 155.075 356.723 153.844 356.723 151.795C356.723 149.774 355.788 148.516 354.252 148.516C352.77 148.516 351.772 149.693 351.772 151.795C351.772 153.763 352.662 155.075 354.252 155.075ZM354.252 154.23C353.425 154.221 352.877 153.448 352.877 151.795C352.877 150.34 353.318 149.361 354.252 149.361C355.07 149.361 355.618 150.142 355.618 151.795C355.618 153.251 355.177 154.221 354.252 154.23ZM359.896 155.075C361.423 155.075 362.366 153.844 362.366 151.795C362.366 149.774 361.432 148.516 359.896 148.516C358.414 148.516 357.416 149.693 357.416 151.795C357.416 153.763 358.306 155.075 359.896 155.075ZM359.896 154.23C359.069 154.221 358.521 153.448 358.521 151.795C358.521 150.34 358.962 149.361 359.896 149.361C360.713 149.361 361.261 150.142 361.261 151.795C361.261 153.251 360.821 154.221 359.896 154.23ZM365.319 155.075C366.757 155.075 367.727 154.311 367.727 153.161C367.727 152.424 367.278 151.831 366.595 151.607V151.58C367.134 151.373 367.494 150.834 367.494 150.241C367.494 149.199 366.613 148.516 365.319 148.516C364.017 148.516 363.136 149.199 363.136 150.241C363.136 150.843 363.496 151.373 364.044 151.58V151.607C363.361 151.84 362.903 152.442 362.903 153.161C362.903 154.311 363.882 155.075 365.319 155.075ZM365.319 151.238C364.655 151.238 364.196 150.879 364.196 150.304C364.196 149.747 364.646 149.361 365.319 149.361C365.993 149.361 366.433 149.747 366.433 150.304C366.433 150.879 365.975 151.238 365.319 151.238ZM365.319 154.23C364.547 154.23 364.008 153.79 364.008 153.107C364.008 152.433 364.529 151.993 365.319 151.993C366.11 151.993 366.622 152.433 366.622 153.107C366.622 153.79 366.092 154.23 365.319 154.23ZM369.08 156.323L369.709 155.075V153.808H368.568V154.985H369.08V155.057L368.613 156.323H369.08ZM375.195 154.985V154.077H371.736C371.763 153.61 372.392 153.179 373.524 152.532C374.566 151.939 375.15 151.391 375.15 150.43C375.15 149.289 374.288 148.516 372.976 148.516C371.619 148.516 370.73 149.334 370.73 150.654V150.861H371.799C371.754 149.963 372.167 149.361 372.985 149.361C373.65 149.361 374.09 149.783 374.09 150.403C374.09 151.176 373.497 151.481 372.742 151.93C371.458 152.712 370.64 153.116 370.595 154.985H375.195ZM378.349 155.075C379.769 155.075 380.649 154.221 380.649 152.936C380.649 151.652 379.76 150.798 378.385 150.798C377.666 150.798 377.074 151.149 376.804 151.715H376.777C376.795 150.367 377.343 149.361 378.421 149.361C379.113 149.361 379.499 149.765 379.553 150.385H380.631C380.559 149.334 379.706 148.516 378.421 148.516C376.867 148.516 375.825 149.693 375.825 152.02C375.825 153.907 376.795 155.075 378.349 155.075ZM378.304 154.23C377.55 154.23 377.038 153.718 377.038 152.936C377.038 152.155 377.55 151.643 378.304 151.643C379.059 151.643 379.544 152.155 379.544 152.936C379.544 153.718 379.059 154.23 378.304 154.23ZM383.72 155.075C385.166 155.075 386.118 154.203 386.118 152.891C386.118 151.58 385.229 150.708 383.899 150.708C383.306 150.708 382.785 150.933 382.507 151.274H382.48L382.749 149.514H385.741V148.606H381.932L381.393 152.388H382.453C382.552 151.876 383.055 151.553 383.711 151.553C384.492 151.553 385.013 152.092 385.013 152.891C385.013 153.691 384.483 154.23 383.684 154.23C382.983 154.23 382.498 153.835 382.453 153.251H381.348C381.42 154.338 382.372 155.075 383.72 155.075ZM388.143 154.985V153.808H386.993V154.985H388.143ZM391.42 155.075C392.947 155.075 393.89 153.844 393.89 151.795C393.89 149.774 392.956 148.516 391.42 148.516C389.937 148.516 388.94 149.693 388.94 151.795C388.94 153.763 389.83 155.075 391.42 155.075ZM391.42 154.23C390.593 154.221 390.045 153.448 390.045 151.795C390.045 150.34 390.485 149.361 391.42 149.361C392.237 149.361 392.785 150.142 392.785 151.795C392.785 153.251 392.345 154.221 391.42 154.23ZM397.064 155.075C398.591 155.075 399.534 153.844 399.534 151.795C399.534 149.774 398.6 148.516 397.064 148.516C395.581 148.516 394.584 149.693 394.584 151.795C394.584 153.763 395.473 155.075 397.064 155.075ZM397.064 154.23C396.237 154.221 395.689 153.448 395.689 151.795C395.689 150.34 396.129 149.361 397.064 149.361C397.881 149.361 398.429 150.142 398.429 151.795C398.429 153.251 397.989 154.221 397.064 154.23Z" fill="#222222"/>
<line x1="468.415" y1="136.999" x2="468.415" y2="152.97" stroke="#DFE2E6" stroke-width="0.4991"/>
<circle cx="548.145" cy="144.985" r="11.98" fill="#D8FEAC"/>
<g clip-path="url(#clip0_4074_44871)">
<path d="M544.379 144.301H551.91M545.064 142.247H551.225C551.603 142.247 551.91 142.553 551.91 142.931V147.039C551.91 147.417 551.603 147.723 551.225 147.723H545.064C544.686 147.723 544.379 147.417 544.379 147.039V142.931C544.379 142.553 544.686 142.247 545.064 142.247Z" stroke="#7E9028" stroke-width="0.75" stroke-linecap="round" stroke-linejoin="round"/>
<path d="M545.749 146.354H547.973" stroke="#7E9028" stroke-width="0.75" stroke-linecap="round"/>
</g>
<path d="M569.159 139V137.143H570.297C571.177 137.143 571.764 136.7 571.764 135.886C571.764 135.119 571.237 134.628 570.297 134.628H568.62V139H569.159ZM569.159 135.107H570.267C570.824 135.107 571.195 135.347 571.195 135.886C571.195 136.365 570.896 136.664 570.267 136.664H569.159V135.107ZM573.171 139.06C573.627 139.06 574.046 138.868 574.178 138.581H574.202C574.202 138.581 574.207 138.862 574.297 139H574.824V138.976C574.753 138.814 574.699 138.659 574.699 138.401V137.03C574.699 136.287 574.255 135.796 573.465 135.796C572.716 135.796 572.213 136.173 572.195 136.844H572.722C572.734 136.467 572.944 136.215 573.465 136.215C573.908 136.215 574.202 136.461 574.202 137.083L573.465 137.137C572.692 137.191 572.069 137.377 572.069 138.108C572.069 138.677 572.513 139.06 573.171 139.06ZM573.309 138.641C572.92 138.641 572.608 138.437 572.608 138.108C572.608 137.784 572.86 137.622 573.465 137.557L574.202 137.479V137.742C574.202 138.179 573.944 138.641 573.309 138.641ZM575.897 140.198C576.412 140.198 576.646 139.94 576.843 139.419L578.179 135.856H577.67L577.023 137.593C576.759 138.305 576.741 138.401 576.741 138.401H576.718C576.718 138.401 576.706 138.311 576.436 137.593L575.783 135.856H575.214L576.49 139L576.382 139.329C576.304 139.575 576.226 139.719 575.861 139.719C575.789 139.719 575.639 139.713 575.46 139.641V140.12C575.586 140.162 575.711 140.198 575.897 140.198ZM579.284 139V137.233C579.284 136.628 579.56 136.215 580.051 136.215C580.5 136.215 580.794 136.491 580.794 136.994V139H581.291V137.233C581.291 136.628 581.572 136.215 582.069 136.215C582.513 136.215 582.8 136.473 582.8 137.006V139H583.297V137.006C583.297 136.275 582.938 135.796 582.207 135.796C581.746 135.796 581.381 135.993 581.201 136.335H581.177C580.997 135.993 580.662 135.796 580.195 135.796C579.841 135.796 579.488 135.951 579.308 136.275H579.284V135.856H578.787V139H579.284ZM585.548 139.06C586.243 139.06 586.782 138.647 586.902 138.024H586.404C586.261 138.443 586.027 138.641 585.548 138.641C584.979 138.641 584.596 138.203 584.596 137.545H586.949C586.955 137.443 586.955 137.353 586.955 137.305C586.955 136.401 586.38 135.796 585.524 135.796C584.644 135.796 584.057 136.443 584.057 137.419C584.057 138.401 584.656 139.06 585.548 139.06ZM584.596 137.137C584.638 136.586 584.997 136.215 585.524 136.215C586.045 136.215 586.375 136.586 586.398 137.137H584.596ZM588.251 139V137.353C588.251 136.67 588.568 136.215 589.131 136.215C589.569 136.215 589.862 136.467 589.862 137.006V139H590.359V137.006C590.359 136.281 590 135.796 589.257 135.796C588.826 135.796 588.443 135.969 588.275 136.275H588.251V135.856H587.754V139H588.251ZM592.213 139.03C592.344 139.03 592.434 139.018 592.524 139V138.551C592.494 138.557 592.428 138.563 592.362 138.563C591.973 138.563 591.931 138.479 591.931 138.209V136.293H592.524V135.856H591.931V134.957H591.434V135.856H590.925V136.293H591.434V138.335C591.434 138.832 591.704 139.03 592.213 139.03ZM596.414 139.06C597.234 139.06 597.779 138.401 597.779 137.413C597.779 136.443 597.228 135.796 596.402 135.796C596 135.796 595.617 135.969 595.431 136.275H595.407C595.419 135.724 595.419 134.628 595.419 134.628H594.922V139H595.419V138.581H595.443C595.629 138.868 595.988 139.06 596.414 139.06ZM596.342 138.641C595.791 138.641 595.419 138.197 595.419 137.413C595.419 136.694 595.749 136.215 596.33 136.215C596.875 136.215 597.24 136.694 597.24 137.413C597.24 138.15 596.881 138.641 596.342 138.641ZM599.545 139.06C600 139.06 600.42 138.868 600.551 138.581H600.575C600.575 138.581 600.581 138.862 600.671 139H601.198V138.976C601.126 138.814 601.073 138.659 601.073 138.401V137.03C601.073 136.287 600.629 135.796 599.839 135.796C599.09 135.796 598.587 136.173 598.569 136.844H599.096C599.108 136.467 599.318 136.215 599.839 136.215C600.282 136.215 600.575 136.461 600.575 137.083L599.839 137.137C599.066 137.191 598.443 137.377 598.443 138.108C598.443 138.677 598.886 139.06 599.545 139.06ZM599.683 138.641C599.294 138.641 598.982 138.437 598.982 138.108C598.982 137.784 599.234 137.622 599.839 137.557L600.575 137.479V137.742C600.575 138.179 600.318 138.641 599.683 138.641ZM602.544 139V134.628H602.046V139H602.544ZM604.465 139.06C604.92 139.06 605.339 138.868 605.471 138.581H605.495C605.495 138.581 605.501 138.862 605.59 139H606.118V138.976C606.046 138.814 605.992 138.659 605.992 138.401V137.03C605.992 136.287 605.549 135.796 604.758 135.796C604.009 135.796 603.506 136.173 603.488 136.844H604.015C604.027 136.467 604.237 136.215 604.758 136.215C605.201 136.215 605.495 136.461 605.495 137.083L604.758 137.137C603.985 137.191 603.363 137.377 603.363 138.108C603.363 138.677 603.806 139.06 604.465 139.06ZM604.602 138.641C604.213 138.641 603.902 138.437 603.902 138.108C603.902 137.784 604.153 137.622 604.758 137.557L605.495 137.479V137.742C605.495 138.179 605.237 138.641 604.602 138.641ZM607.463 139V137.353C607.463 136.67 607.78 136.215 608.343 136.215C608.78 136.215 609.074 136.467 609.074 137.006V139H609.571V137.006C609.571 136.281 609.212 135.796 608.469 135.796C608.038 135.796 607.655 135.969 607.487 136.275H607.463V135.856H606.966V139H607.463ZM611.814 139.06C612.556 139.06 613.113 138.599 613.173 137.976H612.634C612.568 138.377 612.269 138.641 611.814 138.641C611.245 138.641 610.867 138.197 610.867 137.413C610.867 136.694 611.215 136.215 611.826 136.215C612.245 136.215 612.562 136.455 612.634 136.874H613.173C613.113 136.251 612.544 135.796 611.826 135.796C610.927 135.796 610.328 136.443 610.328 137.413C610.328 138.401 610.861 139.06 611.814 139.06ZM615.315 139.06C616.009 139.06 616.548 138.647 616.668 138.024H616.171C616.027 138.443 615.794 138.641 615.315 138.641C614.746 138.641 614.362 138.203 614.362 137.545H616.716C616.722 137.443 616.722 137.353 616.722 137.305C616.722 136.401 616.147 135.796 615.291 135.796C614.41 135.796 613.823 136.443 613.823 137.419C613.823 138.401 614.422 139.06 615.315 139.06ZM614.362 137.137C614.404 136.586 614.764 136.215 615.291 136.215C615.812 136.215 616.141 136.586 616.165 137.137H614.362Z" fill="#737A91"/>
<path d="M568.722 154.993V152.774H568.201V152.109H568.722V151.462H568.201V150.797H568.722V148.578H570.132L570.833 150.797H571.65V148.578H572.648V150.797H573.16V151.462H572.648V152.109H573.16V152.774H572.648V154.993H571.228L570.51 152.774H569.719V154.993H568.722ZM569.683 150.797H569.935L569.674 149.935H569.638L569.683 150.797ZM569.719 152.109H570.312L570.114 151.462H569.701L569.719 152.109ZM571.255 152.109H571.668L571.65 151.462H571.049L571.255 152.109ZM571.677 153.591H571.722L571.686 152.774H571.444L571.677 153.591ZM575.924 154.993V148.614H575.026C574.936 149.387 574.577 149.899 573.382 149.899V150.555H574.909V154.993H575.924ZM577.686 156.331L578.314 155.083V153.816H577.174V154.993H577.686V155.065L577.218 156.331H577.686ZM581.573 155.083C583.019 155.083 583.972 154.211 583.972 152.9C583.972 151.588 583.082 150.717 581.753 150.717C581.16 150.717 580.639 150.941 580.36 151.282H580.333L580.603 149.522H583.594V148.614H579.785L579.246 152.396H580.306C580.405 151.884 580.908 151.561 581.564 151.561C582.345 151.561 582.867 152.1 582.867 152.9C582.867 153.699 582.337 154.238 581.537 154.238C580.836 154.238 580.351 153.843 580.306 153.259H579.201C579.273 154.346 580.225 155.083 581.573 155.083ZM587.103 155.083C588.63 155.083 589.574 153.852 589.574 151.804C589.574 149.782 588.639 148.524 587.103 148.524C585.621 148.524 584.624 149.701 584.624 151.804C584.624 153.771 585.513 155.083 587.103 155.083ZM587.103 154.238C586.277 154.229 585.729 153.457 585.729 151.804C585.729 150.348 586.169 149.369 587.103 149.369C587.921 149.369 588.469 150.151 588.469 151.804C588.469 153.259 588.029 154.229 587.103 154.238ZM592.527 155.083C593.964 155.083 594.934 154.319 594.934 153.169C594.934 152.432 594.485 151.839 593.802 151.615V151.588C594.341 151.381 594.701 150.842 594.701 150.249C594.701 149.207 593.82 148.524 592.527 148.524C591.224 148.524 590.344 149.207 590.344 150.249C590.344 150.851 590.703 151.381 591.251 151.588V151.615C590.568 151.848 590.11 152.45 590.11 153.169C590.11 154.319 591.089 155.083 592.527 155.083ZM592.527 151.247C591.862 151.247 591.404 150.887 591.404 150.312C591.404 149.755 591.853 149.369 592.527 149.369C593.2 149.369 593.641 149.755 593.641 150.312C593.641 150.887 593.183 151.247 592.527 151.247ZM592.527 154.238C591.754 154.238 591.215 153.798 591.215 153.115C591.215 152.441 591.736 152.001 592.527 152.001C593.317 152.001 593.829 152.441 593.829 153.115C593.829 153.798 593.299 154.238 592.527 154.238ZM596.287 156.331L596.916 155.083V153.816H595.775V154.993H596.287V155.065L595.82 156.331H596.287ZM602.402 154.993V154.085H598.944C598.97 153.618 599.599 153.187 600.731 152.54C601.773 151.947 602.357 151.399 602.357 150.438C602.357 149.297 601.495 148.524 600.183 148.524C598.827 148.524 597.937 149.342 597.937 150.663V150.869H599.006C598.961 149.971 599.375 149.369 600.192 149.369C600.857 149.369 601.297 149.791 601.297 150.411C601.297 151.184 600.704 151.489 599.95 151.938C598.665 152.72 597.847 153.124 597.803 154.993H602.402ZM605.556 155.083C606.976 155.083 607.856 154.229 607.856 152.944C607.856 151.66 606.967 150.806 605.592 150.806C604.874 150.806 604.281 151.157 604.011 151.723H603.984C604.002 150.375 604.55 149.369 605.628 149.369C606.32 149.369 606.706 149.773 606.76 150.393H607.838C607.767 149.342 606.913 148.524 605.628 148.524C604.074 148.524 603.032 149.701 603.032 152.028C603.032 153.915 604.002 155.083 605.556 155.083ZM605.512 154.238C604.757 154.238 604.245 153.726 604.245 152.944C604.245 152.163 604.757 151.651 605.512 151.651C606.266 151.651 606.751 152.163 606.751 152.944C606.751 153.726 606.266 154.238 605.512 154.238ZM610.927 155.083C612.373 155.083 613.326 154.211 613.326 152.9C613.326 151.588 612.436 150.717 611.107 150.717C610.514 150.717 609.993 150.941 609.714 151.282H609.687L609.957 149.522H612.948V148.614H609.139L608.6 152.396H609.66C609.759 151.884 610.262 151.561 610.918 151.561C611.7 151.561 612.221 152.1 612.221 152.9C612.221 153.699 611.691 154.238 610.891 154.238C610.19 154.238 609.705 153.843 609.66 153.259H608.555C608.627 154.346 609.579 155.083 610.927 155.083ZM615.35 154.993V153.816H614.2V154.993H615.35ZM618.627 155.083C620.154 155.083 621.098 153.852 621.098 151.804C621.098 149.782 620.163 148.524 618.627 148.524C617.145 148.524 616.147 149.701 616.147 151.804C616.147 153.771 617.037 155.083 618.627 155.083ZM618.627 154.238C617.8 154.229 617.252 153.457 617.252 151.804C617.252 150.348 617.693 149.369 618.627 149.369C619.445 149.369 619.993 150.151 619.993 151.804C619.993 153.259 619.552 154.229 618.627 154.238ZM624.271 155.083C625.798 155.083 626.741 153.852 626.741 151.804C626.741 149.782 625.807 148.524 624.271 148.524C622.789 148.524 621.791 149.701 621.791 151.804C621.791 153.771 622.681 155.083 624.271 155.083ZM624.271 154.238C623.444 154.229 622.896 153.457 622.896 151.804C622.896 150.348 623.337 149.369 624.271 149.369C625.088 149.369 625.636 150.151 625.636 151.804C625.636 153.259 625.196 154.229 624.271 154.238Z" fill="#222222"/>
<line x1="82" y1="174.674" x2="636.999" y2="174.674" stroke="#DFE2E6" stroke-width="0.4991"/>
<path d="M150.521 424.086V420.313H150.539C150.539 420.313 150.581 420.582 150.796 421.175L151.826 424.086H152.533L153.581 421.175C153.791 420.594 153.833 420.313 153.833 420.313H153.857L153.851 424.086H154.48V419.714H153.485L152.449 422.589C152.216 423.235 152.198 423.463 152.198 423.463H152.174C152.174 423.463 152.156 423.235 151.928 422.589L150.916 419.714H149.892V424.086H150.521ZM156.379 424.146C156.822 424.146 157.242 423.966 157.391 423.667H157.409C157.409 423.703 157.427 423.966 157.505 424.086H158.104V424.056C158.026 423.906 157.984 423.78 157.984 423.475V422.104C157.984 421.361 157.523 420.87 156.703 420.87C155.93 420.87 155.415 421.265 155.403 421.93H156.014C156.02 421.576 156.223 421.337 156.709 421.337C157.122 421.337 157.397 421.57 157.397 422.157L156.691 422.211C155.894 422.265 155.283 422.469 155.283 423.194C155.283 423.763 155.72 424.146 156.379 424.146ZM156.559 423.673C156.194 423.673 155.912 423.481 155.912 423.176C155.912 422.876 156.146 422.72 156.691 422.661L157.397 422.589V422.816C157.397 423.253 157.14 423.673 156.559 423.673ZM159.206 425.284C159.721 425.284 160.003 425.032 160.206 424.493L161.554 420.93H160.955L160.314 422.672C160.075 423.325 160.051 423.421 160.051 423.439H160.027C160.027 423.421 160.009 423.331 159.763 422.672L159.116 420.93H158.458L159.739 424.086L159.643 424.379C159.566 424.607 159.482 424.739 159.128 424.739C159.044 424.739 158.901 424.733 158.709 424.673V425.218C158.847 425.254 158.991 425.284 159.206 425.284ZM166.587 424.086V423.541H164.269C164.275 423.206 164.713 422.876 165.485 422.427C166.156 422.044 166.557 421.672 166.557 421.037C166.557 420.283 165.994 419.774 165.144 419.774C164.269 419.774 163.688 420.289 163.688 421.169V421.301H164.323C164.293 420.69 164.587 420.277 165.156 420.277C165.623 420.277 165.94 420.57 165.94 421.019C165.94 421.564 165.491 421.786 165 422.092C164.179 422.601 163.611 422.876 163.599 424.086H166.587Z" fill="#737A91"/>
<path d="M226.145 424.086V420.403H226.169C226.169 420.403 226.217 420.726 226.408 421.301L227.355 424.086H228.115L229.085 421.301C229.271 420.756 229.325 420.403 229.325 420.403H229.343L229.337 424.086H230.056V419.714H228.966L228.025 422.337C227.768 423.056 227.75 423.379 227.75 423.379H227.732C227.732 423.379 227.708 423.056 227.462 422.337L226.552 419.714H225.426V424.086H226.145ZM231.866 424.146C232.298 424.146 232.717 423.984 232.885 423.667H232.903C232.903 423.739 232.932 423.978 232.998 424.086H233.663V424.05C233.591 423.912 233.549 423.816 233.549 423.463V422.092C233.549 421.349 233.07 420.858 232.226 420.858C231.435 420.858 230.902 421.277 230.89 421.93H231.585C231.591 421.6 231.789 421.379 232.232 421.379C232.621 421.379 232.873 421.594 232.873 422.145L232.208 422.193C231.381 422.253 230.776 422.469 230.776 423.194C230.776 423.763 231.22 424.146 231.866 424.146ZM232.088 423.625C231.753 423.625 231.495 423.445 231.495 423.158C231.495 422.882 231.717 422.732 232.196 422.684L232.873 422.619V422.798C232.873 423.235 232.615 423.625 232.088 423.625ZM234.807 425.284C235.328 425.284 235.651 425.038 235.861 424.481L237.22 420.918H236.526L235.897 422.666C235.675 423.265 235.657 423.361 235.651 423.397H235.627C235.621 423.361 235.609 423.271 235.382 422.666L234.747 420.918H233.992L235.286 424.086L235.196 424.337C235.118 424.553 235.034 424.679 234.687 424.679C234.597 424.679 234.453 424.673 234.256 424.619V425.224C234.399 425.26 234.555 425.284 234.807 425.284ZM240.707 424.146C241.653 424.146 242.282 423.655 242.282 422.888C242.282 422.409 241.935 421.99 241.468 421.906V421.888C241.857 421.762 242.144 421.403 242.144 420.966C242.144 420.259 241.587 419.774 240.671 419.774C239.755 419.774 239.144 420.295 239.144 421.127H239.88C239.88 420.654 240.156 420.337 240.683 420.337C241.15 420.337 241.438 420.582 241.438 420.984C241.438 421.427 241.12 421.63 240.617 421.606L240.288 421.588V422.199L240.617 422.187C241.186 422.163 241.545 422.403 241.545 422.888C241.534 423.301 241.246 423.583 240.713 423.583C240.162 423.583 239.815 423.277 239.815 422.672H239.078C239.078 423.553 239.671 424.146 240.707 424.146Z" fill="#737A91"/>
<path d="M301.905 424.086V420.403H301.929C301.929 420.403 301.977 420.726 302.169 421.301L303.115 424.086H303.876L304.846 421.301C305.032 420.756 305.085 420.403 305.085 420.403H305.103L305.097 424.086H305.816V419.714H304.726L303.786 422.337C303.528 423.056 303.51 423.379 303.51 423.379H303.492C303.492 423.379 303.468 423.056 303.223 422.337L302.312 419.714H301.186V424.086H301.905ZM307.627 424.146C308.058 424.146 308.477 423.984 308.645 423.667H308.663C308.663 423.739 308.693 423.978 308.759 424.086H309.424V424.05C309.352 423.912 309.31 423.816 309.31 423.463V422.092C309.31 421.349 308.831 420.858 307.986 420.858C307.196 420.858 306.663 421.277 306.651 421.93H307.345C307.351 421.6 307.549 421.379 307.992 421.379C308.381 421.379 308.633 421.594 308.633 422.145L307.968 422.193C307.142 422.253 306.537 422.469 306.537 423.194C306.537 423.763 306.98 424.146 307.627 424.146ZM307.848 423.625C307.513 423.625 307.256 423.445 307.256 423.158C307.256 422.882 307.477 422.732 307.956 422.684L308.633 422.619V422.798C308.633 423.235 308.375 423.625 307.848 423.625ZM310.567 425.284C311.088 425.284 311.412 425.038 311.621 424.481L312.981 420.918H312.286L311.657 422.666C311.436 423.265 311.418 423.361 311.412 423.397H311.388C311.382 423.361 311.37 423.271 311.142 422.666L310.507 420.918H309.753L311.046 424.086L310.956 424.337C310.879 424.553 310.795 424.679 310.447 424.679C310.357 424.679 310.214 424.673 310.016 424.619V425.224C310.16 425.26 310.316 425.284 310.567 425.284ZM317.623 424.086V423.134H318.288V422.529H317.623V419.834H316.887L314.82 422.529V423.134H316.947V424.086H317.623ZM315.491 422.511C315.491 422.511 315.605 422.403 315.791 422.169L316.575 421.145C316.833 420.816 316.929 420.648 316.929 420.648H316.947V422.529H315.491V422.511Z" fill="#737A91"/>
<path d="M377.792 424.086V420.403H377.816C377.816 420.403 377.864 420.726 378.055 421.301L379.002 424.086H379.762L380.733 421.301C380.918 420.756 380.972 420.403 380.972 420.403H380.99L380.984 424.086H381.703V419.714H380.613L379.672 422.337C379.415 423.056 379.397 423.379 379.397 423.379H379.379C379.379 423.379 379.355 423.056 379.109 422.337L378.199 419.714H377.073V424.086H377.792ZM383.514 424.146C383.945 424.146 384.364 423.984 384.532 423.667H384.55C384.55 423.739 384.58 423.978 384.645 424.086H385.31V424.05C385.238 423.912 385.196 423.816 385.196 423.463V422.092C385.196 421.349 384.717 420.858 383.873 420.858C383.082 420.858 382.549 421.277 382.537 421.93H383.232C383.238 421.6 383.436 421.379 383.879 421.379C384.268 421.379 384.52 421.594 384.52 422.145L383.855 422.193C383.028 422.253 382.423 422.469 382.423 423.194C382.423 423.763 382.867 424.146 383.514 424.146ZM383.735 423.625C383.4 423.625 383.142 423.445 383.142 423.158C383.142 422.882 383.364 422.732 383.843 422.684L384.52 422.619V422.798C384.52 423.235 384.262 423.625 383.735 423.625ZM386.454 425.284C386.975 425.284 387.298 425.038 387.508 424.481L388.867 420.918H388.173L387.544 422.666C387.322 423.265 387.304 423.361 387.298 423.397H387.274C387.268 423.361 387.256 423.271 387.029 422.666L386.394 420.918H385.639L386.933 424.086L386.843 424.337C386.765 424.553 386.681 424.679 386.334 424.679C386.244 424.679 386.1 424.673 385.903 424.619V425.224C386.046 425.26 386.202 425.284 386.454 425.284ZM392.396 424.146C393.36 424.146 393.995 423.565 393.995 422.69C393.995 421.816 393.402 421.235 392.516 421.235C392.121 421.235 391.773 421.385 391.588 421.612H391.57L391.749 420.439H393.744V419.834H391.204L390.845 422.355H391.552C391.617 422.014 391.953 421.798 392.39 421.798C392.911 421.798 393.258 422.157 393.258 422.69C393.258 423.223 392.905 423.583 392.372 423.583C391.905 423.583 391.582 423.319 391.552 422.93H390.815C390.863 423.655 391.498 424.146 392.396 424.146Z" fill="#737A91"/>
<path d="M453.711 424.086V420.403H453.735C453.735 420.403 453.783 420.726 453.974 421.301L454.921 424.086H455.681L456.651 421.301C456.837 420.756 456.891 420.403 456.891 420.403H456.909L456.903 424.086H457.622V419.714H456.532L455.591 422.337C455.334 423.056 455.316 423.379 455.316 423.379H455.298C455.298 423.379 455.274 423.056 455.028 422.337L454.118 419.714H452.992V424.086H453.711ZM459.432 424.146C459.864 424.146 460.283 423.984 460.451 423.667H460.468C460.468 423.739 460.498 423.978 460.564 424.086H461.229V424.05C461.157 423.912 461.115 423.816 461.115 423.463V422.092C461.115 421.349 460.636 420.858 459.792 420.858C459.001 420.858 458.468 421.277 458.456 421.93H459.151C459.157 421.6 459.354 421.379 459.798 421.379C460.187 421.379 460.439 421.594 460.439 422.145L459.774 422.193C458.947 422.253 458.342 422.469 458.342 423.194C458.342 423.763 458.786 424.146 459.432 424.146ZM459.654 423.625C459.319 423.625 459.061 423.445 459.061 423.158C459.061 422.882 459.283 422.732 459.762 422.684L460.439 422.619V422.798C460.439 423.235 460.181 423.625 459.654 423.625ZM462.373 425.284C462.894 425.284 463.217 425.038 463.427 424.481L464.786 420.918H464.092L463.463 422.666C463.241 423.265 463.223 423.361 463.217 423.397H463.193C463.187 423.361 463.175 423.271 462.948 422.666L462.313 420.918H461.558L462.852 424.086L462.762 424.337C462.684 424.553 462.6 424.679 462.253 424.679C462.163 424.679 462.019 424.673 461.822 424.619V425.224C461.965 425.26 462.121 425.284 462.373 425.284ZM468.357 424.146C469.303 424.146 469.89 423.577 469.89 422.72C469.89 421.864 469.297 421.295 468.381 421.295C467.902 421.295 467.506 421.529 467.327 421.906H467.309C467.321 421.007 467.686 420.337 468.405 420.337C468.866 420.337 469.123 420.606 469.159 421.019H469.878C469.83 420.319 469.261 419.774 468.405 419.774C467.369 419.774 466.674 420.558 466.674 422.11C466.674 423.367 467.321 424.146 468.357 424.146ZM468.327 423.583C467.824 423.583 467.482 423.241 467.482 422.72C467.482 422.199 467.824 421.858 468.327 421.858C468.83 421.858 469.153 422.199 469.153 422.72C469.153 423.241 468.83 423.583 468.327 423.583Z" fill="#737A91"/>
<path d="M529.505 424.086V420.403H529.529C529.529 420.403 529.577 420.726 529.769 421.301L530.715 424.086H531.476L532.446 421.301C532.632 420.756 532.686 420.403 532.686 420.403H532.704L532.698 424.086H533.416V419.714H532.326L531.386 422.337C531.128 423.056 531.11 423.379 531.11 423.379H531.092C531.092 423.379 531.068 423.056 530.823 422.337L529.913 419.714H528.787V424.086H529.505ZM535.227 424.146C535.658 424.146 536.077 423.984 536.245 423.667H536.263C536.263 423.739 536.293 423.978 536.359 424.086H537.024V424.05C536.952 423.912 536.91 423.816 536.91 423.463V422.092C536.91 421.349 536.431 420.858 535.586 420.858C534.796 420.858 534.263 421.277 534.251 421.93H534.945C534.951 421.6 535.149 421.379 535.592 421.379C535.982 421.379 536.233 421.594 536.233 422.145L535.568 422.193C534.742 422.253 534.137 422.469 534.137 423.194C534.137 423.763 534.58 424.146 535.227 424.146ZM535.449 423.625C535.113 423.625 534.856 423.445 534.856 423.158C534.856 422.882 535.077 422.732 535.556 422.684L536.233 422.619V422.798C536.233 423.235 535.976 423.625 535.449 423.625ZM538.167 425.284C538.688 425.284 539.012 425.038 539.221 424.481L540.581 420.918H539.886L539.257 422.666C539.036 423.265 539.018 423.361 539.012 423.397H538.988C538.982 423.361 538.97 423.271 538.742 422.666L538.107 420.918H537.353L538.646 424.086L538.556 424.337C538.479 424.553 538.395 424.679 538.047 424.679C537.958 424.679 537.814 424.673 537.616 424.619V425.224C537.76 425.26 537.916 425.284 538.167 425.284ZM543.804 424.086C543.882 422.565 544.451 421.139 545.445 420.379V419.834H542.319V420.439H543.54C544.361 420.439 544.619 420.415 544.619 420.415V420.433C543.798 421.127 543.193 422.505 543.025 424.086H543.804Z" fill="#737A91"/>
<path d="M604.878 424.086V420.313H604.896C604.896 420.313 604.938 420.582 605.153 421.175L606.184 424.086H606.89L607.938 421.175C608.148 420.594 608.19 420.313 608.19 420.313H608.214L608.208 424.086H608.837V419.714H607.843L606.806 422.589C606.573 423.235 606.555 423.463 606.555 423.463H606.531C606.531 423.463 606.513 423.235 606.285 422.589L605.273 419.714H604.249V424.086H604.878ZM610.736 424.146C611.179 424.146 611.599 423.966 611.748 423.667H611.766C611.766 423.703 611.784 423.966 611.862 424.086H612.461V424.056C612.383 423.906 612.341 423.78 612.341 423.475V422.104C612.341 421.361 611.88 420.87 611.06 420.87C610.287 420.87 609.772 421.265 609.76 421.93H610.371C610.377 421.576 610.581 421.337 611.066 421.337C611.479 421.337 611.754 421.57 611.754 422.157L611.048 422.211C610.251 422.265 609.64 422.469 609.64 423.194C609.64 423.763 610.077 424.146 610.736 424.146ZM610.916 423.673C610.551 423.673 610.269 423.481 610.269 423.176C610.269 422.876 610.503 422.72 611.048 422.661L611.754 422.589V422.816C611.754 423.253 611.497 423.673 610.916 423.673ZM613.563 425.284C614.078 425.284 614.36 425.032 614.564 424.493L615.911 420.93H615.312L614.671 422.672C614.432 423.325 614.408 423.421 614.408 423.439H614.384C614.384 423.421 614.366 423.331 614.12 422.672L613.473 420.93H612.815L614.096 424.086L614.001 424.379C613.923 424.607 613.839 424.739 613.485 424.739C613.402 424.739 613.258 424.733 613.066 424.673V425.218C613.204 425.254 613.348 425.284 613.563 425.284ZM619.477 424.146C620.417 424.146 621.046 423.637 621.046 422.87C621.046 422.397 620.747 421.99 620.291 421.84V421.816C620.651 421.672 620.89 421.307 620.89 420.918C620.89 420.229 620.321 419.774 619.477 419.774C618.632 419.774 618.063 420.229 618.063 420.918C618.063 421.313 618.303 421.672 618.662 421.816V421.84C618.213 422.002 617.908 422.409 617.908 422.87C617.908 423.637 618.537 424.146 619.477 424.146ZM619.477 421.594C619.004 421.594 618.68 421.337 618.68 420.942C618.68 420.54 618.998 420.277 619.477 420.277C619.956 420.277 620.273 420.54 620.273 420.942C620.273 421.337 619.95 421.594 619.477 421.594ZM619.477 423.643C618.926 423.643 618.555 423.337 618.555 422.858C618.555 422.397 618.92 422.086 619.477 422.086C620.034 422.086 620.399 422.397 620.399 422.858C620.399 423.337 620.028 423.643 619.477 423.643Z" fill="#737A91"/>
<path d="M104.965 299.94L103.108 299.94L103.108 299.042C103.108 298.395 103.186 298.209 103.665 298.054C104.114 297.91 104.605 297.82 104.965 297.544L104.965 296.886L104.953 296.886C104.546 297.197 104.078 297.347 103.689 297.485C103.282 297.628 103.048 297.814 102.958 298.161L102.935 298.161C102.851 297.58 102.509 297.125 101.821 297.125C101.084 297.125 100.593 297.556 100.593 298.545L100.593 300.479L104.965 300.479L104.965 299.94ZM101.072 299.94L101.072 298.575C101.072 298.03 101.311 297.694 101.821 297.694C102.27 297.694 102.629 297.886 102.629 298.575L102.629 299.94L101.072 299.94ZM105.025 294.925C105.025 294.23 104.611 293.691 103.989 293.571L103.989 294.068C104.408 294.212 104.605 294.446 104.605 294.925C104.605 295.494 104.168 295.877 103.509 295.877L103.509 293.523C103.408 293.517 103.318 293.517 103.27 293.517C102.366 293.517 101.761 294.092 101.761 294.949C101.761 295.829 102.407 296.416 103.384 296.416C104.366 296.416 105.025 295.817 105.025 294.925ZM103.102 295.877C102.551 295.835 102.18 295.476 102.18 294.949C102.18 294.428 102.551 294.098 103.102 294.074L103.102 295.877ZM104.965 291.25L101.821 290.052L101.821 290.591L103.468 291.19C104.366 291.52 104.468 291.544 104.468 291.544L104.468 291.567C104.468 291.567 104.366 291.591 103.468 291.933L101.821 292.562L101.821 293.119L104.965 291.867L104.965 291.25ZM105.025 288.222C105.025 287.527 104.611 286.988 103.989 286.868L103.989 287.365C104.408 287.509 104.605 287.742 104.605 288.222C104.605 288.791 104.168 289.174 103.509 289.174L103.509 286.82C103.408 286.814 103.318 286.814 103.27 286.814C102.366 286.814 101.761 287.389 101.761 288.246C101.761 289.126 102.407 289.713 103.384 289.713C104.366 289.713 105.025 289.114 105.025 288.222ZM103.102 289.174C102.551 289.132 102.18 288.773 102.18 288.246C102.18 287.725 102.551 287.395 103.102 287.371L103.102 289.174ZM104.965 285.519L103.318 285.519C102.635 285.519 102.18 285.201 102.18 284.638C102.18 284.201 102.431 283.907 102.97 283.907L104.965 283.907L104.965 283.41L102.97 283.41C102.246 283.41 101.761 283.77 101.761 284.512C101.761 284.944 101.934 285.327 102.24 285.495L102.24 285.519L101.821 285.519L101.821 286.016L104.965 286.016L104.965 285.519ZM105.025 281.473C105.025 281.042 104.851 280.689 104.546 280.521L104.546 280.497L104.965 280.497L104.965 280L101.821 280L101.821 280.497L103.468 280.497C104.15 280.497 104.605 280.784 104.605 281.347C104.605 281.785 104.354 282.048 103.815 282.048L101.821 282.048L101.821 282.545L103.815 282.545C104.54 282.545 105.025 282.216 105.025 281.473ZM105.025 277.708C105.025 277.013 104.611 276.474 103.989 276.354L103.989 276.851C104.408 276.995 104.605 277.229 104.605 277.708C104.605 278.277 104.168 278.66 103.509 278.66L103.509 276.306C103.408 276.3 103.318 276.3 103.27 276.3C102.366 276.3 101.761 276.875 101.761 277.732C101.761 278.612 102.407 279.199 103.384 279.199C104.366 279.199 105.025 278.6 105.025 277.708ZM103.102 278.66C102.551 278.618 102.18 278.259 102.18 277.732C102.18 277.211 102.551 276.881 103.102 276.857L103.102 278.66ZM105.025 272.496C105.025 271.591 104.372 270.98 103.39 270.98C102.407 270.98 101.761 271.591 101.761 272.496C101.761 273.4 102.407 274.011 103.39 274.011C104.372 274.011 105.025 273.4 105.025 272.496ZM104.605 272.496C104.605 273.082 104.168 273.472 103.39 273.472C102.665 273.472 102.18 273.118 102.18 272.496C102.18 271.909 102.617 271.519 103.39 271.519C104.12 271.519 104.605 271.873 104.605 272.496ZM104.965 268.769L101.821 267.571L101.821 268.11L103.468 268.709C104.366 269.038 104.468 269.062 104.468 269.062L104.468 269.086C104.468 269.086 104.366 269.11 103.468 269.452L101.821 270.08L101.821 270.637L104.965 269.386L104.965 268.769ZM105.025 265.74C105.025 265.046 104.611 264.507 103.989 264.387L103.989 264.884C104.408 265.028 104.605 265.261 104.605 265.74C104.605 266.309 104.168 266.693 103.509 266.693L103.509 264.339C103.408 264.333 103.318 264.333 103.27 264.333C102.366 264.333 101.761 264.908 101.761 265.764C101.761 266.645 102.407 267.232 103.384 267.232C104.366 267.232 105.025 266.633 105.025 265.74ZM103.102 266.693C102.551 266.651 102.18 266.291 102.18 265.764C102.18 265.243 102.551 264.914 103.102 264.89L103.102 266.693ZM104.965 263.037L103.426 263.037C102.749 263.037 102.3 262.834 102.3 262.031C102.3 261.857 102.318 261.75 102.318 261.75L102.318 261.732L101.821 261.732C101.821 261.732 101.791 261.821 101.791 261.965C101.791 262.606 102.066 262.864 102.389 263.013L102.389 263.037L101.821 263.037L101.821 263.534L104.965 263.534L104.965 263.037ZM104.995 258.505C104.995 258.373 104.983 258.284 104.965 258.194L104.516 258.194C104.522 258.224 104.528 258.29 104.528 258.355C104.528 258.745 104.444 258.787 104.174 258.787L102.258 258.787L102.258 258.194L101.821 258.194L101.821 258.787L100.922 258.787L100.922 259.284L101.821 259.284L101.821 259.793L102.258 259.793L102.258 259.284L104.3 259.284C104.797 259.284 104.995 259.014 104.995 258.505ZM101.222 256.867L100.593 256.867L100.593 257.436L101.222 257.436L101.222 256.867ZM104.965 256.903L101.821 256.903L101.821 257.4L104.965 257.4L104.965 256.903ZM104.965 255.421L103.198 255.421C102.593 255.421 102.18 255.146 102.18 254.655C102.18 254.206 102.455 253.912 102.958 253.912L104.965 253.912L104.965 253.415L103.198 253.415C102.593 253.415 102.18 253.133 102.18 252.636C102.18 252.193 102.437 251.906 102.97 251.906L104.965 251.906L104.965 251.409L102.97 251.409C102.24 251.409 101.761 251.768 101.761 252.499C101.761 252.96 101.958 253.325 102.3 253.505L102.3 253.529C101.958 253.708 101.761 254.044 101.761 254.511C101.761 254.864 101.916 255.218 102.24 255.397L102.24 255.421L101.821 255.421L101.821 255.918L104.965 255.918L104.965 255.421ZM105.025 249.158C105.025 248.463 104.611 247.924 103.989 247.804L103.989 248.301C104.408 248.445 104.605 248.679 104.605 249.158C104.605 249.727 104.168 250.11 103.509 250.11L103.509 247.756C103.408 247.75 103.318 247.75 103.27 247.75C102.366 247.75 101.761 248.325 101.761 249.182C101.761 250.062 102.407 250.649 103.384 250.649C104.366 250.649 105.025 250.05 105.025 249.158ZM103.102 250.11C102.551 250.068 102.18 249.709 102.18 249.182C102.18 248.661 102.551 248.331 103.102 248.307L103.102 250.11Z" fill="#737A91"/>
<path d="M122.203 205.896V204.417H121.855V203.974H122.203V203.543H121.855V203.1H122.203V201.62H123.143L123.61 203.1H124.155V201.62H124.82V203.1H125.161V203.543H124.82V203.974H125.161V204.417H124.82V205.896H123.874L123.395 204.417H122.867V205.896H122.203ZM122.844 203.1H123.011L122.838 202.525H122.814L122.844 203.1ZM122.867 203.974H123.263L123.131 203.543H122.856L122.867 203.974ZM123.892 203.974H124.167L124.155 203.543H123.754L123.892 203.974ZM124.173 204.962H124.203L124.179 204.417H124.017L124.173 204.962ZM127.087 205.896V201.644H126.489C126.429 202.159 126.189 202.501 125.393 202.501V202.938H126.411V205.896H127.087ZM128.752 205.896V205.112H127.986V205.896H128.752ZM131.008 205.956C131.972 205.956 132.607 205.375 132.607 204.501C132.607 203.627 132.014 203.046 131.128 203.046C130.732 203.046 130.385 203.195 130.199 203.423H130.181L130.361 202.249H132.356V201.644H129.816L129.457 204.166H130.164C130.229 203.824 130.565 203.609 131.002 203.609C131.523 203.609 131.87 203.968 131.87 204.501C131.87 205.034 131.517 205.393 130.984 205.393C130.517 205.393 130.193 205.13 130.164 204.741H129.427C129.475 205.465 130.11 205.956 131.008 205.956ZM134.022 205.896V204.154C134.022 203.597 134.262 203.213 134.711 203.213C135.1 203.213 135.352 203.453 135.352 203.914V205.896H136.028V204.154C136.028 203.597 136.274 203.213 136.729 203.213C137.106 203.213 137.358 203.447 137.358 203.926V205.896H138.035V203.902C138.035 203.159 137.657 202.668 136.885 202.668C136.466 202.668 136.082 202.854 135.873 203.177H135.855C135.675 202.854 135.376 202.668 134.92 202.668C134.567 202.668 134.214 202.842 134.046 203.147H134.022V202.728H133.345V205.896H134.022Z" fill="#737A91"/>
<line x1="144.879" y1="203.138" x2="620.521" y2="203.138" stroke="#DFE2E6" stroke-width="0.4991" stroke-dasharray="2.99 2.99"/>
<path d="M127.493 270.881V269.402H127.145V268.958H127.493V268.527H127.145V268.084H127.493V266.605H128.433L128.9 268.084H129.445V266.605H130.11V268.084H130.451V268.527H130.11V268.958H130.451V269.402H130.11V270.881H129.163L128.684 269.402H128.157V270.881H127.493ZM128.133 268.084H128.301L128.127 267.509H128.103L128.133 268.084ZM128.157 268.958H128.553L128.421 268.527H128.145L128.157 268.958ZM129.181 268.958H129.457L129.445 268.527H129.044L129.181 268.958ZM129.463 269.947H129.493L129.469 269.402H129.307L129.463 269.947ZM132.377 270.881V266.629H131.778C131.718 267.144 131.479 267.485 130.682 267.485V267.922H131.701V270.881H132.377ZM134.024 270.881V269.138C134.024 268.581 134.264 268.198 134.713 268.198C135.102 268.198 135.354 268.437 135.354 268.898V270.881H136.03V269.138C136.03 268.581 136.276 268.198 136.731 268.198C137.109 268.198 137.36 268.431 137.36 268.91V270.881H138.037V268.886C138.037 268.144 137.66 267.653 136.887 267.653C136.468 267.653 136.084 267.838 135.875 268.162H135.857C135.677 267.838 135.378 267.653 134.922 267.653C134.569 267.653 134.216 267.826 134.048 268.132H134.024V267.713H133.347V270.881H134.024Z" fill="#737A91"/>
<line x1="144.879" y1="268.125" x2="620.521" y2="268.125" stroke="#DFE2E6" stroke-width="0.4991" stroke-dasharray="2.99 2.99"/>
<path d="M120.391 335.864V334.385H120.043V333.942H120.391V333.511H120.043V333.067H120.391V331.588H121.331L121.798 333.067H122.343V331.588H123.008V333.067H123.349V333.511H123.008V333.942H123.349V334.385H123.008V335.864H122.062L121.583 334.385H121.056V335.864H120.391ZM121.032 333.067H121.199L121.026 332.492H121.002L121.032 333.067ZM121.056 333.942H121.451L121.319 333.511H121.044L121.056 333.942ZM122.08 333.942H122.355L122.343 333.511H121.942L122.08 333.942ZM122.361 334.93H122.391L122.367 334.385H122.205L122.361 334.93ZM125.335 335.924C126.3 335.924 126.935 335.343 126.935 334.469C126.935 333.594 126.342 333.013 125.455 333.013C125.06 333.013 124.713 333.163 124.527 333.391H124.509L124.689 332.217H126.683V331.612H124.144L123.784 334.133H124.491C124.557 333.792 124.892 333.576 125.329 333.576C125.851 333.576 126.198 333.936 126.198 334.469C126.198 335.002 125.845 335.361 125.311 335.361C124.844 335.361 124.521 335.098 124.491 334.708H123.754C123.802 335.433 124.437 335.924 125.335 335.924ZM129.105 335.924C130.124 335.924 130.753 335.104 130.753 333.738C130.753 332.391 130.13 331.552 129.105 331.552C128.117 331.552 127.452 332.337 127.452 333.738C127.452 335.05 128.045 335.924 129.105 335.924ZM129.105 335.361C128.554 335.355 128.189 334.84 128.189 333.738C128.189 332.768 128.483 332.115 129.105 332.115C129.65 332.115 130.016 332.636 130.016 333.738C130.016 334.708 129.722 335.355 129.105 335.361ZM132.951 335.924C133.969 335.924 134.598 335.104 134.598 333.738C134.598 332.391 133.975 331.552 132.951 331.552C131.963 331.552 131.298 332.337 131.298 333.738C131.298 335.05 131.891 335.924 132.951 335.924ZM132.951 335.361C132.4 335.355 132.035 334.84 132.035 333.738C132.035 332.768 132.328 332.115 132.951 332.115C133.496 332.115 133.862 332.636 133.862 333.738C133.862 334.708 133.568 335.355 132.951 335.361ZM135.953 335.864V334.81L136.307 334.469L137.499 335.864H138.367L136.762 334.026L138.133 332.696H137.247L135.965 333.978H135.941C135.941 333.978 135.953 333.834 135.953 333.121V331.492H135.277V335.864H135.953Z" fill="#737A91"/>
<line x1="144.879" y1="333.11" x2="620.521" y2="333.11" stroke="#DFE2E6" stroke-width="0.4991" stroke-dasharray="2.99 2.99"/>
<path d="M136.514 400.908C137.532 400.908 138.161 400.087 138.161 398.721C138.161 397.374 137.538 396.535 136.514 396.535C135.526 396.535 134.861 397.32 134.861 398.721C134.861 400.033 135.454 400.908 136.514 400.908ZM136.514 400.345C135.963 400.339 135.598 399.824 135.598 398.721C135.598 397.751 135.891 397.098 136.514 397.098C137.059 397.098 137.425 397.619 137.425 398.721C137.425 399.692 137.131 400.339 136.514 400.345Z" fill="#737A91"/>
<line x1="144.879" y1="398.09" x2="620.521" y2="398.09" stroke="#DFE2E6" stroke-width="0.4991" stroke-dasharray="2.99 2.99"/>
<path d="M141.391 288.718L221.909 273.766L303 358.085L436.216 233.838L525.85 216.726L613.855 198.799" stroke="#25D1A2" stroke-width="0.998199"/>
<path d="M98.6858 104.984V97.7244H101.408C101.966 97.7244 102.434 97.8213 102.812 98.015C103.192 98.2088 103.479 98.4806 103.673 98.8303C103.869 99.1777 103.967 99.583 103.967 100.046C103.967 100.512 103.868 100.916 103.67 101.258C103.474 101.599 103.184 101.862 102.801 102.049C102.418 102.233 101.948 102.325 101.39 102.325H99.4514V101.234H101.213C101.539 101.234 101.806 101.189 102.014 101.099C102.222 101.007 102.376 100.873 102.475 100.698C102.577 100.521 102.628 100.304 102.628 100.046C102.628 99.7886 102.577 99.5688 102.475 99.3869C102.373 99.2025 102.219 99.0631 102.011 98.9686C101.803 98.8717 101.535 98.8232 101.206 98.8232H100.001V104.984H98.6858ZM102.436 101.694L104.233 104.984H102.766L101 101.694H102.436ZM107.445 105.09C106.899 105.09 106.428 104.977 106.031 104.75C105.636 104.521 105.333 104.197 105.12 103.779C104.907 103.358 104.801 102.863 104.801 102.294C104.801 101.733 104.907 101.242 105.12 100.819C105.335 100.394 105.635 100.063 106.02 99.8264C106.405 99.5877 106.858 99.4684 107.378 99.4684C107.713 99.4684 108.03 99.5227 108.328 99.6314C108.628 99.7378 108.893 99.9032 109.122 100.128C109.353 100.352 109.535 100.638 109.668 100.986C109.8 101.331 109.866 101.742 109.866 102.219V102.613H105.403V101.748H108.636C108.634 101.502 108.581 101.283 108.477 101.092C108.373 100.898 108.227 100.746 108.041 100.635C107.856 100.524 107.641 100.468 107.396 100.468C107.133 100.468 106.903 100.532 106.704 100.659C106.506 100.785 106.351 100.95 106.24 101.156C106.131 101.359 106.076 101.582 106.073 101.826V102.581C106.073 102.897 106.131 103.169 106.247 103.396C106.363 103.62 106.525 103.793 106.733 103.913C106.941 104.032 107.184 104.091 107.463 104.091C107.65 104.091 107.819 104.065 107.97 104.013C108.121 103.958 108.252 103.879 108.363 103.775C108.474 103.671 108.558 103.542 108.615 103.389L109.813 103.524C109.737 103.84 109.593 104.117 109.381 104.353C109.17 104.587 108.901 104.769 108.572 104.899C108.244 105.027 107.868 105.09 107.445 105.09ZM115.651 99.5393L113.712 104.984H112.294L110.355 99.5393H111.723L112.974 103.584H113.031L114.286 99.5393H115.651ZM118.755 105.09C118.21 105.09 117.738 104.977 117.341 104.75C116.946 104.521 116.643 104.197 116.43 103.779C116.217 103.358 116.111 102.863 116.111 102.294C116.111 101.733 116.217 101.242 116.43 100.819C116.645 100.394 116.945 100.063 117.33 99.8264C117.716 99.5877 118.168 99.4684 118.688 99.4684C119.024 99.4684 119.34 99.5227 119.638 99.6314C119.938 99.7378 120.203 99.9032 120.432 100.128C120.664 100.352 120.846 100.638 120.978 100.986C121.11 101.331 121.177 101.742 121.177 102.219V102.613H116.714V101.748H119.946C119.944 101.502 119.891 101.283 119.787 101.092C119.683 100.898 119.538 100.746 119.351 100.635C119.167 100.524 118.952 100.468 118.706 100.468C118.444 100.468 118.213 100.532 118.015 100.659C117.816 100.785 117.661 100.95 117.55 101.156C117.442 101.359 117.386 101.582 117.384 101.826V102.581C117.384 102.897 117.442 103.169 117.557 103.396C117.673 103.62 117.835 103.793 118.043 103.913C118.251 104.032 118.494 104.091 118.773 104.091C118.96 104.091 119.129 104.065 119.28 104.013C119.431 103.958 119.562 103.879 119.674 103.775C119.785 103.671 119.868 103.542 119.925 103.389L121.123 103.524C121.048 103.84 120.904 104.117 120.691 104.353C120.481 104.587 120.211 104.769 119.883 104.899C119.554 105.027 119.178 105.09 118.755 105.09ZM123.537 101.794V104.984H122.254V99.5393H123.48V100.464H123.544C123.669 100.16 123.869 99.9174 124.143 99.7378C124.419 99.5582 124.761 99.4684 125.167 99.4684C125.543 99.4684 125.87 99.5487 126.149 99.7094C126.43 99.8701 126.648 100.103 126.802 100.408C126.957 100.713 127.034 101.082 127.032 101.517V104.984H125.749V101.716C125.749 101.352 125.654 101.067 125.465 100.861C125.278 100.656 125.02 100.553 124.689 100.553C124.464 100.553 124.265 100.603 124.09 100.702C123.917 100.799 123.781 100.939 123.682 101.124C123.585 101.308 123.537 101.531 123.537 101.794ZM131.798 102.694V99.5393H133.081V104.984H131.837V104.016H131.78C131.658 104.321 131.456 104.57 131.174 104.764C130.895 104.958 130.552 105.055 130.143 105.055C129.786 105.055 129.47 104.976 129.196 104.817C128.925 104.657 128.712 104.424 128.558 104.119C128.405 103.812 128.328 103.441 128.328 103.006V99.5393H129.611V102.808C129.611 103.153 129.706 103.427 129.895 103.63C130.084 103.833 130.332 103.935 130.639 103.935C130.828 103.935 131.011 103.889 131.188 103.797C131.366 103.704 131.511 103.567 131.625 103.385C131.74 103.201 131.798 102.971 131.798 102.694ZM136.803 105.09C136.257 105.09 135.786 104.977 135.389 104.75C134.994 104.521 134.69 104.197 134.478 103.779C134.265 103.358 134.158 102.863 134.158 102.294C134.158 101.733 134.265 101.242 134.478 100.819C134.693 100.394 134.993 100.063 135.378 99.8264C135.763 99.5877 136.216 99.4684 136.736 99.4684C137.071 99.4684 137.388 99.5227 137.685 99.6314C137.986 99.7378 138.25 99.9032 138.48 100.128C138.711 100.352 138.893 100.638 139.025 100.986C139.158 101.331 139.224 101.742 139.224 102.219V102.613H134.761V101.748H137.994C137.992 101.502 137.938 101.283 137.834 101.092C137.73 100.898 137.585 100.746 137.398 100.635C137.214 100.524 136.999 100.468 136.753 100.468C136.491 100.468 136.261 100.532 136.062 100.659C135.864 100.785 135.709 100.95 135.598 101.156C135.489 101.359 135.433 101.582 135.431 101.826V102.581C135.431 102.897 135.489 103.169 135.605 103.396C135.721 103.62 135.882 103.793 136.09 103.913C136.298 104.032 136.542 104.091 136.821 104.091C137.007 104.091 137.176 104.065 137.327 104.013C137.479 103.958 137.61 103.879 137.721 103.775C137.832 103.671 137.916 103.542 137.973 103.389L139.171 103.524C139.095 103.84 138.951 104.117 138.738 104.353C138.528 104.587 138.259 104.769 137.93 104.899C137.602 105.027 137.226 105.09 136.803 105.09Z" fill="#222222"/>
<path d="M82 116H637" stroke="#DFE2E6" stroke-width="0.4991"/>
<path d="M573 95.9946C573 94.3407 574.341 93 575.995 93H633.977C635.63 93 636.971 94.3407 636.971 95.9946V105.993C636.971 107.647 635.63 108.987 633.977 108.987H575.995C574.341 108.987 573 107.647 573 105.993V95.9946Z" fill="#009E74"/>
<path d="M583.648 103.564C584.828 103.564 585.702 102.844 585.828 101.768H584.94C584.821 102.411 584.304 102.837 583.648 102.837C582.739 102.837 582.131 102.082 582.131 100.943C582.131 99.8044 582.732 99.0497 583.641 99.0497C584.311 99.0497 584.821 99.469 584.926 100.105H585.807C585.681 99.0358 584.814 98.323 583.641 98.323C582.208 98.323 581.258 99.3712 581.258 100.943C581.258 102.515 582.215 103.564 583.648 103.564ZM587.65 103.564C588.153 103.564 588.642 103.375 588.838 103.005H588.859C588.859 103.088 588.894 103.368 588.971 103.494H589.746V103.452C589.662 103.291 589.613 103.179 589.613 102.767V101.167C589.613 100.3 589.054 99.7275 588.069 99.7275C587.147 99.7275 586.525 100.217 586.511 100.978H587.322C587.329 100.594 587.559 100.335 588.076 100.335C588.53 100.335 588.824 100.587 588.824 101.23L588.048 101.286C587.084 101.356 586.378 101.607 586.378 102.453C586.378 103.116 586.895 103.564 587.65 103.564ZM587.908 102.956C587.517 102.956 587.217 102.746 587.217 102.411C587.217 102.089 587.475 101.915 588.034 101.859L588.824 101.782V101.991C588.824 102.502 588.523 102.956 587.908 102.956ZM591.786 103.564C592.709 103.564 593.331 103.081 593.331 102.404C593.331 101.509 592.492 101.397 591.814 101.265C591.339 101.174 591.102 101.083 591.102 100.783C591.102 100.517 591.339 100.321 591.737 100.321C592.15 100.321 592.443 100.503 592.443 100.901H593.24C593.24 100.182 592.66 99.7275 591.737 99.7275C590.885 99.7275 590.312 100.21 590.312 100.859C590.312 101.46 590.668 101.726 591.43 101.894C592.185 102.054 592.492 102.068 592.492 102.474C592.492 102.753 592.24 102.956 591.786 102.956C591.304 102.956 590.976 102.704 590.976 102.236H590.179C590.179 103.033 590.822 103.564 591.786 103.564ZM594.783 103.494V101.516C594.783 100.818 595.084 100.349 595.699 100.349C596.153 100.349 596.453 100.629 596.453 101.181V103.494H597.243V101.181C597.243 100.328 596.803 99.7275 595.887 99.7275C595.419 99.7275 595.014 99.8952 594.79 100.273H594.769C594.79 99.6437 594.783 98.3929 594.783 98.3929H593.994V103.494H594.783ZM599.726 103.564C600.83 103.564 601.57 102.802 601.57 101.642C601.57 100.482 600.83 99.7275 599.726 99.7275C598.622 99.7275 597.881 100.482 597.881 101.642C597.881 102.802 598.622 103.564 599.726 103.564ZM599.726 102.928C599.125 102.928 598.72 102.46 598.72 101.642C598.72 100.873 599.083 100.363 599.726 100.363C600.334 100.363 600.732 100.825 600.732 101.642C600.732 102.411 600.369 102.928 599.726 102.928ZM603.58 103.564C604.048 103.564 604.44 103.375 604.635 103.019H604.656V103.494H605.446V99.7974H604.656V101.754C604.656 102.46 604.363 102.928 603.769 102.928C603.329 102.928 603.056 102.655 603.056 102.089V99.7974H602.267V102.11C602.267 102.977 602.679 103.564 603.58 103.564ZM607.628 103.529C607.817 103.529 607.978 103.515 608.082 103.494V102.823C608.048 102.83 607.971 102.837 607.894 102.837C607.503 102.837 607.391 102.739 607.391 102.397V100.426H608.082V99.7974H607.391V98.7772H606.601V99.7974H606.007V100.426H606.601V102.655C606.601 103.2 606.923 103.529 607.628 103.529ZM611.572 103.494V100.426H612.376V99.7974H611.572V99.5179C611.572 99.0637 611.803 98.9589 612.376 99.0148V98.372C612.257 98.344 612.082 98.323 611.928 98.323C611.23 98.323 610.783 98.6514 610.783 99.3432V99.7974H610.147V100.426H610.783V103.494H611.572ZM614.226 103.564C614.694 103.564 615.085 103.375 615.281 103.019H615.302V103.494H616.091V99.7974H615.302V101.754C615.302 102.46 615.008 102.928 614.414 102.928C613.974 102.928 613.702 102.655 613.702 102.089V99.7974H612.912V102.11C612.912 102.977 613.324 103.564 614.226 103.564ZM617.806 103.494V101.53C617.806 100.832 618.127 100.363 618.721 100.363C619.175 100.363 619.476 100.629 619.476 101.195V103.494H620.265V101.181C620.265 100.328 619.853 99.7275 618.937 99.7275C618.469 99.7275 618.029 99.9441 617.833 100.286H617.806V99.7974H617.016V103.494H617.806ZM622.51 103.564C622.985 103.564 623.391 103.368 623.621 103.033H623.642C623.642 103.228 623.677 103.41 623.719 103.494H624.544V103.459C624.474 103.312 624.432 103.081 624.432 102.767V98.3929H623.642C623.642 98.3929 623.642 99.6437 623.649 100.273H623.628C623.391 99.9162 622.964 99.7275 622.524 99.7275C621.525 99.7275 620.903 100.489 620.903 101.642C620.903 102.83 621.546 103.564 622.51 103.564ZM622.706 102.928C622.126 102.928 621.742 102.432 621.742 101.642C621.742 100.873 622.119 100.363 622.713 100.363C623.286 100.363 623.677 100.825 623.677 101.642C623.677 102.411 623.328 102.928 622.706 102.928ZM626.783 103.564C627.705 103.564 628.327 103.081 628.327 102.404C628.327 101.509 627.488 101.397 626.81 101.265C626.335 101.174 626.098 101.083 626.098 100.783C626.098 100.517 626.335 100.321 626.734 100.321C627.146 100.321 627.439 100.503 627.439 100.901H628.236C628.236 100.182 627.656 99.7275 626.734 99.7275C625.881 99.7275 625.308 100.21 625.308 100.859C625.308 101.46 625.665 101.726 626.426 101.894C627.181 102.054 627.488 102.068 627.488 102.474C627.488 102.753 627.237 102.956 626.783 102.956C626.3 102.956 625.972 102.704 625.972 102.236H625.175C625.175 103.033 625.818 103.564 626.783 103.564Z" fill="white"/>
<line x1="82" y1="84.5" x2="637" y2="84.5" stroke="#EAEEF9"/>
<defs>
<clipPath id="clip0_4074_44871">
<rect width="9.584" height="9.584" fill="white" transform="translate(543.353 140.193)"/>
</clipPath>
</defs>
</svg>
