<svg width="507" height="155" viewBox="0 0 507 155" fill="none" xmlns="http://www.w3.org/2000/svg">
<path d="M155.398 122.88L223.688 191.17C225.188 192.67 226.03 194.704 226.03 196.825C226.03 198.946 225.188 200.98 223.688 202.48L217.688 208.48C216.189 209.98 215.347 212.014 215.347 214.135C215.347 216.256 216.189 218.29 217.688 219.79L236.348 238.48" stroke="#627490" stroke-width="2" stroke-miterlimit="10"/>
<path d="M188.998 191.14L120.708 122.85C119.964 122.107 119.374 121.225 118.972 120.254C118.569 119.282 118.362 118.241 118.362 117.19C118.362 116.139 118.569 115.098 118.972 114.127C119.374 113.155 119.964 112.273 120.708 111.53L126.708 105.53C127.452 104.787 128.042 103.905 128.445 102.934C128.847 101.962 129.054 100.921 129.054 99.8701C129.054 98.8187 128.847 97.7777 128.445 96.8065C128.042 95.8354 127.452 94.9531 126.708 94.2101L108.078 75.5801" stroke="#627490" stroke-width="2" stroke-miterlimit="10"/>
<path d="M22.7891 -9.73047L91.0791 58.5595C92.5782 60.0597 93.4204 62.0937 93.4204 64.2145C93.4204 66.3354 92.5782 68.3694 91.0791 69.8695L85.0791 75.8695C83.5799 77.3697 82.7378 79.4037 82.7378 81.5245C82.7378 83.6454 83.5799 85.6794 85.0791 87.1795L103.729 105.83" stroke="#627490" stroke-width="2" stroke-miterlimit="10"/>
<path d="M56.4187 58.5305L-11.8713 -9.75953C-13.3704 -11.2597 -14.2125 -13.2937 -14.2125 -15.4145C-14.2125 -17.5354 -13.3704 -19.5694 -11.8713 -21.0695L-5.87125 -27.0695C-4.37209 -28.5697 -3.52995 -30.6037 -3.52995 -32.7245C-3.52995 -34.8454 -4.37209 -36.8794 -5.87125 -38.3795L-24.5312 -57.0195" stroke="#627490" stroke-width="2" stroke-miterlimit="10"/>
<path d="M43.8203 149.66L112.11 217.95C113.609 219.45 114.452 221.484 114.452 223.605C114.452 225.726 113.609 227.76 112.11 229.26L106.11 235.26C104.611 236.76 103.769 238.794 103.769 240.915C103.769 243.036 104.611 245.07 106.11 246.57L124.76 265.22" stroke="#627490" stroke-width="2" stroke-miterlimit="10"/>
<path d="M77.4613 217.919L9.17125 149.629C7.67209 148.129 6.82996 146.095 6.82996 143.974C6.82996 141.854 7.67209 139.82 9.17125 138.319L15.1712 132.319C15.9151 131.576 16.5051 130.694 16.9077 129.723C17.3103 128.752 17.5175 127.711 17.5175 126.659C17.5175 125.608 17.3103 124.567 16.9077 123.596C16.5051 122.625 15.9151 121.742 15.1712 120.999L-3.46875 102.359" stroke="#627490" stroke-width="2" stroke-miterlimit="10"/>
<path d="M42.8719 252.479L-25.4181 184.189C-26.1619 183.446 -26.752 182.564 -27.1546 181.593C-27.5572 180.622 -27.7644 179.581 -27.7644 178.529C-27.7644 177.478 -27.5572 176.437 -27.1546 175.466C-26.752 174.495 -26.1619 173.612 -25.4181 172.869L-19.4181 166.869C-18.6743 166.126 -18.0842 165.244 -17.6816 164.273C-17.2791 163.302 -17.0718 162.261 -17.0718 161.209C-17.0718 160.158 -17.2791 159.117 -17.6816 158.146C-18.0842 157.175 -18.6743 156.292 -19.4181 155.549L-38.0781 136.949" stroke="#627490" stroke-width="2" stroke-miterlimit="10"/>
<path d="M67.6094 104.75L135.899 173.04C137.399 174.54 138.241 176.574 138.241 178.695C138.241 180.816 137.399 182.85 135.899 184.35L129.899 190.35C128.4 191.85 127.558 193.884 127.558 196.005C127.558 198.126 128.4 200.16 129.899 201.66L148.549 220.31" stroke="#627490" stroke-width="2" stroke-miterlimit="10"/>
<path d="M101.251 173.01L33.0008 104.72C31.5016 103.22 30.6595 101.186 30.6595 99.0655C30.6595 96.9447 31.5016 94.9106 33.0008 93.4105L39.0008 87.4105C40.4999 85.9103 41.3421 83.8763 41.3421 81.7555C41.3421 79.6346 40.4999 77.6006 39.0008 76.1005L20.3008 57.4805" stroke="#627490" stroke-width="2" stroke-miterlimit="10"/>
<path d="M-65.6094 -28.4707L2.68062 39.8193C4.17978 41.3194 5.02191 43.3535 5.02191 45.4743C5.02191 47.5951 4.17978 49.6292 2.68062 51.1293L-3.31938 57.1293C-4.81854 58.6294 -5.66066 60.6635 -5.66066 62.7843C-5.66066 64.9051 -4.81854 66.9392 -3.31938 68.4393L15.3306 87.0893" stroke="#627490" stroke-width="2" stroke-miterlimit="10"/>
<path d="M327.51 260.41L259.22 192.12C257.721 190.619 256.879 188.585 256.879 186.465C256.879 184.344 257.721 182.31 259.22 180.81L265.22 174.81C266.719 173.309 267.562 171.275 267.562 169.155C267.562 167.034 266.719 165 265.22 163.5L246.57 144.85" stroke="#627490" stroke-width="2" stroke-miterlimit="10"/>
<path d="M162.121 60.4805L230.411 128.77C231.91 130.271 232.752 132.305 232.752 134.425C232.752 136.546 231.91 138.58 230.411 140.08L224.411 146.08C222.912 147.581 222.07 149.615 222.07 151.735C222.07 153.856 222.912 155.89 224.411 157.39L243.061 176.04" stroke="#627490" stroke-width="2" stroke-miterlimit="10"/>
<path d="M195.761 128.7L127.471 60.4104C125.972 58.9102 125.13 56.8762 125.13 54.7554C125.13 52.6346 125.972 50.6005 127.471 49.1004L133.471 43.1004C134.97 41.6003 135.812 39.5662 135.812 37.4454C135.812 35.3246 134.97 33.2905 133.471 31.7904L114.801 13.1504" stroke="#627490" stroke-width="2" stroke-miterlimit="10"/>
<path d="M29.3906 -72.29L97.6806 -4.00005C99.1798 -2.49991 100.022 -0.465863 100.022 1.65496C100.022 3.77578 99.1798 5.80982 97.6806 7.30996L91.6806 13.31C90.1815 14.8101 89.3393 16.8441 89.3393 18.965C89.3393 21.0858 90.1815 23.1198 91.6806 24.62L110.331 43.27" stroke="#627490" stroke-width="2" stroke-miterlimit="10"/>
<path d="M268.379 97.0703L336.669 165.36C338.168 166.86 339.01 168.894 339.01 171.015C339.01 173.136 338.168 175.17 336.669 176.67L330.669 182.67C329.17 184.17 328.328 186.204 328.328 188.325C328.328 190.446 329.17 192.48 330.669 193.98L349.319 212.63" stroke="#627490" stroke-width="2" stroke-miterlimit="10"/>
<path d="M301.999 165.329L233.709 97.0393C232.209 95.5392 231.367 93.5051 231.367 91.3843C231.367 89.2635 232.209 87.2294 233.709 85.7293L239.709 79.7293C241.208 78.2292 242.05 76.1951 242.05 74.0743C242.05 71.9535 241.208 69.9194 239.709 68.4193L221.059 49.7793" stroke="#627490" stroke-width="2" stroke-miterlimit="10"/>
<path d="M291.738 51.2305L359.998 119.48C361.497 120.981 362.34 123.015 362.34 125.135C362.34 127.256 361.497 129.29 359.998 130.79L353.998 136.79C352.499 138.291 351.657 140.325 351.657 142.445C351.657 144.566 352.499 146.6 353.998 148.1L372.648 166.75" stroke="#627490" stroke-width="2" stroke-miterlimit="10"/>
<path d="M325.372 119.479L257.082 51.1895C255.583 49.6893 254.741 47.6553 254.741 45.5345C254.741 43.4136 255.583 41.3796 257.082 39.8795L263.082 33.8795C264.581 32.3793 265.423 30.3453 265.423 28.2245C265.423 26.1036 264.581 24.0696 263.082 22.5695L244.422 3.93945" stroke="#627490" stroke-width="2" stroke-miterlimit="10"/>
<path d="M158.52 -81.9902L226.81 -13.7002C227.553 -12.9572 228.143 -12.0749 228.546 -11.1038C228.949 -10.1326 229.156 -9.09155 229.156 -8.04023C229.156 -6.98891 228.949 -5.94789 228.546 -4.97671C228.143 -4.00552 227.553 -3.12322 226.81 -2.38023L220.81 3.61977C220.066 4.36275 219.476 5.24506 219.073 6.21625C218.67 7.18743 218.463 8.22845 218.463 9.27977C218.463 10.3311 218.67 11.3721 219.073 12.3433C219.476 13.3145 220.066 14.1968 220.81 14.9398L239.45 33.5798" stroke="#627490" stroke-width="2" stroke-miterlimit="10"/>
<path d="M458.678 252.799L390.388 184.479C389.644 183.736 389.054 182.854 388.652 181.883C388.249 180.912 388.042 179.871 388.042 178.819C388.042 177.768 388.249 176.727 388.652 175.756C389.054 174.785 389.644 173.902 390.388 173.159L396.388 167.159C397.132 166.416 397.722 165.534 398.125 164.563C398.527 163.592 398.735 162.551 398.735 161.499C398.735 160.448 398.527 159.407 398.125 158.436C397.722 157.465 397.132 156.582 396.388 155.839L377.738 137.189" stroke="#627490" stroke-width="2" stroke-miterlimit="10"/>
<path d="M134.859 -36.4502L203.149 31.8398C204.649 33.3399 205.491 35.374 205.491 37.4948C205.491 39.6156 204.649 41.6497 203.149 43.1498L197.149 49.1498C195.65 50.6499 194.808 52.684 194.808 54.8048C194.808 56.9256 195.65 58.9597 197.149 60.4598L215.799 79.1098" stroke="#627490" stroke-width="2" stroke-miterlimit="10"/>
<path d="M168.489 31.8098L100.199 -36.5202C98.6999 -38.0204 97.8578 -40.0544 97.8578 -42.1752C97.8578 -44.2961 98.6999 -46.3301 100.199 -47.8302L106.199 -53.8302C107.698 -55.3304 108.54 -57.3644 108.54 -59.4852C108.54 -61.6061 107.698 -63.6401 106.199 -65.1402L87.5391 -83.7402" stroke="#627490" stroke-width="2" stroke-miterlimit="10"/>
</svg>
