<svg width="253" height="56" viewBox="0 0 253 56" fill="none" xmlns="http://www.w3.org/2000/svg">
<g clip-path="url(#clip0_3936_40279)">
<path d="M324.998 96.6596L256.708 28.3696C255.964 27.6266 255.374 26.7443 254.972 25.7731C254.569 24.8019 254.362 23.7609 254.362 22.7096C254.362 21.6583 254.569 20.6173 254.972 19.6461C255.374 18.6749 255.964 17.7926 256.708 17.0496L262.708 11.0496C263.452 10.3066 264.042 9.42431 264.445 8.45312C264.847 7.48194 265.054 6.44093 265.054 5.3896C265.054 4.33828 264.847 3.29726 264.445 2.32608C264.042 1.3549 263.452 0.472584 262.708 -0.270401L244.078 -18.9004" stroke="#2AAD86" stroke-width="2" stroke-miterlimit="10"/>
<path d="M158.789 -104.211L227.079 -35.9209C228.578 -34.4208 229.42 -32.3868 229.42 -30.2659C229.42 -28.1451 228.578 -26.1111 227.079 -24.6109L221.079 -18.6109C219.58 -17.1108 218.738 -15.0768 218.738 -12.9559C218.738 -10.8351 219.58 -8.80108 221.079 -7.30094L239.729 11.3491" stroke="#2AAD86" stroke-width="2" stroke-miterlimit="10"/>
<path d="M179.82 55.1797L248.11 123.47C249.609 124.97 250.452 127.004 250.452 129.125C250.452 131.246 249.609 133.28 248.11 134.78L242.11 140.78C240.611 142.28 239.769 144.314 239.769 146.435C239.769 148.556 240.611 150.59 242.11 152.09L260.76 170.74" stroke="#2AAD86" stroke-width="2" stroke-miterlimit="10"/>
<path d="M213.461 123.441L145.171 55.1508C143.672 53.6507 142.83 51.6167 142.83 49.4958C142.83 47.375 143.672 45.341 145.171 43.8409L151.171 37.8409C151.915 37.0979 152.505 36.2156 152.908 35.2444C153.31 34.2732 153.518 33.2322 153.518 32.1808C153.518 31.1295 153.31 30.0885 152.908 29.1173C152.505 28.1461 151.915 27.2638 151.171 26.5209L132.531 7.88086" stroke="#2AAD86" stroke-width="2" stroke-miterlimit="10"/>
<path d="M47.3281 -77.3203L115.618 -9.00031C116.362 -8.25733 116.952 -7.37502 117.355 -6.40383C117.757 -5.43265 117.964 -4.39163 117.964 -3.34031C117.964 -2.28899 117.757 -1.24797 117.355 -0.276787C116.952 0.694398 116.362 1.57671 115.618 2.31969L109.618 8.31969C108.874 9.06268 108.284 9.94498 107.882 10.9162C107.479 11.8873 107.272 12.9284 107.272 13.9797C107.272 15.031 107.479 16.072 107.882 17.0432C108.284 18.0144 108.874 18.8967 109.618 19.6397L128.268 38.2897" stroke="#2AAD86" stroke-width="2" stroke-miterlimit="10"/>
<path d="M178.872 158.001L110.582 89.7107C109.838 88.9677 109.248 88.0854 108.845 87.1142C108.443 86.143 108.236 85.102 108.236 84.0507C108.236 82.9994 108.443 81.9584 108.845 80.9872C109.248 80.016 109.838 79.1337 110.582 78.3907L116.582 72.3907C117.326 71.6477 117.916 70.7654 118.318 69.7942C118.721 68.823 118.928 67.782 118.928 66.7307C118.928 65.6794 118.721 64.6384 118.318 63.6672C117.916 62.696 117.326 61.8137 116.582 61.0707L97.9219 42.4707" stroke="#2AAD86" stroke-width="2" stroke-miterlimit="10"/>
<path d="M203.609 10.2695L271.899 78.5595C273.399 80.0597 274.241 82.0937 274.241 84.2145C274.241 86.3353 273.399 88.3694 271.899 89.8695L265.899 95.8695C264.4 97.3697 263.558 99.4037 263.558 101.525C263.558 103.645 264.4 105.679 265.899 107.18L284.549 125.83" stroke="#2AAD86" stroke-width="2" stroke-miterlimit="10"/>
<path d="M237.251 78.53L169.001 10.24C167.502 8.73987 166.659 6.70583 166.659 4.58501C166.659 2.46418 167.502 0.430133 169.001 -1.07001L175.001 -7.07001C176.5 -8.57015 177.342 -10.6042 177.342 -12.725C177.342 -14.8458 176.5 -16.8799 175.001 -18.38L156.301 -37" stroke="#2AAD86" stroke-width="2" stroke-miterlimit="10"/>
<path d="M331.761 34.2199L263.471 -34.0701C261.972 -35.5702 261.13 -37.6043 261.13 -39.7251C261.13 -41.8459 261.972 -43.8799 263.471 -45.3801L269.471 -51.3801C270.97 -52.8802 271.812 -54.9143 271.812 -57.0351C271.812 -59.1559 270.97 -61.1899 269.471 -62.6901L250.801 -81.3301" stroke="#2AAD86" stroke-width="2" stroke-miterlimit="10"/>
</g>
<defs>
<clipPath id="clip0_3936_40279">
<rect width="583" height="393" fill="white" transform="translate(0 -168)"/>
</clipPath>
</defs>
</svg>
