<svg width="253" height="56" viewBox="0 0 253 56" fill="none" xmlns="http://www.w3.org/2000/svg">
<g clip-path="url(#clip0_3936_40233)">
<path d="M-71.9981 96.6596L-3.70811 28.3696C-2.9643 27.6266 -2.37424 26.7443 -1.97165 25.7731C-1.56905 24.8019 -1.36183 23.7609 -1.36183 22.7096C-1.36183 21.6583 -1.56905 20.6173 -1.97165 19.6461C-2.37424 18.6749 -2.9643 17.7926 -3.70811 17.0496L-9.70811 11.0496C-10.4519 10.3066 -11.042 9.42431 -11.4446 8.45312C-11.8472 7.48194 -12.0544 6.44093 -12.0544 5.3896C-12.0544 4.33828 -11.8472 3.29726 -11.4446 2.32608C-11.042 1.3549 -10.4519 0.472584 -9.70811 -0.270401L8.92188 -18.9004" stroke="#2AAD86" stroke-width="2" stroke-miterlimit="10"/>
<path d="M94.2109 -104.211L25.9209 -35.9209C24.4218 -34.4208 23.5796 -32.3868 23.5796 -30.2659C23.5796 -28.1451 24.4218 -26.1111 25.9209 -24.6109L31.9209 -18.6109C33.4201 -17.1108 34.2622 -15.0768 34.2622 -12.9559C34.2622 -10.8351 33.4201 -8.80108 31.9209 -7.30094L13.2709 11.3491" stroke="#2AAD86" stroke-width="2" stroke-miterlimit="10"/>
<path d="M73.1797 55.1797L4.88969 123.47C3.39054 124.97 2.5484 127.004 2.5484 129.125C2.5484 131.246 3.39054 133.28 4.88969 134.78L10.8897 140.78C12.3889 142.28 13.231 144.314 13.231 146.435C13.231 148.556 12.3889 150.59 10.8897 152.09L-7.76031 170.74" stroke="#2AAD86" stroke-width="2" stroke-miterlimit="10"/>
<path d="M39.5387 123.441L107.829 55.1508C109.328 53.6507 110.17 51.6167 110.17 49.4958C110.17 47.375 109.328 45.341 107.829 43.8409L101.829 37.8409C101.085 37.0979 100.495 36.2156 100.092 35.2444C99.6897 34.2732 99.4825 33.2322 99.4825 32.1808C99.4825 31.1295 99.6897 30.0885 100.092 29.1173C100.495 28.1461 101.085 27.2638 101.829 26.5209L120.469 7.88086" stroke="#2AAD86" stroke-width="2" stroke-miterlimit="10"/>
<path d="M205.672 -77.3203L137.382 -9.00031C136.638 -8.25733 136.048 -7.37502 135.645 -6.40383C135.243 -5.43265 135.036 -4.39163 135.036 -3.34031C135.036 -2.28899 135.243 -1.24797 135.645 -0.276787C136.048 0.694398 136.638 1.57671 137.382 2.31969L143.382 8.31969C144.126 9.06268 144.716 9.94498 145.118 10.9162C145.521 11.8873 145.728 12.9284 145.728 13.9797C145.728 15.031 145.521 16.072 145.118 17.0432C144.716 18.0144 144.126 18.8967 143.382 19.6397L124.732 38.2897" stroke="#2AAD86" stroke-width="2" stroke-miterlimit="10"/>
<path d="M74.1281 158.001L142.418 89.7107C143.162 88.9677 143.752 88.0854 144.155 87.1142C144.557 86.143 144.764 85.102 144.764 84.0507C144.764 82.9994 144.557 81.9584 144.155 80.9872C143.752 80.016 143.162 79.1337 142.418 78.3907L136.418 72.3907C135.674 71.6477 135.084 70.7654 134.682 69.7942C134.279 68.823 134.072 67.782 134.072 66.7307C134.072 65.6794 134.279 64.6384 134.682 63.6672C135.084 62.696 135.674 61.8137 136.418 61.0707L155.078 42.4707" stroke="#2AAD86" stroke-width="2" stroke-miterlimit="10"/>
<path d="M49.3906 10.2695L-18.8994 78.5595C-20.3985 80.0597 -21.2407 82.0937 -21.2407 84.2145C-21.2407 86.3353 -20.3985 88.3694 -18.8994 89.8695L-12.8994 95.8695C-11.4002 97.3697 -10.5581 99.4037 -10.5581 101.525C-10.5581 103.645 -11.4002 105.679 -12.8994 107.18L-31.5494 125.83" stroke="#2AAD86" stroke-width="2" stroke-miterlimit="10"/>
<path d="M15.7492 78.53L83.9992 10.24C85.4984 8.73987 86.3405 6.70583 86.3405 4.58501C86.3405 2.46418 85.4984 0.430133 83.9992 -1.07001L77.9992 -7.07001C76.5001 -8.57015 75.6579 -10.6042 75.6579 -12.725C75.6579 -14.8458 76.5001 -16.8799 77.9992 -18.38L96.6992 -37" stroke="#2AAD86" stroke-width="2" stroke-miterlimit="10"/>
<path d="M-78.7608 34.2199L-10.4708 -34.0701C-8.97162 -35.5702 -8.1295 -37.6043 -8.1295 -39.7251C-8.1295 -41.8459 -8.97162 -43.8799 -10.4708 -45.3801L-16.4708 -51.3801C-17.9699 -52.8802 -18.8121 -54.9143 -18.8121 -57.0351C-18.8121 -59.1559 -17.9699 -61.1899 -16.4708 -62.6901L2.19922 -81.3301" stroke="#2AAD86" stroke-width="2" stroke-miterlimit="10"/>
</g>
<defs>
<clipPath id="clip0_3936_40233">
<rect width="583" height="393" fill="white" transform="matrix(-1 0 0 1 253 -168)"/>
</clipPath>
</defs>
</svg>
